<?xml version="1.0" encoding="UTF-8" standalone="no"?>
<svg width="38px" height="32px" viewBox="0 0 38 32" version="1.1" xmlns="http://www.w3.org/2000/svg" xmlns:xlink="http://www.w3.org/1999/xlink" xmlns:sketch="http://www.bohemiancoding.com/sketch/ns">
    <!-- Generator: Sketch 3.1.1 (8761) - http://www.bohemiancoding.com/sketch -->
    <title>c-mail</title>
    <desc>Created with Sketch.</desc>
    <defs></defs>
    <g id="Page-1" stroke="none" stroke-width="1" fill="none" fill-rule="evenodd" sketch:type="MSPage">
        <g id="Desktop-HD" sketch:type="MSArtboardGroup" transform="translate(-135.000000, -678.000000)" fill="#E61120">
            <path d="M135.884133,690.587785 L170.424133,678.078785 C171.110133,677.830785 171.880133,678.187785 172.128133,678.875785 C172.251133,679.204785 172.224133,679.548785 172.101133,679.849785 L161.136133,708.276785 C160.875133,708.956785 160.092133,709.299785 159.405133,709.032785 C159.295133,708.984785 159.186133,708.928785 159.089133,708.853785 C145.295133,699.517785 151.546133,703.742785 135.581133,692.943785 C134.978133,692.531785 134.811133,691.700785 135.238133,691.095785 C135.390133,690.855785 135.623133,690.683785 135.884133,690.587785 L135.884133,690.587785 Z M147.987133,698.130785 L147.987133,698.130785 L166.509133,682.330785 L139.236133,692.201785 L147.987133,698.130785 L147.987133,698.130785 Z M167.965133,683.188785 L167.965133,683.188785 L149.362133,699.057785 L159.254133,705.755785 L167.965133,683.188785 L167.965133,683.188785 Z" id="c-mail" sketch:type="MSShapeGroup"></path>
        </g>
    </g>
</svg>