<?xml version="1.0" encoding="UTF-8" standalone="no"?>
<svg width="35px" height="35px" viewBox="0 0 35 35" version="1.1" xmlns="http://www.w3.org/2000/svg" xmlns:xlink="http://www.w3.org/1999/xlink" xmlns:sketch="http://www.bohemiancoding.com/sketch/ns">
    <!-- Generator: Sketch 3.1.1 (8761) - http://www.bohemiancoding.com/sketch -->
    <title>c-phone</title>
    <desc>Created with Sketch.</desc>
    <defs></defs>
    <g id="Page-1" stroke="none" stroke-width="1" fill="none" fill-rule="evenodd" sketch:type="MSPage">
        <g id="Desktop-HD" sketch:type="MSArtboardGroup" transform="translate(-143.000000, -620.000000)" fill="#E61120">
            <path d="M150.960264,621.261685 C152.664264,623.452685 154.367264,625.650685 156.085264,627.849685 C156.112264,627.883685 156.126264,627.910685 156.153264,627.945685 C156.387264,628.275685 156.565264,628.632685 156.662264,629.009685 C156.772264,629.421685 156.799264,629.861685 156.730264,630.308685 C156.675264,630.754685 156.524264,631.166685 156.304264,631.537685 C156.291264,631.558685 156.277264,631.585685 156.250264,631.612685 C156.044264,631.950685 155.755264,632.245685 155.425264,632.486685 C155.397264,632.513685 155.370264,632.527685 155.342264,632.540685 C154.504264,633.145685 153.680264,633.749685 152.856264,634.361685 C152.705264,634.718685 152.512264,635.508685 153.186264,636.490685 C154.299264,638.064685 155.507264,639.527685 156.854264,640.866685 L156.854264,640.873685 L156.868264,640.866685 C158.214264,642.220685 159.684264,643.443685 161.237264,644.534685 C162.212264,645.214685 163.009264,645.029685 163.366264,644.871685 C163.985264,644.013685 164.617264,643.160685 165.235264,642.302685 C165.496264,641.938685 165.826264,641.650685 166.197264,641.423685 L166.197264,641.415685 C166.553264,641.196685 166.965264,641.059685 167.420264,640.989685 C167.433264,640.989685 167.447264,640.983685 167.474264,640.983685 C167.900264,640.935685 168.326264,640.955685 168.724264,641.066685 C168.738264,641.073685 168.766264,641.079685 168.794264,641.086685 C169.178264,641.196685 169.535264,641.388685 169.878264,641.650685 L169.878264,641.642685 C172.077264,643.353685 174.275264,645.057685 176.473264,646.760685 C176.501264,646.794685 176.542264,646.821685 176.569264,646.850685 C176.913264,647.131685 177.174264,647.468685 177.366264,647.839685 C177.587264,648.251685 177.696264,648.711685 177.723264,649.193685 C177.751264,649.680685 177.669264,650.140685 177.490264,650.572685 C177.311264,651.005685 177.050264,651.398685 176.693264,651.727685 C176.267264,652.118685 175.745264,652.537685 175.113264,652.915685 C175.086264,652.929685 175.058264,652.943685 175.031264,652.956685 C174.426264,653.314685 173.712264,653.644685 172.887264,653.925685 C169.260264,655.127685 165.385264,654.908685 161.676264,653.678685 C157.747264,652.365685 153.983264,649.920685 150.891264,646.829685 C147.799264,643.744685 145.354264,639.980685 144.049264,636.044685 C142.813264,632.341685 142.592264,628.466685 143.801264,624.847685 C144.090264,623.974685 144.448264,623.245685 144.819264,622.620685 L144.819264,622.614685 C145.190264,621.982685 145.602264,621.460685 146.001264,621.033685 C146.330264,620.677685 146.714264,620.408685 147.154264,620.237685 C147.196264,620.223685 147.223264,620.209685 147.264264,620.196685 C147.663264,620.044685 148.088264,619.983685 148.528264,620.003685 C149.710264,620.058685 150.163264,620.450685 150.960264,621.261685 L150.960264,621.261685 Z M153.983264,629.484685 L153.983264,629.484685 C152.265264,627.292685 150.561264,625.094685 148.858264,622.896685 C148.817264,622.826685 148.761264,622.779685 148.707264,622.744685 C148.679264,622.737685 148.679264,622.731685 148.666264,622.724685 C148.596264,622.689685 148.514264,622.661685 148.419264,622.661685 C148.336264,622.661685 148.253264,622.669685 148.198264,622.689685 C148.184264,622.696685 148.170264,622.696685 148.157264,622.703685 C148.088264,622.731685 148.006264,622.785685 147.951264,622.855685 C147.663264,623.150685 147.374264,623.528685 147.099264,623.994685 C146.811264,624.468685 146.549264,625.025685 146.330264,625.677685 C145.313264,628.721685 145.519264,632.018685 146.577264,635.212685 C147.745264,638.730685 149.970264,642.123685 152.788264,644.940685 C155.604264,647.763685 158.997264,649.982685 162.514264,651.150685 C165.702264,652.214685 169.000264,652.413685 172.049264,651.398685 C172.681264,651.191685 173.217264,650.937685 173.684264,650.662685 C173.698264,650.649685 173.712264,650.642685 173.739264,650.628685 C174.193264,650.346685 174.578264,650.058685 174.866264,649.776685 C174.948264,649.714685 174.990264,649.646685 175.017264,649.570685 L175.031264,649.563685 C175.058264,649.494685 175.072264,649.411685 175.058264,649.309685 C175.058264,649.220685 175.031264,649.130685 175.003264,649.062685 L175.003264,649.055685 C174.976264,649.007685 174.934264,648.951685 174.880264,648.904685 C174.866264,648.890685 174.852264,648.876685 174.825264,648.869685 C172.640264,647.158685 170.442264,645.455685 168.244264,643.751685 L168.244264,643.744685 C168.188264,643.703685 168.120264,643.669685 168.065264,643.649685 C168.051264,643.649685 168.038264,643.642685 168.038264,643.642685 C167.969264,643.620685 167.886264,643.620685 167.818264,643.628685 L167.790264,643.628685 C167.708264,643.642685 167.626264,643.669685 167.571264,643.703685 C167.515264,643.737685 167.447264,643.792685 167.406264,643.868685 L167.392264,643.868685 C166.718264,644.788685 166.045264,645.709685 165.372264,646.630685 C165.262264,646.794685 165.125264,646.939685 164.946264,647.042685 C164.932264,647.049685 162.583264,648.718685 159.712264,646.712685 C157.995264,645.510685 156.415264,644.191685 154.971264,642.755685 L154.971264,642.748685 C153.529264,641.306685 152.210264,639.726685 151.014264,638.015685 C149.008264,635.144685 150.685264,632.787685 150.685264,632.787685 L150.685264,632.780685 C150.767264,632.636685 150.891264,632.499685 151.043264,632.389685 C151.949264,631.730685 152.856264,631.064685 153.762264,630.404685 C153.790264,630.376685 153.832264,630.349685 153.859264,630.328685 C153.914264,630.287685 153.968264,630.240685 153.997264,630.198685 C154.010264,630.177685 154.024264,630.163685 154.024264,630.156685 C154.051264,630.095685 154.092264,630.019685 154.092264,629.930685 C154.106264,629.847685 154.106264,629.765685 154.092264,629.696685 C154.079264,629.642685 154.051264,629.586685 154.024264,629.531685 C153.997264,629.518685 153.983264,629.504685 153.983264,629.484685 L153.983264,629.484685 Z" id="c-phone" sketch:type="MSShapeGroup"></path>
        </g>
    </g>
</svg>