<?xml version="1.0" encoding="UTF-8" standalone="no"?>
<svg width="29px" height="33px" viewBox="0 0 29 33" version="1.1" xmlns="http://www.w3.org/2000/svg" xmlns:xlink="http://www.w3.org/1999/xlink" xmlns:sketch="http://www.bohemiancoding.com/sketch/ns">
    <!-- Generator: Sketch 3.1.1 (8761) - http://www.bohemiancoding.com/sketch -->
    <title>c-pin</title>
    <desc>Created with Sketch.</desc>
    <defs></defs>
    <g id="Page-1" stroke="none" stroke-width="1" fill="none" fill-rule="evenodd" sketch:type="MSPage">
        <g id="Desktop-HD" sketch:type="MSArtboardGroup" transform="translate(-140.000000, -756.000000)" fill="#E61120">
            <path d="M164.16013,760.141098 C161.590408,757.58561 158.051602,756 154.142241,756 C150.23288,756 146.694075,757.58561 144.129991,760.141098 C139.334519,764.932537 138.64013,772.559561 142.440741,778.122073 C143.996269,780.38378 146.176908,782.173829 148.75388,783.231439 L153.243241,787.819244 L153.255325,787.832122 L153.281908,787.845 C153.766047,788.329537 154.543408,788.315854 155.028352,787.832122 L159.531408,783.231439 C162.106769,782.173829 164.294658,780.38378 165.843741,778.122073 C169.644352,772.559561 168.942714,764.932537 164.16013,760.141098 L164.16013,760.141098 Z M163.796019,776.732049 L163.796019,776.732049 C162.476519,778.656512 160.601991,780.173707 158.382686,781.033317 C158.217547,781.103341 158.076575,781.199122 157.949297,781.320659 L154.142241,785.200976 L150.335186,781.320659 C150.195019,781.173366 150.029075,781.07839 149.856686,781.021244 C147.669602,780.160829 145.801519,778.650073 144.487658,776.732049 C141.350019,772.13861 141.936464,765.83722 145.883686,761.893317 C147.994241,759.784537 150.915186,758.47822 154.142241,758.47822 C157.369297,758.47822 160.289436,759.784537 162.407241,761.893317 C166.353658,765.83722 166.934464,772.13861 163.796019,776.732049 L163.796019,776.732049 Z M159.900352,764.365098 L159.900352,764.365098 C158.433436,762.90022 156.392964,761.981854 154.142241,761.981854 C151.890714,761.981854 149.856686,762.90022 148.38413,764.365098 C146.904325,765.83722 145.99888,767.875976 145.99888,770.12561 C145.99888,772.368805 146.904325,774.407561 148.38413,775.878878 C149.856686,777.350195 151.890714,778.262122 154.142241,778.262122 C156.392964,778.262122 158.433436,777.350195 159.900352,775.878878 C161.379352,774.407561 162.284797,772.368805 162.284797,770.12561 C162.284797,767.901732 161.392241,765.882293 159.938214,764.410171 L159.900352,764.365098 L159.900352,764.365098 Z M158.848297,774.826902 L158.848297,774.826902 C157.643186,776.031 155.978102,776.777122 154.142241,776.777122 C152.29913,776.777122 150.641297,776.038244 149.428936,774.826902 C148.230269,773.622805 147.478686,771.953488 147.478686,770.12561 C147.478686,768.290488 148.230269,766.621171 149.428936,765.423512 C150.641297,764.219415 152.305575,763.466854 154.142241,763.466854 C155.978102,763.466854 157.643186,764.219415 158.848297,765.423512 L158.892602,765.454902 C160.071936,766.659 160.805797,768.309805 160.805797,770.12561 C160.805797,771.953488 160.053408,773.622805 158.848297,774.826902 L158.848297,774.826902 Z" id="c-pin" sketch:type="MSShapeGroup"></path>
        </g>
    </g>
</svg>