<?xml version="1.0" encoding="UTF-8" standalone="no"?>
<svg width="7px" height="12px" viewBox="0 0 7 12" version="1.1" xmlns="http://www.w3.org/2000/svg" xmlns:xlink="http://www.w3.org/1999/xlink" xmlns:sketch="http://www.bohemiancoding.com/sketch/ns">
    <!-- Generator: Sketch 3.1.1 (8761) - http://www.bohemiancoding.com/sketch -->
    <title>chevron-right</title>
    <desc>Created with Sketch.</desc>
    <defs></defs>
    <g id="Page-1" stroke="none" stroke-width="1" fill="none" fill-rule="evenodd" sketch:type="MSPage">
        <g id="Desktop-HD" sketch:type="MSArtboardGroup" transform="translate(-530.000000, -96.000000)" fill="#283E50">
            <g id="chevron-right" sketch:type="MSLayerGroup" transform="translate(530.000000, 96.000000)">
                <path d="M2.163,0.516 C2.581,0.924 6.665,5.211 6.665,5.211 C6.888,5.43 7,5.715 7,6 C7,6.285 6.888,6.57 6.665,6.787 C6.665,6.787 2.581,11.076 2.163,11.482 C1.745,11.89 0.993,11.918 0.548,11.482 C0.102,11.048 0.067,10.441 0.548,9.908 L4.295,6 L0.548,2.092 C0.067,1.559 0.102,0.951 0.548,0.516 C0.993,0.08 1.745,0.107 2.163,0.516 L2.163,0.516 Z" id="Shape" sketch:type="MSShapeGroup"></path>
            </g>
        </g>
    </g>
</svg>