<?xml version="1.0" encoding="utf-8"?>
<!-- Generator: Adobe Illustrator 16.0.0, SVG Export Plug-In . SVG Version: 6.00 Build 0)  -->
<!DOCTYPE svg PUBLIC "-//W3C//DTD SVG 1.1//EN" "http://www.w3.org/Graphics/SVG/1.1/DTD/svg11.dtd">
<svg version="1.1" id="Layer_1" xmlns="http://www.w3.org/2000/svg" xmlns:xlink="http://www.w3.org/1999/xlink" x="0px" y="0px"
	 width="435px" height="397px" viewBox="0 0 435 397" style="enable-background:new 0 0 435 397;" xml:space="preserve">
<style type="text/css">
<![CDATA[
	.st0{fill:#E0B15E;}
	.st1{fill:#E0E0E0;}
	.st2{fill:none;stroke:#3A281C;stroke-width:2.0452;stroke-linecap:round;stroke-linejoin:round;stroke-miterlimit:10;}
	.st3{fill:#4C4C4D;}
	.st4{fill:#B17D4B;}
	.st5{fill:#EAD7D0;}
	.st6{fill:#B7B7B7;}
	.st7{fill:#EF6D2C;}
	.st8{fill:#574338;}
	.st9{opacity:0.62;fill:url(#SVGID_6_);stroke:#FFFFFF;stroke-width:0.9466;stroke-miterlimit:10;}
	.st10{fill:#F1E9DE;}
	.st11{fill:none;stroke:#A37F45;stroke-width:2.145;stroke-linecap:round;stroke-linejoin:round;stroke-miterlimit:10;}
	.st12{fill:#5E5F5E;}
	.st13{fill:url(#SVGID_1_);}
	.st14{fill:url(#SVGID_2_);}
	.st15{fill:url(#SVGID_3_);}
	.st16{fill:url(#SVGID_4_);}
	.st17{fill:url(#SVGID_5_);}
	.st18{fill:#C67D63;}
	.st19{fill:#FBBB8F;}
	.st20{fill:#FFD98D;}
	.st21{fill:#FFFFFF;}
	.st22{fill:#CCBAB4;}
	.st23{fill:#33302F;}
	.st24{fill:#3A281C;}
	.st25{fill:#A37F45;}
	.st26{fill:#A6604A;}
	.st27{fill:#DDB985;}
	.st28{fill:none;stroke:#E89D6B;stroke-width:2.0452;stroke-linecap:round;stroke-linejoin:round;stroke-miterlimit:10;}
]]>
</style>
<g>
	<g>
		<path class="st7" d="M326,217.7c0-27.8-22.5-50.4-50.4-50.4h-36.8c-27.8,0-50.4,22.6-50.4,50.4L178.6,346
			c0,27.8,22.5,20.4,50.4,20.4l56.5,0.8c27.8,0,50.4,6.6,50.4-21.2L326,217.7z"/>
		<path class="st19" d="M201.5,350c0.1,10.8-7.8,20.4-17.6,21.4l0,0c-9.8,1-17.8-6.9-17.9-17.7l0.6-118.6
			c-0.1-10.8,7.8-20.4,17.6-21.4l0,0c9.8-1,17.8,6.9,17.9,17.7L201.5,350z"/>
		<path class="st19" d="M379.7,289.5c8,7.3,20.4,7.8,27.7,1.2l0,0c7.3-6.6,6.8-17.9-1.2-25.1l-88.5-78.7c-8-7.3-20.4-7.8-27.7-1.2
			l0,0c-7.3,6.6-6.8,17.9,1.2,25.1L379.7,289.5z"/>
		<path class="st19" d="M377.7,277.1c-0.2,10.8,7.6,20.5,17.4,21.6l0,0c9.8,1.2,17.9-6.7,18.1-17.5l0.9-118.5
			c0.2-10.8-7.6-20.5-17.4-21.6l0,0c-9.8-1.1-17.9,6.7-18.1,17.5L377.7,277.1z"/>
		<path class="st19" d="M281.5,168.5c0,14.5-11.7,26.2-26.2,26.2l0,0c-14.5,0-26.2-11.7-26.2-26.2v-54c0-14.5,11.7-26.2,26.2-26.2
			l0,0c14.5,0,26.2,11.7,26.2,26.2V168.5z"/>
		<linearGradient id="SVGID_1_" gradientUnits="userSpaceOnUse" x1="255.2949" y1="158.6406" x2="255.2949" y2="184.8676">
			<stop  offset="0" style="stop-color:#CC7E49"/>
			<stop  offset="1" style="stop-color:#FBBB8F;stop-opacity:0"/>
		</linearGradient>
		<path class="st13" d="M281.5,168.5c0,14.5-11.7,26.2-26.2,26.2l0,0c-14.5,0-26.2-11.7-26.2-26.2v-54c0-14.5,11.7-26.2,26.2-26.2
			l0,0c14.5,0,26.2,11.7,26.2,26.2V168.5z"/>
		<g>
			<path class="st19" d="M315.9,87.9c0,8.6-7,15.6-15.5,15.6h-90.1c-8.6,0-15.5-7-15.5-15.6l0,0c0-8.6,7-15.6,15.5-15.6h90.1
				C308.9,72.4,315.9,79.4,315.9,87.9L315.9,87.9z"/>
			<path class="st19" d="M299.5,103.8V53.5c0-24.1-19.5-43.6-43.5-43.6c-24,0-43.5,19.5-43.5,43.6v48.8c-5.5,6-8.8,14-8.8,22.8
				c0,18.8,15.2,34,34,34H273c18.8,0,34-15.2,34-34C307,117.1,304.2,109.6,299.5,103.8z"/>
			<path class="st28" d="M267.2,70c0.9-3.3,3.9-5.8,7.5-5.8c3.5,0,6.5,2.4,7.4,5.6"/>
			<path class="st28" d="M228.4,70c0.9-3.3,3.9-5.8,7.5-5.8c3.5,0,6.5,2.4,7.4,5.6"/>
			<linearGradient id="SVGID_2_" gradientUnits="userSpaceOnUse" x1="255.2949" y1="296.3701" x2="255.2949" y2="17.7215">
				<stop  offset="0" style="stop-color:#CC7E49"/>
				<stop  offset="1" style="stop-color:#FBBB8F;stop-opacity:0"/>
			</linearGradient>
			<path class="st14" d="M307,125.1c0-8.1-2.8-15.5-7.5-21.3l-1.3-31.5l0.4-0.3l-3.9,0.1c0,0,0,30.1,0,47.8
				c0,17.7-5.7,30.7-15.5,30.7c-9.1,0-8.6-5.4-20.8-6.2v-0.1h-3h-0.2h-3v0.1c-12.2,0.8-11.7,6.2-20.8,6.2c-9.7,0-15.5-13-15.5-30.7
				c0-17.7,0-47.8,0-47.8l-3.7-0.1v30.2c-5.5,6-8.8,14-8.8,22.8c0,18.8,15.2,34,34,34H273C291.8,159.1,307,143.9,307,125.1z"/>
			<linearGradient id="SVGID_3_" gradientUnits="userSpaceOnUse" x1="255.2959" y1="103.8223" x2="255.2959" y2="61.587">
				<stop  offset="0" style="stop-color:#CC7E49"/>
				<stop  offset="1" style="stop-color:#FBBB8F;stop-opacity:0"/>
			</linearGradient>
			<path class="st15" d="M263.7,94.3h-1.5V62.2c0-4.8-3.1-8.7-6.9-8.7c-3.8,0-6.9,3.9-6.9,8.7v32.1h-1.5c-2.9,0-5.2,2.9-5.2,6.5
				c0,3.6,2.3,6.5,5.2,6.5h2.9c1.2,2.1,3.3,3.5,5.5,3.5s4.3-1.4,5.5-3.5h2.9c2.9,0,5.2-2.9,5.2-6.5
				C268.9,97.2,266.6,94.3,263.7,94.3z"/>
			<g>
				<path class="st12" d="M229.1,120.9c2.1,11.7,13,20.6,26.2,20.6c13.1,0,24.1-8.9,26.2-20.6H229.1z"/>
				<rect x="235.3" y="120.9" class="st21" width="39.9" height="8.2"/>
			</g>
			<ellipse class="st21" cx="274.7" cy="73.2" rx="7.7" ry="7.7"/>
			<g>
				<circle class="st8" cx="272.2" cy="72.9" r="4.4"/>
				<path class="st23" d="M274.2,72.9c0,1.1-0.9,2-2,2c-1.1,0-2-0.9-2-2c0-1.1,0.9-2,2-2C273.3,70.9,274.2,71.8,274.2,72.9z"/>
				<circle class="st21" cx="270.8" cy="70.9" r="1.4"/>
			</g>
			<ellipse class="st21" cx="235.9" cy="73.2" rx="7.7" ry="7.7"/>
			<g>
				<path class="st8" d="M237.9,72.9c0,2.4-2,4.4-4.4,4.4c-2.4,0-4.4-2-4.4-4.4c0-2.4,2-4.4,4.4-4.4
					C235.9,68.5,237.9,70.5,237.9,72.9z"/>
				<circle class="st23" cx="233.5" cy="72.9" r="2"/>
				<path class="st21" d="M233.5,70.9c0,0.8-0.6,1.4-1.4,1.4c-0.8,0-1.4-0.6-1.4-1.4c0-0.8,0.6-1.4,1.4-1.4
					C232.8,69.4,233.5,70.1,233.5,70.9z"/>
			</g>
			<path class="st2" d="M267,60.2c0,0,7.8-7.1,15.3,0.3"/>
			<path class="st2" d="M228.3,60.2c0,0,7.8-7.1,15.4,0.3"/>
			<path class="st24" d="M273.9,26.1c0,10.3-8.4,18.7-18.7,18.7l0,0c-10.3,0-18.7-8.4-18.7-18.7v-7.4C236.6,8.4,245,0,255.3,0l0,0
				c10.3,0,18.7,8.4,18.7,18.7V26.1z"/>
			<g>
				<path class="st24" d="M273.7,27.4c0,0,14.3-2,15.6,13.9c1.3,15.9,4.6,6.7,5,14.1c0.4,7.3-1.7,24.2,4.2,24.7v-8
					c0,0,5.6,0.9,5.6,0.9c0,0,13.5-67.1-34.8-67.1L273.7,27.4z"/>
				<path class="st24" d="M236.9,27.4c0,0-14.3-2-15.6,13.9c-1.3,15.9-4.6,6.7-5,14.1c-0.4,7.3,1.7,24.2-4.2,24.7v-8
					c0,0-5.6,0.9-5.6,0.9c0,0-13.5-67.1,34.8-67.1L236.9,27.4z"/>
			</g>
			<g>
				<path class="st28" d="M286,112.2c0,0,6,7.8,1.5,15.6"/>
				<path class="st28" d="M224.6,112.2c0,0-6,7.8-1.5,15.6"/>
			</g>
			<linearGradient id="SVGID_4_" gradientUnits="userSpaceOnUse" x1="266.7773" y1="152.8057" x2="266.7773" y2="94.3032">
				<stop  offset="0" style="stop-color:#CC7E49"/>
				<stop  offset="1" style="stop-color:#FBBB8F;stop-opacity:0"/>
			</linearGradient>
			<path class="st16" d="M276.3,117.1c-0.3,1.7-1.9,2.7-3.6,2.4l-13-2.6c-1.7-0.3-2.7-1.9-2.4-3.6l0,0c0.3-1.7,1.9-2.8,3.6-2.4
				l13,2.6C275.5,113.8,276.6,115.4,276.3,117.1L276.3,117.1z"/>
			<linearGradient id="SVGID_5_" gradientUnits="userSpaceOnUse" x1="243.8145" y1="152.8057" x2="243.8145" y2="94.3032">
				<stop  offset="0" style="stop-color:#CC7E49"/>
				<stop  offset="1" style="stop-color:#FBBB8F;stop-opacity:0"/>
			</linearGradient>
			<path class="st17" d="M234.3,117.1c0.3,1.7,1.9,2.7,3.6,2.4l13-2.6c1.7-0.3,2.7-1.9,2.4-3.6l0,0c-0.3-1.7-1.9-2.8-3.6-2.4
				l-13,2.6C235.1,113.8,234,115.4,234.3,117.1L234.3,117.1z"/>
		</g>
		<path class="st7" d="M209.7,177.4c0,0-50,24.5-50,72.5h50V177.4z"/>
		<g>
			<path class="st0" d="M423.9,162.6c0-13.3-12.4-24.1-27.7-24.1v50.3h27.7V162.6z"/>
			<path class="st20" d="M368.5,162.6v26.2h27.7v-50.3C380.9,138.5,368.5,149.3,368.5,162.6z"/>
			<path class="st25" d="M413.5,140.4c0,1.9-1.7,3.4-3.9,3.4h-26.1c-2.1,0-3.9-1.5-3.9-3.4l0,0c0-1.9,1.7-3.4,3.9-3.4h26.1
				C411.8,137.1,413.5,138.6,413.5,140.4L413.5,140.4z"/>
			<path class="st20" d="M396.5,60.2c0-2.3-2.5-4.2-5.6-4.2c-3.1,0-5.7,1.9-5.7,4.2v2.1c0-2.3-2.5-4.2-5.7-4.2
				c-3.1,0-5.7,1.9-5.7,4.2v32.2v4.1v21.7l-0.6,0.2c-0.3-0.6-0.8-1.1-1.5-1.6l-14.9-10c-2.3-1.5-5.5-1.1-7.3,0.8
				c-1.7,2-1.3,4.8,1,6.3l13.6,9.1l10.4,11.2c0.4,0.6,0.9,1.2,1.5,1.6l0.1,0.1l0,0c1,0.7,2.4,1.2,3.8,1.2h16.5V63.5V60.2z"/>
			<path class="st0" d="M413.5,71c-3.1,0-5.7,1.9-5.7,4.2V63.5c0-2.3-2.5-4.2-5.6-4.2c-3.1,0-5.7,1.9-5.7,4.2v75.7H413
				c3.4,0,6.1-2.4,6.1-5.3V98.6v-4.1V75.2C419.1,72.9,416.6,71,413.5,71z"/>
			<line class="st11" x1="385.2" y1="65.5" x2="385.2" y2="93.3"/>
			<line class="st11" x1="396.5" y1="65.5" x2="396.5" y2="93.3"/>
			<line class="st11" x1="407.8" y1="76.9" x2="407.8" y2="93.3"/>
			<path class="st11" d="M376.6,117.5c10-13.1,34.6-3.1,28.9,11.9"/>
			<line class="st11" x1="379.6" y1="93.3" x2="413.5" y2="93.3"/>
		</g>
		<path class="st7" d="M307,178.3c0,0,11.3-0.5,51.2,36.5l-42.4,43.4c0,0-44.1-31.1-39.3-60.4C281.5,168.5,307,178.3,307,178.3z"/>
		<path class="st10" d="M307.1,236h-5.5v-61.5c-4.6-2.7-9.6-4.8-14.9-6V236h-61.4v-66.8c-5.4,1.5-10.4,3.9-14.9,6.9V236h-5.5v133.7
			c7.2,3.9,15.4,0.4,24.1,0.4l56.5-0.4c7.8,0,15.1,1.5,21.7-1.6V236z"/>
		<g>
			<linearGradient id="SVGID_6_" gradientUnits="userSpaceOnUse" x1="219.1641" y1="105.707" x2="291.6927" y2="105.707">
				<stop  offset="0" style="stop-color:#FFFFFF"/>
				<stop  offset="0.5276" style="stop-color:#FFFFFF;stop-opacity:0"/>
				<stop  offset="1" style="stop-color:#FFFFFF"/>
			</linearGradient>
			<path class="st9" d="M210.2,47.7v71.9c0,24.3,20.6,44.1,46,44.1s46-19.7,46-44.1V47.7H210.2z"/>
			<rect x="203.6" y="40.5" class="st3" width="103.5" height="8.3"/>
		</g>
	</g>
	<rect x="51.2" y="349.9" class="st27" width="383.8" height="23.5"/>
	<rect x="51.2" y="373.5" class="st4" width="383.8" height="23.5"/>
	<g>
		<g>
			<g>
				<path class="st1" d="M298.9,265.6h-19.4l12.2-19.7H162.7v105.9H226l41.3-66.5h31.6c5.4,0,9.9-4.4,9.9-9.8
					C308.8,270,304.4,265.6,298.9,265.6z"/>
			</g>
			<g>
				<path class="st1" d="M298.9,265.6h-19.4l12.2-19.7H162.7v105.9H226l41.3-66.5h31.6c5.4,0,9.9-4.4,9.9-9.8
					C308.8,270,304.4,265.6,298.9,265.6z"/>
			</g>
		</g>
		<g>
			<path class="st1" d="M22.9,245.9l11.9,19.7H9.9c-5.4,0-9.9,4.4-9.9,9.8c0,5.4,4.4,9.8,9.9,9.8h36.9L87,351.7h65V245.9H22.9z"/>
			<path class="st6" d="M294,265.6h-25.2l12.2-19.7H152v105.9h63.3l41.3-66.5H294c5.4,0,9.9-4.4,9.9-9.8
				C303.9,270,299.5,265.6,294,265.6z"/>
		</g>
	</g>
	<g>
		<path class="st18" d="M300,325c-2.2,0-4,1.8-4,4l-3.2,39.6c0,2.2,1.8,4,4,4h10.2V325H300z"/>
		<path class="st18" d="M319.7,328.9c0-2.2-1.8-4-4-4h-7v47.6h10.2c2.2,0,4-1.8,4-4L319.7,328.9z"/>
		<path class="st26" d="M318.1,328.9c0-2.2-1.8-4-4-4h-7v47.6h10.2c2.2,0,4-1.8,4-4L318.1,328.9z"/>
		<path class="st1" d="M316.6,318.9h-7.9v11.6h7.9c3.2,0,5.8-2.6,5.8-5.8C322.4,321.5,319.8,318.9,316.6,318.9z"/>
		<path class="st6" d="M315,318.9h-7.9v11.6h7.9c3.2,0,5.8-2.6,5.8-5.8C320.8,321.5,318.2,318.9,315,318.9z"/>
		<path class="st1" d="M299.1,318.9c-3.2,0-5.8,2.6-5.8,5.8c0,3.2,2.6,5.8,5.8,5.8h7.9v-11.6H299.1z"/>
		<g>
			<path class="st3" d="M302,321c0,0.5-0.4,0.9-0.9,0.9l0,0c-0.5,0-0.9-0.4-0.9-0.9l0,0c0-0.5,0.4-0.9,0.9-0.9l0,0
				C301.6,320.1,302,320.5,302,321L302,321z"/>
			<path class="st3" d="M304.8,324.2c0,0.5-0.4,0.9-0.9,0.9l0,0c-0.5,0-0.9-0.4-0.9-0.9l0,0c0-0.5,0.4-0.9,0.9-0.9l0,0
				C304.4,323.3,304.8,323.7,304.8,324.2L304.8,324.2z"/>
			<path class="st3" d="M305.8,321c0,0.5-0.4,0.9-0.9,0.9l0,0c-0.5,0-0.9-0.4-0.9-0.9l0,0c0-0.5,0.4-0.9,0.9-0.9l0,0
				C305.4,320.1,305.8,320.5,305.8,321L305.8,321z"/>
			<path class="st3" d="M312.3,321c0,0.5,0.4,0.9,0.9,0.9l0,0c0.5,0,0.9-0.4,0.9-0.9l0,0c0-0.5-0.4-0.9-0.9-0.9l0,0
				C312.8,320.1,312.3,320.5,312.3,321L312.3,321z"/>
			<path class="st3" d="M309.5,324.2c0,0.5,0.4,0.9,0.9,0.9l0,0c0.5,0,0.9-0.4,0.9-0.9l0,0c0-0.5-0.4-0.9-0.9-0.9l0,0
				C309.9,323.3,309.5,323.7,309.5,324.2L309.5,324.2z"/>
			<path class="st3" d="M308.6,321c0,0.5,0.4,0.9,0.9,0.9l0,0c0.5,0,0.9-0.4,0.9-0.9l0,0c0-0.5-0.4-0.9-0.9-0.9l0,0
				C309,320.1,308.6,320.5,308.6,321L308.6,321z"/>
		</g>
	</g>
	<g>
		<path class="st5" d="M334.5,325c-2.2,0-4,1.8-4,4l-3.2,39.6c0,2.2,1.8,4,4,4h10.2V325H334.5z"/>
		<path class="st5" d="M354.1,328.9c0-2.2-1.8-4-4-4h-7v47.6h10.2c2.2,0,4-1.8,4-4L354.1,328.9z"/>
		<path class="st22" d="M352.6,328.9c0-2.2-1.8-4-4-4h-7v47.6h10.2c2.2,0,4-1.8,4-4L352.6,328.9z"/>
		<path class="st1" d="M351,318.9h-7.9v11.6h7.9c3.2,0,5.8-2.6,5.8-5.8C356.8,321.5,354.3,318.9,351,318.9z"/>
		<path class="st6" d="M349.5,318.9h-7.9v11.6h7.9c3.2,0,5.8-2.6,5.8-5.8C355.3,321.5,352.7,318.9,349.5,318.9z"/>
		<path class="st1" d="M333.6,318.9c-3.2,0-5.8,2.6-5.8,5.8c0,3.2,2.6,5.8,5.8,5.8h7.9v-11.6H333.6z"/>
		<g>
			<path class="st3" d="M336.5,321c0,0.5-0.4,0.9-0.9,0.9l0,0c-0.5,0-0.9-0.4-0.9-0.9l0,0c0-0.5,0.4-0.9,0.9-0.9l0,0
				C336.1,320.1,336.5,320.5,336.5,321L336.5,321z"/>
			<path class="st3" d="M339.3,324.2c0,0.5-0.4,0.9-0.9,0.9l0,0c-0.5,0-0.9-0.4-0.9-0.9l0,0c0-0.5,0.4-0.9,0.9-0.9l0,0
				C338.9,323.3,339.3,323.7,339.3,324.2L339.3,324.2z"/>
			<path class="st3" d="M340.2,321c0,0.5-0.4,0.9-0.9,0.9l0,0c-0.5,0-0.9-0.4-0.9-0.9l0,0c0-0.5,0.4-0.9,0.9-0.9l0,0
				C339.8,320.1,340.2,320.5,340.2,321L340.2,321z"/>
			<path class="st3" d="M346.8,321c0,0.5,0.4,0.9,0.9,0.9l0,0c0.5,0,0.9-0.4,0.9-0.9l0,0c0-0.5-0.4-0.9-0.9-0.9l0,0
				C347.2,320.1,346.8,320.5,346.8,321L346.8,321z"/>
			<path class="st3" d="M344,324.2c0,0.5,0.4,0.9,0.9,0.9l0,0c0.5,0,0.9-0.4,0.9-0.9l0,0c0-0.5-0.4-0.9-0.9-0.9l0,0
				C344.4,323.3,344,323.7,344,324.2L344,324.2z"/>
			<path class="st3" d="M343.1,321c0,0.5,0.4,0.9,0.9,0.9l0,0c0.5,0,0.9-0.4,0.9-0.9l0,0c0-0.5-0.4-0.9-0.9-0.9l0,0
				C343.5,320.1,343.1,320.5,343.1,321L343.1,321z"/>
		</g>
	</g>
</g>
</svg>
