<?xml version="1.0" encoding="utf-8"?>
<!-- Generator: Adobe Illustrator 16.0.0, SVG Export Plug-In . SVG Version: 6.00 Build 0)  -->
<!DOCTYPE svg PUBLIC "-//W3C//DTD SVG 1.1//EN" "http://www.w3.org/Graphics/SVG/1.1/DTD/svg11.dtd">
<svg version="1.1" id="Layer_1" xmlns="http://www.w3.org/2000/svg" xmlns:xlink="http://www.w3.org/1999/xlink" x="0px" y="0px"
	 width="225px" height="219px" viewBox="0 0 225 219" style="enable-background:new 0 0 225 219;" xml:space="preserve">
<style type="text/css">
<![CDATA[
	.st0{fill:#E0B15E;}
	.st1{fill:none;stroke:#3A281C;stroke-width:2.0452;stroke-linecap:round;stroke-linejoin:round;stroke-miterlimit:10;}
	.st2{fill:#4C4C4D;}
	.st3{fill:#EF6D2C;}
	.st4{fill:#574338;}
	.st5{opacity:0.62;fill:url(#SVGID_6_);stroke:#FFFFFF;stroke-width:0.9466;stroke-miterlimit:10;}
	.st6{fill:#F1E9DE;}
	.st7{fill:none;stroke:#A37F45;stroke-width:2.145;stroke-linecap:round;stroke-linejoin:round;stroke-miterlimit:10;}
	.st8{fill:#5E5F5E;}
	.st9{fill:url(#SVGID_1_);}
	.st10{fill:url(#SVGID_2_);}
	.st11{fill:url(#SVGID_3_);}
	.st12{fill:url(#SVGID_4_);}
	.st13{fill:url(#SVGID_5_);}
	.st14{fill:#FBBB8F;}
	.st15{fill:#FFD98D;}
	.st16{fill:#FFFFFF;}
	.st17{fill:#33302F;}
	.st18{fill:#3A281C;}
	.st19{fill:#A37F45;}
	.st20{fill:#DDB985;}
	.st21{fill:none;stroke:#E89D6B;stroke-width:2.0452;stroke-linecap:round;stroke-linejoin:round;stroke-miterlimit:10;}
]]>
</style>
<g>
	<g>
		<path class="st3" d="M161.1,127.7c0-16.3-13.2-29.6-29.5-29.6H110c-16.3,0-29.5,13.2-29.5,29.6l-5.8,75.2c0,16.3,13.2,12,29.5,12
			l33.1,0.5c16.3,0,29.5,3.9,29.5-12.4L161.1,127.7z"/>
		<path class="st14" d="M88.1,205.2c0,6.3-4.6,12-10.3,12.6l0,0c-5.7,0.6-10.4-4-10.5-10.4l0.3-69.5c0-6.3,4.6-12,10.3-12.6l0,0
			c5.8-0.6,10.4,4,10.5,10.4L88.1,205.2z"/>
		<path class="st14" d="M192.6,169.8c4.7,4.3,12,4.6,16.2,0.7l0,0c4.3-3.9,4-10.5-0.7-14.7l-51.9-46.2c-4.7-4.3-12-4.6-16.2-0.7l0,0
			c-4.3,3.9-4,10.5,0.7,14.7L192.6,169.8z"/>
		<path class="st14" d="M191.4,162.5c-0.1,6.3,4.4,12,10.2,12.7l0,0c5.7,0.7,10.5-3.9,10.6-10.2l0.5-69.5c0.1-6.3-4.4-12-10.2-12.7
			l0,0c-5.7-0.7-10.5,3.9-10.6,10.2L191.4,162.5z"/>
		<path class="st14" d="M135,98.8c0,8.5-6.9,15.4-15.3,15.4l0,0c-8.5,0-15.3-6.9-15.3-15.4V67.1c0-8.5,6.9-15.4,15.3-15.4l0,0
			c8.5,0,15.3,6.9,15.3,15.4V98.8z"/>
		<linearGradient id="SVGID_1_" gradientUnits="userSpaceOnUse" x1="119.6572" y1="93.0244" x2="119.6572" y2="108.4035">
			<stop  offset="0" style="stop-color:#CC7E49"/>
			<stop  offset="1" style="stop-color:#FBBB8F;stop-opacity:0"/>
		</linearGradient>
		<path class="st9" d="M135,98.8c0,8.5-6.9,15.4-15.3,15.4l0,0c-8.5,0-15.3-6.9-15.3-15.4V67.1c0-8.5,6.9-15.4,15.3-15.4l0,0
			c8.5,0,15.3,6.9,15.3,15.4V98.8z"/>
		<g>
			<path class="st14" d="M155.2,51.6c0,5-4.1,9.1-9.1,9.1H93.3c-5,0-9.1-4.1-9.1-9.1l0,0c0-5,4.1-9.1,9.1-9.1h52.8
				C151.1,42.4,155.2,46.5,155.2,51.6L155.2,51.6z"/>
			<path class="st14" d="M145.5,60.9V31.4c0-14.1-11.4-25.6-25.5-25.6c-14.1,0-25.5,11.4-25.5,25.6V60c-3.2,3.5-5.2,8.2-5.2,13.4
				c0,11,8.9,19.9,19.9,19.9h20.8c11,0,19.9-8.9,19.9-19.9C150,68.6,148.3,64.3,145.5,60.9z"/>
			<path class="st21" d="M126.6,41.1c0.5-2,2.3-3.4,4.4-3.4c2.1,0,3.8,1.4,4.4,3.3"/>
			<path class="st21" d="M103.9,41.1c0.5-2,2.3-3.4,4.4-3.4c2.1,0,3.8,1.4,4.4,3.3"/>
			<linearGradient id="SVGID_2_" gradientUnits="userSpaceOnUse" x1="119.6582" y1="173.7881" x2="119.6582" y2="10.3903">
				<stop  offset="0" style="stop-color:#CC7E49"/>
				<stop  offset="1" style="stop-color:#FBBB8F;stop-opacity:0"/>
			</linearGradient>
			<path class="st10" d="M150,73.4c0-4.7-1.7-9.1-4.4-12.5l-0.7-18.4l0.2-0.2l-2.3,0.1c0,0,0,17.6,0,28c0,10.4-3.4,18-9.1,18
				c-5.3,0-5-3.2-12.2-3.6v-0.1h-1.7h-0.1h-1.7v0.1c-7.2,0.4-6.9,3.6-12.2,3.6c-5.7,0-9.1-7.6-9.1-18c0-10.4,0-28,0-28l-2.2-0.1V60
				c-3.2,3.5-5.2,8.2-5.2,13.4c0,11,8.9,19.9,19.9,19.9h20.8C141.1,93.3,150,84.4,150,73.4z"/>
			<linearGradient id="SVGID_3_" gradientUnits="userSpaceOnUse" x1="119.6582" y1="60.8799" x2="119.6582" y2="36.1133">
				<stop  offset="0" style="stop-color:#CC7E49"/>
				<stop  offset="1" style="stop-color:#FBBB8F;stop-opacity:0"/>
			</linearGradient>
			<path class="st11" d="M124.6,55.3h-0.9V36.5c0-2.8-1.8-5.1-4-5.1c-2.2,0-4,2.3-4,5.1v18.8h-0.9c-1.7,0-3,1.7-3,3.8s1.4,3.8,3,3.8
				h1.7c0.7,1.3,1.9,2.1,3.2,2.1s2.5-0.8,3.2-2.1h1.7c1.7,0,3-1.7,3-3.8S126.3,55.3,124.6,55.3z"/>
			<g>
				<path class="st8" d="M104.3,70.9c1.2,6.8,7.6,12.1,15.3,12.1c7.7,0,14.1-5.2,15.3-12.1H104.3z"/>
				<rect x="108" y="70.9" class="st16" width="23.4" height="4.8"/>
			</g>
			<ellipse class="st16" cx="131" cy="42.9" rx="4.5" ry="4.5"/>
			<g>
				<circle class="st4" cx="129.6" cy="42.7" r="2.6"/>
				<circle class="st17" cx="129.6" cy="42.7" r="1.2"/>
				<circle class="st16" cx="128.7" cy="41.6" r="0.8"/>
			</g>
			<ellipse class="st16" cx="108.3" cy="42.9" rx="4.5" ry="4.5"/>
			<g>
				<circle class="st4" cx="106.9" cy="42.7" r="2.6"/>
				<circle class="st17" cx="106.9" cy="42.7" r="1.2"/>
				<circle class="st16" cx="106" cy="41.6" r="0.8"/>
			</g>
			<path class="st1" d="M126.5,35.3c0,0,4.6-4.2,9,0.2"/>
			<path class="st1" d="M103.8,35.3c0,0,4.6-4.2,9,0.2"/>
			<path class="st18" d="M130.6,15.3c0,6-4.9,10.9-10.9,10.9l0,0c-6,0-10.9-4.9-10.9-10.9v-4.3c0-6,4.9-10.9,10.9-10.9l0,0
				c6,0,10.9,4.9,10.9,10.9V15.3z"/>
			<g>
				<path class="st18" d="M130.5,16.1c0,0,8.4-1.2,9.1,8.1c0.7,9.3,2.7,4,2.9,8.2c0.2,4.3-1,14.2,2.5,14.5v-4.7c0,0,3.3,0.5,3.3,0.6
					c0,0,7.9-39.4-20.4-39.4L130.5,16.1z"/>
				<path class="st18" d="M108.9,16.1c0,0-8.4-1.2-9.1,8.1c-0.7,9.3-2.7,4-2.9,8.2c-0.2,4.3,1,14.2-2.5,14.5v-4.7
					c0,0-3.3,0.5-3.3,0.6c0,0-7.9-39.4,20.4-39.4L108.9,16.1z"/>
			</g>
			<g>
				<path class="st21" d="M137.7,65.8c0,0,3.5,4.6,0.9,9.2"/>
				<path class="st21" d="M101.7,65.8c0,0-3.5,4.6-0.9,9.2"/>
			</g>
			<linearGradient id="SVGID_4_" gradientUnits="userSpaceOnUse" x1="126.3887" y1="89.5977" x2="126.3887" y2="55.3006">
				<stop  offset="0" style="stop-color:#CC7E49"/>
				<stop  offset="1" style="stop-color:#FBBB8F;stop-opacity:0"/>
			</linearGradient>
			<path class="st12" d="M132,68.7c-0.2,1-1.1,1.6-2.1,1.4l-7.6-1.5c-1-0.2-1.6-1.1-1.4-2.1l0,0c0.2-1,1.1-1.6,2.1-1.4l7.6,1.5
				C131.5,66.7,132.2,67.7,132,68.7L132,68.7z"/>
			<linearGradient id="SVGID_5_" gradientUnits="userSpaceOnUse" x1="112.9268" y1="89.5977" x2="112.9268" y2="55.3006">
				<stop  offset="0" style="stop-color:#CC7E49"/>
				<stop  offset="1" style="stop-color:#FBBB8F;stop-opacity:0"/>
			</linearGradient>
			<path class="st13" d="M107.3,68.7c0.2,1,1.1,1.6,2.1,1.4l7.6-1.5c1-0.2,1.6-1.1,1.4-2.1l0,0c-0.2-1-1.1-1.6-2.1-1.4l-7.6,1.5
				C107.8,66.7,107.2,67.7,107.3,68.7L107.3,68.7z"/>
		</g>
		<path class="st3" d="M92.9,104c0,0-29.3,14.4-29.3,42.5h29.3V104z"/>
		<g>
			<path class="st0" d="M218.5,95.4c0-7.8-7.3-14.1-16.2-14.1v29.5h16.2V95.4z"/>
			<path class="st15" d="M186,95.4v15.4h16.2V81.2C193.3,81.2,186,87.6,186,95.4z"/>
			<path class="st19" d="M212.4,82.4c0,1.1-1,2-2.3,2h-15.3c-1.3,0-2.3-0.9-2.3-2l0,0c0-1.1,1-2,2.3-2h15.3
				C211.4,80.4,212.4,81.3,212.4,82.4L212.4,82.4z"/>
			<path class="st15" d="M202.5,35.3c0-1.4-1.5-2.5-3.3-2.5c-1.8,0-3.3,1.1-3.3,2.5v1.2c0-1.4-1.5-2.5-3.3-2.5
				c-1.8,0-3.3,1.1-3.3,2.5v18.9v2.4v12.7l-0.3,0.1c-0.2-0.4-0.5-0.7-0.9-0.9l-8.7-5.8c-1.3-0.9-3.2-0.7-4.3,0.5
				c-1,1.2-0.8,2.8,0.6,3.7l8,5.3l6.1,6.6c0.2,0.4,0.5,0.7,0.9,1l0,0l0,0c0.6,0.4,1.4,0.7,2.2,0.7h9.7V37.2V35.3z"/>
			<path class="st0" d="M212.4,41.6c-1.8,0-3.3,1.1-3.3,2.5v-6.8c0-1.4-1.5-2.5-3.3-2.5c-1.8,0-3.3,1.1-3.3,2.5v44.4h9.7
				c2,0,3.6-1.4,3.6-3.1V57.8v-2.4V44.1C215.7,42.7,214.2,41.6,212.4,41.6z"/>
			<line class="st7" x1="195.8" y1="38.4" x2="195.8" y2="54.7"/>
			<line class="st7" x1="202.5" y1="38.4" x2="202.5" y2="54.7"/>
			<line class="st7" x1="209.1" y1="45.1" x2="209.1" y2="54.7"/>
			<path class="st7" d="M190.8,68.9c5.8-7.7,20.3-1.8,16.9,7"/>
			<line class="st7" x1="192.5" y1="54.7" x2="212.4" y2="54.7"/>
		</g>
		<path class="st3" d="M150,104.6c0,0,6.6-0.3,30,21.4l-24.8,25.4c0,0-25.9-18.3-23-35.4C135,98.8,150,104.6,150,104.6z"/>
		<path class="st6" d="M150,138.4h-3.2v-36c-2.7-1.6-5.6-2.8-8.7-3.5v39.5h-36V99.2c-3.2,0.9-6.1,2.3-8.7,4.1v35.1h-3.2v78.4
			c4.2,2.3,9,0.2,14.1,0.2l33.1-0.2c4.5,0,8.8,0.9,12.7-1V138.4z"/>
		<g>
			<linearGradient id="SVGID_6_" gradientUnits="userSpaceOnUse" x1="98.4775" y1="61.9854" x2="140.9934" y2="61.9854">
				<stop  offset="0" style="stop-color:#FFFFFF"/>
				<stop  offset="0.5276" style="stop-color:#FFFFFF;stop-opacity:0"/>
				<stop  offset="1" style="stop-color:#FFFFFF"/>
			</linearGradient>
			<path class="st5" d="M93.2,28v42.2c0,14.3,12.1,25.8,26.9,25.8c14.9,0,26.9-11.6,26.9-25.8V28H93.2z"/>
			<rect x="89.3" y="23.7" class="st2" width="60.7" height="4.9"/>
		</g>
	</g>
	<rect y="205.2" class="st20" width="225" height="13.8"/>
</g>
</svg>
