<?xml version="1.0" encoding="UTF-8" standalone="no"?>
<svg width="45px" height="30px" viewBox="0 0 45 30" version="1.1" xmlns="http://www.w3.org/2000/svg" xmlns:xlink="http://www.w3.org/1999/xlink" xmlns:sketch="http://www.bohemiancoding.com/sketch/ns">
    <!-- Generator: Sketch 3.1.1 (8761) - http://www.bohemiancoding.com/sketch -->
    <title>flechita-back</title>
    <desc>Created with Sketch.</desc>
    <defs></defs>
    <g id="Page-1" stroke="none" stroke-width="1" fill="none" fill-rule="evenodd" sketch:type="MSPage">
        <g id="Desktop-HD" sketch:type="MSArtboardGroup" transform="translate(-89.000000, -257.000000)">
            <g id="flechita-back" sketch:type="MSLayerGroup" transform="translate(89.000000, 258.000000)">
                <path d="M5.54706834,0.292961002 C6.62192548,1.312961 17.1236398,12.030461 17.1236398,12.030461 C17.6970683,12.577961 17.9850683,13.290461 17.9850683,14.002961 C17.9850683,14.715461 17.6970683,15.427961 17.1236398,15.970461 C17.1236398,15.970461 6.62192548,26.692961 5.54706834,27.707961 C4.4722112,28.727961 2.53849691,28.797961 1.3942112,27.707961 C0.247354056,26.622961 0.157354056,25.105461 1.3942112,23.772961 L11.0293541,14.002961 L1.3942112,4.232961 C0.157354056,2.900461 0.247354056,1.380461 1.3942112,0.292961002 C2.53849691,-0.797038998 4.4722112,-0.729538998 5.54706834,0.292961002 L5.54706834,0.292961002 Z" id="Shape" fill="#FFFFFF" sketch:type="MSShapeGroup" transform="translate(9.242534, 14.000000) scale(-1, 1) translate(-9.242534, -14.000000) "></path>
                <path d="M5,14.0005714 L42.0135117,14.0005714" id="Line" stroke="#FFFFFF" stroke-width="5" stroke-linecap="round" sketch:type="MSShapeGroup"></path>
            </g>
        </g>
    </g>
</svg>