<?xml version="1.0" encoding="UTF-8" standalone="no"?>
<svg width="50px" height="113px" viewBox="0 0 50 113" version="1.1" xmlns="http://www.w3.org/2000/svg" xmlns:xlink="http://www.w3.org/1999/xlink" xmlns:sketch="http://www.bohemiancoding.com/sketch/ns">
    <!-- Generator: Sketch 3.1.1 (8761) - http://www.bohemiancoding.com/sketch -->
    <title>i-aceite-casero</title>
    <desc>Created with Sketch.</desc>
    <defs></defs>
    <g id="Page-1" stroke="none" stroke-width="1" fill="none" fill-rule="evenodd" sketch:type="MSPage">
        <g id="Desktop-HD" sketch:type="MSArtboardGroup" transform="translate(-925.000000, -604.000000)">
            <g id="i-aceite-casero" sketch:type="MSLayerGroup" transform="translate(925.000000, 604.000000)">
                <path d="M48.222,41 C48.222,39.774 47.229,38.781 46.004,38.781 C47.229,38.781 48.222,37.788 48.222,36.562 C48.222,35.336 47.229,34.343 46.004,34.343 L45.445,34.343 C45.564,30.081 45.386,22.433 42.638,20.954 C38.79,18.883 31.986,15.923 31.986,15.923 L31.986,5.271 L26.457,5.271 L26.457,112.977 L30.802,112.977 C44.117,112.977 47.077,112.09 47.077,107.947 L47.077,90.489 C47.077,86.05 45.301,84.572 45.301,84.572 L45.301,47.658 L46.004,47.658 C47.229,47.658 48.222,46.664 48.222,45.439 C48.222,44.213 47.229,43.22 46.004,43.22 C47.229,43.22 48.222,42.226 48.222,41" id="Fill-1" fill="#FCD68B" sketch:type="MSShapeGroup"></path>
                <path d="M20.446,5.271 L17.375,5.271 L17.375,15.923 C17.375,15.923 10.57,18.883 6.724,20.954 C3.975,22.433 3.796,30.081 3.916,34.343 L3.357,34.343 C2.132,34.343 1.139,35.336 1.139,36.562 C1.139,37.788 2.132,38.781 3.357,38.781 C2.132,38.781 1.139,39.774 1.139,41 C1.139,42.226 2.132,43.22 3.357,43.22 C2.132,43.22 1.139,44.213 1.139,45.439 C1.139,46.664 2.132,47.658 3.357,47.658 L4.061,47.658 L4.061,84.572 C4.061,84.572 2.284,86.05 2.284,90.489 L2.284,107.947 C2.284,112.09 5.244,112.977 18.56,112.977 L22.906,112.977 L22.906,5.271 L20.446,5.271" id="Fill-2" fill="#FCD68B" sketch:type="MSShapeGroup"></path>
                <path d="M44.672,41 C44.672,39.774 43.679,38.781 42.452,38.781 C43.679,38.781 44.672,37.788 44.672,36.562 C44.672,35.336 43.679,34.343 42.452,34.343 L41.893,34.343 C42.014,30.081 41.835,22.433 39.087,20.954 C35.24,18.883 28.434,15.923 28.434,15.923 L28.434,5.271 L22.906,5.271 L22.906,112.977 L27.251,112.977 C40.566,112.977 43.525,112.09 43.525,107.947 L43.525,90.489 C43.525,86.05 41.75,84.572 41.75,84.572 L41.75,47.658 L42.452,47.658 C43.679,47.658 44.672,46.664 44.672,45.439 C44.672,44.213 43.679,43.22 42.452,43.22 C43.679,43.22 44.672,42.226 44.672,41" id="Fill-3" fill="#D6AB5D" sketch:type="MSShapeGroup"></path>
                <path d="M5.134,42.358 C4.656,42.358 4.271,42.744 4.271,43.22 C4.271,43.695 4.656,44.082 5.134,44.082 L22.906,44.082 L22.906,42.358 L5.134,42.358" id="Fill-4" fill="#D6AB5D" sketch:type="MSShapeGroup"></path>
                <path d="M45.448,42.358 L22.906,42.358 L22.906,44.082 L45.448,44.082 C45.925,44.082 46.311,43.695 46.311,43.22 C46.311,42.744 45.925,42.358 45.448,42.358" id="Fill-5" fill="#FCD68B" sketch:type="MSShapeGroup"></path>
                <path d="M6.353,46.718 C5.895,46.718 5.525,47.089 5.525,47.547 C5.525,48.005 5.895,48.376 6.353,48.376 L22.906,48.376 L22.906,46.718 L6.353,46.718" id="Fill-6" fill="#D6AB5D" sketch:type="MSShapeGroup"></path>
                <path d="M44.006,46.718 L22.906,46.718 L22.906,48.376 L44.006,48.376 C44.464,48.376 44.835,48.005 44.835,47.547 C44.835,47.089 44.464,46.718 44.006,46.718" id="Fill-7" fill="#FCD68B" sketch:type="MSShapeGroup"></path>
                <path d="M6.908,83.821 C6.432,83.821 6.047,84.207 6.047,84.683 C6.047,85.158 6.432,85.544 6.908,85.544 L22.906,85.544 L22.906,83.821 L6.908,83.821" id="Fill-8" fill="#D6AB5D" sketch:type="MSShapeGroup"></path>
                <path d="M43.673,83.821 L22.906,83.821 L22.906,85.544 L43.673,85.544 C44.15,85.544 44.534,85.158 44.534,84.683 C44.534,84.207 44.15,83.821 43.673,83.821" id="Fill-9" fill="#FCD68B" sketch:type="MSShapeGroup"></path>
                <path d="M8.13,88.181 C7.671,88.181 7.301,88.552 7.301,89.01 C7.301,89.468 7.671,89.838 8.13,89.838 L22.906,89.838 L22.906,88.181 L8.13,88.181" id="Fill-10" fill="#D6AB5D" sketch:type="MSShapeGroup"></path>
                <path d="M44.006,88.181 L22.906,88.181 L22.906,89.838 L44.006,89.838 C44.464,89.838 44.835,89.468 44.835,89.01 C44.835,88.552 44.464,88.181 44.006,88.181" id="Fill-11" fill="#FCD68B" sketch:type="MSShapeGroup"></path>
                <path d="M3.357,37.894 C2.625,37.894 2.026,37.296 2.026,36.562 C2.026,35.828 2.625,35.23 3.357,35.23 L22.906,35.23 L22.906,33.455 L3.357,33.455 C1.645,33.455 0.251,34.849 0.251,36.562 C0.251,38.275 1.645,39.669 3.357,39.669 L22.906,39.669 L22.906,37.894 L3.357,37.894" id="Fill-12" fill="#D6AB5D" sketch:type="MSShapeGroup"></path>
                <path d="M46.004,33.455 L22.906,33.455 L22.906,35.23 L46.004,35.23 C46.736,35.23 47.335,35.828 47.335,36.562 C47.335,37.296 46.736,37.894 46.004,37.894 L22.906,37.894 L22.906,39.669 L46.004,39.669 C47.716,39.669 49.11,38.275 49.11,36.562 C49.11,34.849 47.716,33.455 46.004,33.455" id="Fill-13" fill="#FCD68B" sketch:type="MSShapeGroup"></path>
                <path d="M9.805,52.615 L22.907,52.615 L22.907,78.061 L9.805,78.061 L9.805,52.615 Z" id="Fill-14" fill="#859941" sketch:type="MSShapeGroup"></path>
                <path d="M22.906,52.615 L36.009,52.615 L36.009,78.061 L22.906,78.061 L22.906,52.615 Z" id="Fill-15" fill="#5C662F" sketch:type="MSShapeGroup"></path>
                <path d="M16.896,0.389 L22.907,0.389 L22.907,5.271 L16.896,5.271 L16.896,0.389 Z" id="Fill-16" fill="#859941" sketch:type="MSShapeGroup"></path>
                <path d="M22.906,0.389 L32.466,0.389 L32.466,5.271 L22.906,5.271 L22.906,0.389 Z" id="Fill-17" fill="#5C662F" sketch:type="MSShapeGroup"></path>
            </g>
        </g>
    </g>
</svg>