<?xml version="1.0" encoding="UTF-8" standalone="no"?>
<svg width="51px" height="81px" viewBox="0 0 51 81" version="1.1" xmlns="http://www.w3.org/2000/svg" xmlns:xlink="http://www.w3.org/1999/xlink" xmlns:sketch="http://www.bohemiancoding.com/sketch/ns">
    <!-- Generator: Sketch 3.1.1 (8761) - http://www.bohemiancoding.com/sketch -->
    <title>i-calidad</title>
    <desc>Created with Sketch.</desc>
    <defs></defs>
    <g id="Page-1" stroke="none" stroke-width="1" fill="none" fill-rule="evenodd" sketch:type="MSPage">
        <g id="Desktop-HD" sketch:type="MSArtboardGroup" transform="translate(-711.000000, -1559.000000)">
            <g id="i-calidad" sketch:type="MSLayerGroup" transform="translate(711.500000, 1559.000000)">
                <path d="M42.623,69.467 C42.943,70.911 42.121,71.557 40.794,70.903 L35.94,68.512 C34.614,67.858 32.644,68.148 31.562,69.155 L27.527,72.912 C26.445,73.919 25.463,73.538 25.345,72.064 L22.908,41.785 C22.79,40.311 23.889,38.926 25.351,38.706 L32.812,37.585 C34.274,37.366 35.732,38.367 36.051,39.81 L42.623,69.467" id="Fill-1" fill="#DD3E40" sketch:type="MSShapeGroup"></path>
                <path d="M26.385,75.222 C25.121,75.222 23.771,74.289 23.603,72.204 L21.167,41.925 C20.976,39.551 22.736,37.332 25.091,36.979 L32.552,35.857 C32.771,35.824 32.995,35.808 33.217,35.808 C35.383,35.808 37.292,37.331 37.757,39.432 L44.33,69.089 C44.647,70.521 44.228,71.427 43.821,71.934 C42.992,72.967 41.511,73.204 40.021,72.471 L35.168,70.079 C34.946,69.97 34.645,69.91 34.319,69.91 C33.709,69.91 33.095,70.116 32.752,70.434 L28.718,74.19 C27.802,75.043 26.943,75.222 26.385,75.222 L26.385,75.222 Z M33.217,39.302 C33.168,39.302 33.12,39.306 33.072,39.313 L25.61,40.434 C25.054,40.518 24.604,41.083 24.649,41.645 L27.012,71.004 L30.372,67.877 C31.354,66.961 32.83,66.415 34.319,66.415 C35.182,66.415 36.009,66.598 36.712,66.944 L40.712,68.915 L34.346,40.188 C34.237,39.699 33.731,39.302 33.217,39.302 L33.217,39.302 Z" id="Fill-2" fill="#141F29" sketch:type="MSShapeGroup"></path>
                <path d="M32.74,77.579 C32.717,79.057 31.767,79.495 30.628,78.552 L23.359,72.538 C22.221,71.595 20.237,71.42 18.951,72.15 L10.625,76.875 C9.339,77.605 8.472,77.006 8.698,75.545 L15.372,32.345 C15.597,30.884 16.987,29.791 18.461,29.915 L30.78,30.957 C32.253,31.082 33.44,32.394 33.417,33.872 L32.74,77.579" id="Fill-3" fill="#DD3E40" sketch:type="MSShapeGroup"></path>
                <path d="M31.742,80.797 C30.995,80.797 30.224,80.486 29.513,79.899 L22.246,73.884 C21.92,73.614 21.37,73.446 20.81,73.446 C20.427,73.446 20.063,73.528 19.813,73.67 L11.487,78.394 C10.858,78.752 10.233,78.934 9.63,78.934 C8.829,78.934 8.111,78.611 7.609,78.025 C7.198,77.546 6.754,76.681 6.971,75.278 L13.645,32.079 C14.009,29.721 16.191,27.969 18.607,28.174 L30.928,29.216 C33.301,29.417 35.202,31.518 35.164,33.899 L34.487,77.605 C34.453,79.798 33.041,80.797 31.742,80.797 L31.742,80.797 Z M20.81,69.952 C22.187,69.952 23.522,70.404 24.474,71.191 L31.008,76.599 L31.67,33.845 C31.679,33.281 31.194,32.746 30.633,32.699 L18.313,31.656 C17.748,31.607 17.183,32.065 17.098,32.612 L10.565,74.9 L18.089,70.631 C18.871,70.187 19.812,69.952 20.81,69.952 L20.81,69.952 Z" id="Fill-4" fill="#141F29" sketch:type="MSShapeGroup"></path>
                <path d="M23.294,3.479 C24.399,3.9 26.208,3.9 27.313,3.479 L30.743,2.172 C31.849,1.751 33.282,2.216 33.929,3.207 L35.936,6.281 C36.583,7.271 38.046,8.334 39.188,8.643 L42.731,9.602 C43.873,9.912 44.759,11.13 44.7,12.312 L44.518,15.979 C44.459,17.16 45.018,18.88 45.76,19.801 L48.063,22.661 C48.805,23.581 48.805,25.089 48.063,26.01 L45.76,28.869 C45.018,29.79 44.459,31.51 44.518,32.691 L44.7,36.358 C44.759,37.54 43.873,38.759 42.731,39.068 L39.188,40.027 C38.046,40.336 36.583,41.399 35.936,42.389 L33.929,45.464 C33.282,46.454 31.849,46.92 30.743,46.499 L27.313,45.191 C26.208,44.771 24.399,44.771 23.294,45.191 L19.862,46.499 C18.757,46.92 17.324,46.454 16.677,45.464 L14.669,42.389 C14.023,41.399 12.56,40.336 11.418,40.027 L7.874,39.068 C6.733,38.759 5.846,37.54 5.905,36.358 L6.088,32.691 C6.147,31.51 5.589,29.79 4.846,28.869 L2.543,26.01 C1.801,25.089 1.801,23.581 2.543,22.661 L4.846,19.801 C5.589,18.88 6.147,17.16 6.088,15.979 L5.905,12.312 C5.846,11.13 6.733,9.912 7.874,9.602 L11.418,8.643 C12.56,8.334 14.023,7.271 14.67,6.281 L16.677,3.207 C17.324,2.216 18.757,1.751 19.862,2.172 L23.294,3.479" id="Fill-5" fill="#F9EDA0" sketch:type="MSShapeGroup"></path>
                <path d="M31.618,48.401 C31.095,48.401 30.591,48.311 30.121,48.131 L26.69,46.824 C26.36,46.698 25.841,46.623 25.303,46.623 C24.765,46.623 24.247,46.698 23.916,46.824 L20.485,48.131 C20.015,48.31 19.512,48.401 18.989,48.401 C17.459,48.401 16.013,47.642 15.214,46.419 L13.207,43.344 C12.797,42.717 11.685,41.91 10.961,41.713 L7.418,40.754 C5.492,40.233 4.061,38.264 4.161,36.271 L4.343,32.604 C4.38,31.855 3.956,30.548 3.486,29.965 L1.183,27.106 C-0.069,25.552 -0.069,23.119 1.183,21.564 L3.486,18.705 C3.956,18.122 4.38,16.814 4.343,16.066 L4.161,12.399 C4.061,10.406 5.492,8.437 7.418,7.916 L10.961,6.956 C11.685,6.761 12.797,5.953 13.207,5.325 L15.214,2.251 C16.013,1.029 17.459,0.27 18.989,0.27 C19.512,0.27 20.015,0.36 20.485,0.539 L23.915,1.846 C24.246,1.972 24.765,2.047 25.303,2.047 C25.841,2.047 26.36,1.972 26.69,1.846 L30.122,0.539 C30.591,0.36 31.095,0.27 31.617,0.27 C33.147,0.27 34.593,1.029 35.392,2.251 L37.399,5.326 C37.809,5.953 38.921,6.761 39.644,6.956 L43.188,7.916 C45.114,8.437 46.544,10.406 46.445,12.399 L46.263,16.066 C46.226,16.814 46.65,18.122 47.121,18.706 L49.423,21.564 C50.675,23.118 50.675,25.552 49.424,27.106 L47.12,29.965 C46.65,30.548 46.226,31.855 46.263,32.604 L46.445,36.271 C46.544,38.264 45.114,40.233 43.187,40.754 L39.644,41.713 C38.921,41.909 37.809,42.717 37.399,43.344 L35.392,46.419 C34.593,47.642 33.147,48.401 31.618,48.401 L31.618,48.401 Z M25.303,43.128 C26.271,43.128 27.206,43.281 27.935,43.559 L31.366,44.866 C31.436,44.893 31.523,44.906 31.617,44.906 C31.953,44.906 32.318,44.735 32.466,44.508 L34.473,41.434 C35.352,40.089 37.182,38.759 38.732,38.34 L42.275,37.381 C42.623,37.287 42.974,36.806 42.955,36.445 L42.773,32.778 C42.692,31.175 43.392,29.023 44.399,27.772 L46.702,24.914 C46.928,24.633 46.928,24.038 46.702,23.757 L44.399,20.897 C43.392,19.647 42.692,17.495 42.773,15.892 L42.955,12.226 C42.974,11.865 42.623,11.383 42.275,11.289 L38.731,10.33 C37.182,9.911 35.351,8.581 34.473,7.236 L32.466,4.162 C32.317,3.935 31.953,3.764 31.617,3.764 C31.523,3.764 31.436,3.778 31.366,3.805 L27.934,5.112 C27.206,5.389 26.271,5.542 25.303,5.542 C24.334,5.542 23.399,5.389 22.671,5.112 L19.241,3.805 C19.17,3.778 19.083,3.764 18.989,3.764 C18.653,3.764 18.289,3.935 18.14,4.162 L16.132,7.236 C15.255,8.581 13.424,9.91 11.875,10.33 L8.331,11.289 C7.982,11.383 7.633,11.865 7.65,12.225 L7.833,15.892 C7.914,17.495 7.214,19.647 6.207,20.897 L3.904,23.757 C3.677,24.038 3.677,24.633 3.904,24.914 L6.207,27.772 C7.214,29.022 7.914,31.175 7.833,32.778 L7.65,36.445 C7.633,36.806 7.982,37.287 8.331,37.381 L11.875,38.34 C13.424,38.76 15.255,40.089 16.132,41.434 L18.141,44.509 C18.289,44.735 18.653,44.906 18.989,44.906 C19.083,44.906 19.17,44.893 19.24,44.866 L22.671,43.559 C23.399,43.281 24.334,43.128 25.303,43.128 L25.303,43.128 Z" id="Fill-6" fill="#141F29" sketch:type="MSShapeGroup"></path>
                <path d="M38.19,24.335 C38.19,31.453 32.42,37.222 25.303,37.222 C18.186,37.222 12.416,31.453 12.416,24.335 C12.416,17.218 18.186,11.448 25.303,11.448 C32.42,11.448 38.19,17.218 38.19,24.335" id="Fill-7" fill="#F6DD2D" sketch:type="MSShapeGroup"></path>
                <path d="M25.303,38.97 C17.233,38.97 10.668,32.405 10.668,24.335 C10.668,16.266 17.233,9.701 25.303,9.701 C33.373,9.701 39.937,16.266 39.937,24.335 C39.937,32.405 33.373,38.97 25.303,38.97 L25.303,38.97 Z M25.303,13.195 C19.16,13.195 14.163,18.192 14.163,24.335 C14.163,30.478 19.16,35.475 25.303,35.475 C31.445,35.475 36.442,30.478 36.442,24.335 C36.442,18.192 31.445,13.195 25.303,13.195 L25.303,13.195 Z" id="Fill-8" fill="#141F29" sketch:type="MSShapeGroup"></path>
            </g>
        </g>
    </g>
</svg>