<?xml version="1.0" encoding="UTF-8" standalone="no"?>
<svg width="153px" height="54px" viewBox="0 0 153 54" version="1.1" xmlns="http://www.w3.org/2000/svg" xmlns:xlink="http://www.w3.org/1999/xlink" xmlns:sketch="http://www.bohemiancoding.com/sketch/ns">
    <!-- Generator: Sketch 3.1.1 (8761) - http://www.bohemiancoding.com/sketch -->
    <title>i-cazo</title>
    <desc>Created with Sketch.</desc>
    <defs></defs>
    <g id="Page-1" stroke="none" stroke-width="1" fill="none" fill-rule="evenodd" sketch:type="MSPage">
        <g id="Desktop-HD" sketch:type="MSArtboardGroup" transform="translate(-804.000000, -1170.000000)">
            <g id="i-cazo" sketch:type="MSLayerGroup" transform="translate(804.500000, 1171.000000)">
                <path d="M147.632857,9.53817241 L138.066107,9.53817241 L144.1005,-0.208954023 L80.4603929,-0.208954023 L80.4603929,52.1818506 L111.667536,52.1818506 L132.032321,19.2852989 L147.632857,19.2852989 C150.315214,19.2852989 152.49,17.1031609 152.49,14.4117356 C152.49,11.7203103 150.315214,9.53817241 147.632857,9.53817241" id="Fill-1" fill="#DFDEDA" sketch:type="MSShapeGroup"></path>
                <path d="M147.632857,9.53817241 L138.066107,9.53817241 L144.1005,-0.208954023 L80.4603929,-0.208954023 L80.4603929,52.1818506 L111.667536,52.1818506 L132.032321,19.2852989 L147.632857,19.2852989 C150.315214,19.2852989 152.49,17.1031609 152.49,14.4117356 C152.49,11.7203103 150.315214,9.53817241 147.632857,9.53817241" id="Fill-2" fill="#DFDEDA" sketch:type="MSShapeGroup"></path>
                <path d="M11.5381429,-0.208954023 L17.4201429,9.53817241 L5.12428571,9.53817241 C2.44192857,9.53817241 0.267142857,11.7203103 0.267142857,14.4117356 C0.267142857,17.1031609 2.44192857,19.2852989 5.12428571,19.2852989 L23.3021429,19.2852989 L43.1538929,52.1818506 L75.17825,52.1818506 L75.17825,-0.208954023 L11.5381429,-0.208954023" id="Fill-3" fill="#DFDEDA" sketch:type="MSShapeGroup"></path>
                <path d="M145.232821,9.53817241 L132.784571,9.53817241 L138.818964,-0.208954023 L75.17825,-0.208954023 L75.17825,52.1818506 L106.386,52.1818506 L126.750786,19.2852989 L145.232821,19.2852989 C147.915179,19.2852989 150.089964,17.1031609 150.089964,14.4117356 C150.089964,11.7203103 147.915179,9.53817241 145.232821,9.53817241" id="Fill-4" fill="#B1B1AE" sketch:type="MSShapeGroup"></path>
            </g>
        </g>
    </g>
</svg>