<?xml version="1.0" encoding="UTF-8" standalone="no"?>
<svg width="113px" height="64px" viewBox="0 0 113 64" version="1.1" xmlns="http://www.w3.org/2000/svg" xmlns:xlink="http://www.w3.org/1999/xlink" xmlns:sketch="http://www.bohemiancoding.com/sketch/ns">
    <!-- Generator: Sketch 3.1.1 (8761) - http://www.bohemiancoding.com/sketch -->
    <title>i-comprometidos</title>
    <desc>Created with Sketch.</desc>
    <defs></defs>
    <g id="Page-1" stroke="none" stroke-width="1" fill="none" fill-rule="evenodd" sketch:type="MSPage">
        <g id="Desktop-HD" sketch:type="MSArtboardGroup" transform="translate(-86.000000, -1564.000000)">
            <g id="i-comprometidos" sketch:type="MSLayerGroup" transform="translate(87.500000, 1564.000000)">
                <path d="M47.008,44.7906341 C45.8981233,43.6620488 44.07,43.6620488 42.9523836,44.7906341 L37.1568767,50.6427317 C36.047,51.7713171 36.047,53.6210732 37.1568767,54.7496585 C38.2760411,55.870439 40.1041644,55.870439 41.2202329,54.7496585 L47.008,48.8913171 C48.1256164,47.7627317 48.1256164,45.9129756 47.008,44.7906341" id="Fill-1" fill="#F9EDA0" sketch:type="MSShapeGroup"></path>
                <path d="M40.7481096,40.0093659 C39.6382329,38.8807805 37.8101096,38.8807805 36.6924932,40.0093659 L32.0672329,44.6782439 C30.9496164,45.8068293 30.9496164,47.6565854 32.0672329,48.7851707 C33.1848493,49.9153171 35.0129726,49.9153171 36.1290411,48.7851707 L40.7481096,44.1100488 C41.865726,42.9799024 41.865726,41.1317073 40.7481096,40.0093659" id="Fill-2" fill="#F9EDA0" sketch:type="MSShapeGroup"></path>
                <path d="M18.5412877,6.46712195 C18.5366438,5.77404878 18.4360274,4.91239024 17.9840274,4.7484878 C16.8617671,4.33795122 15.736411,3.92897561 14.6126027,3.51843902 C13.6652603,3.17346341 12.7194658,2.8284878 11.7690274,2.4835122 L1.65320548,30.846439 C2.56030137,31.1773659 3.47049315,31.5098537 4.38068493,31.8407805 C5.54473973,32.2653659 6.70879452,32.6883902 7.87594521,33.1129756 C7.96108219,33.1457561 8.03538356,33.1613659 8.10658904,33.1613659 C8.23816438,33.1613659 9.47187671,33.0411707 11.4099041,28.8983415 C13.278274,24.9240976 15.8107123,17.5516098 17.4917808,12.0039024 C18.2007397,9.66868293 18.5536712,7.80643902 18.5412877,6.46712195" id="Fill-3" fill="#ED9439" sketch:type="MSShapeGroup"></path>
                <path d="M33.9185753,39.9047805 C35.0361918,38.7730732 35.0361918,36.9326829 33.9185753,35.8040976 C32.8009589,34.6739512 30.9805753,34.6739512 29.861411,35.8040976 L27.5456849,38.1393171 C26.4296164,39.2679024 26.4296164,41.1176585 27.5456849,42.2462439 C28.6633014,43.3670244 30.4929726,43.3670244 31.610589,42.2462439 L33.9185753,39.9047805" id="Fill-4" fill="#F9EDA0" sketch:type="MSShapeGroup"></path>
                <path d="M55.8266438,55.2600976 C55.0093288,54.4874146 54.2090411,53.7272195 53.4459041,53.0029268 C53.5496164,53.4134634 53.6099863,53.8364878 53.6099863,54.272 C53.6099863,55.6206829 53.0898767,56.8850732 52.1471781,57.8325854 L51.8530685,58.1276098 L51.8592603,58.1229268 C52.3700822,58.5084878 52.8824521,58.883122 53.4041096,59.2359024 C55.3669041,60.5658537 57.3436301,61.3603902 58.6934384,61.3603902 C59.2476027,61.3603902 59.6407808,61.2277073 59.8590411,60.9685854 C60.1144521,60.6610732 60.2057808,60.0913171 60.1221918,59.3404878 C58.7661918,58.051122 57.2801644,56.641561 55.8266438,55.2600976" id="Fill-5" fill="#ED9439" sketch:type="MSShapeGroup"></path>
                <path d="M75.059863,11.1000976 C73.0475342,10.684878 71.0723562,10.0729756 69.1652877,9.48136585 C65.0136986,8.192 61.0912055,6.97287805 57.4380548,7.97658537 L56.3947397,8.26380488 C51.3964247,9.63121951 46.2278356,11.0485854 45.0993836,13.2245854 C43.9167534,15.5145366 41.0546027,24.9927805 40.2992055,27.516878 C41.0112603,28.1412683 42.6071918,29.2542439 44.4910411,28.7875122 C48.9119726,27.6839024 50.6255479,21.7147317 50.4336027,17.8294634 C50.4041918,17.2394146 50.8546438,16.7383415 51.4397671,16.7086829 C52.0279863,16.6837073 52.5217808,17.1332683 52.5496438,17.7217561 C52.5666712,18.0729756 52.5697671,18.4429268 52.5573836,18.8300488 C59.9890685,23.425561 65.3821096,25.5094634 70.682274,22.7730732 C71.2023836,22.5045854 71.8416849,22.7106341 72.1079315,23.2366829 C72.375726,23.7627317 72.1698493,24.4058537 71.6466438,24.6743415 C69.7086164,25.6780488 67.7674932,26.1307317 65.7752877,26.1307317 C65.9548493,26.1307317 66.1359589,26.1213659 66.3155205,26.115122 C69.806137,29.5445854 73.2193562,33.0161951 76.5814932,36.4409756 C77.7470959,37.6273171 78.901863,38.8027317 80.0426986,39.9609756 C80.2547671,40.1748293 80.4544521,40.3918049 80.6479452,40.6087805 C80.7624932,40.4979512 80.8863288,40.3793171 81.0256438,40.2435122 C82.999274,38.3172683 87.4202055,34.0058537 93.2606027,32.9365854 C89.4031233,24.5229268 86.7886438,17.0599024 85.3010685,10.2087805 C83.4450822,10.9830244 79.7532329,12.0663415 75.059863,11.1000976" id="Fill-6" fill="#F9EDA0" sketch:type="MSShapeGroup"></path>
                <path d="M98.7171096,2.4835122 C96.6536986,3.23746341 94.5779041,3.99297561 92.5036575,4.7484878 C92.0547534,4.91239024 91.952589,5.7724878 91.9479452,6.46556098 C91.9386575,7.8017561 92.291589,9.66556098 92.9974521,12.0070244 C94.6150548,17.345561 97.2109589,24.9100488 99.0808767,28.8967805 C101.018904,33.0411707 102.247973,33.1613659 102.382644,33.1613659 C102.452301,33.1613659 102.528151,33.1457561 102.614836,33.1129756 C104.69063,32.3590244 106.766425,31.6035122 108.836027,30.848 L98.7171096,2.4835122" id="Fill-7" fill="#F9EDA0" sketch:type="MSShapeGroup"></path>
                <path d="M75.0753425,37.9457561 C71.1311781,33.9293659 67.1204521,29.8458537 62.996726,25.8497561 L62.9998219,25.8497561 C59.7135342,25.216 56.2275616,23.5379512 52.3251918,21.182439 C51.6502877,25.1879024 49.5017397,29.7381463 44.9987671,30.8620488 C41.1753425,31.809561 38.4138082,28.6673171 38.2992603,28.5330732 C38.0608767,28.2567805 37.9788356,27.8790244 38.0825479,27.5278049 C38.2326986,27.0204878 41.7651096,15.0509268 43.2201781,12.2349268 C43.4353425,11.8228293 43.7232603,11.4403902 44.0715479,11.0798049 C42.7372192,10.689561 41.4075342,10.5069268 39.9880685,10.5069268 C38.6134932,10.5069268 37.1243699,10.6770732 35.4355616,11.0251707 C34.2126849,11.2764878 32.968137,11.4044878 31.7421644,11.4044878 C28.7948767,11.4044878 26.4930822,10.6786341 25.1633973,10.1182439 C23.363137,17.790439 20.7610411,25.2550244 17.2363699,32.8616585 C20.6341096,33.4860488 23.5535342,35.2093659 25.7856712,36.9186341 L25.7856712,36.9201951 C25.8708082,36.8202927 25.9543973,36.7219512 26.045726,36.6282927 L28.3645479,34.2930732 C29.3026027,33.344 30.5564384,32.8210732 31.8907671,32.8210732 C33.2266438,32.8210732 34.4773836,33.344 35.4185342,34.2930732 C36.2745479,35.1578537 36.7513151,36.2599024 36.8534795,37.3916098 C37.4386027,37.1527805 38.0717123,37.0247805 38.7233973,37.0247805 C40.0623699,37.0247805 41.3162055,37.5523902 42.2542603,38.5077073 C43.1675479,39.424 43.6830137,40.6587317 43.701589,41.980878 C44.1164384,41.8700488 44.5452192,41.8076098 44.9832877,41.8076098 C46.3222603,41.8076098 47.5745479,42.3336585 48.5126027,43.2874146 C49.4444658,44.220878 49.9630274,45.4837073 49.9661233,46.8308293 C49.9661233,46.8604878 49.9630274,46.8917073 49.9630274,46.9213659 C50.1348493,46.9650732 50.2958356,47.0478049 50.4336027,47.1804878 C51.4815616,48.193561 56.1517123,52.6314146 59.2445068,55.5676098 L61.6531096,57.857561 C61.6887123,57.8903415 61.727411,57.9278049 61.7645616,57.9668293 C61.7924247,57.9933659 61.8187397,58.0183415 61.8466027,58.044878 C62.2521644,58.430439 62.6453425,58.8035122 63.0199452,59.1640976 C63.985863,59.8103415 64.9688082,60.1521951 65.8635205,60.1521951 C66.8371781,60.1521951 67.6498493,59.7479024 68.0910137,59.0454634 C68.5027671,58.3882927 68.5368219,57.5656585 68.1854384,56.7133659 L54.9907534,43.3717073 C54.5805479,42.9533659 54.5805479,42.2774634 54.9938493,41.859122 C55.4086986,41.4439024 56.0789589,41.4439024 56.4938082,41.8622439 L68.9748904,54.4842927 C68.9981096,54.5077073 69.0259726,54.529561 69.0507397,54.5545366 L69.0522877,54.5514146 C69.0584795,54.5592195 69.0677671,54.5670244 69.0770548,54.5763902 C69.2473288,54.7340488 69.4702329,54.9525854 69.7844658,55.2616585 C70.1621644,55.4380488 70.6311918,55.5285854 71.1482055,55.5285854 C72.3370274,55.5285854 73.8540137,55.0087805 74.5614247,53.8489756 C75.1032055,52.9623415 75.0629589,51.8509268 74.4437808,50.5443902 L62.828,38.8011707 C62.6205753,38.593561 62.516863,38.3188293 62.516863,38.0456585 C62.516863,37.7724878 62.6221233,37.4993171 62.8295479,37.2917073 C63.2428493,36.8749268 63.9131096,36.8749268 64.3279589,37.2932683 L75.9685068,49.0583415 C76.6031644,49.4189268 77.3059315,49.6093659 78.0009589,49.6093659 C79.3677945,49.6093659 80.5550685,48.8757073 81.0225479,47.744 C81.7175753,46.0534634 80.8120274,43.7681951 78.5396438,41.468878 C77.3972603,40.3106341 76.2424932,39.1320976 75.0753425,37.9457561" id="Fill-8" fill="#ED9439" sketch:type="MSShapeGroup"></path>
                <path d="M46.5962466,52.2177561 L44.8718356,53.9613659 C43.7573151,55.0899512 43.7573151,56.9319024 44.8718356,58.0604878 C45.9894521,59.1906341 47.8191233,59.1906341 48.9274521,58.0604878 L50.653411,56.318439 C51.7679315,55.1960976 51.7679315,53.3463415 50.653411,52.2177561 C49.5342466,51.0891707 47.7123151,51.0891707 46.5962466,52.2177561" id="Fill-9" fill="#F9EDA0" sketch:type="MSShapeGroup"></path>
                <path d="M111.08674,30.9010732 L100.418301,0.989658537 C100.229452,0.465170732 99.7341096,0.132682927 99.2078082,0.132682927 C99.0638493,0.132682927 98.9183425,0.157658537 98.7759315,0.209170732 C96.4524658,1.05834146 94.1212603,1.90595122 91.7900548,2.75668293 C88.9851781,3.77756098 89.6833014,8.29502439 90.9866712,12.6220488 C92.463411,17.4954146 95.1258767,25.4220488 97.1784521,29.8021463 C98.5994658,32.8398049 100.33626,35.2796098 102.382644,35.2796098 C102.690685,35.2796098 103.004918,35.2234146 103.328438,35.1063415 C105.659644,34.2571707 107.992397,33.409561 110.315863,32.5603902 C110.981479,32.318439 111.326671,31.5754146 111.08674,30.9010732 L111.08674,30.9010732 Z M102.614836,33.1129756 C102.528151,33.1457561 102.452301,33.1613659 102.382644,33.1613659 C102.247973,33.1613659 101.018904,33.0411707 99.0808767,28.8967805 C97.2109589,24.9100488 94.6150548,17.345561 92.9974521,12.0070244 C92.291589,9.66556098 91.9386575,7.8017561 91.9479452,6.46556098 C91.952589,5.7724878 92.0547534,4.91239024 92.5036575,4.7484878 C94.5779041,3.99297561 96.6536986,3.23746341 98.7171096,2.4835122 L108.836027,30.848 C106.766425,31.6035122 104.69063,32.3590244 102.614836,33.1129756 L102.614836,33.1129756 Z" id="Fill-10" fill="#131E28" sketch:type="MSShapeGroup"></path>
                <path d="M18.6991781,2.75668293 C16.3679726,1.90595122 14.0429589,1.05834146 11.7102055,0.209170732 C11.5724384,0.157658537 11.4253836,0.132682927 11.2829726,0.132682927 C10.7566712,0.132682927 10.2582329,0.465170732 10.0678356,0.989658537 L-0.599054795,30.9010732 C-0.837438356,31.5754146 -0.48760274,32.318439 0.174917808,32.5603902 C2.50457534,33.409561 4.8280411,34.2571707 7.16234247,35.1063415 C7.48276712,35.2234146 7.797,35.2796098 8.10658904,35.2796098 C10.1529726,35.2796098 11.8882192,32.8398049 13.3092329,29.8021463 C15.3710959,25.4220488 18.0258219,17.4954146 19.5010137,12.6220488 C20.8121233,8.29502439 21.5040548,3.77756098 18.6991781,2.75668293 L18.6991781,2.75668293 Z M17.4917808,12.0039024 C15.8107123,17.5516098 13.278274,24.9240976 11.4099041,28.8983415 C9.47187671,33.0411707 8.23816438,33.1613659 8.10658904,33.1613659 C8.03538356,33.1613659 7.96108219,33.1457561 7.87594521,33.1129756 C6.70879452,32.6883902 5.54473973,32.2653659 4.38068493,31.8407805 C3.47049315,31.5098537 2.56030137,31.1773659 1.65320548,30.846439 L11.7690274,2.4835122 C12.7194658,2.8284878 13.6652603,3.17346341 14.6126027,3.51843902 C15.736411,3.92897561 16.8617671,4.33795122 17.9840274,4.7484878 C18.4360274,4.91239024 18.5366438,5.77404878 18.5412877,6.46712195 C18.5536712,7.80643902 18.2007397,9.66868293 17.4917808,12.0039024 L17.4917808,12.0039024 Z" id="Fill-11" fill="#131E28" sketch:type="MSShapeGroup"></path>
                <path d="M95.7914932,33.347122 C91.4061644,23.9890732 88.564137,15.8423415 87.1013288,8.44331707 C87.0347671,8.10146341 86.8056712,7.81580488 86.4898904,7.67531707 C86.1741096,7.53482927 85.8087945,7.5582439 85.513137,7.73619512 C85.4728904,7.76273171 81.330589,10.2119024 75.4870959,9.00682927 C73.5722877,8.61346341 71.6481918,8.01560976 69.7875616,7.43804878 C65.5307123,6.11590244 61.1283562,4.7484878 56.8807945,5.91609756 L55.8374795,6.20331707 C52.1719452,7.20546341 48.6410822,8.17326829 46.1721096,9.54068293 C44.1427534,8.73365854 42.1629315,8.3715122 39.9880685,8.3715122 C38.4695342,8.3715122 36.8426438,8.55414634 35.0098767,8.93034146 C33.9263151,9.15356098 32.827274,9.2675122 31.7421644,9.2675122 C27.6788082,9.2675122 25.000863,7.67687805 24.9776438,7.66282927 C24.6850822,7.48487805 24.3275068,7.45678049 24.013274,7.59258537 C23.6990411,7.72682927 23.4683973,8.0062439 23.3940959,8.34185366 C21.5241781,16.7601951 18.6806027,24.9131707 14.6992877,33.2643902 C14.549137,33.5812683 14.5615205,33.9543415 14.7364384,34.2587317 C14.9098082,34.5646829 15.2224932,34.7644878 15.5707808,34.7925854 C19.2332192,35.0891707 22.4204384,36.9873171 24.776411,38.8339512 C24.3073836,40.5291707 24.7315205,42.4257561 26.0519178,43.7603902 C26.9357945,44.6470244 28.0983014,45.1559024 29.3428493,45.2120976 C28.8026164,46.9479024 29.2081781,48.9209756 30.565726,50.2946341 C31.5068767,51.2468293 32.7607123,51.7697561 34.098137,51.7697561 C34.1646986,51.7697561 34.2281644,51.7619512 34.2931781,51.7603902 C34.0021644,53.3400976 34.4572603,55.038439 35.6600137,56.2638049 C36.6042603,57.2081951 37.855,57.726439 39.1893288,57.726439 C40.2047808,57.726439 41.1706986,57.4251707 41.9911096,56.8632195 C42.1567397,57.856 42.6164795,58.8066341 43.3718767,59.5699512 C44.3130274,60.5221463 45.5653151,61.0450732 46.9042877,61.0450732 C48.2014658,61.0450732 49.4166027,60.547122 50.3376301,59.6526829 L50.3515616,59.6558049 C50.963,60.1240976 51.583726,60.5783415 52.2199315,61.0091707 C54.5557808,62.590439 56.9148493,63.4973659 58.6934384,63.4973659 C60.201137,63.4973659 61.0401233,62.8714146 61.4797397,62.3453659 C61.7707534,61.9972683 61.9828219,61.5851707 62.1128493,61.1153171 C63.3512055,61.884878 64.6390959,62.2891707 65.8635205,62.2891707 C67.5538767,62.2891707 69.0538356,61.504 69.8819863,60.1912195 C70.3618493,59.4247805 70.5832055,58.5459512 70.5383151,57.6359024 C70.7395479,57.6561951 70.9423288,57.667122 71.1482055,57.667122 C73.3184247,57.667122 75.3663562,56.6072195 76.3663288,54.9681951 C76.8245205,54.2173659 77.2146027,53.1137561 76.9994384,51.6620488 C77.3306986,51.7166829 77.6666027,51.7447805 78.0009589,51.7447805 C80.2269041,51.7447805 82.1835068,50.497561 82.9791507,48.5619512 C83.7469315,46.7012683 83.3614932,44.5112195 81.9482192,42.3118049 C81.8723699,42.1916098 81.7903288,42.0714146 81.7067397,41.9512195 C81.6897123,41.9278049 81.6757808,41.9043902 81.6572055,41.8809756 C81.7578219,42.0245854 81.8568904,42.1666341 81.9482192,42.3118049 C81.9698904,42.2899512 81.9931096,42.2696585 82.0132329,42.2478049 C82.1556438,42.115122 82.3181781,41.9543415 82.4977397,41.7795122 C84.4744658,39.8517073 89.101274,35.3404878 94.9184521,34.8675122 C95.2651918,34.8394146 95.5763288,34.6427317 95.7496986,34.3383415 C95.9261644,34.0355122 95.9400959,33.662439 95.7914932,33.347122 L95.7914932,33.347122 Z M27.5456849,42.2462439 C26.4296164,41.1176585 26.4296164,39.2679024 27.5456849,38.1393171 L29.861411,35.8040976 C30.9805753,34.6739512 32.8009589,34.6739512 33.9185753,35.8040976 C35.0361918,36.9326829 35.0361918,38.7730732 33.9185753,39.9047805 L31.610589,42.2462439 C30.4929726,43.3670244 28.6633014,43.3670244 27.5456849,42.2462439 L27.5456849,42.2462439 Z M32.0672329,48.7851707 C30.9496164,47.6565854 30.9496164,45.8068293 32.0672329,44.6782439 L36.6924932,40.0093659 C37.8101096,38.8807805 39.6382329,38.8807805 40.7481096,40.0093659 C41.865726,41.1317073 41.865726,42.9799024 40.7481096,44.1100488 L36.1290411,48.7851707 C35.0129726,49.9153171 33.1848493,49.9153171 32.0672329,48.7851707 L32.0672329,48.7851707 Z M41.2202329,54.7496585 C40.1041644,55.870439 38.2760411,55.870439 37.1568767,54.7496585 C36.047,53.6210732 36.047,51.7713171 37.1568767,50.6427317 L42.9523836,44.7906341 C44.07,43.6620488 45.8981233,43.6620488 47.008,44.7906341 C48.1256164,45.9129756 48.1256164,47.7627317 47.008,48.8913171 L41.2202329,54.7496585 L41.2202329,54.7496585 Z M44.8718356,58.0604878 C43.7573151,56.9319024 43.7573151,55.0899512 44.8718356,53.9613659 L46.5962466,52.2177561 C47.7123151,51.0891707 49.5342466,51.0891707 50.653411,52.2177561 C51.7679315,53.3463415 51.7679315,55.1960976 50.653411,56.318439 L48.9274521,58.0604878 C47.8191233,59.1906341 45.9894521,59.1906341 44.8718356,58.0604878 L44.8718356,58.0604878 Z M49.3345616,49.2909268 C49.3608767,49.2440976 49.3840959,49.1957073 49.4073151,49.148878 C49.4738767,49.212878 49.5388904,49.2737561 49.607,49.3393171 C49.5156712,49.3237073 49.4274384,49.3034146 49.3345616,49.2909268 L49.3345616,49.2909268 Z M59.8590411,60.9685854 C59.6407808,61.2277073 59.2476027,61.3603902 58.6934384,61.3603902 C57.3436301,61.3603902 55.3669041,60.5658537 53.4041096,59.2359024 C52.8824521,58.883122 52.3700822,58.5084878 51.8592603,58.1229268 L51.8530685,58.1276098 L52.1471781,57.8325854 C53.0898767,56.8850732 53.6099863,55.6206829 53.6099863,54.272 C53.6099863,53.8364878 53.5496164,53.4134634 53.4459041,53.0029268 C54.2090411,53.7272195 55.0093288,54.4874146 55.8266438,55.2600976 C57.2801644,56.641561 58.7661918,58.051122 60.1221918,59.3404878 C60.2057808,60.0913171 60.1144521,60.6610732 59.8590411,60.9685854 L59.8590411,60.9685854 Z M81.0225479,47.744 C80.5550685,48.8757073 79.3677945,49.6093659 78.0009589,49.6093659 C77.3059315,49.6093659 76.6031644,49.4189268 75.9685068,49.0583415 L64.3279589,37.2932683 C63.9131096,36.8749268 63.2428493,36.8749268 62.8295479,37.2917073 C62.6221233,37.4993171 62.516863,37.7724878 62.516863,38.0456585 C62.516863,38.3188293 62.6205753,38.593561 62.828,38.8011707 L74.4437808,50.5443902 C75.0629589,51.8509268 75.1032055,52.9623415 74.5614247,53.8489756 C73.8540137,55.0087805 72.3370274,55.5285854 71.1482055,55.5285854 C70.6311918,55.5285854 70.1621644,55.4380488 69.7844658,55.2616585 C69.4702329,54.9525854 69.2473288,54.7340488 69.0770548,54.5763902 C69.0677671,54.5670244 69.0584795,54.5592195 69.0522877,54.5514146 L69.0507397,54.5545366 C69.0259726,54.529561 68.9981096,54.5077073 68.9748904,54.4842927 L56.4938082,41.8622439 C56.0789589,41.4439024 55.4086986,41.4439024 54.9938493,41.859122 C54.5805479,42.2774634 54.5805479,42.9533659 54.9907534,43.3717073 L68.1854384,56.7133659 C68.5368219,57.5656585 68.5027671,58.3882927 68.0910137,59.0454634 C67.6498493,59.7479024 66.8371781,60.1521951 65.8635205,60.1521951 C64.9688082,60.1521951 63.985863,59.8103415 63.0199452,59.1640976 C62.6453425,58.8035122 62.2521644,58.430439 61.8466027,58.044878 C61.8187397,58.0183415 61.7924247,57.9933659 61.7645616,57.9668293 C61.727411,57.9278049 61.6887123,57.8903415 61.6531096,57.857561 L59.2445068,55.5676098 C56.1517123,52.6314146 51.4815616,48.193561 50.4336027,47.1804878 C50.2958356,47.0478049 50.1348493,46.9650732 49.9630274,46.9213659 C49.9630274,46.8917073 49.9661233,46.8604878 49.9661233,46.8308293 C49.9630274,45.4837073 49.4444658,44.220878 48.5126027,43.2874146 C47.5745479,42.3336585 46.3222603,41.8076098 44.9832877,41.8076098 C44.5452192,41.8076098 44.1164384,41.8700488 43.701589,41.980878 C43.6830137,40.6587317 43.1675479,39.424 42.2542603,38.5077073 C41.3162055,37.5523902 40.0623699,37.0247805 38.7233973,37.0247805 C38.0717123,37.0247805 37.4386027,37.1527805 36.8534795,37.3916098 C36.7513151,36.2599024 36.2745479,35.1578537 35.4185342,34.2930732 C34.4773836,33.344 33.2266438,32.8210732 31.8907671,32.8210732 C30.5564384,32.8210732 29.3026027,33.344 28.3645479,34.2930732 L26.045726,36.6282927 C25.9543973,36.7219512 25.8708082,36.8202927 25.7856712,36.9201951 L25.7856712,36.9186341 C23.5535342,35.2093659 20.6341096,33.4860488 17.2363699,32.8616585 C20.7610411,25.2550244 23.363137,17.790439 25.1633973,10.1182439 C26.4930822,10.6786341 28.7948767,11.4044878 31.7421644,11.4044878 C32.968137,11.4044878 34.2126849,11.2764878 35.4355616,11.0251707 C37.1243699,10.6770732 38.6134932,10.5069268 39.9880685,10.5069268 C41.4075342,10.5069268 42.7372192,10.689561 44.0715479,11.0798049 C43.7232603,11.4403902 43.4353425,11.8228293 43.2201781,12.2349268 C41.7651096,15.0509268 38.2326986,27.0204878 38.0825479,27.5278049 C37.9788356,27.8790244 38.0608767,28.2567805 38.2992603,28.5330732 C38.4138082,28.6673171 41.1753425,31.809561 44.9987671,30.8620488 C49.5017397,29.7381463 51.6502877,25.1879024 52.3251918,21.182439 C56.2275616,23.5379512 59.7135342,25.216 62.9998219,25.8497561 L62.996726,25.8497561 C67.1204521,29.8458537 71.1311781,33.9293659 75.0753425,37.9457561 C76.2424932,39.1320976 77.3972603,40.3106341 78.5396438,41.468878 C80.8120274,43.7681951 81.7175753,46.0534634 81.0225479,47.744 L81.0225479,47.744 Z M80.9761096,40.9927805 C81.0860137,41.1239024 81.191274,41.2550244 81.2949863,41.3877073 C81.2887945,41.3814634 81.2841507,41.3767805 81.2795068,41.3720976 C81.1819863,41.2440976 81.0829178,41.1192195 80.9761096,40.9927805 L80.9761096,40.9927805 Z M81.4188219,41.5531707 C81.4791918,41.6327805 81.5364658,41.7123902 81.5937397,41.792 C81.5364658,41.7123902 81.4791918,41.6327805 81.4188219,41.5531707 L81.4188219,41.5531707 Z M81.0256438,40.2435122 C80.8863288,40.3793171 80.7624932,40.4979512 80.6479452,40.6087805 C80.4544521,40.3918049 80.2547671,40.1748293 80.0426986,39.9609756 C78.901863,38.8027317 77.7470959,37.6273171 76.5814932,36.4409756 C73.2193562,33.0161951 69.806137,29.5445854 66.3155205,26.115122 C66.1359589,26.1213659 65.9548493,26.1307317 65.7752877,26.1307317 C67.7674932,26.1307317 69.7086164,25.6780488 71.6466438,24.6743415 C72.1698493,24.4058537 72.375726,23.7627317 72.1079315,23.2366829 C71.8416849,22.7106341 71.2023836,22.5045854 70.682274,22.7730732 C65.3821096,25.5094634 59.9890685,23.425561 52.5573836,18.8300488 C52.5697671,18.4429268 52.5666712,18.0729756 52.5496438,17.7217561 C52.5217808,17.1332683 52.0279863,16.6837073 51.4397671,16.7086829 C50.8546438,16.7383415 50.4041918,17.2394146 50.4336027,17.8294634 C50.6255479,21.7147317 48.9119726,27.6839024 44.4910411,28.7875122 C42.6071918,29.2542439 41.0112603,28.1412683 40.2992055,27.516878 C41.0546027,24.9927805 43.9167534,15.5145366 45.0993836,13.2245854 C46.2278356,11.0485854 51.3964247,9.63121951 56.3947397,8.26380488 L57.4380548,7.97658537 C61.0912055,6.97287805 65.0136986,8.192 69.1652877,9.48136585 C71.0723562,10.0729756 73.0475342,10.684878 75.059863,11.1000976 C79.7532329,12.0663415 83.4450822,10.9830244 85.3010685,10.2087805 C86.7886438,17.0599024 89.4031233,24.5229268 93.2606027,32.9365854 C87.4202055,34.0058537 82.999274,38.3172683 81.0256438,40.2435122 L81.0256438,40.2435122 Z" id="Fill-12" fill="#131E28" sketch:type="MSShapeGroup"></path>
            </g>
        </g>
    </g>
</svg>