<?xml version="1.0" encoding="UTF-8" standalone="no"?>
<svg width="126px" height="35px" viewBox="0 0 126 35" version="1.1" xmlns="http://www.w3.org/2000/svg" xmlns:xlink="http://www.w3.org/1999/xlink" xmlns:sketch="http://www.bohemiancoding.com/sketch/ns">
    <!-- Generator: Sketch 3.1.1 (8761) - http://www.bohemiancoding.com/sketch -->
    <title>i-colador-cucharon</title>
    <desc>Created with Sketch.</desc>
    <defs></defs>
    <g id="Page-1" stroke="none" stroke-width="1" fill="none" fill-rule="evenodd" sketch:type="MSPage">
        <g id="Desktop-HD" sketch:type="MSArtboardGroup" transform="translate(-1070.000000, -652.000000)">
            <g id="i-colador-cucharon" sketch:type="MSLayerGroup" transform="translate(1070.000000, 653.000000)">
                <path d="M0.45,14.595 L0.45,15.768 L0.497,15.768 C1.366,7.864 14.456,1.588 21.726,1.588 L41.704,1.588 C47.94,1.588 53.184,6.214 54.798,12.518 L119.563,12.518 C121.552,12.518 123.251,13.861 123.964,15.768 L124.327,15.768 C124.327,12.868 122.194,10.518 119.563,10.518 L54.798,10.518 C53.184,4.214 47.94,-0.412 41.704,-0.412 L21.726,-0.412 C14.204,-0.412 0.45,6.307 0.45,14.595" id="Fill-1" fill="#595956" sketch:type="MSShapeGroup"></path>
                <path d="M0.45,16.595 L0.45,17.768 L100.546,17.768 C100.546,16.663 101.44,15.768 102.546,15.768 L115.712,15.768 C116.815,15.768 117.712,16.663 117.712,17.768 L125.327,17.768 C125.327,14.868 123.194,12.518 120.563,12.518 L54.798,12.518 C53.184,6.214 47.94,1.588 41.704,1.588 L21.726,1.588 C14.204,1.588 0.45,8.307 0.45,16.595 L0.45,16.595 Z M41.546,13.584 C41.546,14.481 40.817,15.209 39.921,15.209 C39.022,15.209 38.296,14.481 38.296,13.584 C38.296,12.686 39.022,11.959 39.921,11.959 C40.817,11.959 41.546,12.686 41.546,13.584 L41.546,13.584 Z M31.796,13.584 C31.796,14.481 31.067,15.209 30.171,15.209 C29.272,15.209 28.546,14.481 28.546,13.584 C28.546,12.686 29.272,11.959 30.171,11.959 C31.067,11.959 31.796,12.686 31.796,13.584 L31.796,13.584 Z M22.046,13.584 C22.046,14.481 21.317,15.209 20.421,15.209 C19.522,15.209 18.796,14.481 18.796,13.584 C18.796,12.686 19.522,11.959 20.421,11.959 C21.317,11.959 22.046,12.686 22.046,13.584 L22.046,13.584 Z M12.296,13.584 C12.296,14.481 11.567,15.209 10.671,15.209 C9.772,15.209 9.046,14.481 9.046,13.584 C9.046,12.686 9.772,11.959 10.671,11.959 C11.567,11.959 12.296,12.686 12.296,13.584 L12.296,13.584 Z M41.546,7.209 C41.546,8.106 40.817,8.834 39.921,8.834 C39.022,8.834 38.296,8.106 38.296,7.209 C38.296,6.311 39.022,5.584 39.921,5.584 C40.817,5.584 41.546,6.311 41.546,7.209 L41.546,7.209 Z M31.796,7.209 C31.796,8.106 31.067,8.834 30.171,8.834 C29.272,8.834 28.546,8.106 28.546,7.209 C28.546,6.311 29.272,5.584 30.171,5.584 C31.067,5.584 31.796,6.311 31.796,7.209 L31.796,7.209 Z M22.046,7.209 C22.046,8.106 21.317,8.834 20.421,8.834 C19.522,8.834 18.796,8.106 18.796,7.209 C18.796,6.311 19.522,5.584 20.421,5.584 C21.317,5.584 22.046,6.311 22.046,7.209 L22.046,7.209 Z" id="Fill-2" fill="#454543" sketch:type="MSShapeGroup"></path>
                <path d="M115.712,19.768 L102.546,19.768 C101.44,19.768 100.546,18.872 100.546,17.768 L0.45,17.768 L0.45,18.94 C0.45,27.228 14.204,33.947 21.726,33.947 L41.704,33.947 C47.94,33.947 53.184,29.321 54.798,23.018 L120.563,23.018 C123.194,23.018 125.327,20.667 125.327,17.768 L117.712,17.768 C117.712,18.872 116.815,19.768 115.712,19.768 L115.712,19.768 Z M41.546,28.326 C41.546,29.224 40.817,29.951 39.921,29.951 C39.022,29.951 38.296,29.224 38.296,28.326 C38.296,27.429 39.022,26.701 39.921,26.701 C40.817,26.701 41.546,27.429 41.546,28.326 L41.546,28.326 Z M31.796,28.326 C31.796,29.224 31.067,29.951 30.171,29.951 C29.272,29.951 28.546,29.224 28.546,28.326 C28.546,27.429 29.272,26.701 30.171,26.701 C31.067,26.701 31.796,27.429 31.796,28.326 L31.796,28.326 Z M22.046,28.326 C22.046,29.224 21.317,29.951 20.421,29.951 C19.522,29.951 18.796,29.224 18.796,28.326 C18.796,27.429 19.522,26.701 20.421,26.701 C21.317,26.701 22.046,27.429 22.046,28.326 L22.046,28.326 Z M41.546,21.951 C41.546,22.849 40.817,23.576 39.921,23.576 C39.022,23.576 38.296,22.849 38.296,21.951 C38.296,21.054 39.022,20.326 39.921,20.326 C40.817,20.326 41.546,21.054 41.546,21.951 L41.546,21.951 Z M31.796,21.951 C31.796,22.849 31.067,23.576 30.171,23.576 C29.272,23.576 28.546,22.849 28.546,21.951 C28.546,21.054 29.272,20.326 30.171,20.326 C31.067,20.326 31.796,21.054 31.796,21.951 L31.796,21.951 Z M22.046,21.951 C22.046,22.849 21.317,23.576 20.421,23.576 C19.522,23.576 18.796,22.849 18.796,21.951 C18.796,21.054 19.522,20.326 20.421,20.326 C21.317,20.326 22.046,21.054 22.046,21.951 L22.046,21.951 Z M12.296,21.951 C12.296,22.849 11.567,23.576 10.671,23.576 C9.772,23.576 9.046,22.849 9.046,21.951 C9.046,21.054 9.772,20.326 10.671,20.326 C11.567,20.326 12.296,21.054 12.296,21.951 L12.296,21.951 Z" id="Fill-3" fill="#595956" sketch:type="MSShapeGroup"></path>
            </g>
        </g>
    </g>
</svg>