<?xml version="1.0" encoding="UTF-8" standalone="no"?>
<svg width="51px" height="63px" viewBox="0 0 51 63" version="1.1" xmlns="http://www.w3.org/2000/svg" xmlns:xlink="http://www.w3.org/1999/xlink" xmlns:sketch="http://www.bohemiancoding.com/sketch/ns">
    <!-- Generator: Sketch 3.1.1 (8761) - http://www.bohemiancoding.com/sketch -->
    <title>i-freidor</title>
    <desc>Created with Sketch.</desc>
    <defs></defs>
    <g id="Page-1" stroke="none" stroke-width="1" fill="none" fill-rule="evenodd" sketch:type="MSPage">
        <g id="Desktop-HD" sketch:type="MSArtboardGroup" transform="translate(-162.000000, -308.000000)" fill="#FFFFFF">
            <path d="M162.497689,335.842509 C162.117689,336.217509 161.940689,336.751509 162.017689,337.280509 L165.645689,361.989509 C165.747689,362.682509 166.270689,363.240509 166.954689,363.387509 L201.514689,370.817509 C202.492689,371.028509 203.308689,370.445509 203.536689,369.351509 C204.029689,366.980509 210.855689,346.874509 210.919689,345.790509 C211.073689,343.185509 212.291689,325.902509 212.343689,321.762509 C212.358689,320.571509 211.969689,319.842509 210.652689,319.607509 C209.966689,319.483509 209.171689,319.499509 208.437689,319.426509 L209.309689,311.777509 C209.415689,310.833509 208.700689,309.975509 207.753689,309.911509 L184.162689,308.005509 C183.272689,307.932509 182.488689,308.593509 182.383689,309.481509 L181.518689,316.693509 C180.282689,316.568509 179.208689,316.245509 178.471689,317.111509 L162.497689,335.842509 L162.497689,335.842509 Z M205.095689,319.087509 L184.860689,317.032509 L185.527689,311.464509 C188.075689,311.637509 202.983689,312.955509 205.772689,313.143509 L205.095689,319.087509 L205.095689,319.087509 Z M182.592689,330.112509 L180.463689,335.267509 C172.050689,334.105509 174.100689,333.483509 180.865689,325.157509 C182.200689,323.492509 184.791689,323.392509 186.713689,323.625509 L200.982689,325.202509 C201.821689,325.324509 202.999689,326.025509 202.446689,327.510509 C198.880689,337.071509 198.875689,337.589509 190.401689,336.552509 C190.430689,333.991509 190.824689,331.419509 190.228689,330.266509 C189.758689,329.358509 188.442689,329.474509 188.066689,330.427509 L185.892689,335.969509 L184.983689,335.851509 C184.983689,333.578509 185.287689,331.314509 184.830689,330.149509 C184.429689,329.127509 183.032689,329.052509 182.592689,330.112509 L182.592689,330.112509 Z M179.800689,336.874509 L179.406689,337.830509 L166.959689,335.854509 C170.912689,331.198509 179.636689,320.921509 180.454689,319.960509 C181.997689,320.117509 205.083689,322.462509 208.505689,322.808509 L202.921689,341.540509 L187.340689,339.085509 L187.802689,337.909509 L188.124689,337.950509 C188.536689,338.692509 189.481689,338.758509 190.033689,338.198509 C193.396689,338.610509 199.323689,339.695509 201.232689,334.980509 L204.018689,328.095509 C205.044689,325.345509 203.036689,323.755509 201.440689,323.577509 L186.907689,321.957509 C181.624689,321.314509 179.712689,323.899509 179.634689,324.010509 C179.634689,324.010509 174.209689,330.701509 174.206689,330.704509 C171.948689,333.491509 173.890689,336.068509 177.544689,336.559509 L179.800689,336.874509 L179.800689,336.874509 Z M178.087689,341.021509 C176.607689,344.608509 174.644689,347.643509 175.900689,349.931509 C176.887689,351.732509 179.208689,352.212509 181.021689,351.565509 C181.995689,351.215509 182.853689,350.521509 183.347689,349.264509 L186.084689,342.285509 L202.303689,344.843509 C202.082689,347.381509 200.624689,364.092509 200.359689,367.133509 C197.143689,366.442509 170.811689,360.780509 168.799689,360.348509 C168.521689,358.453509 166.193689,342.589509 165.671689,339.052509 L178.087689,341.021509 L178.087689,341.021509 Z M185.259689,337.580509 L184.825689,338.687509 L181.931689,338.229509 L182.355689,337.205509 L182.704689,337.250509 C183.115689,337.980509 184.067689,338.067509 184.626689,337.498509 L185.259689,337.580509 L185.259689,337.580509 Z M183.569689,341.887509 L181.031689,348.358509 C180.196689,350.481509 177.355689,349.295509 178.037689,347.662509 L180.613689,341.421509 L183.569689,341.887509 L183.569689,341.887509 Z M204.884689,353.917509 C205.860689,342.725509 205.046689,346.180509 208.152689,335.759509 C207.467689,347.247509 208.285689,343.145509 204.884689,353.917509 L204.884689,353.917509 Z" id="i-freidor" sketch:type="MSShapeGroup"></path>
        </g>
    </g>
</svg>