<?xml version="1.0" encoding="UTF-8" standalone="no"?>
<svg width="79px" height="83px" viewBox="0 0 79 83" version="1.1" xmlns="http://www.w3.org/2000/svg" xmlns:xlink="http://www.w3.org/1999/xlink" xmlns:sketch="http://www.bohemiancoding.com/sketch/ns">
    <!-- Generator: Sketch 3.1.1 (8761) - http://www.bohemiancoding.com/sketch -->
    <title>i-innovacion</title>
    <desc>Created with Sketch.</desc>
    <defs></defs>
    <g id="Page-1" stroke="none" stroke-width="1" fill="none" fill-rule="evenodd" sketch:type="MSPage">
        <g id="Desktop-HD" sketch:type="MSArtboardGroup" transform="translate(-449.000000, -1960.000000)">
            <g id="i-innovacion" sketch:type="MSLayerGroup" transform="translate(450.000000, 1961.000000)">
                <path d="M33.8340164,21.7076923 C33.8340164,21.7076923 27.5204918,23.6230769 25.5778689,27.1346154 C23.6352459,30.6461538 21.3688525,37.9884615 22.6639344,42.4576923 C23.9590164,46.9269231 28.8155738,53.3115385 30.272541,56.5038462 C31.7295082,59.6961538 32.5389344,63.2076923 32.5389344,63.2076923 L43.0614754,63.2076923 C43.0614754,63.2076923 48.727459,51.7153846 50.1844262,48.6826923 C51.6413934,45.65 56.1741803,34.4769231 53.5840164,29.5288462 C50.9938525,24.5807692 38.8155492,19.4175308 33.8340164,21.7076923" id="Fill-1" fill="#F6DD2D" sketch:type="MSShapeGroup"></path>
                <path d="M46.0440492,71.2733769 C46.7239672,71.6545385 47.186959,72.3677 47.186959,73.1938692 C47.186959,74.2594615 46.4235082,75.1475615 45.4075164,75.3620846 C45.811582,75.7624 46.0621803,76.3140308 46.0621803,76.9250385 C46.0621803,78.1496077 45.053959,79.1436923 43.8113279,79.1436923 C43.4493525,79.1436923 43.1080984,79.1871077 42.8050492,79.2190308 C42.1037623,80.7577231 40.2401393,81.8654538 38.4943689,81.8654538 C36.7252869,81.8654538 34.8312295,80.7277154 34.1539016,79.1558231 C33.8573279,79.1577385 33.528377,79.1436923 33.1767623,79.1436923 C31.9347787,79.1436923 30.9265574,78.1496077 30.9265574,76.9250385 C30.9265574,76.3140308 31.1771557,75.7624 31.5812213,75.3620846 C30.564582,75.1475615 29.8011311,74.2594615 29.8011311,73.1938692 C29.8011311,72.3677 30.264123,71.6545385 30.944041,71.2733769 C30.2077869,70.9075385 29.6988197,70.1656462 29.6988197,69.2979769 C29.6988197,68.0727692 30.7057459,67.0799615 31.9490246,67.0799615 L45.0397131,67.0799615 C46.2823443,67.0799615 47.2892705,68.0727692 47.2892705,69.2979769 C47.2892705,70.1656462 46.7803033,70.9075385 46.0440492,71.2733769 L46.0440492,71.2733769 Z M57.0574262,37.4438538 C57.0574262,42.3932077 54.3856721,46.8311538 51.8026311,51.1216154 C49.3762951,55.1503077 47.0852951,58.9568154 47.0852951,62.8565385 C47.0852951,64.0262 46.1230492,64.9743154 44.9374016,64.9743154 L32.0506885,64.9743154 C30.865041,64.9743154 29.9034426,64.0262 29.9034426,62.8565385 C29.9034426,58.9568154 27.6124426,55.1503077 25.1861066,51.1216154 C22.602418,46.8311538 19.9306639,42.3932077 19.9306639,37.4438538 C19.9306639,26.5868154 27.3909836,19.2923923 38.4943689,19.2923923 C49.5977541,19.2923923 57.0574262,26.5868154 57.0574262,37.4438538 L57.0574262,37.4438538 Z M37.8215738,60.7387615 L39.1671639,60.7387615 C39.239041,58.0336 39.4553197,52.2810615 40.0750164,46.7877385 C40.5567869,42.5247308 41.1214426,39.8259538 41.7055246,38.1174308 C41.1894344,37.8824769 40.7018361,37.5938923 40.298418,37.2797692 C40.234959,37.2306077 40.1734426,37.1808077 40.1138689,37.1303692 C39.5058279,37.3046692 38.9049098,37.3851154 38.4943689,37.3851154 C38.0838279,37.3851154 37.4829098,37.3046692 36.8742213,37.1303692 C36.8152951,37.1808077 36.7537787,37.2306077 36.6896721,37.2797692 C36.2869016,37.5938923 35.7986557,37.8824769 35.2825656,38.1174308 C35.8672951,39.8259538 36.4319508,42.5247308 36.9137213,46.7877385 C37.533418,52.2810615 37.7496967,58.0336 37.8215738,60.7387615 L37.8215738,60.7387615 Z M35.8355656,35.1939154 C35.9352869,35.3790692 36.2066066,35.5635846 36.5536885,35.7219231 C36.8191803,35.3784308 36.9862459,34.9762 36.877459,34.5458769 C36.8515574,34.445 36.7932787,34.3224154 36.5711721,34.279 C36.5258443,34.2707 36.4785738,34.2655923 36.4300082,34.2655923 C36.1845902,34.2655923 35.921041,34.3760462 35.795418,34.5433231 C35.7507377,34.6027 35.6141066,34.7833846 35.8355656,35.1939154 L35.8355656,35.1939154 Z M40.4344016,35.7219231 C40.7827787,35.5635846 41.0528033,35.3790692 41.1531721,35.1939154 C41.3746311,34.7833846 41.2386475,34.6027 41.1933197,34.5433231 C41.0676967,34.3760462 40.8041475,34.2655923 40.5587295,34.2655923 C40.5101639,34.2655923 40.4622459,34.2707 40.416918,34.279 C40.1948115,34.3224154 40.1365328,34.445 40.1106311,34.5465154 C40.0024918,34.9762 40.1689098,35.3784308 40.4344016,35.7219231 L40.4344016,35.7219231 Z M52.7622869,37.4438538 C52.7622869,30.7163846 49.0136721,23.5279462 38.4943689,23.5279462 C27.974418,23.5279462 24.2264508,30.7163846 24.2264508,37.4438538 C24.2264508,41.2312077 26.4870164,44.9847231 28.8796803,48.9591462 C31.1240574,52.6871231 33.4344836,56.5242769 34.0438197,60.7387615 L36.5938361,60.7387615 C36.3775574,51.8507385 35.4671148,42.5987923 34.1467787,38.5305154 C33.291377,38.761 32.4702951,38.7973923 31.9224754,38.5164692 C31.1292377,38.1097692 30.7497787,37.1093 31.0593033,36.2397154 C31.3416311,35.4403615 32.1193279,35.0394077 33.0394836,35.2175385 C33.5937787,35.3248 34.214123,35.6983 34.8312295,36.9899077 C35.0857131,36.8724308 35.3389016,36.7345231 35.5791393,36.5787385 C35.2229918,36.3571923 34.9277131,36.0864846 34.7522295,35.7621462 C34.3792459,35.0726077 34.4006148,34.3651923 34.8105082,33.8218615 C35.2443607,33.2446923 36.070623,32.9458923 36.8120574,33.0921 C37.446,33.2172385 37.9154672,33.6513923 38.0676393,34.2528231 C38.2249918,34.8746846 38.1200902,35.5029308 37.7697705,36.0986154 C38.2852131,36.1956615 38.7035246,36.1956615 39.2189672,36.0986154 C38.8686475,35.5029308 38.7637459,34.8746846 38.9210984,34.2528231 C39.0732705,33.6513923 39.5427377,33.2172385 40.1760328,33.0921 C40.9200574,32.9458923 41.744377,33.2453308 42.1782295,33.8218615 C42.588123,34.3651923 42.6094918,35.0726077 42.2371557,35.7621462 C42.0610246,36.0864846 41.7657459,36.3571923 41.4089508,36.5787385 C41.6491885,36.7345231 41.9030246,36.8724308 42.1575082,36.9899077 C42.7746148,35.6983 43.3943115,35.3248 43.9486066,35.2175385 C44.8681148,35.0394077 45.6458115,35.4403615 45.9294344,36.2397154 C46.2383115,37.1093 45.8588525,38.1097692 45.0662623,38.5164692 C44.5177951,38.7967538 43.6967131,38.761 42.8413115,38.5305154 C41.521623,42.5987923 40.6105328,51.8507385 40.3942541,60.7387615 L42.9442705,60.7387615 C43.5542541,56.5242769 45.8640328,52.6871231 48.1090574,48.9591462 C50.5010738,44.9847231 52.7622869,41.2312077 52.7622869,37.4438538 L52.7622869,37.4438538 Z M44.5003115,37.4432154 C44.769041,37.3046692 44.864877,36.9049923 44.7709836,36.6387538 C44.7399016,36.5500077 44.6570164,36.3137769 44.1843115,36.4057154 C43.8721967,36.4663692 43.5717377,36.8098615 43.2874672,37.3915 C43.8372295,37.5287692 44.295041,37.5492 44.5003115,37.4432154 L44.5003115,37.4432154 Z M32.8037787,36.4057154 C32.7293115,36.3910308 32.6652049,36.3846462 32.6088689,36.3846462 C32.3077623,36.3846462 32.2436557,36.5640538 32.2171066,36.6387538 C32.1232131,36.9049923 32.2190492,37.3046692 32.4884262,37.4432154 C32.6943443,37.5492 33.1521557,37.5274923 33.7012705,37.3915 C33.417,36.8098615 33.116541,36.4663692 32.8037787,36.4057154 L32.8037787,36.4057154 Z" id="Fill-2" fill="#141F29" sketch:type="MSShapeGroup"></path>
                <path d="M38.5267459,13.2263692 C39.8820492,13.2263692 40.9809262,12.1429 40.9809262,10.8059615 L40.9809262,2.27866923 C40.9809262,0.942369231 39.8820492,-0.141738462 38.5267459,-0.141738462 C37.1714426,-0.141738462 36.071918,0.942369231 36.071918,2.27866923 L36.071918,10.8059615 C36.071918,12.1429 37.1714426,13.2263692 38.5267459,13.2263692" id="Fill-3" fill="#F6DD2D" sketch:type="MSShapeGroup"></path>
                <path d="M21.8784672,19.4226385 C22.918418,18.5658231 23.0563443,17.0392615 22.1866967,16.0132538 L16.6385656,9.47157692 C15.7682705,8.44620769 14.2206475,8.30957692 13.1806967,9.16766923 C12.1407459,10.0257615 12.0028197,11.5510462 12.8724672,12.5770538 L18.4205984,19.1193692 C18.9062541,19.6914308 19.6030082,19.9864 20.3049426,19.9864 C20.8605328,19.9864 21.4193607,19.8018846 21.8784672,19.4226385" id="Fill-4" fill="#F6DD2D" sketch:type="MSShapeGroup"></path>
                <path d="M10.7245738,36.6981308 C11.8888525,36.6981308 12.923623,35.8770692 13.1373115,34.7067692 C13.3775492,33.3915385 12.490418,32.1331308 11.1558361,31.8956231 L2.64390984,30.3863 C1.31256557,30.1513462 0.0336721311,31.0234846 -0.205918033,32.3393538 C-0.446155738,33.6545846 0.440327869,34.9136308 1.77490984,35.1498615 L10.2868361,36.6598231 C10.4331803,36.686 10.5795246,36.6981308 10.7245738,36.6981308" id="Fill-5" fill="#F6DD2D" sketch:type="MSShapeGroup"></path>
                <path d="M13.0272295,51.0564923 L5.51510656,55.2811923 C4.33787705,55.9445538 3.92733607,57.4213154 4.59883607,58.5833154 C5.05211475,59.3654308 5.88096721,59.8040538 6.73313115,59.8040538 C7.14561475,59.8040538 7.56392623,59.7025385 7.94727049,59.4861 L15.4593934,55.2614 C16.636623,54.5999538 17.0471639,53.1212769 16.3756639,51.9599154 C15.7028689,50.7985538 14.204459,50.3950462 13.0272295,51.0564923" id="Fill-6" fill="#F6DD2D" sketch:type="MSShapeGroup"></path>
                <path d="M72.2798197,55.2294769 L64.8363361,50.8885769 C63.6701148,50.2092538 62.164582,50.5897769 61.4736557,51.7409231 C60.7840246,52.8907923 61.1706066,54.3752154 62.3374754,55.0551769 L69.780959,59.3948 C70.1727213,59.6246462 70.6026885,59.7331846 71.028123,59.7331846 C71.8673361,59.7331846 72.6851803,59.3079692 73.1436393,58.5437308 C73.8332705,57.3932231 73.4466885,55.9100769 72.2798197,55.2294769" id="Fill-7" fill="#F6DD2D" sketch:type="MSShapeGroup"></path>
                <path d="M77.9173115,32.2953 C77.6977951,30.9768769 76.4350902,30.0785615 75.0985656,30.2988308 L66.5639754,31.6772692 C65.2261557,31.8930692 64.3189508,33.1380692 64.5384672,34.4571308 C64.7359672,35.6440308 65.7765656,36.4861615 66.9576803,36.4861615 C67.0891311,36.4861615 67.2231721,36.4759462 67.3578607,36.4542385 L75.8918033,35.0758 C77.2302705,34.8593615 78.1368279,33.6143615 77.9173115,32.2953" id="Fill-8" fill="#F6DD2D" sketch:type="MSShapeGroup"></path>
                <path d="M64.5028525,9.13893846 C63.4758525,8.26616154 61.9269344,8.37916923 61.0410984,9.39113077 L55.3906557,15.8453385 C54.5054672,16.8573 54.6194344,18.3851385 55.6457869,19.2585538 C56.1094262,19.6531231 56.6799098,19.8472154 57.2478033,19.8472154 C57.9374344,19.8472154 58.6218852,19.5624615 59.107541,19.0082769 L64.7579836,12.5534308 C65.6431721,11.5414692 65.5292049,10.0129923 64.5028525,9.13893846" id="Fill-9" fill="#F6DD2D" sketch:type="MSShapeGroup"></path>
            </g>
        </g>
    </g>
</svg>