<?xml version="1.0" encoding="UTF-8" standalone="no"?>
<svg width="61px" height="46px" viewBox="0 0 61 46" version="1.1" xmlns="http://www.w3.org/2000/svg" xmlns:xlink="http://www.w3.org/1999/xlink" xmlns:sketch="http://www.bohemiancoding.com/sketch/ns">
    <!-- Generator: Sketch 3.1.1 (8761) - http://www.bohemiancoding.com/sketch -->
    <title>i-industrial</title>
    <desc>Created with Sketch.</desc>
    <defs></defs>
    <g id="Page-1" stroke="none" stroke-width="1" fill="none" fill-rule="evenodd" sketch:type="MSPage">
        <g id="Desktop-HD" sketch:type="MSArtboardGroup" transform="translate(-368.000000, -319.000000)">
            <g id="i-industrial" sketch:type="MSLayerGroup" transform="translate(370.000000, 320.000000)">
                <path d="M13.5596101,44.0092562 C9.33461635,44.0092562 5.89777358,40.5643388 5.89777358,36.3302479 C5.89777358,32.0965289 9.33461635,28.6519835 13.5596101,28.6519835 C17.7838616,28.6519835 21.2207044,32.0965289 21.2207044,36.3302479 C21.2207044,40.5643388 17.7838616,44.0092562 13.5596101,44.0092562 L13.5596101,44.0092562 Z M13.5596101,30.8833884 C10.5624843,30.8833884 8.12418868,33.3267769 8.12418868,36.3302479 C8.12418868,39.3340909 10.5624843,41.7778512 13.5596101,41.7778512 C16.5563648,41.7778512 18.9942893,39.3340909 18.9942893,36.3302479 C18.9942893,33.3267769 16.5563648,30.8833884 13.5596101,30.8833884 L13.5596101,30.8833884 Z" id="Fill-1" fill="#FFFFFF" sketch:type="MSShapeGroup"></path>
                <path d="M13.5596101,44.0092562 C9.33461635,44.0092562 5.89777358,40.5643388 5.89777358,36.3302479 C5.89777358,32.0965289 9.33461635,28.6519835 13.5596101,28.6519835 C17.7838616,28.6519835 21.2207044,32.0965289 21.2207044,36.3302479 C21.2207044,40.5643388 17.7838616,44.0092562 13.5596101,44.0092562 L13.5596101,44.0092562 Z M13.5596101,30.8833884 C10.5624843,30.8833884 8.12418868,33.3267769 8.12418868,36.3302479 C8.12418868,39.3340909 10.5624843,41.7778512 13.5596101,41.7778512 C16.5563648,41.7778512 18.9942893,39.3340909 18.9942893,36.3302479 C18.9942893,33.3267769 16.5563648,30.8833884 13.5596101,30.8833884 L13.5596101,30.8833884 Z" id="Stroke-2" stroke="#FFFFFF" stroke-width="2" sketch:type="MSShapeGroup"></path>
                <path d="M43.681522,44.0092562 C39.4572704,44.0092562 36.0200566,40.5643388 36.0200566,36.3302479 C36.0200566,32.0965289 39.4572704,28.6519835 43.681522,28.6519835 C47.9057736,28.6519835 51.3426164,32.0965289 51.3426164,36.3302479 C51.3426164,40.5643388 47.9057736,44.0092562 43.681522,44.0092562 L43.681522,44.0092562 Z M43.681522,30.8833884 C40.6847673,30.8833884 38.2464717,33.3267769 38.2464717,36.3302479 C38.2464717,39.3340909 40.6847673,41.7778512 43.681522,41.7778512 C46.6782767,41.7778512 49.1162013,39.3340909 49.1162013,36.3302479 C49.1162013,33.3267769 46.6782767,30.8833884 43.681522,30.8833884 L43.681522,30.8833884 Z" id="Fill-3" fill="#FFFFFF" sketch:type="MSShapeGroup"></path>
                <path d="M43.681522,44.0092562 C39.4572704,44.0092562 36.0200566,40.5643388 36.0200566,36.3302479 C36.0200566,32.0965289 39.4572704,28.6519835 43.681522,28.6519835 C47.9057736,28.6519835 51.3426164,32.0965289 51.3426164,36.3302479 C51.3426164,40.5643388 47.9057736,44.0092562 43.681522,44.0092562 L43.681522,44.0092562 Z M43.681522,30.8833884 C40.6847673,30.8833884 38.2464717,33.3267769 38.2464717,36.3302479 C38.2464717,39.3340909 40.6847673,41.7778512 43.681522,41.7778512 C46.6782767,41.7778512 49.1162013,39.3340909 49.1162013,36.3302479 C49.1162013,33.3267769 46.6782767,30.8833884 43.681522,30.8833884 L43.681522,30.8833884 Z" id="Stroke-4" stroke="#FFFFFF" stroke-width="2" sketch:type="MSShapeGroup"></path>
                <path d="M36.3469686,37.0524793 L20.6318176,37.0524793 C20.0165849,37.0524793 19.5186101,36.5530165 19.5186101,35.9367769 C19.5186101,35.3205372 20.0165849,34.8210744 20.6318176,34.8210744 L36.3469686,34.8210744 C36.9618302,34.8210744 37.4601761,35.3205372 37.4601761,35.9367769 C37.4601761,36.5530165 36.9618302,37.0524793 36.3469686,37.0524793" id="Fill-5" fill="#FFFFFF" sketch:type="MSShapeGroup"></path>
                <path d="M36.3469686,37.0524793 L20.6318176,37.0524793 C20.0165849,37.0524793 19.5186101,36.5530165 19.5186101,35.9367769 C19.5186101,35.3205372 20.0165849,34.8210744 20.6318176,34.8210744 L36.3469686,34.8210744 C36.9618302,34.8210744 37.4601761,35.3205372 37.4601761,35.9367769 C37.4601761,36.5530165 36.9618302,37.0524793 36.3469686,37.0524793 L36.3469686,37.0524793 Z" id="Stroke-6" stroke="#FFFFFF" stroke-width="2" sketch:type="MSShapeGroup"></path>
                <path d="M45.6964277,36.3302479 C45.6964277,37.4455785 44.7943585,38.3496694 43.6818931,38.3496694 C42.5690566,38.3496694 41.6666164,37.4455785 41.6666164,36.3302479 C41.6666164,35.2152893 42.5690566,34.3115702 43.6818931,34.3115702 C44.7943585,34.3115702 45.6964277,35.2152893 45.6964277,36.3302479" id="Fill-7" fill="#FFFFFF" sketch:type="MSShapeGroup"></path>
                <path d="M45.6964277,36.3302479 C45.6964277,37.4455785 44.7943585,38.3496694 43.6818931,38.3496694 C42.5690566,38.3496694 41.6666164,37.4455785 41.6666164,36.3302479 C41.6666164,35.2152893 42.5690566,34.3115702 43.6818931,34.3115702 C44.7943585,34.3115702 45.6964277,35.2152893 45.6964277,36.3302479 L45.6964277,36.3302479 Z" id="Stroke-8" stroke="#FFFFFF" stroke-width="2" sketch:type="MSShapeGroup"></path>
                <path d="M15.5745157,36.3302479 C15.5745157,37.4455785 14.6720755,38.3496694 13.5596101,38.3496694 C12.4471447,38.3496694 11.5447044,37.4455785 11.5447044,36.3302479 C11.5447044,35.2152893 12.4471447,34.3115702 13.5596101,34.3115702 C14.6720755,34.3115702 15.5745157,35.2152893 15.5745157,36.3302479" id="Fill-9" fill="#FFFFFF" sketch:type="MSShapeGroup"></path>
                <path d="M15.5745157,36.3302479 C15.5745157,37.4455785 14.6720755,38.3496694 13.5596101,38.3496694 C12.4471447,38.3496694 11.5447044,37.4455785 11.5447044,36.3302479 C11.5447044,35.2152893 12.4471447,34.3115702 13.5596101,34.3115702 C14.6720755,34.3115702 15.5745157,35.2152893 15.5745157,36.3302479 L15.5745157,36.3302479 Z" id="Stroke-10" stroke="#FFFFFF" stroke-width="2" sketch:type="MSShapeGroup"></path>
                <path d="M3.18377358,36.8252479 C1.40523899,36.8252479 -0.0478679245,35.3763223 -0.0567735849,33.5882231 L-0.0567735849,2.67322314 C-0.0567735849,1.23805785 1.08834591,0.0699173554 2.49618239,0.0699173554 L31.5290063,0.0699173554 C32.9364717,0.0699173554 34.0815912,1.23805785 34.0815912,2.67322314 L34.2129497,25.9583058 L36.3094906,25.9185124 L36.3094906,8.14909091 C36.3094906,7.03933884 37.2111887,6.13636364 38.3199434,6.13636364 L48.8386415,6.13636364 C49.5848616,6.13636364 49.8364465,6.13636364 53.3541824,12.4679752 C56.3891572,17.9304545 56.6437107,18.7620248 56.6648616,19.0680992 C56.9606038,22.1563636 57.4196164,26.8843388 57.4815849,27.3399174 C57.991805,31.0868182 58.292,34.844876 55.9242075,36.0438843 C54.6410503,36.6932231 52.5411698,36.7211157 50.4650377,36.6590083 C49.8505472,36.6400413 49.3677862,36.1253306 49.3870818,35.5094628 C49.4060063,34.8932231 49.9206792,34.4060331 50.5340566,34.4283471 C51.4728616,34.4573554 53.9664465,34.5350826 54.9204654,34.0523554 C56.0692956,33.4703306 55.4718742,29.0833884 55.2759497,27.6415289 C55.1906038,27.0152479 54.5660943,20.5054959 54.4555157,19.3496281 C53.9775786,18.1268182 49.5666792,10.0892975 48.353283,8.3677686 L38.5359057,8.3677686 L38.5359057,27.0133884 C38.5359057,27.6214463 38.0501761,28.117562 37.4438491,28.128719 L33.1272013,28.2109091 C32.8251509,28.2239256 32.5416541,28.102686 32.3286604,27.8940496 C32.1156667,27.6854132 31.9946981,27.4001653 31.9928428,27.1015289 L31.8551761,2.67954545 C31.8551761,2.46830579 31.7089748,2.30132231 31.5290063,2.30132231 L2.49618239,2.30132231 C2.31584277,2.30132231 2.16964151,2.46830579 2.16964151,2.67322314 L2.16964151,33.5826446 C2.17223899,34.1386364 2.62828302,34.593843 3.18674214,34.593843 L3.19193711,34.593843 L6.50372956,34.5875207 L6.50558491,34.5875207 C7.1197044,34.5875207 7.61767925,35.0858678 7.61879245,35.7009917 C7.61990566,36.3172314 7.12267296,36.8178099 6.50744025,36.8189256 L3.19898742,36.8252479 L3.18377358,36.8252479" id="Fill-11" fill="#FFFFFF" sketch:type="MSShapeGroup"></path>
                <path d="M3.18377358,36.8252479 C1.40523899,36.8252479 -0.0478679245,35.3763223 -0.0567735849,33.5882231 L-0.0567735849,2.67322314 C-0.0567735849,1.23805785 1.08834591,0.0699173554 2.49618239,0.0699173554 L31.5290063,0.0699173554 C32.9364717,0.0699173554 34.0815912,1.23805785 34.0815912,2.67322314 L34.2129497,25.9583058 L36.3094906,25.9185124 L36.3094906,8.14909091 C36.3094906,7.03933884 37.2111887,6.13636364 38.3199434,6.13636364 L48.8386415,6.13636364 C49.5848616,6.13636364 49.8364465,6.13636364 53.3541824,12.4679752 C56.3891572,17.9304545 56.6437107,18.7620248 56.6648616,19.0680992 C56.9606038,22.1563636 57.4196164,26.8843388 57.4815849,27.3399174 C57.991805,31.0868182 58.292,34.844876 55.9242075,36.0438843 C54.6410503,36.6932231 52.5411698,36.7211157 50.4650377,36.6590083 C49.8505472,36.6400413 49.3677862,36.1253306 49.3870818,35.5094628 C49.4060063,34.8932231 49.9206792,34.4060331 50.5340566,34.4283471 C51.4728616,34.4573554 53.9664465,34.5350826 54.9204654,34.0523554 C56.0692956,33.4703306 55.4718742,29.0833884 55.2759497,27.6415289 C55.1906038,27.0152479 54.5660943,20.5054959 54.4555157,19.3496281 C53.9775786,18.1268182 49.5666792,10.0892975 48.353283,8.3677686 L38.5359057,8.3677686 L38.5359057,27.0133884 C38.5359057,27.6214463 38.0501761,28.117562 37.4438491,28.128719 L33.1272013,28.2109091 C32.8251509,28.2239256 32.5416541,28.102686 32.3286604,27.8940496 C32.1156667,27.6854132 31.9946981,27.4001653 31.9928428,27.1015289 L31.8551761,2.67954545 C31.8551761,2.46830579 31.7089748,2.30132231 31.5290063,2.30132231 L2.49618239,2.30132231 C2.31584277,2.30132231 2.16964151,2.46830579 2.16964151,2.67322314 L2.16964151,33.5826446 C2.17223899,34.1386364 2.62828302,34.593843 3.18674214,34.593843 L3.19193711,34.593843 L6.50372956,34.5875207 L6.50558491,34.5875207 C7.1197044,34.5875207 7.61767925,35.0858678 7.61879245,35.7009917 C7.61990566,36.3172314 7.12267296,36.8178099 6.50744025,36.8189256 L3.19898742,36.8252479 L3.18377358,36.8252479 L3.18377358,36.8252479 Z" id="Stroke-12" stroke="#FFFFFF" stroke-width="2" sketch:type="MSShapeGroup"></path>
                <path d="M50.3648491,18.6084298 L50.3544591,18.6084298 L40.8075912,18.5827686 C40.5118491,18.5820248 40.2283522,18.4630165 40.0205535,18.2528926 C39.8123836,18.0431405 39.6958679,17.7582645 39.6973522,17.4618595 L39.722956,11.7156198 C39.722956,10.845 40.4331824,10.132438 41.3059371,10.132438 L46.8304151,10.132438 C47.5454654,10.132438 47.7194969,10.2321074 49.6631572,13.7302066 C50.7489057,15.6838017 51.1823145,16.545124 51.3552327,16.983595 C51.4335283,17.1360744 51.4780566,17.3093802 51.4780566,17.4927273 C51.4780566,18.1089669 50.9797107,18.6084298 50.3648491,18.6084298 M41.9285912,16.3543388 L48.5696164,16.3721901 C47.849,15.022562 46.7959057,13.1489256 46.2923648,12.363843 L41.9464025,12.363843 L41.9285912,16.3543388" id="Fill-13" fill="#FFFFFF" sketch:type="MSShapeGroup"></path>
                <path d="M46.2923648,12.363843 L41.9464025,12.363843 L41.9285912,16.3543388 L48.5696164,16.3721901 C47.849,15.022562 46.7959057,13.1489256 46.2923648,12.363843" id="Fill-14" fill="#FFFFFF" sketch:type="MSShapeGroup"></path>
                <path d="M48.5696164,16.3721901 L41.9285912,16.3543388 L41.9464025,12.363843 L46.2923648,12.363843 C46.7959057,13.1489256 47.849,15.022562 48.5696164,16.3721901 M46.4764151,10.8780992 L41.6666164,11.714876 L40.8176101,17.6652893 L50.3726415,17.6652893 L46.4764151,10.8780992" id="Fill-15" fill="#FFFFFF" sketch:type="MSShapeGroup"></path>
            </g>
        </g>
    </g>
</svg>