<?xml version="1.0" encoding="UTF-8" standalone="no"?>
<svg width="52px" height="53px" viewBox="0 0 52 53" version="1.1" xmlns="http://www.w3.org/2000/svg" xmlns:xlink="http://www.w3.org/1999/xlink" xmlns:sketch="http://www.bohemiancoding.com/sketch/ns">
    <!-- Generator: Sketch 3.1.1 (8761) - http://www.bohemiancoding.com/sketch -->
    <title>i-mayorista</title>
    <desc>Created with Sketch.</desc>
    <defs></defs>
    <g id="Page-1" stroke="none" stroke-width="1" fill="none" fill-rule="evenodd" sketch:type="MSPage">
        <g id="Desktop-HD" sketch:type="MSArtboardGroup" transform="translate(-269.000000, -314.000000)" fill="#FFFFFF">
            <path d="M320.781333,355.83981 L320.781333,324.954228 L294.975333,314 L269,325.026684 L269,356.072608 L295.245333,366.678646 L320.781333,355.83981 L320.781333,355.83981 Z M317.140667,353.366924 L296.670667,361.938165 L296.670667,337.925139 L317.140667,329.341823 L317.140667,353.366924 L317.140667,353.366924 Z M314.827333,326.431519 L294.890667,334.790089 L288.972667,332.309152 L308.908,323.949241 L314.827333,326.431519 L314.827333,326.431519 Z M294.889333,318.071608 L300.808,320.552544 L280.872667,328.912456 L274.953333,326.431519 L294.889333,318.071608 L294.889333,318.071608 Z M293.110667,361.938835 L272.639333,353.366924 L272.639333,329.341823 L279.76,332.326595 L279.76,338.038519 C279.76,338.151228 279.916,338.595354 280.079333,338.388051 L280.653333,337.658127 C280.814,337.451494 281.086667,337.537367 281.259333,337.862076 L281.992667,339.253494 C282.185333,339.613759 282.505333,339.747266 282.706667,339.540633 L283.58,338.645671 C283.806667,338.411532 284.189333,338.534304 284.432,338.933481 L285.382667,340.493291 C285.556667,340.779759 285.99,340.852886 285.99,340.420835 L285.99,334.939025 L293.110667,337.925139 L293.110667,361.938835 L293.110667,361.938835 Z" id="i-mayorista" sketch:type="MSShapeGroup"></path>
        </g>
    </g>
</svg>