<?xml version="1.0" encoding="UTF-8" standalone="no"?>
<svg width="23px" height="16px" viewBox="0 0 23 16" version="1.1" xmlns="http://www.w3.org/2000/svg" xmlns:xlink="http://www.w3.org/1999/xlink" xmlns:sketch="http://www.bohemiancoding.com/sketch/ns">
    <!-- Generator: Sketch 3.1.1 (8761) - http://www.bohemiancoding.com/sketch -->
    <title>i-menu</title>
    <desc>Created with Sketch.</desc>
    <defs></defs>
    <g id="Page-1" stroke="none" stroke-width="1" fill="none" fill-rule="evenodd" sketch:type="MSPage">
        <g id="Desktop-HD" sketch:type="MSArtboardGroup" transform="translate(-581.000000, -93.000000)" fill="#ED1C23">
            <g id="i-menu" sketch:type="MSLayerGroup" transform="translate(581.000000, 93.000000)">
                <path d="M22.0142857,6.4 L0.985714286,6.4 C0.0788571429,6.4 0,7.1152 0,8 C0,8.8848 0.0788571429,9.6 0.985714286,9.6 L22.0142857,9.6 C22.9211429,9.6 23,8.8848 23,8 C23,7.1152 22.9211429,6.4 22.0142857,6.4 L22.0142857,6.4 Z M22.0142857,12.8 L0.985714286,12.8 C0.0788571429,12.8 0,13.5152 0,14.4 C0,15.2848 0.0788571429,16 0.985714286,16 L22.0142857,16 C22.9211429,16 23,15.2848 23,14.4 C23,13.5152 22.9211429,12.8 22.0142857,12.8 L22.0142857,12.8 Z M0.985714286,3.2 L22.0142857,3.2 C22.9211429,3.2 23,2.4848 23,1.6 C23,0.7152 22.9211429,0 22.0142857,0 L0.985714286,0 C0.0788571429,0 0,0.7152 0,1.6 C0,2.4848 0.0788571429,3.2 0.985714286,3.2 L0.985714286,3.2 Z" id="Shape" sketch:type="MSShapeGroup"></path>
            </g>
        </g>
    </g>
</svg>