<?xml version="1.0" encoding="UTF-8" standalone="no"?>
<svg width="58px" height="54px" viewBox="0 0 58 54" version="1.1" xmlns="http://www.w3.org/2000/svg" xmlns:xlink="http://www.w3.org/1999/xlink" xmlns:sketch="http://www.bohemiancoding.com/sketch/ns">
    <!-- Generator: Sketch 3.1.1 (8761) - http://www.bohemiancoding.com/sketch -->
    <title>i-negocio</title>
    <desc>Created with Sketch.</desc>
    <defs></defs>
    <g id="Page-1" stroke="none" stroke-width="1" fill="none" fill-rule="evenodd" sketch:type="MSPage">
        <g id="Desktop-HD" sketch:type="MSArtboardGroup" transform="translate(-43.000000, -315.000000)" fill="#FFFFFF">
            <g id="i-negocio" sketch:type="MSLayerGroup" transform="translate(43.000000, 316.000000)">
                <path d="M44.2876744,2.4042125 C44.5918953,2.4042125 44.7821163,2.4731125 45.0167442,2.66855 L53.9736977,10.129625 C54.2633372,10.370775 54.381314,10.62385 54.381314,11.0028 L54.381314,14.912875 C54.381314,15.540925 53.8703023,16.0530375 53.2419767,16.0530375 C52.7243372,16.0530375 52.2709884,15.7045625 52.139093,15.20305 C51.6744767,13.447425 50.1374651,12.2675125 48.3134651,12.2675125 C46.4881395,12.2675125 44.9504651,13.4480875 44.4871744,15.2063625 C44.3559419,15.7045625 43.9032558,16.0530375 43.3849535,16.0530375 C42.867314,16.0530375 42.4139651,15.7045625 42.2820698,15.20305 C41.8174535,13.447425 40.2797791,12.2675125 38.4564419,12.2675125 C36.6311163,12.2675125 35.0934419,13.4480875 34.6301512,15.2063625 C34.4989186,15.7045625 34.0462326,16.0530375 33.5279302,16.0530375 C33.0102907,16.0530375 32.5569419,15.7045625 32.4250465,15.20305 C31.9604302,13.447425 30.4227558,12.2675125 28.5987558,12.2675125 C26.774093,12.2675125 25.2364186,13.4480875 24.7731279,15.2063625 C24.6418953,15.7045625 24.1892093,16.0530375 23.670907,16.0530375 C23.1532674,16.0530375 22.6999186,15.7045625 22.5680233,15.2050375 C22.1053953,13.4480875 20.5677209,12.2675125 18.7423953,12.2675125 C16.9170698,12.2675125 15.3793953,13.4480875 14.9161047,15.2063625 C14.7848721,15.7045625 14.332186,16.0530375 13.8138837,16.0530375 C13.2962442,16.0530375 12.8428953,15.705225 12.711,15.2050375 C12.2483721,13.4480875 10.7106977,12.2675125 8.88537209,12.2675125 C7.06004651,12.2675125 5.52237209,13.4480875 5.0590814,15.2063625 C4.92784884,15.7045625 4.4745,16.0530375 3.95686047,16.0530375 C3.32853488,16.0530375 2.81686047,15.540925 2.81619767,14.912875 L2.81619767,10.797425 C2.81619767,10.4588875 2.90965116,10.2336375 3.15156977,9.9924875 L10.4071395,2.7381125 C10.6477326,2.497625 10.874407,2.4042125 11.2144186,2.4042125 L44.2876744,2.4042125 M44.2876744,-0.2457875 L11.2144186,-0.2457875 C10.1698605,-0.2457875 9.27111628,0.125875 8.53343023,0.8639 L1.27653488,8.118275 C0.536860465,8.8563 0.165034884,9.75465 0.165034884,10.797425 L0.165034884,14.912875 C0.166360465,17.0057125 1.86310465,18.7030375 3.95686047,18.7030375 C5.71590698,18.7030375 7.1959186,17.5039125 7.6234186,15.880125 C7.79243023,15.238825 8.33856977,14.9175125 8.88537209,14.9175125 C9.43217442,14.9175125 9.97831395,15.238825 10.1473256,15.880125 C10.5748256,17.5039125 12.0541744,18.7030375 13.8138837,18.7030375 C15.5729302,18.7030375 17.0529419,17.5039125 17.4804419,15.880125 C17.6494535,15.238825 18.195593,14.9175125 18.7423953,14.9175125 C19.2891977,14.9175125 19.8353372,15.238825 20.0050116,15.880125 C20.4318488,17.5039125 21.9118605,18.7030375 23.670907,18.7030375 C25.4292907,18.7030375 26.9099651,17.5039125 27.3374651,15.880125 C27.5064767,15.238825 28.0526163,14.9175125 28.5987558,14.9175125 C29.1455581,14.9175125 29.6923605,15.238825 29.8620349,15.880125 C30.2888721,17.5039125 31.7688837,18.7030375 33.5279302,18.7030375 C35.2876395,18.7030375 36.7669884,17.5039125 37.1944884,15.880125 C37.3635,15.238825 37.9096395,14.9175125 38.4564419,14.9175125 C39.0025814,14.9175125 39.5493837,15.238825 39.7190581,15.880125 C40.1458953,17.5039125 41.625907,18.7030375 43.3849535,18.7030375 C45.1446628,18.7030375 46.6240116,17.5039125 47.0515116,15.880125 C47.2205233,15.238825 47.7666628,14.9175125 48.3134651,14.9175125 C48.8596047,14.9175125 49.406407,15.238825 49.5760814,15.880125 C50.0035814,17.5039125 51.4829302,18.7030375 53.2419767,18.7030375 C55.334407,18.7030375 57.0324767,17.0057125 57.0324767,14.912875 L57.0324767,11.0028 C57.0324767,9.83945 56.5638837,8.836425 55.6691163,8.0924375 L46.7141512,0.63335 C46.0056279,0.0417375 45.2109419,-0.2457875 44.2876744,-0.2457875" id="Fill-1" sketch:type="MSShapeGroup"></path>
                <path d="M9.87293023,15.352775 C9.8755814,15.3560875 9.87823256,15.3594 9.88154651,15.36205 C9.87823256,15.3594 9.8755814,15.3560875 9.87293023,15.352775 M9.86630233,15.3454875 C9.8682907,15.347475 9.87094186,15.3494625 9.87293023,15.3521125 C9.87094186,15.3494625 9.8682907,15.347475 9.86630233,15.3454875 M8.88537209,14.9175125 C8.4505814,14.9175125 8.01711628,15.1202375 7.77188372,15.525025 C8.01711628,15.1202375 8.4505814,14.9175125 8.88537209,14.9175125 C9.2485814,14.9175125 9.61112791,15.0592875 9.86365116,15.342175 C9.61112791,15.0592875 9.2485814,14.9175125 8.88537209,14.9175125 M18.7423953,14.9175125 C18.4607093,14.9175125 18.1783605,15.002975 17.9490349,15.1732375 C18.1790233,15.002975 18.4607093,14.9175125 18.7423953,14.9175125 C19.2891977,14.9175125 19.8353372,15.238825 20.0050116,15.880125 C19.8353372,15.238825 19.2891977,14.9175125 18.7423953,14.9175125 M28.5987558,14.9175125 C28.3475581,14.9175125 28.0956977,14.98575 27.8802907,15.122225 C28.0956977,14.98575 28.3475581,14.9175125 28.5987558,14.9175125 C29.1455581,14.9175125 29.6923605,15.238825 29.8620349,15.880125 C29.6923605,15.238825 29.1455581,14.9175125 28.5987558,14.9175125 M38.4564419,14.9175125 C38.2635698,14.9175125 38.0720233,14.9572625 37.8963837,15.0367625 C38.0720233,14.9572625 38.2635698,14.9175125 38.4564419,14.9175125 C39.0025814,14.9175125 39.5493837,15.238825 39.7190581,15.880125 C39.5493837,15.238825 39.0025814,14.9175125 38.4564419,14.9175125 M48.3134651,14.9175125 C48.168314,14.9175125 48.0231628,14.9400375 47.8846395,14.98575 C48.0231628,14.9400375 48.1676512,14.9175125 48.3134651,14.9175125 C48.8596047,14.9175125 49.406407,15.238825 49.5760814,15.880125 C49.406407,15.238825 48.8596047,14.9175125 48.3134651,14.9175125 M44.2876744,2.4042125 L11.2144186,2.4042125 C10.874407,2.4042125 10.6477326,2.497625 10.4071395,2.7381125 L3.15156977,9.9924875 C2.90965116,10.2336375 2.81619767,10.4588875 2.81619767,10.797425 L2.81619767,14.912875 C2.81686047,15.540925 3.32853488,16.0530375 3.95686047,16.0530375 C4.4745,16.0530375 4.92784884,15.7045625 5.0590814,15.2063625 C5.52237209,13.4480875 7.06004651,12.2675125 8.88537209,12.2675125 C10.7106977,12.2675125 12.2483721,13.4480875 12.711,15.2050375 C12.8428953,15.705225 13.2962442,16.0530375 13.8138837,16.0530375 C14.332186,16.0530375 14.7848721,15.7045625 14.9161047,15.2063625 C15.3793953,13.4480875 16.9170698,12.2675125 18.7423953,12.2675125 C20.5677209,12.2675125 22.1053953,13.4480875 22.5680233,15.2050375 C22.6999186,15.7045625 23.1532674,16.0530375 23.670907,16.0530375 C24.1892093,16.0530375 24.6418953,15.7045625 24.7731279,15.2063625 C25.2364186,13.4480875 26.774093,12.2675125 28.5987558,12.2675125 C30.4227558,12.2675125 31.9604302,13.447425 32.4250465,15.20305 C32.5569419,15.7045625 33.0102907,16.0530375 33.5279302,16.0530375 C34.0462326,16.0530375 34.4989186,15.7045625 34.6301512,15.2063625 C35.0934419,13.4480875 36.6311163,12.2675125 38.4564419,12.2675125 C40.2797791,12.2675125 41.8174535,13.447425 42.2820698,15.20305 C42.4139651,15.7045625 42.867314,16.0530375 43.3849535,16.0530375 C43.9032558,16.0530375 44.3559419,15.7045625 44.4871744,15.2063625 C44.9504651,13.4480875 46.4881395,12.2675125 48.3134651,12.2675125 C50.1374651,12.2675125 51.6744767,13.447425 52.139093,15.20305 C52.2709884,15.7045625 52.7243372,16.0530375 53.2419767,16.0530375 C53.8703023,16.0530375 54.381314,15.540925 54.381314,14.912875 L54.381314,11.0028 C54.381314,10.62385 54.2633372,10.370775 53.9736977,10.129625 L45.0167442,2.66855 C44.7821163,2.4731125 44.5918953,2.4042125 44.2876744,2.4042125" id="Fill-2" opacity="0.59608209" sketch:type="MSShapeGroup"></path>
                <path d="M3.95686047,16.0530375 C3.32853488,16.0530375 2.81686047,15.540925 2.81619767,14.912875 L2.81619767,10.797425 C2.81619767,10.4588875 2.90965116,10.2336375 3.15156977,9.9924875 L10.4071395,2.7381125 C10.6477326,2.497625 10.874407,2.4042125 11.2144186,2.4042125 L44.2876744,2.4042125 C44.5918953,2.4042125 44.7821163,2.4731125 45.0167442,2.66855 L53.9736977,10.129625 C54.2633372,10.370775 54.381314,10.62385 54.381314,11.0028 L54.381314,14.912875 C54.381314,15.540925 53.8703023,16.0530375 53.2419767,16.0530375 C52.7243372,16.0530375 52.2709884,15.7045625 52.139093,15.20305 C51.6744767,13.447425 50.1374651,12.2675125 48.3134651,12.2675125 C46.4881395,12.2675125 44.9504651,13.4480875 44.4871744,15.2063625 C44.3559419,15.7045625 43.9032558,16.0530375 43.3849535,16.0530375 C42.867314,16.0530375 42.4139651,15.7045625 42.2820698,15.20305 C41.8174535,13.447425 40.2797791,12.2675125 38.4564419,12.2675125 C36.6311163,12.2675125 35.0934419,13.4480875 34.6301512,15.2063625 C34.4989186,15.7045625 34.0462326,16.0530375 33.5279302,16.0530375 C33.0102907,16.0530375 32.5569419,15.7045625 32.4250465,15.20305 C31.9604302,13.447425 30.4227558,12.2675125 28.5987558,12.2675125 C26.774093,12.2675125 25.2364186,13.4480875 24.7731279,15.2063625 C24.6418953,15.7045625 24.1892093,16.0530375 23.670907,16.0530375 C23.1532674,16.0530375 22.6999186,15.7045625 22.5680233,15.2050375 C22.1053953,13.4480875 20.5677209,12.2675125 18.7423953,12.2675125 C16.9170698,12.2675125 15.3793953,13.4480875 14.9161047,15.2063625 C14.7848721,15.7045625 14.332186,16.0530375 13.8138837,16.0530375 C13.2962442,16.0530375 12.8428953,15.705225 12.711,15.2050375 C12.2483721,13.4480875 10.7106977,12.2675125 8.88537209,12.2675125 C7.06004651,12.2675125 5.52237209,13.4480875 5.0590814,15.2063625 C4.92784884,15.7045625 4.4745,16.0530375 3.95686047,16.0530375 M44.2876744,-0.2457875 L11.2144186,-0.2457875 C10.1698605,-0.2457875 9.27111628,0.125875 8.53343023,0.8639 L1.27653488,8.118275 C0.536860465,8.8563 0.165034884,9.75465 0.165034884,10.797425 L0.165034884,14.912875 C0.166360465,17.0057125 1.86310465,18.7030375 3.95686047,18.7030375 C5.71590698,18.7030375 7.1959186,17.5039125 7.6234186,15.880125 C7.65788372,15.7482875 7.70825581,15.6297 7.77188372,15.525025 C8.01711628,15.1202375 8.4505814,14.9175125 8.88537209,14.9175125 C9.2485814,14.9175125 9.61112791,15.0592875 9.86365116,15.342175 C9.86431395,15.3435 9.86563953,15.3441625 9.86630233,15.3454875 C9.8682907,15.347475 9.87094186,15.3494625 9.87293023,15.3521125 C9.8755814,15.3560875 9.87823256,15.3594 9.88154651,15.36205 C10.000186,15.5018375 10.0936395,15.67475 10.1473256,15.880125 C10.5748256,17.5039125 12.0541744,18.7030375 13.8138837,18.7030375 C15.5729302,18.7030375 17.0529419,17.5039125 17.4804419,15.880125 C17.5619651,15.5694125 17.7323023,15.334225 17.9490349,15.1732375 C18.1783605,15.002975 18.4607093,14.9175125 18.7423953,14.9175125 C19.2891977,14.9175125 19.8353372,15.238825 20.0050116,15.880125 C20.4318488,17.5039125 21.9118605,18.7030375 23.670907,18.7030375 C25.4292907,18.7030375 26.9099651,17.5039125 27.3374651,15.880125 C27.4282674,15.5343 27.629093,15.281225 27.8802907,15.122225 C28.0956977,14.98575 28.3475581,14.9175125 28.5987558,14.9175125 C29.1455581,14.9175125 29.6923605,15.238825 29.8620349,15.880125 C30.2888721,17.5039125 31.7688837,18.7030375 33.5279302,18.7030375 C35.2876395,18.7030375 36.7669884,17.5039125 37.1944884,15.880125 C37.3038488,15.464075 37.5722791,15.1825125 37.8963837,15.0367625 C38.0720233,14.9572625 38.2635698,14.9175125 38.4564419,14.9175125 C39.0025814,14.9175125 39.5493837,15.238825 39.7190581,15.880125 C40.1458953,17.5039125 41.625907,18.7030375 43.3849535,18.7030375 C45.1446628,18.7030375 46.6240116,17.5039125 47.0515116,15.880125 C47.1754535,15.4090875 47.5028721,15.1109625 47.8846395,14.98575 C48.0231628,14.9400375 48.168314,14.9175125 48.3134651,14.9175125 C48.8596047,14.9175125 49.406407,15.238825 49.5760814,15.880125 C50.0035814,17.5039125 51.4829302,18.7030375 53.2419767,18.7030375 C55.334407,18.7030375 57.0324767,17.0057125 57.0324767,14.912875 L57.0324767,11.0028 C57.0324767,9.83945 56.5638837,8.836425 55.6691163,8.0924375 L46.7141512,0.63335 C46.0056279,0.0417375 45.2109419,-0.2457875 44.2876744,-0.2457875" id="Fill-3" sketch:type="MSShapeGroup"></path>
                <path d="M54.1884419,49.5689125 L52.2935233,49.5689125 L52.2935233,22.0268 C50.9785465,21.8379875 49.7749186,21.256975 48.8138721,20.3963875 L48.8138721,49.5874625 L46.3396744,49.5874625 L46.3396744,49.5689125 L30.0204419,49.5689125 L30.0204419,21.0920125 C29.494186,20.764075 29.0149884,20.3645875 28.598093,19.902825 C28.183186,20.363925 27.7033256,20.764075 27.1770698,21.0920125 L27.1770698,49.5689125 L8.22125581,49.5689125 L8.22125581,20.5341875 C7.28804651,21.317925 6.14605814,21.8485875 4.90398837,22.0268 L4.90398837,49.5689125 L3.00906977,49.5689125 C2.4867907,49.5689125 2.06061628,49.9942375 2.06061628,50.51695 L2.06061628,52.834375 L55.1368953,52.834375 L55.1368953,50.51695 C55.1368953,50.0101375 54.7113837,49.5689125 54.1884419,49.5689125" id="Fill-4" sketch:type="MSShapeGroup"></path>
                <path d="M22.0377907,30.5233625 L24.5457907,30.5233625 L24.5457907,37.265625 L22.0377907,37.265625 L22.0377907,30.5233625 Z" id="Fill-5" sketch:type="MSShapeGroup"></path>
                <path d="M32.4767442,30.5233625 L34.9847442,30.5233625 L34.9847442,37.265625 L32.4767442,37.265625 L32.4767442,30.5233625 Z" id="Fill-6" sketch:type="MSShapeGroup"></path>
                <path d="M2.06061628,49.35625 L55.1362326,49.35625 L55.1362326,52.834375 L2.06061628,52.834375 L2.06061628,49.35625 Z" id="Fill-7" sketch:type="MSShapeGroup"></path>
            </g>
        </g>
    </g>
</svg>