<?xml version="1.0" encoding="UTF-8" standalone="no"?>
<svg width="69px" height="83px" viewBox="0 0 69 83" version="1.1" xmlns="http://www.w3.org/2000/svg" xmlns:xlink="http://www.w3.org/1999/xlink" xmlns:sketch="http://www.bohemiancoding.com/sketch/ns">
    <!-- Generator: Sketch 3.1.1 (8761) - http://www.bohemiancoding.com/sketch -->
    <title>i-pasta-botana</title>
    <desc>Created with Sketch.</desc>
    <defs></defs>
    <g id="Page-1" stroke="none" stroke-width="1" fill="none" fill-rule="evenodd" sketch:type="MSPage">
        <g id="Desktop-HD" sketch:type="MSArtboardGroup" transform="translate(-1261.000000, -633.000000)">
            <g id="i-pasta-botana" sketch:type="MSLayerGroup" transform="translate(1262.000000, 634.000000)">
                <path d="M42.3,69.648 C42.3,62.901 36.94,57.412 30.352,57.412 C24.938,57.412 20.356,61.122 18.894,66.188 C18.888,66.206 18.88,66.222 18.874,66.24 C18.864,66.274 18.858,66.31 18.851,66.345 C18.561,67.396 18.405,68.504 18.405,69.648 C18.405,73.756 20.392,77.394 23.433,79.614 C23.472,79.647 23.511,79.68 23.556,79.71 C23.573,79.723 23.593,79.731 23.61,79.743 C25.53,81.094 27.853,81.885 30.352,81.885 C33.079,81.885 35.593,80.943 37.604,79.363 C37.628,79.348 37.653,79.335 37.675,79.318 C37.729,79.276 37.78,79.23 37.829,79.184 C40.552,76.938 42.3,73.5 42.3,69.648 L42.3,69.648 Z M39.597,69.644 C39.597,72.027 38.729,74.207 37.306,75.873 L33.22,70.556 L39.517,68.415 C39.567,68.817 39.597,69.227 39.597,69.644 L39.597,69.644 Z M32.104,67.154 L32.104,60.349 C34.81,60.882 37.099,62.628 38.411,65.011 L32.104,67.154 L32.104,67.154 Z M28.601,60.349 L28.601,67.254 L22.124,65.337 C23.401,62.788 25.772,60.906 28.601,60.349 L28.601,60.349 Z M21.147,68.782 L27.528,70.671 L23.751,76.264 C22.118,74.555 21.108,72.219 21.108,69.644 C21.108,69.352 21.122,69.066 21.147,68.782 L21.147,68.782 Z M30.413,72.706 L34.544,78.078 C33.284,78.737 31.86,79.111 30.352,79.111 C29.028,79.111 27.77,78.823 26.63,78.308 L30.413,72.706 L30.413,72.706 Z" id="Fill-1" fill="#E06532" sketch:type="MSShapeGroup"></path>
                <path d="M42.3,11.912 C42.3,5.165 36.94,-0.324 30.352,-0.324 C24.938,-0.324 20.356,3.385 18.894,8.452 C18.888,8.47 18.88,8.485 18.874,8.503 C18.864,8.538 18.858,8.573 18.851,8.607 C18.561,9.659 18.405,10.768 18.405,11.912 C18.405,16.019 20.392,19.657 23.433,21.877 C23.472,21.911 23.511,21.943 23.556,21.974 C23.573,21.986 23.593,21.995 23.61,22.007 C25.53,23.356 27.853,24.148 30.352,24.148 C33.079,24.148 35.593,23.206 37.604,21.626 C37.628,21.61 37.653,21.599 37.675,21.582 C37.729,21.54 37.78,21.494 37.829,21.446 C40.552,19.202 42.3,15.763 42.3,11.912 L42.3,11.912 Z M39.597,11.907 C39.597,14.291 38.729,16.47 37.306,18.137 L33.22,12.819 L39.517,10.678 C39.567,11.08 39.597,11.49 39.597,11.907 L39.597,11.907 Z M32.104,9.418 L32.104,2.611 C34.81,3.145 37.099,4.892 38.411,7.274 L32.104,9.418 L32.104,9.418 Z M28.601,2.611 L28.601,9.518 L22.124,7.6 C23.401,5.051 25.772,3.17 28.601,2.611 L28.601,2.611 Z M21.147,11.046 L27.528,12.935 L23.751,18.527 C22.118,16.818 21.108,14.481 21.108,11.907 C21.108,11.616 21.122,11.329 21.147,11.046 L21.147,11.046 Z M30.413,14.969 L34.544,20.342 C33.284,21 31.86,21.375 30.352,21.375 C29.028,21.375 27.77,21.086 26.63,20.571 L30.413,14.969 L30.413,14.969 Z" id="Fill-2" fill="#E06532" sketch:type="MSShapeGroup"></path>
                <path d="M55.87,56.721 C53.124,50.588 46.019,47.885 40.03,50.696 C35.106,53.008 32.45,58.335 33.185,63.564 C33.186,63.583 33.185,63.601 33.186,63.619 C33.192,63.655 33.2,63.689 33.208,63.725 C33.374,64.804 33.681,65.878 34.147,66.919 C35.817,70.652 39.106,73.11 42.772,73.832 C42.821,73.846 42.872,73.858 42.923,73.867 C42.944,73.871 42.966,73.871 42.987,73.874 C45.282,74.281 47.714,74.01 49.987,72.943 C52.466,71.779 54.368,69.851 55.554,67.556 C55.569,67.531 55.585,67.51 55.599,67.485 C55.632,67.424 55.659,67.36 55.685,67.297 C57.247,64.094 57.436,60.222 55.87,56.721 L55.87,56.721 Z M53.411,57.87 C54.38,60.037 54.479,62.388 53.862,64.511 L47.983,61.421 L52.837,56.787 C53.048,57.131 53.241,57.491 53.411,57.87 L53.411,57.87 Z M45.585,58.805 L42.817,52.618 C45.493,51.948 48.284,52.559 50.446,54.165 L45.585,58.805 L45.585,58.805 Z M39.632,54.113 L42.442,60.391 L35.774,61.412 C35.897,58.55 37.288,55.827 39.632,54.113 L39.632,54.113 Z M36.288,64.96 L42.858,63.954 L41.7,70.65 C39.519,69.794 37.649,68.101 36.602,65.761 C36.483,65.496 36.38,65.229 36.288,64.96 L36.288,64.96 Z M46.308,64.572 L52.247,67.694 C51.372,68.83 50.229,69.778 48.858,70.422 C47.655,70.986 46.394,71.262 45.147,71.279 L46.308,64.572 L46.308,64.572 Z" id="Fill-3" fill="#E9846D" sketch:type="MSShapeGroup"></path>
                <path d="M34.983,54.126 C37.044,47.717 33.63,40.787 27.37,38.678 C22.228,36.943 16.743,39 13.808,43.345 C13.796,43.359 13.784,43.372 13.774,43.387 C13.753,43.417 13.737,43.448 13.718,43.478 C13.123,44.386 12.635,45.387 12.285,46.475 C11.032,50.375 11.809,54.468 14.019,57.55 C14.046,57.594 14.075,57.638 14.106,57.681 C14.118,57.698 14.136,57.713 14.149,57.73 C15.561,59.627 17.524,61.122 19.899,61.923 C22.489,62.796 25.165,62.706 27.56,61.85 C27.585,61.842 27.612,61.839 27.638,61.829 C27.702,61.807 27.765,61.78 27.825,61.751 C31.099,60.49 33.81,57.784 34.983,54.126 L34.983,54.126 Z M32.417,53.256 C31.69,55.519 30.202,57.312 28.339,58.438 L26.081,52.079 L32.716,52.063 C32.642,52.461 32.546,52.859 32.417,53.256 L32.417,53.256 Z M26.06,48.492 L28.138,42.026 C30.546,43.4 32.186,45.791 32.704,48.475 L26.06,48.492 L26.06,48.492 Z M24.811,40.905 L22.702,47.465 L17.136,43.569 C19.126,41.557 21.954,40.529 24.811,40.905 L24.811,40.905 Z M15.157,46.529 L20.642,50.367 L15.345,54.47 C14.315,52.323 14.069,49.78 14.854,47.335 C14.944,47.059 15.046,46.791 15.157,46.529 L15.157,46.529 Z M22.761,53.224 L25.042,59.649 C23.645,59.872 22.179,59.771 20.745,59.288 C19.489,58.864 18.382,58.187 17.456,57.333 L22.761,53.224 L22.761,53.224 Z" id="Fill-4" fill="#D8543A" sketch:type="MSShapeGroup"></path>
                <path d="M23.036,29.653 C25.095,23.244 21.681,16.313 15.421,14.204 C10.278,12.471 4.794,14.526 1.858,18.871 C1.848,18.886 1.834,18.898 1.824,18.914 C1.804,18.943 1.787,18.975 1.769,19.006 C1.174,19.912 0.686,20.914 0.337,22.001 C-0.917,25.902 -0.14,29.994 2.07,33.077 C2.097,33.121 2.126,33.165 2.157,33.208 C2.17,33.226 2.185,33.24 2.199,33.257 C3.611,35.153 5.576,36.649 7.95,37.45 C10.539,38.323 13.216,38.233 15.61,37.377 C15.636,37.369 15.663,37.365 15.688,37.356 C15.755,37.334 15.815,37.307 15.878,37.277 C19.149,36.018 21.86,33.31 23.036,29.653 L23.036,29.653 Z M20.47,28.782 C19.741,31.047 18.253,32.839 16.39,33.966 L14.132,27.606 L20.769,27.59 C20.694,27.988 20.597,28.387 20.47,28.782 L20.47,28.782 Z M14.112,24.019 L16.19,17.554 C18.597,18.928 20.239,21.318 20.757,24.002 L14.112,24.019 L14.112,24.019 Z M12.861,16.432 L10.753,22.992 L5.185,19.097 C7.178,17.084 10.005,16.057 12.861,16.432 L12.861,16.432 Z M3.207,22.057 L8.692,25.894 L3.396,29.997 C2.365,27.851 2.12,25.308 2.906,22.862 C2.994,22.586 3.097,22.318 3.207,22.057 L3.207,22.057 Z M10.811,28.751 L13.093,35.176 C11.696,35.398 10.229,35.298 8.797,34.815 C7.54,34.392 6.433,33.715 5.508,32.86 L10.811,28.751 L10.811,28.751 Z" id="Fill-5" fill="#D8543A" sketch:type="MSShapeGroup"></path>
                <path d="M52.989,48.377 C52.989,41.63 47.628,36.141 41.04,36.141 C35.626,36.141 31.044,39.851 29.583,44.917 C29.577,44.935 29.569,44.95 29.563,44.969 C29.554,45.003 29.548,45.038 29.538,45.073 C29.251,46.125 29.093,47.232 29.093,48.377 C29.093,52.484 31.081,56.122 34.12,58.343 C34.159,58.376 34.2,58.409 34.243,58.438 C34.261,58.451 34.28,58.461 34.298,58.473 C36.22,59.821 38.542,60.613 41.04,60.613 C43.767,60.613 46.282,59.672 48.294,58.092 C48.317,58.076 48.341,58.064 48.362,58.047 C48.417,58.005 48.47,57.959 48.517,57.912 C51.241,55.667 52.989,52.229 52.989,48.377 L52.989,48.377 Z M50.286,48.372 C50.286,50.756 49.419,52.935 47.993,54.602 L43.907,49.284 L50.206,47.144 C50.257,47.546 50.286,47.955 50.286,48.372 L50.286,48.372 Z M42.792,45.883 L42.792,39.077 C45.499,39.61 47.788,41.356 49.099,43.739 L42.792,45.883 L42.792,45.883 Z M39.29,39.077 L39.29,45.982 L32.811,44.065 C34.089,41.517 36.462,39.635 39.29,39.077 L39.29,39.077 Z M31.835,47.511 L38.218,49.4 L34.44,54.992 C32.806,53.284 31.796,50.947 31.796,48.372 C31.796,48.082 31.811,47.795 31.835,47.511 L31.835,47.511 Z M41.102,51.435 L45.231,56.807 C43.974,57.466 42.55,57.84 41.04,57.84 C39.718,57.84 38.458,57.552 37.319,57.036 L41.102,51.435 L41.102,51.435 Z" id="Fill-6" fill="#E06532" sketch:type="MSShapeGroup"></path>
                <path d="M66.558,35.449 C63.814,29.316 56.708,26.613 50.718,29.425 C45.796,31.736 43.14,37.063 43.872,42.293 C43.874,42.312 43.874,42.329 43.876,42.348 C43.882,42.384 43.89,42.418 43.897,42.453 C44.061,43.532 44.37,44.606 44.835,45.647 C46.507,49.381 49.794,51.839 53.462,52.56 C53.511,52.574 53.56,52.587 53.61,52.596 C53.632,52.6 53.653,52.6 53.675,52.603 C55.97,53.01 58.403,52.738 60.677,51.672 C63.153,50.509 65.056,48.579 66.243,46.284 C66.257,46.26 66.274,46.239 66.288,46.214 C66.321,46.152 66.349,46.089 66.372,46.025 C67.935,42.822 68.126,38.95 66.558,35.449 L66.558,35.449 Z M64.099,36.599 C65.069,38.766 65.167,41.116 64.55,43.239 L58.671,40.149 L63.526,35.516 C63.735,35.859 63.929,36.22 64.099,36.599 L64.099,36.599 Z M56.274,37.533 L53.505,31.347 C56.183,30.677 58.974,31.287 61.134,32.894 L56.274,37.533 L56.274,37.533 Z M50.319,32.842 L53.13,39.119 L46.462,40.141 C46.585,37.278 47.976,34.556 50.319,32.842 L50.319,32.842 Z M46.978,43.689 L53.546,42.683 L52.388,49.379 C50.208,48.522 48.339,46.829 47.29,44.489 C47.173,44.225 47.069,43.958 46.978,43.689 L46.978,43.689 Z M56.997,43.301 L62.936,46.423 C62.06,47.559 60.919,48.507 59.548,49.15 C58.343,49.715 57.083,49.99 55.837,50.008 L56.997,43.301 L56.997,43.301 Z" id="Fill-7" fill="#E9846D" sketch:type="MSShapeGroup"></path>
                <path d="M33.267,26.372 C30.521,20.239 23.415,17.536 17.425,20.348 C12.503,22.659 9.847,27.986 10.58,33.216 C10.582,33.234 10.58,33.252 10.583,33.271 C10.588,33.307 10.597,33.341 10.603,33.376 C10.769,34.455 11.076,35.529 11.543,36.57 C13.214,40.304 16.501,42.762 20.169,43.483 C20.218,43.497 20.269,43.51 20.319,43.519 C20.341,43.522 20.362,43.522 20.382,43.525 C22.679,43.933 25.11,43.661 27.384,42.595 C29.862,41.431 31.765,39.502 32.95,37.207 C32.964,37.183 32.981,37.161 32.995,37.137 C33.028,37.075 33.056,37.012 33.081,36.947 C34.644,33.745 34.833,29.873 33.267,26.372 L33.267,26.372 Z M30.806,27.521 C31.776,29.688 31.876,32.039 31.259,34.162 L25.38,31.072 L30.233,26.438 C30.444,26.782 30.638,27.143 30.806,27.521 L30.806,27.521 Z M22.981,28.456 L20.212,22.27 C22.89,21.6 25.681,22.21 27.843,23.816 L22.981,28.456 L22.981,28.456 Z M17.028,23.764 L19.839,30.042 L13.169,31.062 C13.293,28.201 14.685,25.478 17.028,23.764 L17.028,23.764 Z M13.685,34.611 L20.255,33.605 L19.095,40.301 C16.915,39.445 15.046,37.752 13.999,35.412 C13.88,35.147 13.776,34.881 13.685,34.611 L13.685,34.611 Z M23.704,34.224 L29.644,37.346 C28.769,38.481 27.626,39.43 26.255,40.073 C25.052,40.638 23.79,40.913 22.544,40.931 L23.704,34.224 L23.704,34.224 Z" id="Fill-8" fill="#E9846D" sketch:type="MSShapeGroup"></path>
                <path d="M53.649,30.594 C55.708,24.185 52.294,17.255 46.036,15.145 C40.892,13.411 35.407,15.467 32.472,19.812 C32.462,19.827 32.448,19.839 32.438,19.854 C32.419,19.885 32.401,19.915 32.384,19.946 C31.788,20.852 31.3,21.854 30.952,22.941 C29.696,26.843 30.476,30.935 32.685,34.018 C32.712,34.062 32.739,34.105 32.771,34.148 C32.784,34.166 32.8,34.181 32.813,34.198 C34.226,36.095 36.19,37.59 38.565,38.391 C41.153,39.264 43.829,39.174 46.224,38.317 C46.251,38.31 46.276,38.306 46.302,38.297 C46.368,38.274 46.431,38.248 46.491,38.219 C49.763,36.958 52.474,34.251 53.649,30.594 L53.649,30.594 Z M51.083,29.723 C50.356,31.987 48.866,33.78 47.005,34.906 L44.747,28.547 L51.382,28.53 C51.308,28.929 51.21,29.327 51.083,29.723 L51.083,29.723 Z M44.726,24.96 L46.804,18.494 C49.212,19.868 50.852,22.259 51.37,24.942 L44.726,24.96 L44.726,24.96 Z M43.476,17.373 L41.368,23.933 L35.8,20.037 C37.792,18.024 40.62,16.997 43.476,17.373 L43.476,17.373 Z M33.821,22.997 L39.306,26.835 L34.011,30.937 C32.979,28.791 32.733,26.248 33.521,23.803 C33.608,23.526 33.71,23.259 33.821,22.997 L33.821,22.997 Z M41.427,29.691 L43.708,36.116 C42.31,36.339 40.845,36.239 39.411,35.756 C38.153,35.332 37.046,34.655 36.122,33.801 L41.427,29.691 L41.427,29.691 Z" id="Fill-9" fill="#D8543A" sketch:type="MSShapeGroup"></path>
            </g>
        </g>
    </g>
</svg>