<?xml version="1.0" encoding="UTF-8" standalone="no"?>
<svg width="92px" height="63px" viewBox="0 0 92 63" version="1.1" xmlns="http://www.w3.org/2000/svg" xmlns:xlink="http://www.w3.org/1999/xlink" xmlns:sketch="http://www.bohemiancoding.com/sketch/ns">
    <!-- Generator: Sketch 3.1.1 (8761) - http://www.bohemiancoding.com/sketch -->
    <title>i-pioneros</title>
    <desc>Created with Sketch.</desc>
    <defs></defs>
    <g id="Page-1" stroke="none" stroke-width="1" fill="none" fill-rule="evenodd" sketch:type="MSPage">
        <g id="Desktop-HD" sketch:type="MSArtboardGroup" transform="translate(-84.000000, -1416.000000)">
            <g id="i-pioneros" sketch:type="MSLayerGroup" transform="translate(85.000000, 1417.000000)">
                <path d="M84.4728621,2.3472 L83.3761034,2.3472 L83.3761034,2.2704 C83.3761034,1.3136 82.6000345,0.5376 81.6411724,0.5376 C80.6807069,0.5376 79.9030345,1.3136 79.9030345,2.2704 L79.9030345,2.3472 L76.6961379,2.3472 L76.6961379,2.2704 C76.6961379,1.3136 75.9184655,0.5376 74.9596034,0.5376 C73.9991379,0.5376 73.223069,1.3136 73.223069,2.2704 L73.223069,2.3472 L70.0161724,2.3472 L70.0161724,2.2704 C70.0161724,1.3136 69.2385,0.5376 68.2780345,0.5376 C67.3191724,0.5376 66.5415,1.3136 66.5415,2.2704 L66.5415,2.3472 L63.3346034,2.3472 L63.3346034,2.2704 C63.3346034,1.3136 62.556931,0.5376 61.598069,0.5376 C60.6376034,0.5376 59.859931,1.3136 59.859931,2.2704 L59.859931,2.3472 L56.6546379,2.3472 L56.6546379,2.2704 C56.6546379,1.3136 55.8769655,0.5376 54.9181034,0.5376 C53.9576379,0.5376 53.1799655,1.3136 53.1799655,2.2704 L53.1799655,2.3472 L49.973069,2.3472 L49.973069,2.2704 C49.973069,1.3136 49.1953966,0.5376 48.2365345,0.5376 C47.276069,0.5376 46.5,1.3136 46.5,2.2704 L46.5,2.3472 L43.2915,2.3472 L43.2915,2.2704 C43.2915,1.3136 42.515431,0.5376 41.5549655,0.5376 C40.5961034,0.5376 39.818431,1.3136 39.818431,2.2704 L39.818431,2.3472 L36.6115345,2.3472 L36.6115345,2.2704 C36.6115345,1.3136 35.8338621,0.5376 34.875,0.5376 C33.9145345,0.5376 33.1368621,1.3136 33.1368621,2.2704 L33.1368621,2.3472 L29.931569,2.3472 L29.931569,2.2704 C29.931569,1.3136 29.1538966,0.5376 28.193431,0.5376 C27.234569,0.5376 26.4568966,1.3136 26.4568966,2.2704 L26.4568966,2.3472 L23.25,2.3472 L23.25,2.2704 C23.25,1.3136 22.4723276,0.5376 21.5134655,0.5376 C20.553,0.5376 19.7753276,1.3136 19.7753276,2.2704 L19.7753276,2.3472 L16.568431,2.3472 L16.568431,2.2704 C16.568431,1.3136 15.7923621,0.5376 14.8318966,0.5376 C13.8730345,0.5376 13.0953621,1.3136 13.0953621,2.2704 L13.0953621,2.3472 L9.88846552,2.3472 L9.88846552,2.2704 C9.88846552,1.3136 9.1107931,0.5376 8.15193103,0.5376 C7.19146552,0.5376 6.41539655,1.3136 6.41539655,2.2704 L6.41539655,2.3472 L5.31863793,2.3472 C2.66332759,2.3472 0.508293103,4.496 0.508293103,7.1472 L0.508293103,55.6816 C0.508293103,58.3312 2.66332759,60.4816 5.31863793,60.4816 L6.41539655,60.4816 L6.41539655,60.1376 C6.41539655,59.1808 7.19146552,58.4048 8.15193103,58.4048 C9.1107931,58.4048 9.88846552,59.1808 9.88846552,60.1376 L9.88846552,60.4816 L13.0953621,60.4816 L13.0953621,60.1376 C13.0953621,59.1808 13.8730345,58.4048 14.8318966,58.4048 C15.7923621,58.4048 16.568431,59.1808 16.568431,60.1376 L16.568431,60.4816 L19.7753276,60.4816 L19.7753276,60.1376 C19.7753276,59.1808 20.553,58.4048 21.5134655,58.4048 C22.4723276,58.4048 23.25,59.1808 23.25,60.1376 L23.25,60.4816 L26.4568966,60.4816 L26.4568966,60.1376 C26.4568966,59.1808 27.234569,58.4048 28.193431,58.4048 C29.1538966,58.4048 29.931569,59.1808 29.931569,60.1376 L29.931569,60.4816 L33.1368621,60.4816 L33.1368621,60.1376 C33.1368621,59.1808 33.9145345,58.4048 34.875,58.4048 C35.8338621,58.4048 36.6115345,59.1808 36.6115345,60.1376 L36.6115345,60.4816 L39.818431,60.4816 L39.818431,60.1376 C39.818431,59.1808 40.5961034,58.4048 41.5549655,58.4048 C42.515431,58.4048 43.2915,59.1808 43.2915,60.1376 L43.2915,60.4816 L46.5,60.4816 L46.5,60.1376 C46.5,59.1808 47.276069,58.4048 48.2365345,58.4048 C49.1953966,58.4048 49.973069,59.1808 49.973069,60.1376 L49.973069,60.4816 L53.1799655,60.4816 L53.1799655,60.1376 C53.1799655,59.1808 53.9576379,58.4048 54.9181034,58.4048 C55.8769655,58.4048 56.6546379,59.1808 56.6546379,60.1376 L56.6546379,60.4816 L59.859931,60.4816 L59.859931,60.1376 C59.859931,59.1808 60.6376034,58.4048 61.598069,58.4048 C62.556931,58.4048 63.3346034,59.1808 63.3346034,60.1376 L63.3346034,60.4816 L66.5415,60.4816 L66.5415,60.1376 C66.5415,59.1808 67.3191724,58.4048 68.2780345,58.4048 C69.2385,58.4048 70.0161724,59.1808 70.0161724,60.1376 L70.0161724,60.4816 L73.223069,60.4816 L73.223069,60.1376 C73.223069,59.1808 73.9991379,58.4048 74.9596034,58.4048 C75.9184655,58.4048 76.6961379,59.1808 76.6961379,60.1376 L76.6961379,60.4816 L79.9030345,60.4816 L79.9030345,60.1376 C79.9030345,59.1808 80.6807069,58.4048 81.6411724,58.4048 C82.6000345,58.4048 83.3761034,59.1808 83.3761034,60.1376 L83.3761034,60.4816 L84.4728621,60.4816 C87.1281724,60.4816 89.2832069,58.3312 89.2832069,55.6816 L89.2832069,7.1472 C89.2832069,4.496 87.1281724,2.3472 84.4728621,2.3472 L84.4728621,2.3472 Z" id="Fill-1" fill="#ED9439" sketch:type="MSShapeGroup"></path>
                <path d="M84.4728621,2.3472 L83.3761034,2.3472 L83.3761034,2.2704 C83.3761034,1.3136 82.6000345,0.5376 81.6411724,0.5376 C80.6807069,0.5376 79.9030345,1.3136 79.9030345,2.2704 L79.9030345,2.3472 L76.6961379,2.3472 L76.6961379,2.2704 C76.6961379,1.3136 75.9184655,0.5376 74.9596034,0.5376 C73.9991379,0.5376 73.223069,1.3136 73.223069,2.2704 L73.223069,2.3472 L70.0161724,2.3472 L70.0161724,2.2704 C70.0161724,1.3136 69.2385,0.5376 68.2780345,0.5376 C67.3191724,0.5376 66.5415,1.3136 66.5415,2.2704 L66.5415,2.3472 L63.3346034,2.3472 L63.3346034,2.2704 C63.3346034,1.3136 62.556931,0.5376 61.598069,0.5376 C60.6376034,0.5376 59.859931,1.3136 59.859931,2.2704 L59.859931,2.3472 L56.6546379,2.3472 L56.6546379,2.2704 C56.6546379,1.3136 55.8769655,0.5376 54.9181034,0.5376 C53.9576379,0.5376 53.1799655,1.3136 53.1799655,2.2704 L53.1799655,2.3472 L49.973069,2.3472 L49.973069,2.2704 C49.973069,1.3136 49.1953966,0.5376 48.2365345,0.5376 C47.276069,0.5376 46.5,1.3136 46.5,2.2704 L46.5,2.3472 L43.2915,2.3472 L43.2915,2.2704 C43.2915,1.3136 42.515431,0.5376 41.5549655,0.5376 C40.5961034,0.5376 39.818431,1.3136 39.818431,2.2704 L39.818431,2.3472 L36.6115345,2.3472 L36.6115345,2.2704 C36.6115345,1.3136 35.8338621,0.5376 34.875,0.5376 C33.9145345,0.5376 33.1368621,1.3136 33.1368621,2.2704 L33.1368621,2.3472 L29.931569,2.3472 L29.931569,2.2704 C29.931569,1.3136 29.1538966,0.5376 28.193431,0.5376 C27.234569,0.5376 26.4568966,1.3136 26.4568966,2.2704 L26.4568966,2.3472 L23.25,2.3472 L23.25,2.2704 C23.25,1.3136 22.4723276,0.5376 21.5134655,0.5376 C20.553,0.5376 19.7753276,1.3136 19.7753276,2.2704 L19.7753276,2.3472 L16.568431,2.3472 L16.568431,2.2704 C16.568431,1.3136 15.7923621,0.5376 14.8318966,0.5376 C13.8730345,0.5376 13.0953621,1.3136 13.0953621,2.2704 L13.0953621,2.3472 L9.88846552,2.3472 L9.88846552,2.2704 C9.88846552,1.3136 9.1107931,0.5376 8.15193103,0.5376 C7.19146552,0.5376 6.41539655,1.3136 6.41539655,2.2704 L6.41539655,2.3472 L5.31863793,2.3472 C2.66332759,2.3472 0.508293103,4.496 0.508293103,7.1472 L0.508293103,55.6816 C0.508293103,58.3312 2.66332759,60.4816 5.31863793,60.4816 L6.41539655,60.4816 L6.41539655,60.1376 C6.41539655,59.1808 7.19146552,58.4048 8.15193103,58.4048 C9.1107931,58.4048 9.88846552,59.1808 9.88846552,60.1376 L9.88846552,60.4816 L13.0953621,60.4816 L13.0953621,60.1376 C13.0953621,59.1808 13.8730345,58.4048 14.8318966,58.4048 C15.7923621,58.4048 16.568431,59.1808 16.568431,60.1376 L16.568431,60.4816 L19.7753276,60.4816 L19.7753276,60.1376 C19.7753276,59.1808 20.553,58.4048 21.5134655,58.4048 C22.4723276,58.4048 23.25,59.1808 23.25,60.1376 L23.25,60.4816 L26.4568966,60.4816 L26.4568966,60.1376 C26.4568966,59.1808 27.234569,58.4048 28.193431,58.4048 C29.1538966,58.4048 29.931569,59.1808 29.931569,60.1376 L29.931569,60.4816 L33.1368621,60.4816 L33.1368621,60.1376 C33.1368621,59.1808 33.9145345,58.4048 34.875,58.4048 C35.8338621,58.4048 36.6115345,59.1808 36.6115345,60.1376 L36.6115345,60.4816 L39.818431,60.4816 L39.818431,60.1376 C39.818431,59.1808 40.5961034,58.4048 41.5549655,58.4048 C42.515431,58.4048 43.2915,59.1808 43.2915,60.1376 L43.2915,60.4816 L46.5,60.4816 L46.5,60.1376 C46.5,59.1808 47.276069,58.4048 48.2365345,58.4048 C49.1953966,58.4048 49.973069,59.1808 49.973069,60.1376 L49.973069,60.4816 L53.1799655,60.4816 L53.1799655,60.1376 C53.1799655,59.1808 53.9576379,58.4048 54.9181034,58.4048 C55.8769655,58.4048 56.6546379,59.1808 56.6546379,60.1376 L56.6546379,60.4816 L59.859931,60.4816 L59.859931,60.1376 C59.859931,59.1808 60.6376034,58.4048 61.598069,58.4048 C62.556931,58.4048 63.3346034,59.1808 63.3346034,60.1376 L63.3346034,60.4816 L66.5415,60.4816 L66.5415,60.1376 C66.5415,59.1808 67.3191724,58.4048 68.2780345,58.4048 C69.2385,58.4048 70.0161724,59.1808 70.0161724,60.1376 L70.0161724,60.4816 L73.223069,60.4816 L73.223069,60.1376 C73.223069,59.1808 73.9991379,58.4048 74.9596034,58.4048 C75.9184655,58.4048 76.6961379,59.1808 76.6961379,60.1376 L76.6961379,60.4816 L79.9030345,60.4816 L79.9030345,60.1376 C79.9030345,59.1808 80.6807069,58.4048 81.6411724,58.4048 C82.6000345,58.4048 83.3761034,59.1808 83.3761034,60.1376 L83.3761034,60.4816 L84.4728621,60.4816 C87.1281724,60.4816 89.2832069,58.3312 89.2832069,55.6816 L89.2832069,7.1472 C89.2832069,4.496 87.1281724,2.3472 84.4728621,2.3472 L84.4728621,2.3472 Z" id="Stroke-2" stroke="#1A1918" stroke-width="1.5" sketch:type="MSShapeGroup"></path>
                <path d="M5.31062069,2.2704 L5.31062069,60.4816 M11.5239828,2.2704 L11.5239828,60.4816 M18.1398103,2.2704 L18.1398103,60.4816 M24.7540345,2.2704 L24.7540345,60.4816 M31.6504655,1.9872 L31.6504655,60.1968 M38.2646897,1.9872 L38.2646897,60.1968 M44.8789138,1.9872 L44.8789138,60.1968 M51.4931379,1.9872 L51.4931379,60.1968 M58.1073621,1.9872 L58.1073621,60.1968 M64.7215862,1.9872 L64.7215862,60.1968 M71.3358103,1.9872 L71.3358103,60.1968 M77.9500345,1.9872 L77.9500345,60.1968 M84.5642586,1.9872 L84.5642586,60.1968" id="Stroke-3" stroke="#1A1918" stroke-width="1.5" sketch:type="MSShapeGroup"></path>
            </g>
        </g>
    </g>
</svg>