<?xml version="1.0" encoding="UTF-8" standalone="no"?>
<svg width="79px" height="102px" viewBox="0 0 79 102" version="1.1" xmlns="http://www.w3.org/2000/svg" xmlns:xlink="http://www.w3.org/1999/xlink" xmlns:sketch="http://www.bohemiancoding.com/sketch/ns">
    <!-- Generator: Sketch 3.1.1 (8761) - http://www.bohemiancoding.com/sketch -->
    <title>i-principiante-bolsita</title>
    <desc>Created with Sketch.</desc>
    <defs>
        <linearGradient x1="0%" y1="50%" x2="100%" y2="50%" id="linearGradient-1">
            <stop stop-color="#D6ECF0" offset="0%"></stop>
            <stop stop-color="#FFFFFF" offset="52.050331%"></stop>
            <stop stop-color="#D6ECF0" offset="100%"></stop>
        </linearGradient>
    </defs>
    <g id="Page-1" stroke="none" stroke-width="1" fill="none" fill-rule="evenodd" sketch:type="MSPage">
        <g id="Desktop-HD" sketch:type="MSArtboardGroup" transform="translate(-1559.000000, -899.000000)">
            <g id="i-principiante-bolsita" sketch:type="MSLayerGroup" transform="translate(1559.000000, 899.000000)">
                <g id="Imported-Layers" transform="translate(7.000000, 12.000000)" sketch:type="MSShapeGroup">
                    <path d="M38.855,70.024 C38.855,63.697 33.947,58.551 27.912,58.551 C22.952,58.551 18.755,62.03 17.415,66.781 C17.41,66.797 17.402,66.812 17.397,66.829 C17.389,66.86 17.383,66.894 17.376,66.928 C17.111,67.913 16.968,68.952 16.968,70.024 C16.968,73.877 18.787,77.288 21.573,79.37 C21.609,79.401 21.644,79.432 21.685,79.461 C21.702,79.473 21.72,79.481 21.736,79.492 C23.494,80.758 25.622,81.5 27.912,81.5 C30.409,81.5 32.712,80.618 34.555,79.135 C34.576,79.121 34.6,79.109 34.619,79.094 C34.669,79.054 34.717,79.011 34.761,78.967 C37.255,76.861 38.855,73.637 38.855,70.024 L38.855,70.024 Z M36.38,70.019 C36.38,72.257 35.585,74.3 34.281,75.862 L30.538,70.876 L36.307,68.868 C36.352,69.245 36.38,69.629 36.38,70.019 L36.38,70.019 Z M29.517,67.685 L29.517,61.304 C31.995,61.804 34.092,63.441 35.294,65.676 L29.517,67.685 L29.517,67.685 Z M26.307,61.304 L26.307,67.779 L20.374,65.982 C21.545,63.592 23.717,61.827 26.307,61.304 L26.307,61.304 Z M19.479,69.212 L25.324,70.984 L21.864,76.229 C20.368,74.626 19.444,72.436 19.444,70.019 C19.444,69.747 19.456,69.481 19.479,69.212 L19.479,69.212 Z M27.968,72.892 L31.751,77.93 C30.598,78.548 29.293,78.898 27.912,78.898 C26.699,78.898 25.547,78.629 24.502,78.146 L27.968,72.892 L27.968,72.892 Z" id="Fill-1" fill="#E6A356"></path>
                    <path d="M23.022,51.684 C23.022,45.356 18.113,40.208 12.078,40.208 C7.118,40.208 2.921,43.687 1.581,48.438 C1.576,48.455 1.568,48.47 1.563,48.486 C1.555,48.519 1.549,48.552 1.542,48.584 C1.277,49.57 1.134,50.609 1.134,51.684 C1.134,55.534 2.953,58.946 5.739,61.028 C5.775,61.06 5.81,61.091 5.852,61.118 C5.868,61.13 5.886,61.139 5.902,61.149 C7.66,62.416 9.788,63.158 12.078,63.158 C14.575,63.158 16.878,62.274 18.721,60.793 C18.742,60.777 18.766,60.767 18.785,60.751 C18.835,60.712 18.883,60.669 18.927,60.625 C21.421,58.52 23.022,55.294 23.022,51.684 L23.022,51.684 Z M20.546,51.679 C20.546,53.914 19.751,55.958 18.447,57.521 L14.704,52.533 L20.473,50.525 C20.519,50.903 20.546,51.288 20.546,51.679 L20.546,51.679 Z M13.683,49.345 L13.683,42.96 C16.161,43.463 18.258,45.1 19.46,47.334 L13.683,49.345 L13.683,49.345 Z M10.473,42.96 L10.473,49.438 L4.54,47.639 C5.711,45.249 7.883,43.484 10.473,42.96 L10.473,42.96 Z M3.646,50.871 L9.49,52.643 L6.03,57.887 C4.534,56.283 3.61,54.093 3.61,51.679 C3.61,51.406 3.622,51.137 3.646,50.871 L3.646,50.871 Z M12.134,54.551 L15.917,59.589 C14.764,60.205 13.459,60.558 12.078,60.558 C10.865,60.558 9.713,60.286 8.668,59.804 L12.134,54.551 L12.134,54.551 Z" id="Fill-2" fill="#E6A356"></path>
                    <path d="M47.652,65.243 C45.137,59.492 38.628,56.957 33.142,59.594 C28.632,61.763 26.198,66.757 26.871,71.661 C26.873,71.679 26.871,71.695 26.873,71.713 C26.879,71.747 26.886,71.779 26.893,71.812 C27.045,72.823 27.325,73.83 27.753,74.807 C29.283,78.309 32.296,80.613 35.654,81.289 C35.699,81.304 35.745,81.315 35.792,81.323 C35.811,81.327 35.831,81.327 35.852,81.33 C37.953,81.712 40.181,81.456 42.263,80.456 C44.533,79.365 46.276,77.557 47.362,75.403 C47.376,75.382 47.392,75.361 47.403,75.338 C47.434,75.281 47.459,75.221 47.482,75.162 C48.913,72.158 49.087,68.526 47.652,65.243 L47.652,65.243 Z M45.399,66.321 C46.287,68.354 46.379,70.559 45.813,72.549 L40.428,69.651 L44.874,65.307 C45.067,65.627 45.244,65.966 45.399,66.321 L45.399,66.321 Z M38.231,67.198 L35.695,61.396 C38.147,60.769 40.703,61.341 42.685,62.847 L38.231,67.198 L38.231,67.198 Z M32.777,62.799 L35.352,68.686 L29.244,69.644 C29.356,66.959 30.63,64.406 32.777,62.799 L32.777,62.799 Z M29.714,72.971 L35.733,72.026 L34.672,78.307 C32.674,77.504 30.962,75.916 30.003,73.722 C29.893,73.474 29.799,73.223 29.714,72.971 L29.714,72.971 Z M38.893,72.606 L44.334,75.534 C43.532,76.601 42.485,77.489 41.229,78.093 C40.127,78.622 38.972,78.879 37.83,78.896 L38.893,72.606 L38.893,72.606 Z" id="Fill-3" fill="#EDB970"></path>
                    <path d="M27.362,73.614 C29.251,67.604 26.123,61.106 20.389,59.127 C15.678,57.501 10.654,59.43 7.965,63.504 C7.954,63.518 7.944,63.53 7.935,63.543 C7.915,63.571 7.9,63.601 7.883,63.629 C7.338,64.479 6.891,65.419 6.571,66.438 C5.423,70.096 6.134,73.935 8.158,76.824 C8.184,76.867 8.21,76.907 8.239,76.947 C8.25,76.964 8.266,76.977 8.278,76.994 C9.571,78.773 11.37,80.176 13.546,80.926 C15.918,81.745 18.369,81.66 20.562,80.857 C20.586,80.85 20.611,80.848 20.634,80.838 C20.693,80.816 20.75,80.792 20.806,80.766 C23.805,79.582 26.287,77.045 27.362,73.614 L27.362,73.614 Z M25.012,72.799 C24.347,74.921 22.982,76.602 21.276,77.658 L19.208,71.694 L25.285,71.679 C25.218,72.052 25.13,72.427 25.012,72.799 L25.012,72.799 Z M19.189,68.331 L21.092,62.267 C23.298,63.556 24.801,65.798 25.275,68.314 L19.189,68.331 L19.189,68.331 Z M18.046,61.216 L16.113,67.367 L11.014,63.715 C12.837,61.827 15.428,60.863 18.046,61.216 L18.046,61.216 Z M9.202,66.49 L14.226,70.09 L9.373,73.937 C8.431,71.923 8.205,69.539 8.925,67.246 C9.007,66.986 9.1,66.735 9.202,66.49 L9.202,66.49 Z M16.166,72.768 L18.257,78.793 C16.978,79.003 15.633,78.907 14.319,78.455 C13.17,78.058 12.155,77.422 11.308,76.621 L16.166,72.768 L16.166,72.768 Z" id="Fill-4" fill="#D1853B"></path>
                    <path d="M28.132,62.14 C30.018,56.128 26.89,49.629 21.156,47.651 C16.445,46.026 11.422,47.953 8.732,52.027 C8.723,52.041 8.709,52.053 8.701,52.068 C8.682,52.096 8.667,52.125 8.65,52.154 C8.105,53.004 7.659,53.943 7.338,54.963 C6.19,58.621 6.901,62.459 8.926,65.35 C8.95,65.391 8.978,65.433 9.006,65.472 C9.018,65.488 9.032,65.503 9.044,65.519 C10.338,67.296 12.138,68.699 14.313,69.45 C16.685,70.269 19.136,70.186 21.329,69.382 C21.353,69.374 21.377,69.37 21.401,69.363 C21.462,69.342 21.518,69.316 21.574,69.288 C24.571,68.106 27.055,65.568 28.132,62.14 L28.132,62.14 Z M25.781,61.321 C25.113,63.446 23.75,65.126 22.044,66.184 L19.975,60.219 L26.055,60.203 C25.986,60.577 25.897,60.951 25.781,61.321 L25.781,61.321 Z M19.957,56.856 L21.861,50.792 C24.065,52.081 25.569,54.322 26.044,56.839 L19.957,56.856 L19.957,56.856 Z M18.81,49.74 L16.88,55.893 L11.78,52.238 C13.604,50.352 16.194,49.389 18.81,49.74 L18.81,49.74 Z M9.968,55.015 L14.992,58.613 L10.142,62.461 C9.196,60.448 8.972,58.063 9.691,55.769 C9.772,55.512 9.866,55.261 9.968,55.015 L9.968,55.015 Z M16.934,61.293 L19.022,67.317 C17.744,67.526 16.4,67.432 15.088,66.979 C13.936,66.583 12.923,65.947 12.075,65.147 L16.934,61.293 L16.934,61.293 Z" id="Fill-5" fill="#D1853B"></path>
                    <path d="M39.815,55.271 C41.7,49.26 38.572,42.761 32.839,40.783 C28.128,39.158 23.105,41.085 20.415,45.159 C20.405,45.173 20.392,45.185 20.384,45.2 C20.364,45.228 20.35,45.257 20.333,45.286 C19.787,46.136 19.342,47.075 19.021,48.095 C17.873,51.753 18.584,55.591 20.608,58.481 C20.633,58.523 20.66,58.564 20.689,58.604 C20.7,58.62 20.715,58.635 20.727,58.65 C22.021,60.428 23.82,61.831 25.995,62.582 C28.367,63.401 30.818,63.317 33.012,62.514 C33.035,62.506 33.06,62.502 33.084,62.495 C33.144,62.474 33.2,62.448 33.257,62.42 C36.254,61.238 38.737,58.7 39.815,55.271 L39.815,55.271 Z M37.464,54.453 C36.796,56.578 35.433,58.258 33.727,59.315 L31.657,53.351 L37.737,53.335 C37.669,53.709 37.58,54.083 37.464,54.453 L37.464,54.453 Z M31.64,49.987 L33.544,43.924 C35.748,45.213 37.252,47.454 37.727,49.971 L31.64,49.987 L31.64,49.987 Z M30.493,42.872 L28.563,49.024 L23.463,45.37 C25.287,43.483 27.877,42.521 30.493,42.872 L30.493,42.872 Z M21.65,48.146 L26.675,51.745 L21.824,55.593 C20.879,53.58 20.654,51.195 21.374,48.901 C21.455,48.644 21.549,48.393 21.65,48.146 L21.65,48.146 Z M28.616,54.425 L30.705,60.449 C29.427,60.658 28.083,60.563 26.771,60.111 C25.619,59.715 24.605,59.079 23.758,58.278 L28.616,54.425 L28.616,54.425 Z" id="Fill-6" fill="#D1853B"></path>
                    <path d="M21.758,64.721 C21.758,58.393 16.848,53.246 10.813,53.246 C5.853,53.246 1.655,56.726 0.317,61.476 C0.312,61.492 0.305,61.507 0.299,61.524 C0.291,61.556 0.285,61.59 0.276,61.623 C0.014,62.608 -0.131,63.647 -0.131,64.721 C-0.131,68.572 1.69,71.984 4.474,74.066 C4.51,74.098 4.547,74.129 4.586,74.156 C4.602,74.168 4.62,74.178 4.637,74.188 C6.397,75.453 8.524,76.195 10.813,76.195 C13.31,76.195 15.614,75.313 17.457,73.831 C17.478,73.816 17.501,73.806 17.519,73.789 C17.569,73.749 17.618,73.706 17.661,73.663 C20.157,71.559 21.758,68.332 21.758,64.721 L21.758,64.721 Z M19.282,64.716 C19.282,66.952 18.487,68.996 17.182,70.558 L13.438,65.571 L19.209,63.565 C19.255,63.942 19.282,64.326 19.282,64.716 L19.282,64.716 Z M12.418,62.382 L12.418,55.999 C14.897,56.501 16.994,58.138 18.194,60.371 L12.418,62.382 L12.418,62.382 Z M9.209,55.999 L9.209,62.475 L3.274,60.678 C4.445,58.288 6.618,56.522 9.209,55.999 L9.209,55.999 Z M2.381,63.908 L8.228,65.681 L4.768,70.924 C3.269,69.322 2.345,67.131 2.345,64.716 C2.345,64.444 2.358,64.176 2.381,63.908 L2.381,63.908 Z M10.869,67.588 L14.652,72.626 C13.499,73.244 12.195,73.595 10.813,73.595 C9.602,73.595 8.447,73.324 7.403,72.841 L10.869,67.588 L10.869,67.588 Z" id="Fill-7" fill="#E6A356"></path>
                    <path d="M22.047,70.024 C22.047,63.696 17.137,58.55 11.102,58.55 C6.142,58.55 1.944,62.029 0.606,66.779 C0.601,66.796 0.594,66.811 0.588,66.828 C0.58,66.859 0.574,66.894 0.565,66.927 C0.303,67.912 0.158,68.951 0.158,70.024 C0.158,73.876 1.978,77.288 4.763,79.37 C4.799,79.401 4.836,79.433 4.875,79.46 C4.892,79.472 4.909,79.481 4.926,79.492 C6.685,80.757 8.814,81.499 11.102,81.499 C13.6,81.499 15.903,80.617 17.746,79.135 C17.768,79.12 17.79,79.109 17.809,79.093 C17.858,79.053 17.907,79.01 17.95,78.967 C20.446,76.862 22.047,73.636 22.047,70.024 L22.047,70.024 Z M19.571,70.019 C19.571,72.256 18.776,74.3 17.471,75.861 L13.728,70.875 L19.498,68.868 C19.544,69.246 19.571,69.63 19.571,70.019 L19.571,70.019 Z M12.707,67.685 L12.707,61.303 C15.186,61.805 17.283,63.441 18.483,65.675 L12.707,67.685 L12.707,67.685 Z M9.498,61.303 L9.498,67.778 L3.564,65.981 C4.734,63.592 6.907,61.826 9.498,61.303 L9.498,61.303 Z M2.67,69.212 L8.517,70.984 L5.057,76.227 C3.559,74.626 2.634,72.435 2.634,70.019 C2.634,69.748 2.647,69.48 2.67,69.212 L2.67,69.212 Z M11.158,72.892 L14.941,77.93 C13.788,78.548 12.484,78.898 11.102,78.898 C9.891,78.898 8.736,78.628 7.692,78.144 L11.158,72.892 L11.158,72.892 Z" id="Fill-8" fill="#E6A356"></path>
                    <path d="M23.022,15.802 C23.022,9.474 18.112,4.327 12.077,4.327 C7.117,4.327 2.92,7.807 1.582,12.557 C1.576,12.573 1.569,12.588 1.564,12.606 C1.556,12.637 1.55,12.671 1.541,12.704 C1.278,13.69 1.134,14.729 1.134,15.802 C1.134,19.653 2.954,23.065 5.738,25.148 C5.774,25.179 5.811,25.21 5.851,25.237 C5.867,25.249 5.885,25.259 5.901,25.269 C7.661,26.534 9.789,27.276 12.077,27.276 C14.575,27.276 16.879,26.394 18.722,24.912 C18.743,24.898 18.766,24.887 18.784,24.87 C18.834,24.83 18.883,24.787 18.926,24.744 C21.422,22.64 23.022,19.413 23.022,15.802 L23.022,15.802 Z M20.547,15.797 C20.547,18.033 19.752,20.077 18.446,21.639 L14.703,16.652 L20.474,14.645 C20.519,15.023 20.547,15.407 20.547,15.797 L20.547,15.797 Z M13.683,13.463 L13.683,7.08 C16.162,7.582 18.259,9.219 19.459,11.452 L13.683,13.463 L13.683,13.463 Z M10.474,7.08 L10.474,13.556 L4.539,11.759 C5.71,9.369 7.883,7.604 10.474,7.08 L10.474,7.08 Z M3.646,14.989 L9.492,16.762 L6.032,22.005 C4.534,20.403 3.609,18.212 3.609,15.797 C3.609,15.525 3.623,15.257 3.646,14.989 L3.646,14.989 Z M12.134,18.669 L15.917,23.707 C14.764,24.325 13.46,24.676 12.077,24.676 C10.866,24.676 9.712,24.405 8.668,23.922 L12.134,18.669 L12.134,18.669 Z" id="Fill-9" fill="#E6A356"></path>
                    <path d="M23.758,23.197 C23.758,16.869 18.848,11.723 12.813,11.723 C7.853,11.723 3.655,15.202 2.317,19.952 C2.311,19.969 2.305,19.983 2.299,20.001 C2.291,20.032 2.285,20.066 2.276,20.1 C2.014,21.085 1.869,22.124 1.869,23.197 C1.869,27.049 3.69,30.461 6.474,32.543 C6.51,32.574 6.547,32.606 6.586,32.633 C6.603,32.644 6.62,32.654 6.637,32.665 C8.397,33.93 10.524,34.672 12.813,34.672 C15.31,34.672 17.614,33.79 19.457,32.308 C19.478,32.293 19.501,32.282 19.52,32.266 C19.569,32.226 19.618,32.183 19.661,32.14 C22.157,30.035 23.758,26.809 23.758,23.197 L23.758,23.197 Z M21.282,23.192 C21.282,25.429 20.487,27.473 19.182,29.034 L15.439,24.048 L21.209,22.041 C21.255,22.419 21.282,22.803 21.282,23.192 L21.282,23.192 Z M14.418,20.858 L14.418,14.476 C16.897,14.977 18.994,16.614 20.194,18.848 L14.418,20.858 L14.418,20.858 Z M11.209,14.476 L11.209,20.951 L5.274,19.154 C6.445,16.765 8.618,14.999 11.209,14.476 L11.209,14.476 Z M4.381,22.385 L10.227,24.157 L6.768,29.4 C5.27,27.799 4.345,25.607 4.345,23.192 C4.345,22.921 4.358,22.652 4.381,22.385 L4.381,22.385 Z M12.869,26.065 L16.652,31.102 C15.499,31.721 14.195,32.071 12.813,32.071 C11.602,32.071 10.447,31.801 9.403,31.317 L12.869,26.065 L12.869,26.065 Z" id="Fill-10" fill="#E6A356"></path>
                    <path d="M62.229,65.244 C59.716,59.493 53.207,56.957 47.72,59.594 C43.211,61.763 40.777,66.757 41.448,71.661 C41.45,71.68 41.45,71.696 41.452,71.713 C41.458,71.747 41.465,71.779 41.473,71.812 C41.622,72.824 41.904,73.832 42.331,74.807 C43.862,78.309 46.873,80.613 50.233,81.291 C50.278,81.304 50.322,81.315 50.369,81.324 C50.389,81.327 50.409,81.327 50.429,81.33 C52.53,81.713 54.761,81.457 56.842,80.456 C59.11,79.367 60.853,77.558 61.941,75.405 C61.954,75.382 61.97,75.362 61.983,75.338 C62.014,75.281 62.038,75.222 62.06,75.162 C63.49,72.159 63.667,68.527 62.229,65.244 L62.229,65.244 Z M59.977,66.321 C60.866,68.355 60.956,70.559 60.391,72.549 L55.005,69.651 L59.452,65.307 C59.645,65.629 59.821,65.967 59.977,66.321 L59.977,66.321 Z M52.81,67.198 L50.272,61.397 C52.726,60.769 55.282,61.341 57.262,62.847 L52.81,67.198 L52.81,67.198 Z M47.354,62.799 L49.929,68.686 L43.821,69.644 C43.934,66.959 45.208,64.405 47.354,62.799 L47.354,62.799 Z M44.293,72.972 L50.31,72.026 L49.249,78.307 C47.253,77.504 45.541,75.916 44.58,73.722 C44.473,73.474 44.378,73.223 44.293,72.972 L44.293,72.972 Z M53.472,72.607 L58.913,75.535 C58.109,76.601 57.065,77.489 55.808,78.093 C54.704,78.622 53.551,78.88 52.408,78.896 L53.472,72.607 L53.472,72.607 Z" id="Fill-11" fill="#EDB970"></path>
                    <path d="M46.082,56.742 C43.566,50.991 37.057,48.456 31.57,51.092 C27.06,53.261 24.628,58.256 25.3,63.16 C25.302,63.178 25.3,63.194 25.302,63.211 C25.307,63.245 25.315,63.278 25.321,63.31 C25.474,64.323 25.754,65.329 26.182,66.306 C27.713,69.808 30.723,72.112 34.084,72.788 C34.128,72.802 34.175,72.813 34.221,72.821 C34.24,72.825 34.261,72.825 34.278,72.828 C36.383,73.21 38.61,72.955 40.692,71.955 C42.963,70.864 44.706,69.056 45.791,66.903 C45.805,66.881 45.82,66.86 45.833,66.837 C45.863,66.779 45.888,66.72 45.911,66.66 C47.343,63.657 47.517,60.025 46.082,56.742 L46.082,56.742 Z M43.827,57.82 C44.716,59.852 44.808,62.057 44.242,64.048 L38.857,61.15 L43.303,56.806 C43.496,57.127 43.673,57.465 43.827,57.82 L43.827,57.82 Z M36.659,58.696 L34.122,52.896 C36.575,52.267 39.133,52.839 41.113,54.346 L36.659,58.696 L36.659,58.696 Z M31.207,54.297 L33.78,60.185 L27.671,61.142 C27.784,58.458 29.06,55.905 31.207,54.297 L31.207,54.297 Z M28.144,64.47 L34.162,63.525 L33.1,69.805 C31.102,69.003 29.391,67.415 28.432,65.22 C28.322,64.972 28.228,64.722 28.144,64.47 L28.144,64.47 Z M37.322,64.106 L42.763,67.034 C41.961,68.099 40.914,68.988 39.659,69.592 C38.556,70.12 37.4,70.379 36.26,70.396 L37.322,64.106 L37.322,64.106 Z" id="Fill-12" fill="#EDB970"></path>
                    <path d="M62.678,69.535 C64.564,63.525 61.435,57.027 55.704,55.047 C50.991,53.422 45.968,55.35 43.277,59.424 C43.269,59.438 43.256,59.45 43.247,59.465 C43.229,59.492 43.214,59.522 43.197,59.551 C42.651,60.4 42.205,61.341 41.886,62.359 C40.736,66.019 41.449,69.856 43.473,72.746 C43.498,72.788 43.522,72.828 43.552,72.869 C43.565,72.886 43.579,72.899 43.591,72.916 C44.885,74.694 46.685,76.097 48.86,76.848 C51.231,77.666 53.683,77.581 55.875,76.778 C55.9,76.771 55.923,76.768 55.947,76.759 C56.008,76.737 56.065,76.713 56.12,76.687 C59.117,75.504 61.601,72.965 62.678,69.535 L62.678,69.535 Z M60.327,68.719 C59.661,70.842 58.296,72.523 56.592,73.579 L54.522,67.616 L60.601,67.602 C60.532,67.974 60.443,68.348 60.327,68.719 L60.327,68.719 Z M54.503,64.252 L56.407,58.188 C58.613,59.477 60.115,61.72 60.59,64.235 L54.503,64.252 L54.503,64.252 Z M53.357,57.138 L51.427,63.289 L46.327,59.636 C48.151,57.748 50.742,56.784 53.357,57.138 L53.357,57.138 Z M44.514,62.411 L49.538,66.011 L44.688,69.858 C43.743,67.845 43.518,65.461 44.238,63.167 C44.318,62.908 44.412,62.656 44.514,62.411 L44.514,62.411 Z M51.48,68.689 L53.57,74.714 C52.29,74.923 50.948,74.829 49.635,74.377 C48.482,73.979 47.469,73.344 46.622,72.543 L51.48,68.689 L51.48,68.689 Z" id="Fill-13" fill="#D1853B"></path>
                    <path d="M24.528,34.674 C24.528,41.001 29.436,46.148 35.472,46.148 C40.432,46.148 44.629,42.668 45.969,37.917 C45.974,37.901 45.981,37.887 45.987,37.869 C45.995,37.838 46.001,37.805 46.008,37.771 C46.272,36.785 46.416,35.746 46.416,34.674 C46.416,30.821 44.597,27.41 41.81,25.328 C41.774,25.297 41.739,25.267 41.698,25.237 C41.682,25.226 41.664,25.217 41.647,25.206 C39.89,23.94 37.762,23.198 35.472,23.198 C32.975,23.198 30.672,24.08 28.829,25.563 C28.808,25.577 28.784,25.589 28.765,25.605 C28.715,25.644 28.667,25.687 28.623,25.731 C26.129,27.837 24.528,31.062 24.528,34.674 L24.528,34.674 Z M27.004,34.679 C27.004,32.441 27.799,30.398 29.103,28.836 L32.846,33.822 L27.077,35.83 C27.031,35.453 27.004,35.069 27.004,34.679 L27.004,34.679 Z M33.867,37.013 L33.867,43.394 C31.389,42.894 29.292,41.257 28.09,39.023 L33.867,37.013 L33.867,37.013 Z M37.077,43.394 L37.077,36.919 L43.01,38.716 C41.839,41.106 39.667,42.871 37.077,43.394 L37.077,43.394 Z M43.904,35.486 L38.06,33.714 L41.519,28.47 C43.016,30.072 43.94,32.263 43.94,34.679 C43.94,34.951 43.928,35.218 43.904,35.486 L43.904,35.486 Z M35.416,31.807 L31.633,26.769 C32.786,26.15 34.091,25.8 35.472,25.8 C36.685,25.8 37.837,26.069 38.882,26.553 L35.416,31.807 L35.416,31.807 Z" id="Fill-14" fill="#E6A356"></path>
                    <path d="M40.362,53.015 C40.362,59.342 45.271,64.49 51.306,64.49 C56.266,64.49 60.463,61.012 61.803,56.26 C61.808,56.243 61.815,56.229 61.821,56.212 C61.829,56.179 61.835,56.147 61.842,56.114 C62.106,55.128 62.25,54.089 62.25,53.015 C62.25,49.164 60.431,45.752 57.644,43.67 C57.608,43.638 57.573,43.607 57.532,43.58 C57.516,43.568 57.498,43.56 57.481,43.549 C55.724,42.282 53.596,41.54 51.306,41.54 C48.809,41.54 46.506,42.424 44.663,43.905 C44.642,43.921 44.618,43.932 44.599,43.947 C44.549,43.986 44.501,44.029 44.457,44.073 C41.963,46.178 40.362,49.404 40.362,53.015 L40.362,53.015 Z M42.838,53.019 C42.838,50.784 43.633,48.74 44.936,47.178 L48.68,52.165 L42.911,54.173 C42.865,53.795 42.838,53.41 42.838,53.019 L42.838,53.019 Z M49.701,55.353 L49.701,61.738 C47.223,61.235 45.126,59.599 43.924,57.364 L49.701,55.353 L49.701,55.353 Z M52.911,61.738 L52.911,55.261 L58.844,57.06 C57.673,59.449 55.501,61.214 52.911,61.738 L52.911,61.738 Z M59.738,53.827 L53.894,52.056 L57.353,46.812 C58.85,48.415 59.773,50.606 59.773,53.019 C59.773,53.292 59.762,53.562 59.738,53.827 L59.738,53.827 Z M51.25,50.147 L47.467,45.109 C48.62,44.493 49.925,44.141 51.306,44.141 C52.519,44.141 53.671,44.412 54.716,44.894 L51.25,50.147 L51.25,50.147 Z" id="Fill-15" fill="#E6A356"></path>
                    <path d="M15.731,39.455 C18.247,45.206 24.756,47.741 30.242,45.105 C34.752,42.935 37.185,37.941 36.513,33.037 C36.511,33.019 36.513,33.003 36.511,32.985 C36.505,32.951 36.498,32.919 36.491,32.887 C36.339,31.875 36.059,30.868 35.631,29.892 C34.101,26.39 31.088,24.085 27.729,23.409 C27.685,23.394 27.639,23.383 27.592,23.375 C27.572,23.371 27.553,23.371 27.532,23.368 C25.431,22.986 23.203,23.242 21.121,24.242 C18.851,25.333 17.107,27.142 16.022,29.295 C16.008,29.316 15.992,29.337 15.98,29.36 C15.95,29.417 15.925,29.478 15.901,29.536 C14.471,32.54 14.297,36.172 15.731,39.455 L15.731,39.455 Z M17.984,38.377 C17.097,36.345 17.005,34.14 17.571,32.149 L22.956,35.047 L18.51,39.392 C18.316,39.071 18.14,38.732 17.984,38.377 L17.984,38.377 Z M25.153,37.5 L27.688,43.303 C25.237,43.93 22.681,43.357 20.699,41.852 L25.153,37.5 L25.153,37.5 Z M30.606,41.899 L28.032,36.013 L34.14,35.055 C34.027,37.739 32.754,40.292 30.606,41.899 L30.606,41.899 Z M33.67,31.728 L27.65,32.672 L28.712,26.392 C30.71,27.194 32.422,28.782 33.381,30.977 C33.491,31.225 33.585,31.476 33.67,31.728 L33.67,31.728 Z M24.491,32.092 L19.05,29.164 C19.852,28.098 20.898,27.209 22.154,26.606 C23.257,26.076 24.412,25.819 25.554,25.803 L24.491,32.092 L24.491,32.092 Z" id="Fill-16" fill="#EDB970"></path>
                    <path d="M14.579,22.755 C17.095,28.506 23.603,31.041 29.09,28.404 C33.6,26.235 36.033,21.241 35.36,16.337 C35.358,16.319 35.36,16.303 35.358,16.285 C35.353,16.251 35.346,16.219 35.339,16.187 C35.186,15.175 34.906,14.168 34.478,13.191 C32.948,9.69 29.935,7.385 26.577,6.709 C26.532,6.694 26.486,6.683 26.44,6.675 C26.42,6.671 26.4,6.671 26.38,6.668 C24.278,6.286 22.051,6.542 19.969,7.542 C17.698,8.633 15.955,10.441 14.869,12.595 C14.855,12.616 14.84,12.637 14.828,12.66 C14.798,12.717 14.772,12.777 14.749,12.836 C13.318,15.84 13.145,19.472 14.579,22.755 L14.579,22.755 Z M16.832,21.677 C15.944,19.644 15.853,17.44 16.419,15.449 L21.804,18.347 L17.357,22.691 C17.164,22.371 16.987,22.032 16.832,21.677 L16.832,21.677 Z M24.001,20.8 L26.536,26.602 C24.085,27.229 21.528,26.657 19.547,25.151 L24.001,20.8 L24.001,20.8 Z M29.454,25.199 L26.88,19.312 L32.987,18.354 C32.875,21.039 31.602,23.592 29.454,25.199 L29.454,25.199 Z M32.518,15.027 L26.498,15.972 L27.56,9.691 C29.558,10.494 31.269,12.082 32.228,14.276 C32.339,14.524 32.433,14.775 32.518,15.027 L32.518,15.027 Z M23.339,15.392 L17.897,12.464 C18.699,11.398 19.746,10.509 21.002,9.905 C22.104,9.376 23.26,9.119 24.401,9.102 L23.339,15.392 L23.339,15.392 Z" id="Fill-17" fill="#EDB970"></path>
                    <path d="M41.356,23.782 C43.872,29.533 50.381,32.068 55.867,29.432 C60.377,27.263 62.81,22.269 62.138,17.364 C62.136,17.347 62.138,17.33 62.136,17.313 C62.13,17.278 62.123,17.246 62.116,17.214 C61.964,16.202 61.684,15.195 61.256,14.219 C59.726,10.717 56.713,8.412 53.354,7.736 C53.31,7.722 53.264,7.71 53.217,7.702 C53.197,7.698 53.178,7.698 53.157,7.695 C51.056,7.313 48.828,7.569 46.746,8.569 C44.476,9.66 42.732,11.469 41.647,13.622 C41.633,13.644 41.617,13.664 41.606,13.687 C41.575,13.744 41.55,13.805 41.526,13.863 C40.096,16.867 39.922,20.499 41.356,23.782 L41.356,23.782 Z M43.609,22.704 C42.722,20.672 42.63,18.467 43.196,16.477 L48.581,19.374 L44.135,23.719 C43.941,23.398 43.765,23.06 43.609,22.704 L43.609,22.704 Z M50.778,21.827 L53.314,27.63 C50.862,28.257 48.306,27.685 46.324,26.179 L50.778,21.827 L50.778,21.827 Z M56.231,26.227 L53.657,20.34 L59.765,19.382 C59.652,22.066 58.379,24.619 56.231,26.227 L56.231,26.227 Z M59.295,16.055 L53.275,16.999 L54.337,10.719 C56.335,11.521 58.047,13.109 59.006,15.304 C59.116,15.552 59.21,15.803 59.295,16.055 L59.295,16.055 Z M50.116,16.419 L44.675,13.491 C45.477,12.425 46.523,11.536 47.779,10.933 C48.882,10.403 50.037,10.146 51.179,10.13 L50.116,16.419 L50.116,16.419 Z" id="Fill-18" fill="#EDB970"></path>
                    <path d="M36.022,31.084 C34.133,37.095 37.261,43.593 42.995,45.571 C47.706,47.197 52.73,45.269 55.419,41.194 C55.43,41.181 55.44,41.168 55.449,41.155 C55.469,41.127 55.483,41.098 55.501,41.069 C56.046,40.219 56.493,39.279 56.812,38.26 C57.961,34.602 57.25,30.764 55.226,27.874 C55.2,27.831 55.174,27.791 55.145,27.751 C55.134,27.734 55.118,27.721 55.106,27.704 C53.812,25.926 52.014,24.523 49.838,23.773 C47.466,22.953 45.015,23.038 42.822,23.841 C42.798,23.849 42.772,23.851 42.75,23.86 C42.69,23.882 42.634,23.906 42.578,23.933 C39.579,25.116 37.097,27.653 36.022,31.084 L36.022,31.084 Z M38.372,31.899 C39.037,29.777 40.401,28.097 42.107,27.04 L44.176,33.004 L38.099,33.019 C38.166,32.646 38.254,32.271 38.372,31.899 L38.372,31.899 Z M44.195,36.367 L42.292,42.432 C40.086,41.143 38.583,38.9 38.108,36.384 L44.195,36.367 L44.195,36.367 Z M45.338,43.482 L47.271,37.331 L52.37,40.983 C50.547,42.871 47.956,43.835 45.338,43.482 L45.338,43.482 Z M54.182,38.208 L49.158,34.608 L54.011,30.762 C54.953,32.775 55.179,35.159 54.459,37.452 C54.377,37.712 54.284,37.963 54.182,38.208 L54.182,38.208 Z M47.218,31.931 L45.127,25.905 C46.406,25.695 47.751,25.791 49.065,26.243 C50.214,26.641 51.228,27.276 52.076,28.077 L47.218,31.931 L47.218,31.931 Z" id="Fill-19" fill="#D1853B"></path>
                    <path d="M35.252,42.559 C33.366,48.57 36.494,55.069 42.228,57.047 C46.939,58.672 51.962,56.745 54.651,52.671 C54.661,52.657 54.675,52.646 54.683,52.63 C54.702,52.602 54.717,52.573 54.733,52.544 C55.279,51.694 55.725,50.755 56.046,49.735 C57.193,46.077 56.482,42.239 54.458,39.349 C54.434,39.308 54.406,39.266 54.378,39.227 C54.366,39.21 54.352,39.195 54.34,39.18 C53.046,37.402 51.246,35.999 49.071,35.248 C46.699,34.429 44.248,34.513 42.055,35.316 C42.031,35.324 42.007,35.328 41.982,35.335 C41.922,35.356 41.866,35.382 41.81,35.41 C38.812,36.592 36.329,39.13 35.252,42.559 L35.252,42.559 Z M37.603,43.377 C38.271,41.252 39.634,39.572 41.34,38.515 L43.409,44.479 L37.329,44.495 C37.397,44.121 37.486,43.747 37.603,43.377 L37.603,43.377 Z M43.427,47.843 L41.522,53.906 C39.318,52.617 37.815,50.376 37.34,47.859 L43.427,47.843 L43.427,47.843 Z M44.573,54.958 L46.504,48.806 L51.603,52.46 C49.779,54.347 47.19,55.31 44.573,54.958 L44.573,54.958 Z M53.416,49.684 L48.392,46.085 L53.242,42.237 C54.187,44.25 54.412,46.635 53.692,48.929 C53.611,49.187 53.518,49.438 53.416,49.684 L53.416,49.684 Z M46.45,43.405 L44.361,37.381 C45.64,37.172 46.983,37.267 48.296,37.719 C49.447,38.115 50.461,38.751 51.309,39.552 L46.45,43.405 L46.45,43.405 Z" id="Fill-20" fill="#D1853B"></path>
                    <path d="M4.341,9.464 C2.455,15.476 5.583,21.975 11.316,23.952 C16.027,25.577 21.051,23.65 23.74,19.576 C23.75,19.562 23.764,19.551 23.772,19.535 C23.791,19.508 23.806,19.479 23.822,19.449 C24.368,18.6 24.814,17.66 25.135,16.641 C26.282,12.982 25.571,9.144 23.547,6.254 C23.522,6.213 23.495,6.171 23.467,6.132 C23.455,6.115 23.44,6.101 23.429,6.085 C22.135,4.308 20.335,2.904 18.16,2.153 C15.788,1.334 13.337,1.418 11.144,2.222 C11.12,2.229 11.096,2.233 11.071,2.24 C11.011,2.262 10.955,2.287 10.898,2.315 C7.901,3.497 5.418,6.035 4.341,9.464 L4.341,9.464 Z M6.691,10.282 C7.359,8.157 8.723,6.477 10.429,5.42 L12.498,11.385 L6.418,11.4 C6.486,11.026 6.575,10.652 6.691,10.282 L6.691,10.282 Z M12.516,14.748 L10.611,20.812 C8.407,19.523 6.903,17.281 6.429,14.765 L12.516,14.748 L12.516,14.748 Z M13.662,21.863 L15.593,15.711 L20.692,19.365 C18.868,21.252 16.278,22.215 13.662,21.863 L13.662,21.863 Z M22.505,16.589 L17.48,12.99 L22.331,9.143 C23.276,11.155 23.501,13.54 22.781,15.834 C22.7,16.092 22.606,16.343 22.505,16.589 L22.505,16.589 Z M15.539,10.31 L13.45,4.286 C14.728,4.077 16.072,4.172 17.385,4.624 C18.536,5.021 19.55,5.656 20.397,6.457 L15.539,10.31 L15.539,10.31 Z" id="Fill-21" fill="#D1853B"></path>
                    <path d="M41.626,39.978 C41.626,46.306 46.536,51.452 52.571,51.452 C57.531,51.452 61.728,47.973 63.066,43.223 C63.072,43.206 63.079,43.191 63.085,43.174 C63.093,43.143 63.099,43.108 63.107,43.075 C63.37,42.09 63.515,41.051 63.515,39.978 C63.515,36.126 61.694,32.714 58.91,30.632 C58.874,30.601 58.837,30.569 58.798,30.542 C58.781,30.53 58.764,30.521 58.747,30.51 C56.987,29.245 54.859,28.503 52.571,28.503 C50.073,28.503 47.769,29.385 45.927,30.867 C45.905,30.882 45.883,30.893 45.864,30.909 C45.815,30.949 45.766,30.992 45.723,31.035 C43.227,33.14 41.626,36.366 41.626,39.978 L41.626,39.978 Z M44.102,39.982 C44.102,37.746 44.897,35.702 46.202,34.141 L49.945,39.127 L44.175,41.134 C44.129,40.756 44.102,40.372 44.102,39.982 L44.102,39.982 Z M50.966,42.316 L50.966,48.699 C48.486,48.197 46.39,46.561 45.19,44.327 L50.966,42.316 L50.966,42.316 Z M54.175,48.699 L54.175,42.224 L60.109,44.021 C58.939,46.41 56.766,48.176 54.175,48.699 L54.175,48.699 Z M61.003,40.79 L55.156,39.018 L58.616,33.774 C60.114,35.376 61.039,37.567 61.039,39.982 C61.039,40.254 61.025,40.523 61.003,40.79 L61.003,40.79 Z M52.515,37.11 L48.731,32.072 C49.885,31.454 51.189,31.104 52.571,31.104 C53.782,31.104 54.936,31.374 55.98,31.857 L52.515,37.11 L52.515,37.11 Z" id="Fill-22" fill="#E6A356"></path>
                    <path d="M20.747,17.974 C20.747,24.302 25.657,29.448 31.692,29.448 C36.652,29.448 40.85,25.969 42.187,21.219 C42.193,21.202 42.2,21.187 42.206,21.17 C42.214,21.139 42.22,21.105 42.228,21.071 C42.491,20.086 42.636,19.047 42.636,17.974 C42.636,14.122 40.815,10.71 38.031,8.628 C37.995,8.597 37.958,8.565 37.919,8.538 C37.902,8.526 37.885,8.517 37.868,8.506 C36.108,7.241 33.98,6.499 31.692,6.499 C29.194,6.499 26.891,7.381 25.048,8.863 C25.026,8.878 25.004,8.889 24.985,8.905 C24.935,8.945 24.887,8.988 24.844,9.031 C22.348,11.136 20.747,14.362 20.747,17.974 L20.747,17.974 Z M23.223,17.979 C23.223,15.742 24.018,13.698 25.323,12.137 L29.066,17.123 L23.296,19.13 C23.25,18.752 23.223,18.368 23.223,17.979 L23.223,17.979 Z M30.087,20.312 L30.087,26.695 C27.607,26.193 25.511,24.557 24.31,22.323 L30.087,20.312 L30.087,20.312 Z M33.296,26.695 L33.296,20.22 L39.23,22.017 C38.06,24.406 35.887,26.172 33.296,26.695 L33.296,26.695 Z M40.124,18.786 L34.277,17.014 L37.737,11.771 C39.235,13.372 40.16,15.563 40.16,17.979 C40.16,18.25 40.147,18.519 40.124,18.786 L40.124,18.786 Z M31.636,15.106 L27.853,10.068 C29.006,9.45 30.31,9.1 31.692,9.1 C32.903,9.1 34.058,9.37 35.102,9.854 L31.636,15.106 L31.636,15.106 Z" id="Fill-23" fill="#E6A356"></path>
                    <path d="M38.855,11.723 C38.855,18.051 43.766,23.197 49.801,23.197 C54.761,23.197 58.958,19.718 60.296,14.968 C60.302,14.951 60.309,14.937 60.315,14.919 C60.322,14.888 60.328,14.853 60.337,14.82 C60.6,13.835 60.744,12.796 60.744,11.723 C60.744,7.871 58.924,4.459 56.14,2.377 C56.103,2.346 56.066,2.314 56.027,2.287 C56.011,2.275 55.993,2.266 55.977,2.255 C54.217,0.99 52.089,0.248 49.801,0.248 C47.303,0.248 44.999,1.13 43.156,2.612 C43.135,2.627 43.112,2.638 43.094,2.654 C43.044,2.694 42.995,2.737 42.952,2.78 C40.456,4.885 38.855,8.111 38.855,11.723 L38.855,11.723 Z M41.331,11.727 C41.331,9.491 42.126,7.447 43.432,5.886 L47.175,10.872 L41.404,12.879 C41.358,12.501 41.331,12.117 41.331,11.727 L41.331,11.727 Z M48.195,14.062 L48.195,20.444 C45.716,19.942 43.619,18.306 42.419,16.072 L48.195,14.062 L48.195,14.062 Z M51.404,20.444 L51.404,13.969 L57.339,15.766 C56.168,18.155 53.995,19.921 51.404,20.444 L51.404,20.444 Z M58.232,12.535 L52.386,10.763 L55.846,5.519 C57.344,7.121 58.269,9.313 58.269,11.727 C58.269,11.999 58.255,12.268 58.232,12.535 L58.232,12.535 Z M49.744,8.856 L45.961,3.817 C47.114,3.199 48.418,2.849 49.801,2.849 C51.012,2.849 52.166,3.119 53.21,3.602 L49.744,8.856 L49.744,8.856 Z" id="Fill-24" fill="#E6A356"></path>
                    <path d="M1.154,39.454 C3.668,45.205 10.177,47.741 15.664,45.105 C20.173,42.935 22.606,37.941 21.935,33.037 C21.934,33.019 21.934,33.002 21.932,32.985 C21.926,32.951 21.919,32.919 21.911,32.887 C21.762,31.874 21.479,30.866 21.053,29.892 C19.522,26.39 16.511,24.085 13.15,23.407 C13.106,23.394 13.062,23.383 13.015,23.374 C12.995,23.371 12.975,23.371 12.955,23.368 C10.853,22.985 8.623,23.241 6.542,24.242 C4.273,25.331 2.53,27.141 1.442,29.293 C1.43,29.316 1.414,29.336 1.4,29.36 C1.37,29.417 1.346,29.477 1.324,29.536 C-0.106,32.539 -0.283,36.171 1.154,39.454 L1.154,39.454 Z M3.407,38.377 C2.518,36.344 2.428,34.14 2.993,32.149 L8.379,35.047 L3.932,39.392 C3.739,39.069 3.562,38.731 3.407,38.377 L3.407,38.377 Z M10.574,37.5 L13.111,43.302 C10.658,43.93 8.102,43.357 6.122,41.852 L10.574,37.5 L10.574,37.5 Z M16.029,41.899 L13.455,36.013 L19.563,35.055 C19.45,37.739 18.176,40.293 16.029,41.899 L16.029,41.899 Z M19.091,31.727 L13.073,32.672 L14.135,26.392 C16.131,27.194 17.843,28.782 18.804,30.977 C18.911,31.225 19.006,31.476 19.091,31.727 L19.091,31.727 Z M9.912,32.091 L4.471,29.163 C5.274,28.098 6.319,27.209 7.576,26.606 C8.68,26.076 9.833,25.818 10.976,25.802 L9.912,32.091 L9.912,32.091 Z" id="Fill-25" fill="#EDB970"></path>
                    <path d="M25.522,41.789 C28.037,47.54 34.547,50.075 40.033,47.44 C44.543,45.271 46.976,40.275 46.304,35.371 C46.302,35.354 46.304,35.337 46.302,35.32 C46.297,35.286 46.289,35.253 46.282,35.221 C46.13,34.208 45.85,33.202 45.422,32.226 C43.891,28.724 40.881,26.419 37.52,25.743 C37.476,25.729 37.429,25.718 37.383,25.71 C37.363,25.706 37.343,25.706 37.325,25.703 C35.221,25.321 32.993,25.576 30.911,26.576 C28.641,27.667 26.897,29.476 25.812,31.628 C25.799,31.65 25.783,31.671 25.771,31.694 C25.74,31.752 25.716,31.812 25.692,31.871 C24.261,34.874 24.087,38.506 25.522,41.789 L25.522,41.789 Z M27.776,40.711 C26.888,38.679 26.796,36.475 27.361,34.483 L32.746,37.381 L28.301,41.726 C28.107,41.404 27.931,41.066 27.776,40.711 L27.776,40.711 Z M34.944,39.835 L37.481,45.635 C35.028,46.265 32.471,45.692 30.49,44.185 L34.944,39.835 L34.944,39.835 Z M40.397,44.234 L37.823,38.347 L43.933,37.39 C43.819,40.073 42.544,42.626 40.397,44.234 L40.397,44.234 Z M43.46,34.062 L37.441,35.006 L38.504,28.727 C40.501,29.528 42.213,31.116 43.172,33.312 C43.281,33.56 43.376,33.81 43.46,34.062 L43.46,34.062 Z M34.281,34.425 L28.841,31.497 C29.643,30.433 30.69,29.543 31.944,28.939 C33.048,28.411 34.203,28.152 35.344,28.136 L34.281,34.425 L34.281,34.425 Z" id="Fill-26" fill="#EDB970"></path>
                    <path d="M23.275,16.504 C25.791,22.255 32.301,24.79 37.787,22.154 C42.297,19.985 44.729,14.99 44.058,10.086 C44.056,10.068 44.058,10.052 44.056,10.035 C44.051,10.001 44.043,9.968 44.036,9.935 C43.884,8.923 43.603,7.917 43.176,6.94 C41.645,3.438 38.635,1.134 35.273,0.458 C35.229,0.444 35.183,0.433 35.137,0.425 C35.117,0.421 35.097,0.421 35.079,0.418 C32.975,0.036 30.747,0.291 28.665,1.291 C26.395,2.382 24.651,4.19 23.566,6.343 C23.553,6.365 23.537,6.386 23.524,6.409 C23.494,6.467 23.47,6.526 23.446,6.586 C22.015,9.589 21.841,13.221 23.275,16.504 L23.275,16.504 Z M25.53,15.426 C24.642,13.394 24.55,11.19 25.115,9.198 L30.5,12.096 L26.055,16.44 C25.861,16.119 25.685,15.781 25.53,15.426 L25.53,15.426 Z M32.698,14.55 L35.235,20.35 C32.782,20.979 30.225,20.407 28.244,18.9 L32.698,14.55 L32.698,14.55 Z M38.15,18.949 L35.577,13.062 L41.686,12.105 C41.573,14.788 40.298,17.341 38.15,18.949 L38.15,18.949 Z M41.214,8.776 L35.195,9.721 L36.258,3.441 C38.255,4.243 39.967,5.831 40.926,8.026 C41.035,8.274 41.13,8.524 41.214,8.776 L41.214,8.776 Z M32.035,9.14 L26.595,6.212 C27.397,5.147 28.443,4.258 29.698,3.654 C30.802,3.126 31.957,2.867 33.098,2.851 L32.035,9.14 L32.035,9.14 Z" id="Fill-27" fill="#EDB970"></path>
                    <path d="M42.62,35.256 C45.136,41.007 51.646,43.542 57.132,40.906 C61.642,38.737 64.074,33.742 63.402,28.838 C63.4,28.82 63.402,28.804 63.4,28.787 C63.396,28.753 63.388,28.72 63.381,28.687 C63.228,27.675 62.948,26.669 62.52,25.692 C60.989,22.19 57.98,19.886 54.618,19.21 C54.574,19.196 54.527,19.185 54.481,19.177 C54.462,19.173 54.441,19.173 54.424,19.17 C52.319,18.788 50.092,19.043 48.01,20.043 C45.739,21.134 43.996,22.942 42.911,25.095 C42.897,25.117 42.882,25.138 42.869,25.161 C42.839,25.219 42.815,25.278 42.791,25.338 C41.359,28.341 41.185,31.973 42.62,35.256 L42.62,35.256 Z M44.875,34.178 C43.986,32.146 43.895,29.941 44.46,27.95 L49.845,30.848 L45.399,35.192 C45.206,34.871 45.029,34.533 44.875,34.178 L44.875,34.178 Z M52.043,33.302 L54.58,39.102 C52.127,39.731 49.569,39.159 47.589,37.652 L52.043,33.302 L52.043,33.302 Z M57.495,37.701 L54.922,31.813 L61.031,30.856 C60.918,33.54 59.643,36.093 57.495,37.701 L57.495,37.701 Z M60.559,27.528 L54.54,28.473 L55.603,22.193 C57.6,22.995 59.311,24.583 60.271,26.778 C60.38,27.026 60.475,27.276 60.559,27.528 L60.559,27.528 Z M51.38,27.892 L45.94,24.964 C46.741,23.899 47.788,23.01 49.043,22.406 C50.147,21.878 51.302,21.619 52.442,21.603 L51.38,27.892 L51.38,27.892 Z" id="Fill-28" fill="#EDB970"></path>
                    <path d="M0.706,35.163 C-1.18,41.173 1.948,47.671 7.68,49.651 C12.393,51.276 17.416,49.349 20.106,45.274 C20.114,45.26 20.128,45.248 20.137,45.233 C20.154,45.206 20.17,45.177 20.187,45.148 C20.732,44.298 21.179,43.357 21.498,42.339 C22.647,38.68 21.935,34.843 19.911,31.952 C19.886,31.91 19.861,31.87 19.832,31.829 C19.819,31.813 19.805,31.799 19.793,31.782 C18.499,30.004 16.699,28.602 14.523,27.851 C12.152,27.032 9.701,27.117 7.509,27.92 C7.483,27.928 7.461,27.931 7.437,27.94 C7.376,27.961 7.318,27.985 7.264,28.012 C4.267,29.194 1.783,31.733 0.706,35.163 L0.706,35.163 Z M3.057,35.979 C3.723,33.856 5.088,32.175 6.792,31.119 L8.861,37.082 L2.783,37.097 C2.852,36.725 2.94,36.351 3.057,35.979 L3.057,35.979 Z M8.881,40.446 L6.977,46.51 C4.771,45.222 3.269,42.978 2.794,40.463 L8.881,40.446 L8.881,40.446 Z M10.026,47.56 L11.957,41.409 L17.057,45.063 C15.232,46.95 12.642,47.914 10.026,47.56 L10.026,47.56 Z M18.87,42.287 L13.846,38.688 L18.696,34.84 C19.641,36.854 19.866,39.237 19.145,41.531 C19.065,41.79 18.972,42.042 18.87,42.287 L18.87,42.287 Z M11.903,36.009 L9.814,29.984 C11.094,29.775 12.435,29.869 13.749,30.321 C14.901,30.72 15.915,31.354 16.762,32.155 L11.903,36.009 L11.903,36.009 Z" id="Fill-29" fill="#D1853B"></path>
                    <path d="M8.075,46.639 C6.19,52.648 9.317,59.147 15.049,61.127 C19.762,62.752 24.785,60.824 27.476,56.75 C27.483,56.735 27.497,56.724 27.506,56.709 C27.523,56.682 27.539,56.652 27.556,56.623 C28.102,55.773 28.548,54.833 28.867,53.815 C30.017,50.155 29.304,46.318 27.28,43.428 C27.255,43.386 27.23,43.346 27.201,43.305 C27.189,43.288 27.174,43.274 27.162,43.258 C25.868,41.479 24.068,40.077 21.893,39.326 C19.522,38.508 17.07,38.593 14.878,39.395 C14.853,39.403 14.83,39.406 14.806,39.415 C14.745,39.437 14.688,39.461 14.633,39.487 C11.636,40.67 9.152,43.209 8.075,46.639 L8.075,46.639 Z M10.426,47.455 C11.092,45.332 12.457,43.65 14.161,42.595 L16.23,48.558 L10.152,48.572 C10.221,48.2 10.31,47.826 10.426,47.455 L10.426,47.455 Z M16.25,51.922 L14.346,57.985 C12.14,56.697 10.638,54.454 10.163,51.938 L16.25,51.922 L16.25,51.922 Z M17.396,59.036 L19.326,52.885 L24.426,56.538 C22.602,58.426 20.011,59.39 17.396,59.036 L17.396,59.036 Z M26.239,53.763 L21.215,50.163 L26.065,46.315 C27.01,48.329 27.235,50.713 26.515,53.007 C26.435,53.266 26.341,53.518 26.239,53.763 L26.239,53.763 Z M19.272,47.484 L17.183,41.46 C18.463,41.251 19.805,41.345 21.118,41.797 C22.271,42.195 23.284,42.83 24.131,43.631 L19.272,47.484 L19.272,47.484 Z" id="Fill-30" fill="#D1853B"></path>
                    <path d="M36.679,13.44 C34.793,19.449 37.921,25.947 43.652,27.928 C48.365,29.553 53.389,27.625 56.079,23.551 C56.087,23.536 56.101,23.524 56.109,23.51 C56.127,23.482 56.143,23.453 56.159,23.424 C56.705,22.574 57.151,21.634 57.471,20.615 C58.62,16.956 57.907,13.119 55.884,10.229 C55.858,10.187 55.834,10.146 55.805,10.106 C55.792,10.089 55.777,10.075 55.766,10.059 C54.472,8.28 52.672,6.878 50.496,6.127 C48.125,5.309 45.674,5.394 43.481,6.196 C43.456,6.204 43.434,6.207 43.409,6.216 C43.349,6.237 43.291,6.262 43.236,6.288 C40.239,7.471 37.756,10.01 36.679,13.44 L36.679,13.44 Z M39.029,14.256 C39.695,12.133 41.06,10.451 42.765,9.395 L44.834,15.358 L38.756,15.373 C38.824,15.001 38.913,14.627 39.029,14.256 L39.029,14.256 Z M44.853,18.723 L42.949,24.786 C40.743,23.498 39.241,21.255 38.767,18.739 L44.853,18.723 L44.853,18.723 Z M45.999,25.837 L47.93,19.685 L53.029,23.339 C51.205,25.227 48.614,26.19 45.999,25.837 L45.999,25.837 Z M54.843,20.563 L49.818,16.964 L54.669,13.116 C55.613,15.13 55.839,17.514 55.118,19.808 C55.038,20.066 54.944,20.318 54.843,20.563 L54.843,20.563 Z M47.876,14.285 L45.786,8.261 C47.066,8.052 48.408,8.146 49.722,8.598 C50.874,8.996 51.888,9.631 52.734,10.432 L47.876,14.285 L47.876,14.285 Z" id="Fill-31" fill="#D1853B"></path>
                </g>
                <g id="Rectangle-5-+-Rectangle-6-+-Rectangle-8" sketch:type="MSShapeGroup">
                    <rect id="Rectangle-5" fill="url(#linearGradient-1)" x="0" y="4" width="79" height="93"></rect>
                    <rect id="Rectangle-6" fill-opacity="0.900000095" fill="#DAEFF0" transform="translate(39.500000, 99.000000) scale(1, -1) translate(-39.500000, -99.000000) " x="0" y="97" width="79" height="4"></rect>
                    <rect id="Rectangle-6" fill-opacity="0.900000095" fill="#DAEFF0" transform="translate(39.500000, 2.000000) scale(1, -1) translate(-39.500000, -2.000000) " x="0" y="0" width="79" height="4"></rect>
                    <rect id="Rectangle-7" fill-opacity="0.900000095" fill="#E7F9FA" x="0" y="101" width="79" height="1"></rect>
                </g>
            </g>
        </g>
    </g>
</svg>