<?xml version="1.0" encoding="UTF-8" standalone="no"?>
<svg width="238px" height="102px" viewBox="0 0 238 102" version="1.1" xmlns="http://www.w3.org/2000/svg" xmlns:xlink="http://www.w3.org/1999/xlink" xmlns:sketch="http://www.bohemiancoding.com/sketch/ns">
    <!-- Generator: Sketch 3.1.1 (8761) - http://www.bohemiancoding.com/sketch -->
    <title>i-principiante-ultimo</title>
    <desc>Created with Sketch.</desc>
    <defs>
        <linearGradient x1="0%" y1="50%" x2="100%" y2="50%" id="linearGradient-1">
            <stop stop-color="#D6ECF0" offset="0%"></stop>
            <stop stop-color="#FFFFFF" offset="52.050331%"></stop>
            <stop stop-color="#D6ECF0" offset="100%"></stop>
        </linearGradient>
    </defs>
    <g id="Page-1" stroke="none" stroke-width="1" fill="none" fill-rule="evenodd" sketch:type="MSPage">
        <g id="Desktop-HD" sketch:type="MSArtboardGroup" transform="translate(-1457.000000, -883.000000)">
            <g id="i-principiante-ultimo" sketch:type="MSLayerGroup" transform="translate(1458.000000, 883.000000)">
                <g id="i-principiante-pellets" transform="translate(0.000000, 18.000000)" sketch:type="MSShapeGroup">
                    <path d="M82.124,46.505 C82.124,40.178 77.216,35.031 71.181,35.031 C66.221,35.031 62.024,38.511 60.684,43.262 C60.679,43.277 60.671,43.292 60.666,43.31 C60.658,43.341 60.652,43.374 60.645,43.408 C60.38,44.394 60.237,45.433 60.237,46.505 C60.237,50.357 62.056,53.769 64.842,55.851 C64.878,55.882 64.914,55.912 64.955,55.941 C64.971,55.953 64.989,55.962 65.005,55.973 C66.763,57.238 68.891,57.981 71.181,57.981 C73.678,57.981 75.981,57.099 77.824,55.615 C77.845,55.602 77.869,55.59 77.888,55.574 C77.938,55.534 77.986,55.491 78.03,55.447 C80.524,53.342 82.124,50.117 82.124,46.505 L82.124,46.505 Z M79.649,46.5 C79.649,48.737 78.854,50.78 77.55,52.343 L73.807,47.356 L79.576,45.349 C79.622,45.726 79.649,46.109 79.649,46.5 L79.649,46.5 Z M72.786,44.166 L72.786,37.784 C75.264,38.284 77.361,39.922 78.563,42.156 L72.786,44.166 L72.786,44.166 Z M69.576,37.784 L69.576,44.26 L63.643,42.463 C64.814,40.072 66.986,38.308 69.576,37.784 L69.576,37.784 Z M62.749,45.692 L68.593,47.465 L65.133,52.709 C63.637,51.106 62.713,48.916 62.713,46.5 C62.713,46.227 62.725,45.961 62.749,45.692 L62.749,45.692 Z M71.237,49.372 L75.02,54.41 C73.867,55.028 72.562,55.379 71.181,55.379 C69.968,55.379 68.816,55.109 67.771,54.626 L71.237,49.372 L71.237,49.372 Z" id="Fill-1" fill="#E6A356"></path>
                    <path d="M66.291,28.164 C66.291,21.837 61.382,16.689 55.347,16.689 C50.387,16.689 46.19,20.167 44.85,24.919 C44.845,24.936 44.837,24.95 44.831,24.967 C44.824,25 44.818,25.032 44.811,25.065 C44.546,26.051 44.403,27.09 44.403,28.164 C44.403,32.015 46.222,35.427 49.008,37.509 C49.044,37.541 49.08,37.571 49.121,37.599 C49.137,37.61 49.155,37.619 49.171,37.63 C50.929,38.896 53.057,39.639 55.347,39.639 C57.844,39.639 60.147,38.755 61.99,37.273 C62.011,37.258 62.035,37.247 62.054,37.231 C62.104,37.192 62.152,37.149 62.196,37.106 C64.69,35.001 66.291,31.774 66.291,28.164 L66.291,28.164 Z M63.815,28.159 C63.815,30.394 63.02,32.439 61.716,34.001 L57.973,29.014 L63.742,27.006 C63.788,27.384 63.815,27.769 63.815,28.159 L63.815,28.159 Z M56.952,25.825 L56.952,19.44 C59.43,19.943 61.527,21.58 62.729,23.815 L56.952,25.825 L56.952,25.825 Z M53.742,19.44 L53.742,25.918 L47.809,24.119 C48.98,21.73 51.152,19.965 53.742,19.44 L53.742,19.44 Z M46.915,27.352 L52.759,29.123 L49.299,34.367 C47.803,32.764 46.879,30.573 46.879,28.159 C46.879,27.887 46.891,27.617 46.915,27.352 L46.915,27.352 Z M55.403,31.031 L59.186,36.069 C58.033,36.686 56.728,37.038 55.347,37.038 C54.134,37.038 52.982,36.767 51.937,36.284 L55.403,31.031 L55.403,31.031 Z" id="Fill-2" fill="#E6A356"></path>
                    <path d="M90.921,41.724 C88.406,35.973 81.897,33.438 76.411,36.074 C71.901,38.243 69.467,43.237 70.14,48.142 C70.142,48.159 70.14,48.176 70.142,48.193 C70.148,48.227 70.155,48.26 70.162,48.292 C70.314,49.304 70.594,50.31 71.022,51.287 C72.552,54.789 75.565,57.094 78.923,57.769 C78.968,57.784 79.014,57.796 79.061,57.804 C79.081,57.808 79.1,57.808 79.121,57.81 C81.222,58.192 83.45,57.937 85.532,56.937 C87.802,55.846 89.545,54.037 90.631,51.884 C90.645,51.862 90.661,51.842 90.672,51.818 C90.703,51.762 90.728,51.701 90.751,51.643 C92.182,48.639 92.356,45.007 90.921,41.724 L90.921,41.724 Z M88.669,42.802 C89.556,44.834 89.648,47.039 89.081,49.029 L83.697,46.132 L88.143,41.787 C88.336,42.107 88.513,42.446 88.669,42.802 L88.669,42.802 Z M81.499,43.679 L78.964,37.876 C81.415,37.249 83.972,37.821 85.954,39.327 L81.499,43.679 L81.499,43.679 Z M76.046,39.279 L78.621,45.166 L72.513,46.124 C72.626,43.44 73.899,40.887 76.046,39.279 L76.046,39.279 Z M72.983,49.451 L79.002,48.507 L77.941,54.787 C75.943,53.984 74.231,52.396 73.272,50.202 C73.162,49.954 73.068,49.703 72.983,49.451 L72.983,49.451 Z M82.162,49.087 L87.603,52.015 C86.801,53.081 85.754,53.97 84.499,54.573 C83.396,55.103 82.241,55.359 81.099,55.376 L82.162,49.087 L82.162,49.087 Z" id="Fill-3" fill="#EDB970"></path>
                    <path d="M70.631,50.095 C72.52,44.084 69.392,37.586 63.658,35.607 C58.947,33.981 53.923,35.91 51.234,39.984 C51.223,39.998 51.213,40.011 51.204,40.023 C51.184,40.052 51.169,40.081 51.152,40.109 C50.607,40.96 50.16,41.899 49.84,42.919 C48.692,46.576 49.403,50.415 51.427,53.305 C51.453,53.348 51.479,53.388 51.508,53.428 C51.519,53.444 51.535,53.458 51.547,53.475 C52.84,55.253 54.639,56.656 56.815,57.406 C59.187,58.226 61.638,58.141 63.831,57.338 C63.855,57.33 63.88,57.328 63.903,57.318 C63.962,57.297 64.019,57.273 64.075,57.246 C67.074,56.063 69.556,53.525 70.631,50.095 L70.631,50.095 Z M68.281,49.279 C67.616,51.401 66.251,53.082 64.545,54.139 L62.477,48.175 L68.554,48.159 C68.487,48.532 68.399,48.907 68.281,49.279 L68.281,49.279 Z M62.458,44.812 L64.361,38.747 C66.567,40.036 68.07,42.278 68.544,44.795 L62.458,44.812 L62.458,44.812 Z M61.315,37.696 L59.382,43.848 L54.283,40.195 C56.106,38.308 58.697,37.344 61.315,37.696 L61.315,37.696 Z M52.471,42.971 L57.495,46.57 L52.642,50.417 C51.7,48.403 51.474,46.019 52.194,43.727 C52.276,43.467 52.369,43.216 52.471,42.971 L52.471,42.971 Z M59.435,49.248 L61.526,55.273 C60.247,55.483 58.902,55.388 57.588,54.936 C56.439,54.538 55.424,53.902 54.577,53.102 L59.435,49.248 L59.435,49.248 Z" id="Fill-4" fill="#D1853B"></path>
                    <path d="M71.401,38.62 C73.287,32.608 70.159,26.109 64.425,24.132 C59.714,22.507 54.691,24.434 52.001,28.508 C51.992,28.522 51.978,28.533 51.97,28.549 C51.951,28.576 51.936,28.606 51.919,28.635 C51.374,29.484 50.928,30.424 50.607,31.443 C49.46,35.102 50.17,38.94 52.195,41.83 C52.219,41.871 52.247,41.913 52.275,41.952 C52.287,41.969 52.301,41.983 52.313,41.999 C53.607,43.776 55.407,45.18 57.581,45.931 C59.954,46.75 62.405,46.666 64.598,45.862 C64.622,45.854 64.646,45.851 64.67,45.844 C64.731,45.822 64.787,45.797 64.843,45.769 C67.84,44.587 70.324,42.049 71.401,38.62 L71.401,38.62 Z M69.05,37.802 C68.382,39.927 67.019,41.606 65.313,42.664 L63.244,36.699 L69.324,36.684 C69.255,37.058 69.167,37.432 69.05,37.802 L69.05,37.802 Z M63.226,33.336 L65.13,27.273 C67.335,28.562 68.838,30.803 69.313,33.319 L63.226,33.336 L63.226,33.336 Z M62.08,26.221 L60.149,32.373 L55.049,28.719 C56.874,26.832 59.463,25.869 62.08,26.221 L62.08,26.221 Z M53.237,31.495 L58.261,35.094 L53.411,38.941 C52.465,36.929 52.241,34.544 52.96,32.25 C53.042,31.992 53.135,31.741 53.237,31.495 L53.237,31.495 Z M60.203,37.773 L62.292,43.798 C61.013,44.007 59.669,43.912 58.357,43.46 C57.206,43.063 56.192,42.428 55.344,41.627 L60.203,37.773 L60.203,37.773 Z" id="Fill-5" fill="#D1853B"></path>
                    <path d="M61.079,28.552 C62.965,22.54 59.837,16.041 54.104,14.064 C49.393,12.438 44.369,14.365 41.68,18.44 C41.67,18.453 41.656,18.465 41.648,18.481 C41.629,18.508 41.614,18.537 41.598,18.566 C41.052,19.416 40.606,20.356 40.285,21.375 C39.138,25.033 39.849,28.871 41.873,31.762 C41.898,31.803 41.925,31.845 41.953,31.884 C41.965,31.9 41.98,31.915 41.991,31.931 C43.285,33.708 45.085,35.111 47.26,35.862 C49.632,36.682 52.083,36.598 54.276,35.794 C54.3,35.786 54.324,35.782 54.349,35.775 C54.409,35.754 54.465,35.729 54.522,35.7 C57.519,34.519 60.002,31.981 61.079,28.552 L61.079,28.552 Z M58.728,27.733 C58.06,29.858 56.697,31.538 54.991,32.596 L52.922,26.631 L59.002,26.615 C58.934,26.989 58.845,27.363 58.728,27.733 L58.728,27.733 Z M52.904,23.268 L54.809,17.204 C57.013,18.493 58.517,20.734 58.991,23.251 L52.904,23.268 L52.904,23.268 Z M51.758,16.152 L49.827,22.305 L44.727,18.65 C46.552,16.764 49.142,15.801 51.758,16.152 L51.758,16.152 Z M42.915,21.427 L47.939,25.025 L43.089,28.873 C42.144,26.86 41.919,24.476 42.639,22.182 C42.72,21.924 42.814,21.673 42.915,21.427 L42.915,21.427 Z M49.881,27.705 L51.97,33.73 C50.691,33.939 49.348,33.844 48.035,33.392 C46.884,32.995 45.87,32.359 45.023,31.559 L49.881,27.705 L49.881,27.705 Z" id="Fill-6" fill="#D1853B"></path>
                    <path d="M65.027,41.201 C65.027,34.873 60.117,29.727 54.081,29.727 C49.122,29.727 44.924,33.206 43.586,37.956 C43.581,37.973 43.574,37.987 43.568,38.005 C43.56,38.036 43.554,38.07 43.545,38.104 C43.283,39.089 43.138,40.128 43.138,41.201 C43.138,45.053 44.958,48.465 47.743,50.547 C47.779,50.578 47.816,50.609 47.855,50.637 C47.872,50.648 47.889,50.658 47.906,50.669 C49.665,51.934 51.793,52.676 54.081,52.676 C56.58,52.676 58.883,51.794 60.726,50.312 C60.748,50.297 60.77,50.286 60.789,50.269 C60.838,50.23 60.887,50.187 60.93,50.144 C63.426,48.039 65.027,44.813 65.027,41.201 L65.027,41.201 Z M62.551,41.196 C62.551,43.433 61.756,45.477 60.451,47.038 L56.708,42.052 L62.478,40.045 C62.524,40.423 62.551,40.807 62.551,41.196 L62.551,41.196 Z M55.687,38.862 L55.687,32.48 C58.167,32.981 60.263,34.618 61.463,36.852 L55.687,38.862 L55.687,38.862 Z M52.478,32.48 L52.478,38.955 L46.543,37.158 C47.714,34.769 49.887,33.003 52.478,32.48 L52.478,32.48 Z M45.65,40.389 L51.497,42.161 L48.037,47.404 C46.539,45.803 45.614,43.611 45.614,41.196 C45.614,40.925 45.627,40.656 45.65,40.389 L45.65,40.389 Z M54.138,44.068 L57.921,49.106 C56.768,49.725 55.464,50.075 54.081,50.075 C52.871,50.075 51.716,49.805 50.672,49.321 L54.138,44.068 L54.138,44.068 Z" id="Fill-7" fill="#E6A356"></path>
                    <path d="M65.316,46.505 C65.316,40.177 60.406,35.03 54.371,35.03 C49.411,35.03 45.213,38.51 43.876,43.26 C43.87,43.276 43.863,43.291 43.857,43.309 C43.849,43.34 43.843,43.374 43.835,43.407 C43.572,44.393 43.427,45.432 43.427,46.505 C43.427,50.356 45.248,53.769 48.032,55.851 C48.068,55.882 48.105,55.913 48.144,55.94 C48.161,55.952 48.178,55.962 48.195,55.973 C49.955,57.237 52.083,57.98 54.371,57.98 C56.869,57.98 59.172,57.098 61.015,55.615 C61.037,55.601 61.059,55.59 61.078,55.573 C61.127,55.533 61.176,55.49 61.219,55.447 C63.715,53.343 65.316,50.116 65.316,46.505 L65.316,46.505 Z M62.84,46.5 C62.84,48.736 62.045,50.78 60.74,52.342 L56.997,47.356 L62.767,45.349 C62.813,45.727 62.84,46.11 62.84,46.5 L62.84,46.5 Z M55.976,44.166 L55.976,37.783 C58.456,38.285 60.552,39.922 61.752,42.155 L55.976,44.166 L55.976,44.166 Z M52.767,37.783 L52.767,44.259 L46.832,42.462 C48.003,40.072 50.176,38.307 52.767,37.783 L52.767,37.783 Z M45.939,45.692 L51.786,47.465 L48.326,52.708 C46.828,51.106 45.903,48.915 45.903,46.5 C45.903,46.229 45.917,45.96 45.939,45.692 L45.939,45.692 Z M54.427,49.372 L58.21,54.41 C57.057,55.028 55.753,55.379 54.371,55.379 C53.16,55.379 52.005,55.108 50.961,54.625 L54.427,49.372 L54.427,49.372 Z" id="Fill-8" fill="#E6A356"></path>
                    <path d="M36.117,40.97 C36.117,34.642 31.207,29.495 25.172,29.495 C20.212,29.495 16.015,32.975 14.677,37.725 C14.671,37.741 14.664,37.756 14.658,37.773 C14.65,37.805 14.645,37.839 14.636,37.872 C14.373,38.857 14.229,39.897 14.229,40.97 C14.229,44.821 16.049,48.233 18.833,50.315 C18.869,50.347 18.906,50.378 18.945,50.405 C18.962,50.417 18.98,50.427 18.996,50.438 C20.756,51.702 22.884,52.444 25.172,52.444 C27.67,52.444 29.974,51.563 31.816,50.08 C31.838,50.065 31.86,50.055 31.879,50.038 C31.929,49.998 31.977,49.955 32.02,49.912 C34.517,47.808 36.117,44.581 36.117,40.97 L36.117,40.97 Z M33.642,40.965 C33.642,43.201 32.847,45.245 31.541,46.807 L27.798,41.82 L33.568,39.813 C33.614,40.191 33.642,40.575 33.642,40.965 L33.642,40.965 Z M26.777,38.631 L26.777,32.248 C29.257,32.75 31.354,34.387 32.554,36.62 L26.777,38.631 L26.777,38.631 Z M23.568,32.248 L23.568,38.724 L17.634,36.927 C18.805,34.537 20.977,32.772 23.568,32.248 L23.568,32.248 Z M16.74,40.157 L22.587,41.93 L19.127,47.173 C17.629,45.571 16.704,43.38 16.704,40.965 C16.704,40.693 16.718,40.425 16.74,40.157 L16.74,40.157 Z M25.229,43.837 L29.012,48.875 C27.858,49.493 26.555,49.844 25.172,49.844 C23.961,49.844 22.807,49.573 21.763,49.09 L25.229,43.837 L25.229,43.837 Z" id="Fill-9" fill="#E6A356"></path>
                    <path d="M71.949,40.97 C71.949,34.642 67.039,29.495 61.003,29.495 C56.044,29.495 51.846,32.975 50.508,37.725 C50.502,37.741 50.496,37.756 50.49,37.773 C50.482,37.805 50.476,37.839 50.467,37.872 C50.205,38.857 50.06,39.897 50.06,40.97 C50.06,44.821 51.88,48.233 54.665,50.315 C54.701,50.347 54.738,50.378 54.777,50.405 C54.793,50.417 54.811,50.427 54.828,50.438 C56.587,51.702 58.715,52.444 61.003,52.444 C63.501,52.444 65.805,51.563 67.648,50.08 C67.669,50.065 67.692,50.055 67.71,50.038 C67.76,49.998 67.809,49.955 67.852,49.912 C70.348,47.808 71.949,44.581 71.949,40.97 L71.949,40.97 Z M69.473,40.965 C69.473,43.201 68.678,45.245 67.373,46.807 L63.629,41.82 L69.4,39.813 C69.446,40.191 69.473,40.575 69.473,40.965 L69.473,40.965 Z M62.609,38.631 L62.609,32.248 C65.088,32.75 67.185,34.387 68.385,36.62 L62.609,38.631 L62.609,38.631 Z M59.4,32.248 L59.4,38.724 L53.465,36.927 C54.636,34.537 56.809,32.772 59.4,32.248 L59.4,32.248 Z M52.572,40.157 L58.419,41.93 L54.958,47.173 C53.46,45.571 52.536,43.38 52.536,40.965 C52.536,40.693 52.549,40.425 52.572,40.157 L52.572,40.157 Z M61.06,43.837 L64.843,48.875 C63.69,49.493 62.386,49.844 61.003,49.844 C59.792,49.844 58.638,49.573 57.594,49.09 L61.06,43.837 L61.06,43.837 Z" id="Fill-10" fill="#E6A356"></path>
                    <path d="M105.499,41.725 C102.985,35.974 96.476,33.438 90.989,36.074 C86.48,38.243 84.046,43.237 84.717,48.142 C84.719,48.16 84.719,48.177 84.721,48.193 C84.727,48.227 84.734,48.26 84.742,48.292 C84.891,49.305 85.173,50.313 85.6,51.287 C87.131,54.789 90.142,57.094 93.502,57.772 C93.547,57.784 93.591,57.796 93.638,57.805 C93.658,57.808 93.678,57.808 93.698,57.81 C95.799,58.193 98.03,57.938 100.111,56.937 C102.379,55.848 104.123,54.038 105.21,51.886 C105.223,51.862 105.239,51.843 105.252,51.818 C105.283,51.762 105.307,51.702 105.329,51.643 C106.759,48.64 106.936,45.008 105.499,41.725 L105.499,41.725 Z M103.246,42.802 C104.135,44.835 104.225,47.039 103.66,49.029 L98.274,46.132 L102.721,41.787 C102.914,42.109 103.09,42.447 103.246,42.802 L103.246,42.802 Z M96.079,43.679 L93.542,37.877 C95.995,37.249 98.551,37.821 100.531,39.327 L96.079,43.679 L96.079,43.679 Z M90.624,39.279 L93.198,45.166 L87.09,46.124 C87.203,43.44 88.477,40.886 90.624,39.279 L90.624,39.279 Z M87.562,49.452 L93.58,48.507 L92.518,54.787 C90.522,53.984 88.81,52.396 87.849,50.202 C87.742,49.954 87.647,49.703 87.562,49.452 L87.562,49.452 Z M96.741,49.088 L102.182,52.016 C101.378,53.081 100.334,53.97 99.077,54.573 C97.973,55.103 96.82,55.36 95.677,55.377 L96.741,49.088 L96.741,49.088 Z" id="Fill-11" fill="#EDB970"></path>
                    <path d="M48.298,44.696 C45.782,38.945 39.273,36.41 33.786,39.046 C29.276,41.215 26.844,46.21 27.516,51.114 C27.518,51.132 27.516,51.148 27.518,51.165 C27.523,51.199 27.53,51.232 27.537,51.265 C27.689,52.277 27.97,53.283 28.398,54.26 C29.929,57.762 32.939,60.066 36.3,60.742 C36.344,60.756 36.391,60.768 36.436,60.775 C36.456,60.779 36.477,60.779 36.494,60.782 C38.599,61.164 40.826,60.909 42.908,59.909 C45.179,58.818 46.922,57.01 48.007,54.857 C48.02,54.835 48.036,54.815 48.049,54.791 C48.079,54.733 48.104,54.674 48.127,54.614 C49.559,51.611 49.732,47.98 48.298,44.696 L48.298,44.696 Z M46.043,45.774 C46.932,47.807 47.023,50.011 46.458,52.002 L41.073,49.105 L45.519,44.76 C45.712,45.081 45.889,45.419 46.043,45.774 L46.043,45.774 Z M38.875,46.65 L36.338,40.851 C38.791,40.221 41.349,40.793 43.329,42.3 L38.875,46.65 L38.875,46.65 Z M33.423,42.251 L35.996,48.139 L29.887,49.096 C30,46.412 31.275,43.859 33.423,42.251 L33.423,42.251 Z M30.359,52.424 L36.378,51.479 L35.315,57.759 C33.318,56.957 31.606,55.369 30.648,53.174 C30.538,52.926 30.443,52.676 30.359,52.424 L30.359,52.424 Z M39.538,52.061 L44.979,54.988 C44.177,56.053 43.13,56.942 41.875,57.546 C40.772,58.074 39.616,58.333 38.476,58.35 L39.538,52.061 L39.538,52.061 Z" id="Fill-12" fill="#EDB970"></path>
                    <path d="M105.947,46.016 C107.833,40.006 104.705,33.508 98.973,31.527 C94.26,29.902 89.237,31.83 86.546,35.904 C86.539,35.919 86.525,35.931 86.516,35.945 C86.499,35.973 86.483,36.002 86.466,36.031 C85.92,36.881 85.474,37.821 85.155,38.84 C84.005,42.499 84.718,46.336 86.742,49.227 C86.767,49.269 86.792,49.309 86.821,49.35 C86.834,49.366 86.848,49.38 86.86,49.396 C88.154,51.175 89.954,52.577 92.129,53.328 C94.501,54.147 96.952,54.062 99.144,53.259 C99.169,53.251 99.192,53.248 99.216,53.239 C99.277,53.218 99.335,53.193 99.389,53.167 C102.386,51.984 104.87,49.445 105.947,46.016 L105.947,46.016 Z M103.596,45.199 C102.93,47.322 101.565,49.004 99.861,50.06 L97.792,44.097 L103.87,44.082 C103.801,44.454 103.712,44.828 103.596,45.199 L103.596,45.199 Z M97.772,40.732 L99.676,34.669 C101.882,35.957 103.384,38.2 103.859,40.716 L97.772,40.732 L97.772,40.732 Z M96.626,33.618 L94.696,39.769 L89.596,36.116 C91.42,34.229 94.011,33.265 96.626,33.618 L96.626,33.618 Z M87.783,38.892 L92.807,42.491 L87.956,46.339 C87.012,44.325 86.787,41.941 87.507,39.648 C87.587,39.389 87.681,39.137 87.783,38.892 L87.783,38.892 Z M94.75,45.17 L96.839,51.194 C95.559,51.403 94.217,51.31 92.904,50.857 C91.751,50.459 90.738,49.824 89.891,49.023 L94.75,45.17 L94.75,45.17 Z" id="Fill-13" fill="#D1853B"></path>
                    <path d="M67.797,11.154 C67.797,17.481 72.706,22.628 78.741,22.628 C83.701,22.628 87.898,19.148 89.238,14.398 C89.243,14.382 89.251,14.367 89.256,14.35 C89.264,14.318 89.27,14.285 89.277,14.251 C89.542,13.266 89.685,12.227 89.685,11.154 C89.685,7.302 87.866,3.891 85.08,1.809 C85.044,1.777 85.008,1.747 84.967,1.718 C84.951,1.706 84.933,1.697 84.917,1.687 C83.159,0.421 81.031,-0.321 78.741,-0.321 C76.244,-0.321 73.941,0.561 72.098,2.044 C72.077,2.058 72.053,2.069 72.034,2.085 C71.984,2.125 71.936,2.168 71.892,2.212 C69.398,4.317 67.797,7.542 67.797,11.154 L67.797,11.154 Z M70.273,11.159 C70.273,8.922 71.068,6.879 72.372,5.316 L76.115,10.303 L70.346,12.311 C70.3,11.934 70.273,11.55 70.273,11.159 L70.273,11.159 Z M77.136,13.493 L77.136,19.875 C74.658,19.375 72.561,17.737 71.359,15.503 L77.136,13.493 L77.136,13.493 Z M80.346,19.875 L80.346,13.399 L86.279,15.196 C85.108,17.587 82.936,19.352 80.346,19.875 L80.346,19.875 Z M87.173,11.967 L81.329,10.194 L84.789,4.95 C86.285,6.553 87.209,8.743 87.209,11.159 C87.209,11.432 87.197,11.698 87.173,11.967 L87.173,11.967 Z M78.685,8.287 L74.902,3.249 C76.055,2.631 77.36,2.28 78.741,2.28 C79.954,2.28 81.106,2.55 82.151,3.033 L78.685,8.287 L78.685,8.287 Z" id="Fill-14" fill="#E6A356"></path>
                    <path d="M83.631,29.495 C83.631,35.822 88.54,40.971 94.575,40.971 C99.535,40.971 103.732,37.492 105.072,32.74 C105.077,32.724 105.085,32.709 105.09,32.692 C105.098,32.659 105.104,32.627 105.111,32.595 C105.376,31.608 105.519,30.569 105.519,29.495 C105.519,25.645 103.7,22.232 100.914,20.15 C100.877,20.118 100.842,20.088 100.801,20.061 C100.785,20.049 100.767,20.04 100.751,20.029 C98.993,18.763 96.865,18.021 94.575,18.021 C92.078,18.021 89.775,18.904 87.932,20.386 C87.911,20.401 87.887,20.412 87.868,20.428 C87.818,20.467 87.77,20.51 87.726,20.554 C85.232,22.658 83.631,25.885 83.631,29.495 L83.631,29.495 Z M86.107,29.5 C86.107,27.265 86.902,25.221 88.206,23.658 L91.949,28.646 L86.18,30.653 C86.134,30.275 86.107,29.891 86.107,29.5 L86.107,29.5 Z M92.97,31.834 L92.97,38.219 C90.492,37.716 88.395,36.079 87.193,33.845 L92.97,31.834 L92.97,31.834 Z M96.18,38.219 L96.18,31.741 L102.113,33.54 C100.942,35.93 98.77,37.694 96.18,38.219 L96.18,38.219 Z M103.007,30.308 L97.163,28.536 L100.623,23.292 C102.119,24.896 103.042,27.086 103.042,29.5 C103.042,29.773 103.031,30.042 103.007,30.308 L103.007,30.308 Z M94.519,26.628 L90.736,21.59 C91.889,20.974 93.194,20.621 94.575,20.621 C95.788,20.621 96.94,20.893 97.985,21.375 L94.519,26.628 L94.519,26.628 Z" id="Fill-15" fill="#E6A356"></path>
                    <path d="M36.673,40.304 C35.247,46.416 38.944,52.343 44.918,53.514 C49.829,54.475 54.767,51.931 57.164,47.599 C57.172,47.583 57.184,47.571 57.193,47.556 C57.208,47.525 57.222,47.495 57.236,47.465 C57.72,46.563 58.098,45.589 58.339,44.551 C59.209,40.829 58.175,37.18 55.889,34.629 C55.861,34.59 55.832,34.553 55.799,34.519 C55.786,34.504 55.77,34.492 55.755,34.478 C54.3,32.914 52.362,31.786 50.096,31.341 C47.624,30.856 45.145,31.262 42.986,32.337 C42.962,32.347 42.938,32.354 42.915,32.365 C42.856,32.393 42.8,32.426 42.746,32.459 C39.802,34.009 37.489,36.815 36.673,40.304 L36.673,40.304 Z M39.124,40.788 C39.629,38.629 40.875,36.808 42.52,35.552 L45.1,41.096 L38.938,41.915 C38.974,41.543 39.035,41.166 39.124,40.788 L39.124,40.788 Z M45.392,44.376 L43.95,50.542 C41.611,49.577 39.905,47.589 39.219,45.196 L45.392,44.376 L45.392,44.376 Z M47.128,51.164 L48.588,44.907 L54.055,47.795 C52.358,49.878 49.81,51.161 47.128,51.164 L47.128,51.164 Z M55.669,44.848 L50.282,42.002 L54.891,37.606 C56.011,39.444 56.432,41.741 55.887,44.073 C55.827,44.338 55.752,44.596 55.669,44.848 L55.669,44.848 Z M48.098,39.646 L45.491,34.045 C46.772,33.67 48.142,33.585 49.509,33.852 C50.71,34.089 51.789,34.574 52.713,35.244 L48.098,39.646 L48.098,39.646 Z" id="Fill-16" fill="#EDB970"></path>
                    <path d="M17.456,41.22 C19.971,46.971 26.48,49.506 31.966,46.869 C36.476,44.7 38.91,39.706 38.237,34.802 C38.235,34.784 38.237,34.768 38.235,34.75 C38.229,34.716 38.222,34.684 38.215,34.651 C38.063,33.64 37.783,32.633 37.355,31.656 C35.825,28.154 32.812,25.85 29.454,25.174 C29.409,25.159 29.363,25.148 29.316,25.14 C29.296,25.136 29.277,25.136 29.256,25.133 C27.155,24.751 24.927,25.007 22.845,26.007 C20.575,27.098 18.831,28.906 17.746,31.06 C17.732,31.081 17.716,31.102 17.705,31.125 C17.674,31.182 17.649,31.242 17.626,31.301 C16.195,34.305 16.021,37.937 17.456,41.22 L17.456,41.22 Z M19.708,40.142 C18.821,38.109 18.729,35.904 19.295,33.914 L24.68,36.812 L20.234,41.156 C20.041,40.836 19.864,40.497 19.708,40.142 L19.708,40.142 Z M26.877,39.265 L29.413,45.067 C26.961,45.694 24.405,45.122 22.423,43.616 L26.877,39.265 L26.877,39.265 Z M32.331,43.664 L29.756,37.777 L35.864,36.819 C35.751,39.504 34.478,42.057 32.331,43.664 L32.331,43.664 Z M35.394,33.492 L29.375,34.437 L30.436,28.156 C32.434,28.959 34.146,30.547 35.105,32.741 C35.215,32.989 35.309,33.24 35.394,33.492 L35.394,33.492 Z M26.215,33.856 L20.774,30.929 C21.576,29.862 22.623,28.974 23.878,28.37 C24.981,27.841 26.136,27.584 27.278,27.567 L26.215,33.856 L26.215,33.856 Z" id="Fill-17" fill="#EDB970"></path>
                    <path d="M81.965,47.209 C84.481,52.96 90.99,55.495 96.476,52.858 C100.986,50.69 103.419,45.695 102.747,40.791 C102.745,40.773 102.747,40.757 102.745,40.739 C102.739,40.705 102.732,40.673 102.725,40.641 C102.573,39.629 102.292,38.622 101.865,37.646 C100.335,34.144 97.322,31.839 93.963,31.163 C93.919,31.148 93.873,31.137 93.826,31.129 C93.806,31.125 93.787,31.125 93.766,31.122 C91.665,30.74 89.437,30.996 87.355,31.996 C85.085,33.087 83.341,34.896 82.255,37.049 C82.242,37.07 82.226,37.091 82.214,37.114 C82.184,37.171 82.159,37.231 82.135,37.29 C80.705,40.294 80.531,43.926 81.965,47.209 L81.965,47.209 Z M84.218,46.131 C83.331,44.099 83.239,41.894 83.805,39.903 L89.19,42.801 L84.744,47.146 C84.55,46.825 84.374,46.486 84.218,46.131 L84.218,46.131 Z M91.387,45.254 L93.922,51.057 C91.471,51.684 88.915,51.111 86.933,49.606 L91.387,45.254 L91.387,45.254 Z M96.84,49.653 L94.266,43.767 L100.374,42.809 C100.261,45.493 98.988,48.046 96.84,49.653 L96.84,49.653 Z M99.904,39.481 L93.884,40.426 L94.946,34.146 C96.944,34.948 98.656,36.536 99.615,38.731 C99.725,38.979 99.819,39.23 99.904,39.481 L99.904,39.481 Z M90.725,39.846 L85.284,36.918 C86.085,35.852 87.132,34.963 88.388,34.359 C89.491,33.83 90.646,33.573 91.788,33.557 L90.725,39.846 L90.725,39.846 Z" id="Fill-18" fill="#EDB970"></path>
                    <path d="M71.73,42.918 C69.841,48.929 72.969,55.427 78.704,57.405 C83.415,59.031 88.438,57.102 91.127,53.028 C91.138,53.015 91.148,53.002 91.158,52.989 C91.177,52.961 91.192,52.932 91.21,52.903 C91.754,52.053 92.202,51.113 92.521,50.094 C93.669,46.437 92.958,42.598 90.934,39.708 C90.909,39.665 90.882,39.625 90.853,39.585 C90.842,39.568 90.827,39.555 90.814,39.538 C89.521,37.76 87.722,36.356 85.546,35.606 C83.174,34.787 80.723,34.872 78.531,35.675 C78.506,35.683 78.481,35.685 78.458,35.694 C78.399,35.716 78.342,35.74 78.287,35.767 C75.288,36.95 72.805,39.487 71.73,42.918 L71.73,42.918 Z M74.081,43.733 C74.746,41.611 76.11,39.931 77.816,38.874 L79.884,44.838 L73.807,44.854 C73.874,44.481 73.962,44.106 74.081,43.733 L74.081,43.733 Z M79.904,48.201 L78.001,54.266 C75.794,52.977 74.292,50.734 73.817,48.218 L79.904,48.201 L79.904,48.201 Z M81.046,55.316 L82.979,49.165 L88.079,52.817 C86.255,54.705 83.665,55.669 81.046,55.316 L81.046,55.316 Z M89.89,50.042 L84.867,46.442 L89.719,42.596 C90.662,44.609 90.887,46.993 90.168,49.286 C90.085,49.546 89.993,49.797 89.89,50.042 L89.89,50.042 Z M82.926,43.765 L80.835,37.739 C82.115,37.529 83.46,37.625 84.773,38.077 C85.922,38.475 86.937,39.11 87.785,39.911 L82.926,43.765 L82.926,43.765 Z" id="Fill-19" fill="#D1853B"></path>
                    <path d="M78.521,19.039 C76.635,25.051 79.763,31.55 85.497,33.527 C90.208,35.152 95.231,33.226 97.92,29.151 C97.93,29.138 97.944,29.126 97.952,29.11 C97.971,29.083 97.986,29.054 98.002,29.024 C98.548,28.175 98.994,27.235 99.315,26.216 C100.462,22.558 99.751,18.72 97.727,15.829 C97.703,15.788 97.675,15.746 97.647,15.707 C97.635,15.69 97.621,15.676 97.609,15.66 C96.315,13.883 94.515,12.479 92.34,11.729 C89.968,10.909 87.517,10.993 85.324,11.797 C85.3,11.805 85.276,11.809 85.251,11.815 C85.191,11.837 85.135,11.862 85.079,11.891 C82.082,13.072 79.598,15.61 78.521,19.039 L78.521,19.039 Z M80.872,19.857 C81.54,17.732 82.903,16.053 84.609,14.995 L86.678,20.96 L80.598,20.976 C80.667,20.602 80.755,20.228 80.872,19.857 L80.872,19.857 Z M86.696,24.323 L84.792,30.387 C82.587,29.098 81.083,26.856 80.609,24.34 L86.696,24.323 L86.696,24.323 Z M87.842,31.438 L89.773,25.286 L94.873,28.94 C93.048,30.827 90.458,31.79 87.842,31.438 L87.842,31.438 Z M96.685,26.164 L91.661,22.565 L96.511,18.718 C97.457,20.731 97.681,23.115 96.961,25.409 C96.88,25.667 96.787,25.918 96.685,26.164 L96.685,26.164 Z M89.719,19.886 L87.63,13.861 C88.909,13.652 90.252,13.747 91.565,14.199 C92.716,14.596 93.73,15.231 94.578,16.032 L89.719,19.886 L89.719,19.886 Z" id="Fill-20" fill="#D1853B"></path>
                    <path d="M0.214,37.611 C-1.671,43.623 1.457,50.122 7.19,52.1 C11.901,53.725 16.924,51.798 19.614,47.724 C19.624,47.71 19.637,47.698 19.645,47.683 C19.665,47.655 19.679,47.626 19.696,47.597 C20.242,46.747 20.687,45.808 21.008,44.788 C22.156,41.13 21.445,37.292 19.42,34.401 C19.396,34.36 19.369,34.318 19.34,34.279 C19.329,34.263 19.314,34.248 19.302,34.232 C18.008,32.455 16.209,31.052 14.034,30.301 C11.662,29.481 9.21,29.565 7.017,30.369 C6.994,30.377 6.969,30.381 6.945,30.388 C6.884,30.409 6.829,30.435 6.772,30.463 C3.775,31.645 1.292,34.183 0.214,37.611 L0.214,37.611 Z M2.565,38.43 C3.233,36.305 4.596,34.625 6.302,33.567 L8.372,39.532 L2.292,39.548 C2.36,39.174 2.449,38.8 2.565,38.43 L2.565,38.43 Z M8.389,42.896 L6.485,48.959 C4.281,47.67 2.777,45.429 2.302,42.912 L8.389,42.896 L8.389,42.896 Z M9.536,50.011 L11.466,43.858 L16.566,47.513 C14.742,49.399 12.152,50.362 9.536,50.011 L9.536,50.011 Z M18.378,44.736 L13.354,41.138 L18.205,37.29 C19.15,39.303 19.375,41.688 18.655,43.981 C18.574,44.239 18.48,44.49 18.378,44.736 L18.378,44.736 Z M11.413,38.458 L9.324,32.434 C10.602,32.225 11.946,32.319 13.258,32.772 C14.41,33.168 15.423,33.804 16.271,34.604 L11.413,38.458 L11.413,38.458 Z" id="Fill-21" fill="#D1853B"></path>
                    <path d="M84.895,16.458 C84.895,22.786 89.805,27.933 95.84,27.933 C100.8,27.933 104.998,24.453 106.335,19.703 C106.341,19.687 106.348,19.672 106.354,19.654 C106.362,19.623 106.368,19.589 106.376,19.556 C106.639,18.57 106.784,17.531 106.784,16.458 C106.784,12.606 104.963,9.194 102.179,7.112 C102.143,7.081 102.106,7.05 102.067,7.023 C102.05,7.011 102.033,7.001 102.016,6.99 C100.256,5.726 98.128,4.983 95.84,4.983 C93.342,4.983 91.039,5.865 89.196,7.348 C89.174,7.362 89.152,7.373 89.133,7.39 C89.084,7.43 89.035,7.473 88.992,7.516 C86.496,9.62 84.895,12.847 84.895,16.458 L84.895,16.458 Z M87.371,16.463 C87.371,14.227 88.165,12.183 89.471,10.621 L93.214,15.607 L87.444,17.614 C87.398,17.236 87.371,16.853 87.371,16.463 L87.371,16.463 Z M94.235,18.797 L94.235,25.18 C91.755,24.678 89.659,23.041 88.458,20.808 L94.235,18.797 L94.235,18.797 Z M97.444,25.18 L97.444,18.704 L103.378,20.501 C102.208,22.891 100.035,24.656 97.444,25.18 L97.444,25.18 Z M104.272,17.271 L98.425,15.498 L101.885,10.255 C103.383,11.856 104.308,14.048 104.308,16.463 C104.308,16.734 104.294,17.003 104.272,17.271 L104.272,17.271 Z M95.784,13.591 L92.001,8.553 C93.154,7.935 94.458,7.584 95.84,7.584 C97.051,7.584 98.206,7.855 99.25,8.338 L95.784,13.591 L95.784,13.591 Z" id="Fill-22" fill="#E6A356"></path>
                    <path d="M18.692,52.42 C24.47,49.84 27.167,43.258 24.707,37.747 C22.685,33.218 17.796,30.805 12.914,31.519 C12.897,31.521 12.88,31.521 12.862,31.523 C12.83,31.527 12.796,31.536 12.763,31.542 C11.756,31.703 10.748,31.995 9.768,32.433 C6.251,34.003 3.877,37.057 3.111,40.447 C3.098,40.493 3.084,40.54 3.075,40.587 C3.071,40.606 3.069,40.627 3.066,40.647 C2.629,42.769 2.819,45.015 3.752,47.104 C4.77,49.385 6.515,51.129 8.62,52.207 C8.642,52.221 8.661,52.236 8.684,52.247 C8.74,52.276 8.799,52.303 8.856,52.325 C11.795,53.746 15.395,53.893 18.692,52.42 L18.692,52.42 Z M17.687,50.157 C15.645,51.069 13.455,51.177 11.497,50.621 L14.523,45.17 L18.708,49.621 C18.382,49.817 18.043,49.998 17.687,50.157 L17.687,50.157 Z M17.02,42.938 L22.848,40.336 C23.4,42.805 22.761,45.386 21.211,47.393 L17.02,42.938 L17.02,42.938 Z M21.54,37.405 L15.627,40.046 L14.848,33.894 C17.507,33.989 20.005,35.253 21.54,37.405 L21.54,37.405 Z M11.534,34.396 L12.299,40.456 L6.101,39.435 C6.953,37.414 8.577,35.676 10.782,34.691 C11.03,34.581 11.28,34.483 11.534,34.396 L11.534,34.396 Z M11.634,43.647 L8.577,49.154 C7.542,48.354 6.69,47.306 6.126,46.043 C5.633,44.938 5.409,43.773 5.425,42.623 L11.634,43.647 L11.634,43.647 Z" id="Fill-23" fill="#E6A356"></path>
                    <path d="M43.138,41.2 C43.138,47.528 48.048,52.675 54.084,52.675 C59.044,52.675 63.241,49.195 64.579,44.445 C64.585,44.429 64.591,44.414 64.597,44.397 C64.605,44.365 64.611,44.331 64.62,44.298 C64.882,43.313 65.027,42.273 65.027,41.2 C65.027,37.349 63.206,33.937 60.422,31.855 C60.386,31.823 60.349,31.792 60.31,31.765 C60.294,31.753 60.276,31.743 60.259,31.732 C58.499,30.468 56.372,29.726 54.084,29.726 C51.585,29.726 49.282,30.607 47.439,32.09 C47.417,32.105 47.395,32.115 47.376,32.132 C47.327,32.172 47.278,32.215 47.235,32.258 C44.739,34.362 43.138,37.589 43.138,41.2 L43.138,41.2 Z M45.614,41.205 C45.614,38.969 46.409,36.925 47.714,35.363 L51.458,40.35 L45.687,42.356 C45.641,41.979 45.614,41.595 45.614,41.205 L45.614,41.205 Z M52.478,43.539 L52.478,49.922 C49.999,49.42 47.902,47.783 46.702,45.55 L52.478,43.539 L52.478,43.539 Z M55.687,49.922 L55.687,43.446 L61.622,45.243 C60.451,47.633 58.278,49.398 55.687,49.922 L55.687,49.922 Z M62.515,42.013 L56.668,40.24 L60.128,34.997 C61.626,36.599 62.551,38.79 62.551,41.205 C62.551,41.477 62.538,41.745 62.515,42.013 L62.515,42.013 Z M54.027,38.333 L50.244,33.295 C51.397,32.677 52.701,32.326 54.084,32.326 C55.294,32.326 56.449,32.597 57.493,33.08 L54.027,38.333 L54.027,38.333 Z" id="Fill-24" fill="#E6A356"></path>
                    <path d="M48.697,23.21 C51.211,28.961 57.72,31.497 63.207,28.86 C67.715,26.691 70.149,21.697 69.479,16.793 C69.477,16.774 69.477,16.758 69.475,16.741 C69.469,16.707 69.461,16.675 69.454,16.643 C69.305,15.63 69.022,14.622 68.596,13.648 C67.065,10.146 64.054,7.841 60.693,7.163 C60.648,7.15 60.605,7.139 60.558,7.13 C60.538,7.127 60.518,7.127 60.498,7.124 C58.397,6.741 56.166,6.997 54.085,7.998 C51.816,9.087 50.073,10.897 48.985,13.049 C48.973,13.072 48.957,13.092 48.943,13.116 C48.913,13.173 48.889,13.232 48.867,13.292 C47.436,16.295 47.26,19.927 48.697,23.21 L48.697,23.21 Z M50.95,22.133 C50.061,20.1 49.971,17.896 50.536,15.905 L55.922,18.803 L51.475,23.148 C51.282,22.825 51.106,22.487 50.95,22.133 L50.95,22.133 Z M58.117,21.256 L60.654,27.058 C58.201,27.686 55.645,27.113 53.665,25.607 L58.117,21.256 L58.117,21.256 Z M63.572,25.655 L60.998,19.769 L67.106,18.81 C66.993,21.495 65.719,24.049 63.572,25.655 L63.572,25.655 Z M66.633,15.482 L60.616,16.428 L61.678,10.148 C63.674,10.95 65.385,12.538 66.346,14.732 C66.454,14.981 66.549,15.231 66.633,15.482 L66.633,15.482 Z M57.455,15.847 L52.014,12.919 C52.817,11.854 53.862,10.965 55.119,10.361 C56.223,9.832 57.376,9.574 58.519,9.558 L57.455,15.847 L57.455,15.847 Z" id="Fill-25" fill="#EDB970"></path>
                    <path d="M57.078,57.456 C59.593,63.207 66.103,65.742 71.589,63.106 C76.099,60.938 78.532,55.942 77.86,51.038 C77.858,51.021 77.86,51.004 77.858,50.987 C77.853,50.953 77.845,50.92 77.838,50.888 C77.686,49.875 77.406,48.869 76.978,47.893 C75.447,44.391 72.437,42.086 69.076,41.41 C69.032,41.397 68.985,41.385 68.939,41.377 C68.919,41.373 68.899,41.373 68.881,41.37 C66.777,40.988 64.549,41.243 62.467,42.243 C60.197,43.334 58.454,45.143 57.369,47.295 C57.355,47.317 57.339,47.338 57.327,47.361 C57.296,47.419 57.272,47.479 57.249,47.538 C55.817,50.541 55.643,54.173 57.078,57.456 L57.078,57.456 Z M59.333,56.378 C58.444,54.346 58.352,52.142 58.918,50.15 L64.302,53.048 L59.857,57.393 C59.664,57.071 59.487,56.733 59.333,56.378 L59.333,56.378 Z M66.501,55.502 L69.038,61.302 C66.585,61.932 64.027,61.359 62.046,59.852 L66.501,55.502 L66.501,55.502 Z M71.953,59.901 L69.379,54.014 L75.489,53.057 C75.376,55.74 74.1,58.293 71.953,59.901 L71.953,59.901 Z M75.016,49.729 L68.998,50.673 L70.06,44.394 C72.057,45.195 73.769,46.783 74.728,48.979 C74.837,49.227 74.932,49.477 75.016,49.729 L75.016,49.729 Z M65.837,50.092 L60.397,47.164 C61.199,46.1 62.246,45.21 63.501,44.606 C64.604,44.078 65.759,43.819 66.9,43.803 L65.837,50.092 L65.837,50.092 Z" id="Fill-26" fill="#EDB970"></path>
                    <path d="M4.28,45.751 C6.796,51.502 13.306,54.037 18.792,51.401 C23.302,49.232 25.734,44.237 25.063,39.333 C25.06,39.315 25.063,39.299 25.06,39.282 C25.056,39.248 25.048,39.215 25.041,39.183 C24.889,38.17 24.608,37.164 24.181,36.188 C22.649,32.685 19.64,30.381 16.278,29.705 C16.234,29.691 16.187,29.68 16.142,29.672 C16.122,29.668 16.102,29.668 16.084,29.665 C13.98,29.283 11.752,29.538 9.67,30.538 C7.399,31.629 5.656,33.438 4.571,35.59 C4.558,35.612 4.542,35.633 4.529,35.656 C4.499,35.714 4.475,35.773 4.451,35.833 C3.02,38.836 2.846,42.468 4.28,45.751 L4.28,45.751 Z M6.535,44.673 C5.646,42.641 5.555,40.437 6.12,38.445 L11.505,41.343 L7.06,45.687 C6.866,45.366 6.689,45.028 6.535,44.673 L6.535,44.673 Z M13.703,43.797 L16.24,49.597 C13.787,50.227 11.23,49.654 9.249,48.148 L13.703,43.797 L13.703,43.797 Z M19.155,48.196 L16.582,42.309 L22.691,41.352 C22.578,44.035 21.303,46.588 19.155,48.196 L19.155,48.196 Z M22.219,38.023 L16.2,38.968 L17.263,32.688 C19.26,33.49 20.972,35.078 21.931,37.273 C22.04,37.522 22.135,37.771 22.219,38.023 L22.219,38.023 Z M13.04,38.387 L7.6,35.459 C8.401,34.394 9.448,33.505 10.703,32.901 C11.807,32.373 12.962,32.114 14.102,32.098 L13.04,38.387 L13.04,38.387 Z" id="Fill-27" fill="#EDB970"></path>
                    <path d="M96.831,45.981 C99.347,51.732 105.857,54.268 111.343,51.632 C115.853,49.463 118.286,44.468 117.614,39.564 C117.612,39.546 117.614,39.529 117.612,39.513 C117.607,39.479 117.599,39.445 117.592,39.413 C117.44,38.4 117.16,37.394 116.732,36.418 C115.201,32.916 112.191,30.611 108.83,29.936 C108.786,29.922 108.739,29.91 108.693,29.902 C108.673,29.898 108.653,29.898 108.635,29.896 C106.531,29.514 104.303,29.769 102.221,30.769 C99.951,31.859 98.208,33.668 97.123,35.82 C97.109,35.843 97.093,35.863 97.081,35.887 C97.05,35.944 97.026,36.004 97.002,36.063 C95.571,39.066 95.397,42.698 96.831,45.981 L96.831,45.981 Z M99.086,44.903 C98.198,42.871 98.106,40.667 98.671,38.676 L104.056,41.573 L99.611,45.918 C99.417,45.597 99.241,45.259 99.086,44.903 L99.086,44.903 Z M106.254,44.027 L108.792,49.827 C106.338,50.457 103.781,49.885 101.8,48.378 L106.254,44.027 L106.254,44.027 Z M111.707,48.427 L109.133,42.539 L115.243,41.582 C115.129,44.266 113.854,46.818 111.707,48.427 L111.707,48.427 Z M114.77,38.254 L108.751,39.198 L109.814,32.919 C111.811,33.721 113.523,35.309 114.482,37.504 C114.591,37.752 114.686,38.002 114.77,38.254 L114.77,38.254 Z M105.591,38.617 L100.151,35.69 C100.953,34.625 101.999,33.735 103.254,33.132 C104.358,32.604 105.513,32.345 106.654,32.328 L105.591,38.617 L105.591,38.617 Z" id="Fill-28" fill="#EDB970"></path>
                    <path d="M33.031,22.941 C31.146,28.951 34.273,35.449 40.005,37.43 C44.718,39.055 49.741,37.127 52.432,33.053 C52.439,33.038 52.453,33.026 52.462,33.012 C52.48,32.984 52.495,32.955 52.512,32.926 C53.058,32.076 53.504,31.136 53.823,30.117 C54.973,26.458 54.26,22.621 52.236,19.731 C52.211,19.689 52.186,19.648 52.157,19.607 C52.145,19.591 52.13,19.577 52.118,19.56 C50.824,17.782 49.024,16.38 46.849,15.629 C44.478,14.811 42.026,14.896 39.834,15.698 C39.809,15.706 39.786,15.709 39.762,15.718 C39.701,15.739 39.644,15.764 39.589,15.79 C36.592,16.973 34.108,19.512 33.031,22.941 L33.031,22.941 Z M35.382,23.758 C36.048,21.635 37.413,19.953 39.117,18.898 L41.186,24.86 L35.108,24.875 C35.177,24.503 35.266,24.129 35.382,23.758 L35.382,23.758 Z M41.206,28.225 L39.302,34.288 C37.096,33 35.594,30.757 35.119,28.241 L41.206,28.225 L41.206,28.225 Z M42.352,35.339 L44.282,29.188 L49.382,32.841 C47.558,34.729 44.967,35.692 42.352,35.339 L42.352,35.339 Z M51.195,30.065 L46.171,26.466 L51.021,22.618 C51.966,24.632 52.191,27.016 51.471,29.31 C51.391,29.568 51.297,29.82 51.195,30.065 L51.195,30.065 Z M44.229,23.787 L42.139,17.763 C43.419,17.554 44.761,17.648 46.074,18.1 C47.227,18.498 48.24,19.133 49.087,19.934 L44.229,23.787 L44.229,23.787 Z" id="Fill-29" fill="#D1853B"></path>
                    <path d="M11.16,42.917 C9.274,48.927 12.402,55.425 18.134,57.405 C22.847,59.03 27.87,57.102 30.561,53.028 C30.568,53.014 30.582,53.002 30.591,52.987 C30.608,52.96 30.624,52.931 30.641,52.901 C31.186,52.052 31.633,51.111 31.952,50.093 C33.102,46.434 32.389,42.597 30.365,39.706 C30.34,39.664 30.315,39.624 30.286,39.583 C30.273,39.566 30.259,39.553 30.247,39.536 C28.953,37.758 27.153,36.356 24.977,35.605 C22.606,34.786 20.155,34.871 17.963,35.674 C17.938,35.682 17.915,35.685 17.891,35.693 C17.83,35.715 17.773,35.739 17.718,35.766 C14.721,36.948 12.237,39.487 11.16,42.917 L11.16,42.917 Z M13.511,43.733 C14.177,41.61 15.542,39.929 17.246,38.873 L19.315,44.836 L13.237,44.851 C13.306,44.479 13.395,44.105 13.511,43.733 L13.511,43.733 Z M19.335,48.2 L17.431,54.264 C15.225,52.976 13.723,50.732 13.248,48.217 L19.335,48.2 L19.335,48.2 Z M20.48,55.315 L22.411,49.163 L27.511,52.816 C25.686,54.704 23.096,55.668 20.48,55.315 L20.48,55.315 Z M29.324,50.041 L24.3,46.441 L29.15,42.594 C30.095,44.607 30.32,46.991 29.6,49.285 C29.519,49.544 29.426,49.796 29.324,50.041 L29.324,50.041 Z M22.357,43.763 L20.268,37.738 C21.548,37.529 22.89,37.623 24.203,38.075 C25.355,38.474 26.369,39.108 27.216,39.909 L22.357,43.763 L22.357,43.763 Z" id="Fill-30" fill="#D1853B"></path>
                    <path d="M67.574,22.941 C65.688,28.951 68.816,35.449 74.547,37.43 C79.26,39.055 84.284,37.127 86.975,33.053 C86.983,33.038 86.997,33.026 87.004,33.012 C87.022,32.984 87.038,32.955 87.055,32.926 C87.6,32.076 88.047,31.136 88.366,30.117 C89.516,26.458 88.803,22.621 86.78,19.731 C86.754,19.689 86.729,19.648 86.7,19.607 C86.688,19.591 86.672,19.577 86.661,19.56 C85.368,17.782 83.567,16.38 81.391,15.629 C79.02,14.811 76.569,14.896 74.376,15.698 C74.351,15.706 74.329,15.709 74.304,15.718 C74.244,15.739 74.186,15.764 74.131,15.79 C71.134,16.973 68.651,19.512 67.574,22.941 L67.574,22.941 Z M69.924,23.758 C70.59,21.635 71.956,19.953 73.66,18.898 L75.729,24.86 L69.651,24.875 C69.719,24.503 69.808,24.129 69.924,23.758 L69.924,23.758 Z M75.749,28.225 L73.844,34.288 C71.638,33 70.136,30.757 69.662,28.241 L75.749,28.225 L75.749,28.225 Z M76.894,35.339 L78.825,29.188 L83.924,32.841 C82.1,34.729 79.509,35.692 76.894,35.339 L76.894,35.339 Z M85.739,30.065 L80.713,26.466 L85.565,22.618 C86.508,24.632 86.735,27.016 86.014,29.31 C85.934,29.568 85.84,29.82 85.739,30.065 L85.739,30.065 Z M78.771,23.787 L76.681,17.763 C77.961,17.554 79.303,17.648 80.617,18.1 C81.769,18.498 82.783,19.133 83.629,19.934 L78.771,23.787 L78.771,23.787 Z" id="Fill-31" fill="#D1853B"></path>
                </g>
                <g id="i-principiante-bolsita" transform="translate(158.000000, 0.000000)" sketch:type="MSShapeGroup">
                    <g id="Imported-Layers" transform="translate(7.000000, 12.000000)">
                        <path d="M38.855,70.024 C38.855,63.697 33.947,58.551 27.912,58.551 C22.952,58.551 18.755,62.03 17.415,66.781 C17.41,66.797 17.402,66.812 17.397,66.829 C17.389,66.86 17.383,66.894 17.376,66.928 C17.111,67.913 16.968,68.952 16.968,70.024 C16.968,73.877 18.787,77.288 21.573,79.37 C21.609,79.401 21.644,79.432 21.685,79.461 C21.702,79.473 21.72,79.481 21.736,79.492 C23.494,80.758 25.622,81.5 27.912,81.5 C30.409,81.5 32.712,80.618 34.555,79.135 C34.576,79.121 34.6,79.109 34.619,79.094 C34.669,79.054 34.717,79.011 34.761,78.967 C37.255,76.861 38.855,73.637 38.855,70.024 L38.855,70.024 Z M36.38,70.019 C36.38,72.257 35.585,74.3 34.281,75.862 L30.538,70.876 L36.307,68.868 C36.352,69.245 36.38,69.629 36.38,70.019 L36.38,70.019 Z M29.517,67.685 L29.517,61.304 C31.995,61.804 34.092,63.441 35.294,65.676 L29.517,67.685 L29.517,67.685 Z M26.307,61.304 L26.307,67.779 L20.374,65.982 C21.545,63.592 23.717,61.827 26.307,61.304 L26.307,61.304 Z M19.479,69.212 L25.324,70.984 L21.864,76.229 C20.368,74.626 19.444,72.436 19.444,70.019 C19.444,69.747 19.456,69.481 19.479,69.212 L19.479,69.212 Z M27.968,72.892 L31.751,77.93 C30.598,78.548 29.293,78.898 27.912,78.898 C26.699,78.898 25.547,78.629 24.502,78.146 L27.968,72.892 L27.968,72.892 Z" id="Fill-1" fill="#E6A356"></path>
                        <path d="M23.022,51.684 C23.022,45.356 18.113,40.208 12.078,40.208 C7.118,40.208 2.921,43.687 1.581,48.438 C1.576,48.455 1.568,48.47 1.563,48.486 C1.555,48.519 1.549,48.552 1.542,48.584 C1.277,49.57 1.134,50.609 1.134,51.684 C1.134,55.534 2.953,58.946 5.739,61.028 C5.775,61.06 5.81,61.091 5.852,61.118 C5.868,61.13 5.886,61.139 5.902,61.149 C7.66,62.416 9.788,63.158 12.078,63.158 C14.575,63.158 16.878,62.274 18.721,60.793 C18.742,60.777 18.766,60.767 18.785,60.751 C18.835,60.712 18.883,60.669 18.927,60.625 C21.421,58.52 23.022,55.294 23.022,51.684 L23.022,51.684 Z M20.546,51.679 C20.546,53.914 19.751,55.958 18.447,57.521 L14.704,52.533 L20.473,50.525 C20.519,50.903 20.546,51.288 20.546,51.679 L20.546,51.679 Z M13.683,49.345 L13.683,42.96 C16.161,43.463 18.258,45.1 19.46,47.334 L13.683,49.345 L13.683,49.345 Z M10.473,42.96 L10.473,49.438 L4.54,47.639 C5.711,45.249 7.883,43.484 10.473,42.96 L10.473,42.96 Z M3.646,50.871 L9.49,52.643 L6.03,57.887 C4.534,56.283 3.61,54.093 3.61,51.679 C3.61,51.406 3.622,51.137 3.646,50.871 L3.646,50.871 Z M12.134,54.551 L15.917,59.589 C14.764,60.205 13.459,60.558 12.078,60.558 C10.865,60.558 9.713,60.286 8.668,59.804 L12.134,54.551 L12.134,54.551 Z" id="Fill-2" fill="#E6A356"></path>
                        <path d="M47.652,65.243 C45.137,59.492 38.628,56.957 33.142,59.594 C28.632,61.763 26.198,66.757 26.871,71.661 C26.873,71.679 26.871,71.695 26.873,71.713 C26.879,71.747 26.886,71.779 26.893,71.812 C27.045,72.823 27.325,73.83 27.753,74.807 C29.283,78.309 32.296,80.613 35.654,81.289 C35.699,81.304 35.745,81.315 35.792,81.323 C35.811,81.327 35.831,81.327 35.852,81.33 C37.953,81.712 40.181,81.456 42.263,80.456 C44.533,79.365 46.276,77.557 47.362,75.403 C47.376,75.382 47.392,75.361 47.403,75.338 C47.434,75.281 47.459,75.221 47.482,75.162 C48.913,72.158 49.087,68.526 47.652,65.243 L47.652,65.243 Z M45.399,66.321 C46.287,68.354 46.379,70.559 45.813,72.549 L40.428,69.651 L44.874,65.307 C45.067,65.627 45.244,65.966 45.399,66.321 L45.399,66.321 Z M38.231,67.198 L35.695,61.396 C38.147,60.769 40.703,61.341 42.685,62.847 L38.231,67.198 L38.231,67.198 Z M32.777,62.799 L35.352,68.686 L29.244,69.644 C29.356,66.959 30.63,64.406 32.777,62.799 L32.777,62.799 Z M29.714,72.971 L35.733,72.026 L34.672,78.307 C32.674,77.504 30.962,75.916 30.003,73.722 C29.893,73.474 29.799,73.223 29.714,72.971 L29.714,72.971 Z M38.893,72.606 L44.334,75.534 C43.532,76.601 42.485,77.489 41.229,78.093 C40.127,78.622 38.972,78.879 37.83,78.896 L38.893,72.606 L38.893,72.606 Z" id="Fill-3" fill="#EDB970"></path>
                        <path d="M27.362,73.614 C29.251,67.604 26.123,61.106 20.389,59.127 C15.678,57.501 10.654,59.43 7.965,63.504 C7.954,63.518 7.944,63.53 7.935,63.543 C7.915,63.571 7.9,63.601 7.883,63.629 C7.338,64.479 6.891,65.419 6.571,66.438 C5.423,70.096 6.134,73.935 8.158,76.824 C8.184,76.867 8.21,76.907 8.239,76.947 C8.25,76.964 8.266,76.977 8.278,76.994 C9.571,78.773 11.37,80.176 13.546,80.926 C15.918,81.745 18.369,81.66 20.562,80.857 C20.586,80.85 20.611,80.848 20.634,80.838 C20.693,80.816 20.75,80.792 20.806,80.766 C23.805,79.582 26.287,77.045 27.362,73.614 L27.362,73.614 Z M25.012,72.799 C24.347,74.921 22.982,76.602 21.276,77.658 L19.208,71.694 L25.285,71.679 C25.218,72.052 25.13,72.427 25.012,72.799 L25.012,72.799 Z M19.189,68.331 L21.092,62.267 C23.298,63.556 24.801,65.798 25.275,68.314 L19.189,68.331 L19.189,68.331 Z M18.046,61.216 L16.113,67.367 L11.014,63.715 C12.837,61.827 15.428,60.863 18.046,61.216 L18.046,61.216 Z M9.202,66.49 L14.226,70.09 L9.373,73.937 C8.431,71.923 8.205,69.539 8.925,67.246 C9.007,66.986 9.1,66.735 9.202,66.49 L9.202,66.49 Z M16.166,72.768 L18.257,78.793 C16.978,79.003 15.633,78.907 14.319,78.455 C13.17,78.058 12.155,77.422 11.308,76.621 L16.166,72.768 L16.166,72.768 Z" id="Fill-4" fill="#D1853B"></path>
                        <path d="M28.132,62.14 C30.018,56.128 26.89,49.629 21.156,47.651 C16.445,46.026 11.422,47.953 8.732,52.027 C8.723,52.041 8.709,52.053 8.701,52.068 C8.682,52.096 8.667,52.125 8.65,52.154 C8.105,53.004 7.659,53.943 7.338,54.963 C6.19,58.621 6.901,62.459 8.926,65.35 C8.95,65.391 8.978,65.433 9.006,65.472 C9.018,65.488 9.032,65.503 9.044,65.519 C10.338,67.296 12.138,68.699 14.313,69.45 C16.685,70.269 19.136,70.186 21.329,69.382 C21.353,69.374 21.377,69.37 21.401,69.363 C21.462,69.342 21.518,69.316 21.574,69.288 C24.571,68.106 27.055,65.568 28.132,62.14 L28.132,62.14 Z M25.781,61.321 C25.113,63.446 23.75,65.126 22.044,66.184 L19.975,60.219 L26.055,60.203 C25.986,60.577 25.897,60.951 25.781,61.321 L25.781,61.321 Z M19.957,56.856 L21.861,50.792 C24.065,52.081 25.569,54.322 26.044,56.839 L19.957,56.856 L19.957,56.856 Z M18.81,49.74 L16.88,55.893 L11.78,52.238 C13.604,50.352 16.194,49.389 18.81,49.74 L18.81,49.74 Z M9.968,55.015 L14.992,58.613 L10.142,62.461 C9.196,60.448 8.972,58.063 9.691,55.769 C9.772,55.512 9.866,55.261 9.968,55.015 L9.968,55.015 Z M16.934,61.293 L19.022,67.317 C17.744,67.526 16.4,67.432 15.088,66.979 C13.936,66.583 12.923,65.947 12.075,65.147 L16.934,61.293 L16.934,61.293 Z" id="Fill-5" fill="#D1853B"></path>
                        <path d="M39.815,55.271 C41.7,49.26 38.572,42.761 32.839,40.783 C28.128,39.158 23.105,41.085 20.415,45.159 C20.405,45.173 20.392,45.185 20.384,45.2 C20.364,45.228 20.35,45.257 20.333,45.286 C19.787,46.136 19.342,47.075 19.021,48.095 C17.873,51.753 18.584,55.591 20.608,58.481 C20.633,58.523 20.66,58.564 20.689,58.604 C20.7,58.62 20.715,58.635 20.727,58.65 C22.021,60.428 23.82,61.831 25.995,62.582 C28.367,63.401 30.818,63.317 33.012,62.514 C33.035,62.506 33.06,62.502 33.084,62.495 C33.144,62.474 33.2,62.448 33.257,62.42 C36.254,61.238 38.737,58.7 39.815,55.271 L39.815,55.271 Z M37.464,54.453 C36.796,56.578 35.433,58.258 33.727,59.315 L31.657,53.351 L37.737,53.335 C37.669,53.709 37.58,54.083 37.464,54.453 L37.464,54.453 Z M31.64,49.987 L33.544,43.924 C35.748,45.213 37.252,47.454 37.727,49.971 L31.64,49.987 L31.64,49.987 Z M30.493,42.872 L28.563,49.024 L23.463,45.37 C25.287,43.483 27.877,42.521 30.493,42.872 L30.493,42.872 Z M21.65,48.146 L26.675,51.745 L21.824,55.593 C20.879,53.58 20.654,51.195 21.374,48.901 C21.455,48.644 21.549,48.393 21.65,48.146 L21.65,48.146 Z M28.616,54.425 L30.705,60.449 C29.427,60.658 28.083,60.563 26.771,60.111 C25.619,59.715 24.605,59.079 23.758,58.278 L28.616,54.425 L28.616,54.425 Z" id="Fill-6" fill="#D1853B"></path>
                        <path d="M21.758,64.721 C21.758,58.393 16.848,53.246 10.813,53.246 C5.853,53.246 1.655,56.726 0.317,61.476 C0.312,61.492 0.305,61.507 0.299,61.524 C0.291,61.556 0.285,61.59 0.276,61.623 C0.014,62.608 -0.131,63.647 -0.131,64.721 C-0.131,68.572 1.69,71.984 4.474,74.066 C4.51,74.098 4.547,74.129 4.586,74.156 C4.602,74.168 4.62,74.178 4.637,74.188 C6.397,75.453 8.524,76.195 10.813,76.195 C13.31,76.195 15.614,75.313 17.457,73.831 C17.478,73.816 17.501,73.806 17.519,73.789 C17.569,73.749 17.618,73.706 17.661,73.663 C20.157,71.559 21.758,68.332 21.758,64.721 L21.758,64.721 Z M19.282,64.716 C19.282,66.952 18.487,68.996 17.182,70.558 L13.438,65.571 L19.209,63.565 C19.255,63.942 19.282,64.326 19.282,64.716 L19.282,64.716 Z M12.418,62.382 L12.418,55.999 C14.897,56.501 16.994,58.138 18.194,60.371 L12.418,62.382 L12.418,62.382 Z M9.209,55.999 L9.209,62.475 L3.274,60.678 C4.445,58.288 6.618,56.522 9.209,55.999 L9.209,55.999 Z M2.381,63.908 L8.228,65.681 L4.768,70.924 C3.269,69.322 2.345,67.131 2.345,64.716 C2.345,64.444 2.358,64.176 2.381,63.908 L2.381,63.908 Z M10.869,67.588 L14.652,72.626 C13.499,73.244 12.195,73.595 10.813,73.595 C9.602,73.595 8.447,73.324 7.403,72.841 L10.869,67.588 L10.869,67.588 Z" id="Fill-7" fill="#E6A356"></path>
                        <path d="M22.047,70.024 C22.047,63.696 17.137,58.55 11.102,58.55 C6.142,58.55 1.944,62.029 0.606,66.779 C0.601,66.796 0.594,66.811 0.588,66.828 C0.58,66.859 0.574,66.894 0.565,66.927 C0.303,67.912 0.158,68.951 0.158,70.024 C0.158,73.876 1.978,77.288 4.763,79.37 C4.799,79.401 4.836,79.433 4.875,79.46 C4.892,79.472 4.909,79.481 4.926,79.492 C6.685,80.757 8.814,81.499 11.102,81.499 C13.6,81.499 15.903,80.617 17.746,79.135 C17.768,79.12 17.79,79.109 17.809,79.093 C17.858,79.053 17.907,79.01 17.95,78.967 C20.446,76.862 22.047,73.636 22.047,70.024 L22.047,70.024 Z M19.571,70.019 C19.571,72.256 18.776,74.3 17.471,75.861 L13.728,70.875 L19.498,68.868 C19.544,69.246 19.571,69.63 19.571,70.019 L19.571,70.019 Z M12.707,67.685 L12.707,61.303 C15.186,61.805 17.283,63.441 18.483,65.675 L12.707,67.685 L12.707,67.685 Z M9.498,61.303 L9.498,67.778 L3.564,65.981 C4.734,63.592 6.907,61.826 9.498,61.303 L9.498,61.303 Z M2.67,69.212 L8.517,70.984 L5.057,76.227 C3.559,74.626 2.634,72.435 2.634,70.019 C2.634,69.748 2.647,69.48 2.67,69.212 L2.67,69.212 Z M11.158,72.892 L14.941,77.93 C13.788,78.548 12.484,78.898 11.102,78.898 C9.891,78.898 8.736,78.628 7.692,78.144 L11.158,72.892 L11.158,72.892 Z" id="Fill-8" fill="#E6A356"></path>
                        <path d="M23.022,15.802 C23.022,9.474 18.112,4.327 12.077,4.327 C7.117,4.327 2.92,7.807 1.582,12.557 C1.576,12.573 1.569,12.588 1.564,12.606 C1.556,12.637 1.55,12.671 1.541,12.704 C1.278,13.69 1.134,14.729 1.134,15.802 C1.134,19.653 2.954,23.065 5.738,25.148 C5.774,25.179 5.811,25.21 5.851,25.237 C5.867,25.249 5.885,25.259 5.901,25.269 C7.661,26.534 9.789,27.276 12.077,27.276 C14.575,27.276 16.879,26.394 18.722,24.912 C18.743,24.898 18.766,24.887 18.784,24.87 C18.834,24.83 18.883,24.787 18.926,24.744 C21.422,22.64 23.022,19.413 23.022,15.802 L23.022,15.802 Z M20.547,15.797 C20.547,18.033 19.752,20.077 18.446,21.639 L14.703,16.652 L20.474,14.645 C20.519,15.023 20.547,15.407 20.547,15.797 L20.547,15.797 Z M13.683,13.463 L13.683,7.08 C16.162,7.582 18.259,9.219 19.459,11.452 L13.683,13.463 L13.683,13.463 Z M10.474,7.08 L10.474,13.556 L4.539,11.759 C5.71,9.369 7.883,7.604 10.474,7.08 L10.474,7.08 Z M3.646,14.989 L9.492,16.762 L6.032,22.005 C4.534,20.403 3.609,18.212 3.609,15.797 C3.609,15.525 3.623,15.257 3.646,14.989 L3.646,14.989 Z M12.134,18.669 L15.917,23.707 C14.764,24.325 13.46,24.676 12.077,24.676 C10.866,24.676 9.712,24.405 8.668,23.922 L12.134,18.669 L12.134,18.669 Z" id="Fill-9" fill="#E6A356"></path>
                        <path d="M23.758,23.197 C23.758,16.869 18.848,11.723 12.813,11.723 C7.853,11.723 3.655,15.202 2.317,19.952 C2.311,19.969 2.305,19.983 2.299,20.001 C2.291,20.032 2.285,20.066 2.276,20.1 C2.014,21.085 1.869,22.124 1.869,23.197 C1.869,27.049 3.69,30.461 6.474,32.543 C6.51,32.574 6.547,32.606 6.586,32.633 C6.603,32.644 6.62,32.654 6.637,32.665 C8.397,33.93 10.524,34.672 12.813,34.672 C15.31,34.672 17.614,33.79 19.457,32.308 C19.478,32.293 19.501,32.282 19.52,32.266 C19.569,32.226 19.618,32.183 19.661,32.14 C22.157,30.035 23.758,26.809 23.758,23.197 L23.758,23.197 Z M21.282,23.192 C21.282,25.429 20.487,27.473 19.182,29.034 L15.439,24.048 L21.209,22.041 C21.255,22.419 21.282,22.803 21.282,23.192 L21.282,23.192 Z M14.418,20.858 L14.418,14.476 C16.897,14.977 18.994,16.614 20.194,18.848 L14.418,20.858 L14.418,20.858 Z M11.209,14.476 L11.209,20.951 L5.274,19.154 C6.445,16.765 8.618,14.999 11.209,14.476 L11.209,14.476 Z M4.381,22.385 L10.227,24.157 L6.768,29.4 C5.27,27.799 4.345,25.607 4.345,23.192 C4.345,22.921 4.358,22.652 4.381,22.385 L4.381,22.385 Z M12.869,26.065 L16.652,31.102 C15.499,31.721 14.195,32.071 12.813,32.071 C11.602,32.071 10.447,31.801 9.403,31.317 L12.869,26.065 L12.869,26.065 Z" id="Fill-10" fill="#E6A356"></path>
                        <path d="M62.229,65.244 C59.716,59.493 53.207,56.957 47.72,59.594 C43.211,61.763 40.777,66.757 41.448,71.661 C41.45,71.68 41.45,71.696 41.452,71.713 C41.458,71.747 41.465,71.779 41.473,71.812 C41.622,72.824 41.904,73.832 42.331,74.807 C43.862,78.309 46.873,80.613 50.233,81.291 C50.278,81.304 50.322,81.315 50.369,81.324 C50.389,81.327 50.409,81.327 50.429,81.33 C52.53,81.713 54.761,81.457 56.842,80.456 C59.11,79.367 60.853,77.558 61.941,75.405 C61.954,75.382 61.97,75.362 61.983,75.338 C62.014,75.281 62.038,75.222 62.06,75.162 C63.49,72.159 63.667,68.527 62.229,65.244 L62.229,65.244 Z M59.977,66.321 C60.866,68.355 60.956,70.559 60.391,72.549 L55.005,69.651 L59.452,65.307 C59.645,65.629 59.821,65.967 59.977,66.321 L59.977,66.321 Z M52.81,67.198 L50.272,61.397 C52.726,60.769 55.282,61.341 57.262,62.847 L52.81,67.198 L52.81,67.198 Z M47.354,62.799 L49.929,68.686 L43.821,69.644 C43.934,66.959 45.208,64.405 47.354,62.799 L47.354,62.799 Z M44.293,72.972 L50.31,72.026 L49.249,78.307 C47.253,77.504 45.541,75.916 44.58,73.722 C44.473,73.474 44.378,73.223 44.293,72.972 L44.293,72.972 Z M53.472,72.607 L58.913,75.535 C58.109,76.601 57.065,77.489 55.808,78.093 C54.704,78.622 53.551,78.88 52.408,78.896 L53.472,72.607 L53.472,72.607 Z" id="Fill-11" fill="#EDB970"></path>
                        <path d="M46.082,56.742 C43.566,50.991 37.057,48.456 31.57,51.092 C27.06,53.261 24.628,58.256 25.3,63.16 C25.302,63.178 25.3,63.194 25.302,63.211 C25.307,63.245 25.315,63.278 25.321,63.31 C25.474,64.323 25.754,65.329 26.182,66.306 C27.713,69.808 30.723,72.112 34.084,72.788 C34.128,72.802 34.175,72.813 34.221,72.821 C34.24,72.825 34.261,72.825 34.278,72.828 C36.383,73.21 38.61,72.955 40.692,71.955 C42.963,70.864 44.706,69.056 45.791,66.903 C45.805,66.881 45.82,66.86 45.833,66.837 C45.863,66.779 45.888,66.72 45.911,66.66 C47.343,63.657 47.517,60.025 46.082,56.742 L46.082,56.742 Z M43.827,57.82 C44.716,59.852 44.808,62.057 44.242,64.048 L38.857,61.15 L43.303,56.806 C43.496,57.127 43.673,57.465 43.827,57.82 L43.827,57.82 Z M36.659,58.696 L34.122,52.896 C36.575,52.267 39.133,52.839 41.113,54.346 L36.659,58.696 L36.659,58.696 Z M31.207,54.297 L33.78,60.185 L27.671,61.142 C27.784,58.458 29.06,55.905 31.207,54.297 L31.207,54.297 Z M28.144,64.47 L34.162,63.525 L33.1,69.805 C31.102,69.003 29.391,67.415 28.432,65.22 C28.322,64.972 28.228,64.722 28.144,64.47 L28.144,64.47 Z M37.322,64.106 L42.763,67.034 C41.961,68.099 40.914,68.988 39.659,69.592 C38.556,70.12 37.4,70.379 36.26,70.396 L37.322,64.106 L37.322,64.106 Z" id="Fill-12" fill="#EDB970"></path>
                        <path d="M62.678,69.535 C64.564,63.525 61.435,57.027 55.704,55.047 C50.991,53.422 45.968,55.35 43.277,59.424 C43.269,59.438 43.256,59.45 43.247,59.465 C43.229,59.492 43.214,59.522 43.197,59.551 C42.651,60.4 42.205,61.341 41.886,62.359 C40.736,66.019 41.449,69.856 43.473,72.746 C43.498,72.788 43.522,72.828 43.552,72.869 C43.565,72.886 43.579,72.899 43.591,72.916 C44.885,74.694 46.685,76.097 48.86,76.848 C51.231,77.666 53.683,77.581 55.875,76.778 C55.9,76.771 55.923,76.768 55.947,76.759 C56.008,76.737 56.065,76.713 56.12,76.687 C59.117,75.504 61.601,72.965 62.678,69.535 L62.678,69.535 Z M60.327,68.719 C59.661,70.842 58.296,72.523 56.592,73.579 L54.522,67.616 L60.601,67.602 C60.532,67.974 60.443,68.348 60.327,68.719 L60.327,68.719 Z M54.503,64.252 L56.407,58.188 C58.613,59.477 60.115,61.72 60.59,64.235 L54.503,64.252 L54.503,64.252 Z M53.357,57.138 L51.427,63.289 L46.327,59.636 C48.151,57.748 50.742,56.784 53.357,57.138 L53.357,57.138 Z M44.514,62.411 L49.538,66.011 L44.688,69.858 C43.743,67.845 43.518,65.461 44.238,63.167 C44.318,62.908 44.412,62.656 44.514,62.411 L44.514,62.411 Z M51.48,68.689 L53.57,74.714 C52.29,74.923 50.948,74.829 49.635,74.377 C48.482,73.979 47.469,73.344 46.622,72.543 L51.48,68.689 L51.48,68.689 Z" id="Fill-13" fill="#D1853B"></path>
                        <path d="M24.528,34.674 C24.528,41.001 29.436,46.148 35.472,46.148 C40.432,46.148 44.629,42.668 45.969,37.917 C45.974,37.901 45.981,37.887 45.987,37.869 C45.995,37.838 46.001,37.805 46.008,37.771 C46.272,36.785 46.416,35.746 46.416,34.674 C46.416,30.821 44.597,27.41 41.81,25.328 C41.774,25.297 41.739,25.267 41.698,25.237 C41.682,25.226 41.664,25.217 41.647,25.206 C39.89,23.94 37.762,23.198 35.472,23.198 C32.975,23.198 30.672,24.08 28.829,25.563 C28.808,25.577 28.784,25.589 28.765,25.605 C28.715,25.644 28.667,25.687 28.623,25.731 C26.129,27.837 24.528,31.062 24.528,34.674 L24.528,34.674 Z M27.004,34.679 C27.004,32.441 27.799,30.398 29.103,28.836 L32.846,33.822 L27.077,35.83 C27.031,35.453 27.004,35.069 27.004,34.679 L27.004,34.679 Z M33.867,37.013 L33.867,43.394 C31.389,42.894 29.292,41.257 28.09,39.023 L33.867,37.013 L33.867,37.013 Z M37.077,43.394 L37.077,36.919 L43.01,38.716 C41.839,41.106 39.667,42.871 37.077,43.394 L37.077,43.394 Z M43.904,35.486 L38.06,33.714 L41.519,28.47 C43.016,30.072 43.94,32.263 43.94,34.679 C43.94,34.951 43.928,35.218 43.904,35.486 L43.904,35.486 Z M35.416,31.807 L31.633,26.769 C32.786,26.15 34.091,25.8 35.472,25.8 C36.685,25.8 37.837,26.069 38.882,26.553 L35.416,31.807 L35.416,31.807 Z" id="Fill-14" fill="#E6A356"></path>
                        <path d="M40.362,53.015 C40.362,59.342 45.271,64.49 51.306,64.49 C56.266,64.49 60.463,61.012 61.803,56.26 C61.808,56.243 61.815,56.229 61.821,56.212 C61.829,56.179 61.835,56.147 61.842,56.114 C62.106,55.128 62.25,54.089 62.25,53.015 C62.25,49.164 60.431,45.752 57.644,43.67 C57.608,43.638 57.573,43.607 57.532,43.58 C57.516,43.568 57.498,43.56 57.481,43.549 C55.724,42.282 53.596,41.54 51.306,41.54 C48.809,41.54 46.506,42.424 44.663,43.905 C44.642,43.921 44.618,43.932 44.599,43.947 C44.549,43.986 44.501,44.029 44.457,44.073 C41.963,46.178 40.362,49.404 40.362,53.015 L40.362,53.015 Z M42.838,53.019 C42.838,50.784 43.633,48.74 44.936,47.178 L48.68,52.165 L42.911,54.173 C42.865,53.795 42.838,53.41 42.838,53.019 L42.838,53.019 Z M49.701,55.353 L49.701,61.738 C47.223,61.235 45.126,59.599 43.924,57.364 L49.701,55.353 L49.701,55.353 Z M52.911,61.738 L52.911,55.261 L58.844,57.06 C57.673,59.449 55.501,61.214 52.911,61.738 L52.911,61.738 Z M59.738,53.827 L53.894,52.056 L57.353,46.812 C58.85,48.415 59.773,50.606 59.773,53.019 C59.773,53.292 59.762,53.562 59.738,53.827 L59.738,53.827 Z M51.25,50.147 L47.467,45.109 C48.62,44.493 49.925,44.141 51.306,44.141 C52.519,44.141 53.671,44.412 54.716,44.894 L51.25,50.147 L51.25,50.147 Z" id="Fill-15" fill="#E6A356"></path>
                        <path d="M15.731,39.455 C18.247,45.206 24.756,47.741 30.242,45.105 C34.752,42.935 37.185,37.941 36.513,33.037 C36.511,33.019 36.513,33.003 36.511,32.985 C36.505,32.951 36.498,32.919 36.491,32.887 C36.339,31.875 36.059,30.868 35.631,29.892 C34.101,26.39 31.088,24.085 27.729,23.409 C27.685,23.394 27.639,23.383 27.592,23.375 C27.572,23.371 27.553,23.371 27.532,23.368 C25.431,22.986 23.203,23.242 21.121,24.242 C18.851,25.333 17.107,27.142 16.022,29.295 C16.008,29.316 15.992,29.337 15.98,29.36 C15.95,29.417 15.925,29.478 15.901,29.536 C14.471,32.54 14.297,36.172 15.731,39.455 L15.731,39.455 Z M17.984,38.377 C17.097,36.345 17.005,34.14 17.571,32.149 L22.956,35.047 L18.51,39.392 C18.316,39.071 18.14,38.732 17.984,38.377 L17.984,38.377 Z M25.153,37.5 L27.688,43.303 C25.237,43.93 22.681,43.357 20.699,41.852 L25.153,37.5 L25.153,37.5 Z M30.606,41.899 L28.032,36.013 L34.14,35.055 C34.027,37.739 32.754,40.292 30.606,41.899 L30.606,41.899 Z M33.67,31.728 L27.65,32.672 L28.712,26.392 C30.71,27.194 32.422,28.782 33.381,30.977 C33.491,31.225 33.585,31.476 33.67,31.728 L33.67,31.728 Z M24.491,32.092 L19.05,29.164 C19.852,28.098 20.898,27.209 22.154,26.606 C23.257,26.076 24.412,25.819 25.554,25.803 L24.491,32.092 L24.491,32.092 Z" id="Fill-16" fill="#EDB970"></path>
                        <path d="M14.579,22.755 C17.095,28.506 23.603,31.041 29.09,28.404 C33.6,26.235 36.033,21.241 35.36,16.337 C35.358,16.319 35.36,16.303 35.358,16.285 C35.353,16.251 35.346,16.219 35.339,16.187 C35.186,15.175 34.906,14.168 34.478,13.191 C32.948,9.69 29.935,7.385 26.577,6.709 C26.532,6.694 26.486,6.683 26.44,6.675 C26.42,6.671 26.4,6.671 26.38,6.668 C24.278,6.286 22.051,6.542 19.969,7.542 C17.698,8.633 15.955,10.441 14.869,12.595 C14.855,12.616 14.84,12.637 14.828,12.66 C14.798,12.717 14.772,12.777 14.749,12.836 C13.318,15.84 13.145,19.472 14.579,22.755 L14.579,22.755 Z M16.832,21.677 C15.944,19.644 15.853,17.44 16.419,15.449 L21.804,18.347 L17.357,22.691 C17.164,22.371 16.987,22.032 16.832,21.677 L16.832,21.677 Z M24.001,20.8 L26.536,26.602 C24.085,27.229 21.528,26.657 19.547,25.151 L24.001,20.8 L24.001,20.8 Z M29.454,25.199 L26.88,19.312 L32.987,18.354 C32.875,21.039 31.602,23.592 29.454,25.199 L29.454,25.199 Z M32.518,15.027 L26.498,15.972 L27.56,9.691 C29.558,10.494 31.269,12.082 32.228,14.276 C32.339,14.524 32.433,14.775 32.518,15.027 L32.518,15.027 Z M23.339,15.392 L17.897,12.464 C18.699,11.398 19.746,10.509 21.002,9.905 C22.104,9.376 23.26,9.119 24.401,9.102 L23.339,15.392 L23.339,15.392 Z" id="Fill-17" fill="#EDB970"></path>
                        <path d="M41.356,23.782 C43.872,29.533 50.381,32.068 55.867,29.432 C60.377,27.263 62.81,22.269 62.138,17.364 C62.136,17.347 62.138,17.33 62.136,17.313 C62.13,17.278 62.123,17.246 62.116,17.214 C61.964,16.202 61.684,15.195 61.256,14.219 C59.726,10.717 56.713,8.412 53.354,7.736 C53.31,7.722 53.264,7.71 53.217,7.702 C53.197,7.698 53.178,7.698 53.157,7.695 C51.056,7.313 48.828,7.569 46.746,8.569 C44.476,9.66 42.732,11.469 41.647,13.622 C41.633,13.644 41.617,13.664 41.606,13.687 C41.575,13.744 41.55,13.805 41.526,13.863 C40.096,16.867 39.922,20.499 41.356,23.782 L41.356,23.782 Z M43.609,22.704 C42.722,20.672 42.63,18.467 43.196,16.477 L48.581,19.374 L44.135,23.719 C43.941,23.398 43.765,23.06 43.609,22.704 L43.609,22.704 Z M50.778,21.827 L53.314,27.63 C50.862,28.257 48.306,27.685 46.324,26.179 L50.778,21.827 L50.778,21.827 Z M56.231,26.227 L53.657,20.34 L59.765,19.382 C59.652,22.066 58.379,24.619 56.231,26.227 L56.231,26.227 Z M59.295,16.055 L53.275,16.999 L54.337,10.719 C56.335,11.521 58.047,13.109 59.006,15.304 C59.116,15.552 59.21,15.803 59.295,16.055 L59.295,16.055 Z M50.116,16.419 L44.675,13.491 C45.477,12.425 46.523,11.536 47.779,10.933 C48.882,10.403 50.037,10.146 51.179,10.13 L50.116,16.419 L50.116,16.419 Z" id="Fill-18" fill="#EDB970"></path>
                        <path d="M36.022,31.084 C34.133,37.095 37.261,43.593 42.995,45.571 C47.706,47.197 52.73,45.269 55.419,41.194 C55.43,41.181 55.44,41.168 55.449,41.155 C55.469,41.127 55.483,41.098 55.501,41.069 C56.046,40.219 56.493,39.279 56.812,38.26 C57.961,34.602 57.25,30.764 55.226,27.874 C55.2,27.831 55.174,27.791 55.145,27.751 C55.134,27.734 55.118,27.721 55.106,27.704 C53.812,25.926 52.014,24.523 49.838,23.773 C47.466,22.953 45.015,23.038 42.822,23.841 C42.798,23.849 42.772,23.851 42.75,23.86 C42.69,23.882 42.634,23.906 42.578,23.933 C39.579,25.116 37.097,27.653 36.022,31.084 L36.022,31.084 Z M38.372,31.899 C39.037,29.777 40.401,28.097 42.107,27.04 L44.176,33.004 L38.099,33.019 C38.166,32.646 38.254,32.271 38.372,31.899 L38.372,31.899 Z M44.195,36.367 L42.292,42.432 C40.086,41.143 38.583,38.9 38.108,36.384 L44.195,36.367 L44.195,36.367 Z M45.338,43.482 L47.271,37.331 L52.37,40.983 C50.547,42.871 47.956,43.835 45.338,43.482 L45.338,43.482 Z M54.182,38.208 L49.158,34.608 L54.011,30.762 C54.953,32.775 55.179,35.159 54.459,37.452 C54.377,37.712 54.284,37.963 54.182,38.208 L54.182,38.208 Z M47.218,31.931 L45.127,25.905 C46.406,25.695 47.751,25.791 49.065,26.243 C50.214,26.641 51.228,27.276 52.076,28.077 L47.218,31.931 L47.218,31.931 Z" id="Fill-19" fill="#D1853B"></path>
                        <path d="M35.252,42.559 C33.366,48.57 36.494,55.069 42.228,57.047 C46.939,58.672 51.962,56.745 54.651,52.671 C54.661,52.657 54.675,52.646 54.683,52.63 C54.702,52.602 54.717,52.573 54.733,52.544 C55.279,51.694 55.725,50.755 56.046,49.735 C57.193,46.077 56.482,42.239 54.458,39.349 C54.434,39.308 54.406,39.266 54.378,39.227 C54.366,39.21 54.352,39.195 54.34,39.18 C53.046,37.402 51.246,35.999 49.071,35.248 C46.699,34.429 44.248,34.513 42.055,35.316 C42.031,35.324 42.007,35.328 41.982,35.335 C41.922,35.356 41.866,35.382 41.81,35.41 C38.812,36.592 36.329,39.13 35.252,42.559 L35.252,42.559 Z M37.603,43.377 C38.271,41.252 39.634,39.572 41.34,38.515 L43.409,44.479 L37.329,44.495 C37.397,44.121 37.486,43.747 37.603,43.377 L37.603,43.377 Z M43.427,47.843 L41.522,53.906 C39.318,52.617 37.815,50.376 37.34,47.859 L43.427,47.843 L43.427,47.843 Z M44.573,54.958 L46.504,48.806 L51.603,52.46 C49.779,54.347 47.19,55.31 44.573,54.958 L44.573,54.958 Z M53.416,49.684 L48.392,46.085 L53.242,42.237 C54.187,44.25 54.412,46.635 53.692,48.929 C53.611,49.187 53.518,49.438 53.416,49.684 L53.416,49.684 Z M46.45,43.405 L44.361,37.381 C45.64,37.172 46.983,37.267 48.296,37.719 C49.447,38.115 50.461,38.751 51.309,39.552 L46.45,43.405 L46.45,43.405 Z" id="Fill-20" fill="#D1853B"></path>
                        <path d="M4.341,9.464 C2.455,15.476 5.583,21.975 11.316,23.952 C16.027,25.577 21.051,23.65 23.74,19.576 C23.75,19.562 23.764,19.551 23.772,19.535 C23.791,19.508 23.806,19.479 23.822,19.449 C24.368,18.6 24.814,17.66 25.135,16.641 C26.282,12.982 25.571,9.144 23.547,6.254 C23.522,6.213 23.495,6.171 23.467,6.132 C23.455,6.115 23.44,6.101 23.429,6.085 C22.135,4.308 20.335,2.904 18.16,2.153 C15.788,1.334 13.337,1.418 11.144,2.222 C11.12,2.229 11.096,2.233 11.071,2.24 C11.011,2.262 10.955,2.287 10.898,2.315 C7.901,3.497 5.418,6.035 4.341,9.464 L4.341,9.464 Z M6.691,10.282 C7.359,8.157 8.723,6.477 10.429,5.42 L12.498,11.385 L6.418,11.4 C6.486,11.026 6.575,10.652 6.691,10.282 L6.691,10.282 Z M12.516,14.748 L10.611,20.812 C8.407,19.523 6.903,17.281 6.429,14.765 L12.516,14.748 L12.516,14.748 Z M13.662,21.863 L15.593,15.711 L20.692,19.365 C18.868,21.252 16.278,22.215 13.662,21.863 L13.662,21.863 Z M22.505,16.589 L17.48,12.99 L22.331,9.143 C23.276,11.155 23.501,13.54 22.781,15.834 C22.7,16.092 22.606,16.343 22.505,16.589 L22.505,16.589 Z M15.539,10.31 L13.45,4.286 C14.728,4.077 16.072,4.172 17.385,4.624 C18.536,5.021 19.55,5.656 20.397,6.457 L15.539,10.31 L15.539,10.31 Z" id="Fill-21" fill="#D1853B"></path>
                        <path d="M41.626,39.978 C41.626,46.306 46.536,51.452 52.571,51.452 C57.531,51.452 61.728,47.973 63.066,43.223 C63.072,43.206 63.079,43.191 63.085,43.174 C63.093,43.143 63.099,43.108 63.107,43.075 C63.37,42.09 63.515,41.051 63.515,39.978 C63.515,36.126 61.694,32.714 58.91,30.632 C58.874,30.601 58.837,30.569 58.798,30.542 C58.781,30.53 58.764,30.521 58.747,30.51 C56.987,29.245 54.859,28.503 52.571,28.503 C50.073,28.503 47.769,29.385 45.927,30.867 C45.905,30.882 45.883,30.893 45.864,30.909 C45.815,30.949 45.766,30.992 45.723,31.035 C43.227,33.14 41.626,36.366 41.626,39.978 L41.626,39.978 Z M44.102,39.982 C44.102,37.746 44.897,35.702 46.202,34.141 L49.945,39.127 L44.175,41.134 C44.129,40.756 44.102,40.372 44.102,39.982 L44.102,39.982 Z M50.966,42.316 L50.966,48.699 C48.486,48.197 46.39,46.561 45.19,44.327 L50.966,42.316 L50.966,42.316 Z M54.175,48.699 L54.175,42.224 L60.109,44.021 C58.939,46.41 56.766,48.176 54.175,48.699 L54.175,48.699 Z M61.003,40.79 L55.156,39.018 L58.616,33.774 C60.114,35.376 61.039,37.567 61.039,39.982 C61.039,40.254 61.025,40.523 61.003,40.79 L61.003,40.79 Z M52.515,37.11 L48.731,32.072 C49.885,31.454 51.189,31.104 52.571,31.104 C53.782,31.104 54.936,31.374 55.98,31.857 L52.515,37.11 L52.515,37.11 Z" id="Fill-22" fill="#E6A356"></path>
                        <path d="M20.747,17.974 C20.747,24.302 25.657,29.448 31.692,29.448 C36.652,29.448 40.85,25.969 42.187,21.219 C42.193,21.202 42.2,21.187 42.206,21.17 C42.214,21.139 42.22,21.105 42.228,21.071 C42.491,20.086 42.636,19.047 42.636,17.974 C42.636,14.122 40.815,10.71 38.031,8.628 C37.995,8.597 37.958,8.565 37.919,8.538 C37.902,8.526 37.885,8.517 37.868,8.506 C36.108,7.241 33.98,6.499 31.692,6.499 C29.194,6.499 26.891,7.381 25.048,8.863 C25.026,8.878 25.004,8.889 24.985,8.905 C24.935,8.945 24.887,8.988 24.844,9.031 C22.348,11.136 20.747,14.362 20.747,17.974 L20.747,17.974 Z M23.223,17.979 C23.223,15.742 24.018,13.698 25.323,12.137 L29.066,17.123 L23.296,19.13 C23.25,18.752 23.223,18.368 23.223,17.979 L23.223,17.979 Z M30.087,20.312 L30.087,26.695 C27.607,26.193 25.511,24.557 24.31,22.323 L30.087,20.312 L30.087,20.312 Z M33.296,26.695 L33.296,20.22 L39.23,22.017 C38.06,24.406 35.887,26.172 33.296,26.695 L33.296,26.695 Z M40.124,18.786 L34.277,17.014 L37.737,11.771 C39.235,13.372 40.16,15.563 40.16,17.979 C40.16,18.25 40.147,18.519 40.124,18.786 L40.124,18.786 Z M31.636,15.106 L27.853,10.068 C29.006,9.45 30.31,9.1 31.692,9.1 C32.903,9.1 34.058,9.37 35.102,9.854 L31.636,15.106 L31.636,15.106 Z" id="Fill-23" fill="#E6A356"></path>
                        <path d="M38.855,11.723 C38.855,18.051 43.766,23.197 49.801,23.197 C54.761,23.197 58.958,19.718 60.296,14.968 C60.302,14.951 60.309,14.937 60.315,14.919 C60.322,14.888 60.328,14.853 60.337,14.82 C60.6,13.835 60.744,12.796 60.744,11.723 C60.744,7.871 58.924,4.459 56.14,2.377 C56.103,2.346 56.066,2.314 56.027,2.287 C56.011,2.275 55.993,2.266 55.977,2.255 C54.217,0.99 52.089,0.248 49.801,0.248 C47.303,0.248 44.999,1.13 43.156,2.612 C43.135,2.627 43.112,2.638 43.094,2.654 C43.044,2.694 42.995,2.737 42.952,2.78 C40.456,4.885 38.855,8.111 38.855,11.723 L38.855,11.723 Z M41.331,11.727 C41.331,9.491 42.126,7.447 43.432,5.886 L47.175,10.872 L41.404,12.879 C41.358,12.501 41.331,12.117 41.331,11.727 L41.331,11.727 Z M48.195,14.062 L48.195,20.444 C45.716,19.942 43.619,18.306 42.419,16.072 L48.195,14.062 L48.195,14.062 Z M51.404,20.444 L51.404,13.969 L57.339,15.766 C56.168,18.155 53.995,19.921 51.404,20.444 L51.404,20.444 Z M58.232,12.535 L52.386,10.763 L55.846,5.519 C57.344,7.121 58.269,9.313 58.269,11.727 C58.269,11.999 58.255,12.268 58.232,12.535 L58.232,12.535 Z M49.744,8.856 L45.961,3.817 C47.114,3.199 48.418,2.849 49.801,2.849 C51.012,2.849 52.166,3.119 53.21,3.602 L49.744,8.856 L49.744,8.856 Z" id="Fill-24" fill="#E6A356"></path>
                        <path d="M1.154,39.454 C3.668,45.205 10.177,47.741 15.664,45.105 C20.173,42.935 22.606,37.941 21.935,33.037 C21.934,33.019 21.934,33.002 21.932,32.985 C21.926,32.951 21.919,32.919 21.911,32.887 C21.762,31.874 21.479,30.866 21.053,29.892 C19.522,26.39 16.511,24.085 13.15,23.407 C13.106,23.394 13.062,23.383 13.015,23.374 C12.995,23.371 12.975,23.371 12.955,23.368 C10.853,22.985 8.623,23.241 6.542,24.242 C4.273,25.331 2.53,27.141 1.442,29.293 C1.43,29.316 1.414,29.336 1.4,29.36 C1.37,29.417 1.346,29.477 1.324,29.536 C-0.106,32.539 -0.283,36.171 1.154,39.454 L1.154,39.454 Z M3.407,38.377 C2.518,36.344 2.428,34.14 2.993,32.149 L8.379,35.047 L3.932,39.392 C3.739,39.069 3.562,38.731 3.407,38.377 L3.407,38.377 Z M10.574,37.5 L13.111,43.302 C10.658,43.93 8.102,43.357 6.122,41.852 L10.574,37.5 L10.574,37.5 Z M16.029,41.899 L13.455,36.013 L19.563,35.055 C19.45,37.739 18.176,40.293 16.029,41.899 L16.029,41.899 Z M19.091,31.727 L13.073,32.672 L14.135,26.392 C16.131,27.194 17.843,28.782 18.804,30.977 C18.911,31.225 19.006,31.476 19.091,31.727 L19.091,31.727 Z M9.912,32.091 L4.471,29.163 C5.274,28.098 6.319,27.209 7.576,26.606 C8.68,26.076 9.833,25.818 10.976,25.802 L9.912,32.091 L9.912,32.091 Z" id="Fill-25" fill="#EDB970"></path>
                        <path d="M25.522,41.789 C28.037,47.54 34.547,50.075 40.033,47.44 C44.543,45.271 46.976,40.275 46.304,35.371 C46.302,35.354 46.304,35.337 46.302,35.32 C46.297,35.286 46.289,35.253 46.282,35.221 C46.13,34.208 45.85,33.202 45.422,32.226 C43.891,28.724 40.881,26.419 37.52,25.743 C37.476,25.729 37.429,25.718 37.383,25.71 C37.363,25.706 37.343,25.706 37.325,25.703 C35.221,25.321 32.993,25.576 30.911,26.576 C28.641,27.667 26.897,29.476 25.812,31.628 C25.799,31.65 25.783,31.671 25.771,31.694 C25.74,31.752 25.716,31.812 25.692,31.871 C24.261,34.874 24.087,38.506 25.522,41.789 L25.522,41.789 Z M27.776,40.711 C26.888,38.679 26.796,36.475 27.361,34.483 L32.746,37.381 L28.301,41.726 C28.107,41.404 27.931,41.066 27.776,40.711 L27.776,40.711 Z M34.944,39.835 L37.481,45.635 C35.028,46.265 32.471,45.692 30.49,44.185 L34.944,39.835 L34.944,39.835 Z M40.397,44.234 L37.823,38.347 L43.933,37.39 C43.819,40.073 42.544,42.626 40.397,44.234 L40.397,44.234 Z M43.46,34.062 L37.441,35.006 L38.504,28.727 C40.501,29.528 42.213,31.116 43.172,33.312 C43.281,33.56 43.376,33.81 43.46,34.062 L43.46,34.062 Z M34.281,34.425 L28.841,31.497 C29.643,30.433 30.69,29.543 31.944,28.939 C33.048,28.411 34.203,28.152 35.344,28.136 L34.281,34.425 L34.281,34.425 Z" id="Fill-26" fill="#EDB970"></path>
                        <path d="M23.275,16.504 C25.791,22.255 32.301,24.79 37.787,22.154 C42.297,19.985 44.729,14.99 44.058,10.086 C44.056,10.068 44.058,10.052 44.056,10.035 C44.051,10.001 44.043,9.968 44.036,9.935 C43.884,8.923 43.603,7.917 43.176,6.94 C41.645,3.438 38.635,1.134 35.273,0.458 C35.229,0.444 35.183,0.433 35.137,0.425 C35.117,0.421 35.097,0.421 35.079,0.418 C32.975,0.036 30.747,0.291 28.665,1.291 C26.395,2.382 24.651,4.19 23.566,6.343 C23.553,6.365 23.537,6.386 23.524,6.409 C23.494,6.467 23.47,6.526 23.446,6.586 C22.015,9.589 21.841,13.221 23.275,16.504 L23.275,16.504 Z M25.53,15.426 C24.642,13.394 24.55,11.19 25.115,9.198 L30.5,12.096 L26.055,16.44 C25.861,16.119 25.685,15.781 25.53,15.426 L25.53,15.426 Z M32.698,14.55 L35.235,20.35 C32.782,20.979 30.225,20.407 28.244,18.9 L32.698,14.55 L32.698,14.55 Z M38.15,18.949 L35.577,13.062 L41.686,12.105 C41.573,14.788 40.298,17.341 38.15,18.949 L38.15,18.949 Z M41.214,8.776 L35.195,9.721 L36.258,3.441 C38.255,4.243 39.967,5.831 40.926,8.026 C41.035,8.274 41.13,8.524 41.214,8.776 L41.214,8.776 Z M32.035,9.14 L26.595,6.212 C27.397,5.147 28.443,4.258 29.698,3.654 C30.802,3.126 31.957,2.867 33.098,2.851 L32.035,9.14 L32.035,9.14 Z" id="Fill-27" fill="#EDB970"></path>
                        <path d="M42.62,35.256 C45.136,41.007 51.646,43.542 57.132,40.906 C61.642,38.737 64.074,33.742 63.402,28.838 C63.4,28.82 63.402,28.804 63.4,28.787 C63.396,28.753 63.388,28.72 63.381,28.687 C63.228,27.675 62.948,26.669 62.52,25.692 C60.989,22.19 57.98,19.886 54.618,19.21 C54.574,19.196 54.527,19.185 54.481,19.177 C54.462,19.173 54.441,19.173 54.424,19.17 C52.319,18.788 50.092,19.043 48.01,20.043 C45.739,21.134 43.996,22.942 42.911,25.095 C42.897,25.117 42.882,25.138 42.869,25.161 C42.839,25.219 42.815,25.278 42.791,25.338 C41.359,28.341 41.185,31.973 42.62,35.256 L42.62,35.256 Z M44.875,34.178 C43.986,32.146 43.895,29.941 44.46,27.95 L49.845,30.848 L45.399,35.192 C45.206,34.871 45.029,34.533 44.875,34.178 L44.875,34.178 Z M52.043,33.302 L54.58,39.102 C52.127,39.731 49.569,39.159 47.589,37.652 L52.043,33.302 L52.043,33.302 Z M57.495,37.701 L54.922,31.813 L61.031,30.856 C60.918,33.54 59.643,36.093 57.495,37.701 L57.495,37.701 Z M60.559,27.528 L54.54,28.473 L55.603,22.193 C57.6,22.995 59.311,24.583 60.271,26.778 C60.38,27.026 60.475,27.276 60.559,27.528 L60.559,27.528 Z M51.38,27.892 L45.94,24.964 C46.741,23.899 47.788,23.01 49.043,22.406 C50.147,21.878 51.302,21.619 52.442,21.603 L51.38,27.892 L51.38,27.892 Z" id="Fill-28" fill="#EDB970"></path>
                        <path d="M0.706,35.163 C-1.18,41.173 1.948,47.671 7.68,49.651 C12.393,51.276 17.416,49.349 20.106,45.274 C20.114,45.26 20.128,45.248 20.137,45.233 C20.154,45.206 20.17,45.177 20.187,45.148 C20.732,44.298 21.179,43.357 21.498,42.339 C22.647,38.68 21.935,34.843 19.911,31.952 C19.886,31.91 19.861,31.87 19.832,31.829 C19.819,31.813 19.805,31.799 19.793,31.782 C18.499,30.004 16.699,28.602 14.523,27.851 C12.152,27.032 9.701,27.117 7.509,27.92 C7.483,27.928 7.461,27.931 7.437,27.94 C7.376,27.961 7.318,27.985 7.264,28.012 C4.267,29.194 1.783,31.733 0.706,35.163 L0.706,35.163 Z M3.057,35.979 C3.723,33.856 5.088,32.175 6.792,31.119 L8.861,37.082 L2.783,37.097 C2.852,36.725 2.94,36.351 3.057,35.979 L3.057,35.979 Z M8.881,40.446 L6.977,46.51 C4.771,45.222 3.269,42.978 2.794,40.463 L8.881,40.446 L8.881,40.446 Z M10.026,47.56 L11.957,41.409 L17.057,45.063 C15.232,46.95 12.642,47.914 10.026,47.56 L10.026,47.56 Z M18.87,42.287 L13.846,38.688 L18.696,34.84 C19.641,36.854 19.866,39.237 19.145,41.531 C19.065,41.79 18.972,42.042 18.87,42.287 L18.87,42.287 Z M11.903,36.009 L9.814,29.984 C11.094,29.775 12.435,29.869 13.749,30.321 C14.901,30.72 15.915,31.354 16.762,32.155 L11.903,36.009 L11.903,36.009 Z" id="Fill-29" fill="#D1853B"></path>
                        <path d="M8.075,46.639 C6.19,52.648 9.317,59.147 15.049,61.127 C19.762,62.752 24.785,60.824 27.476,56.75 C27.483,56.735 27.497,56.724 27.506,56.709 C27.523,56.682 27.539,56.652 27.556,56.623 C28.102,55.773 28.548,54.833 28.867,53.815 C30.017,50.155 29.304,46.318 27.28,43.428 C27.255,43.386 27.23,43.346 27.201,43.305 C27.189,43.288 27.174,43.274 27.162,43.258 C25.868,41.479 24.068,40.077 21.893,39.326 C19.522,38.508 17.07,38.593 14.878,39.395 C14.853,39.403 14.83,39.406 14.806,39.415 C14.745,39.437 14.688,39.461 14.633,39.487 C11.636,40.67 9.152,43.209 8.075,46.639 L8.075,46.639 Z M10.426,47.455 C11.092,45.332 12.457,43.65 14.161,42.595 L16.23,48.558 L10.152,48.572 C10.221,48.2 10.31,47.826 10.426,47.455 L10.426,47.455 Z M16.25,51.922 L14.346,57.985 C12.14,56.697 10.638,54.454 10.163,51.938 L16.25,51.922 L16.25,51.922 Z M17.396,59.036 L19.326,52.885 L24.426,56.538 C22.602,58.426 20.011,59.39 17.396,59.036 L17.396,59.036 Z M26.239,53.763 L21.215,50.163 L26.065,46.315 C27.01,48.329 27.235,50.713 26.515,53.007 C26.435,53.266 26.341,53.518 26.239,53.763 L26.239,53.763 Z M19.272,47.484 L17.183,41.46 C18.463,41.251 19.805,41.345 21.118,41.797 C22.271,42.195 23.284,42.83 24.131,43.631 L19.272,47.484 L19.272,47.484 Z" id="Fill-30" fill="#D1853B"></path>
                        <path d="M36.679,13.44 C34.793,19.449 37.921,25.947 43.652,27.928 C48.365,29.553 53.389,27.625 56.079,23.551 C56.087,23.536 56.101,23.524 56.109,23.51 C56.127,23.482 56.143,23.453 56.159,23.424 C56.705,22.574 57.151,21.634 57.471,20.615 C58.62,16.956 57.907,13.119 55.884,10.229 C55.858,10.187 55.834,10.146 55.805,10.106 C55.792,10.089 55.777,10.075 55.766,10.059 C54.472,8.28 52.672,6.878 50.496,6.127 C48.125,5.309 45.674,5.394 43.481,6.196 C43.456,6.204 43.434,6.207 43.409,6.216 C43.349,6.237 43.291,6.262 43.236,6.288 C40.239,7.471 37.756,10.01 36.679,13.44 L36.679,13.44 Z M39.029,14.256 C39.695,12.133 41.06,10.451 42.765,9.395 L44.834,15.358 L38.756,15.373 C38.824,15.001 38.913,14.627 39.029,14.256 L39.029,14.256 Z M44.853,18.723 L42.949,24.786 C40.743,23.498 39.241,21.255 38.767,18.739 L44.853,18.723 L44.853,18.723 Z M45.999,25.837 L47.93,19.685 L53.029,23.339 C51.205,25.227 48.614,26.19 45.999,25.837 L45.999,25.837 Z M54.843,20.563 L49.818,16.964 L54.669,13.116 C55.613,15.13 55.839,17.514 55.118,19.808 C55.038,20.066 54.944,20.318 54.843,20.563 L54.843,20.563 Z M47.876,14.285 L45.786,8.261 C47.066,8.052 48.408,8.146 49.722,8.598 C50.874,8.996 51.888,9.631 52.734,10.432 L47.876,14.285 L47.876,14.285 Z" id="Fill-31" fill="#D1853B"></path>
                    </g>
                    <g id="Rectangle-5-+-Rectangle-6-+-Rectangle-8">
                        <rect id="Rectangle-5" fill="url(#linearGradient-1)" x="0" y="4" width="79" height="93"></rect>
                        <rect id="Rectangle-6" fill-opacity="0.900000095" fill="#DAEFF0" transform="translate(39.500000, 99.000000) scale(1, -1) translate(-39.500000, -99.000000) " x="0" y="97" width="79" height="4"></rect>
                        <rect id="Rectangle-6" fill-opacity="0.900000095" fill="#DAEFF0" transform="translate(39.500000, 2.000000) scale(1, -1) translate(-39.500000, -2.000000) " x="0" y="0" width="79" height="4"></rect>
                        <rect id="Rectangle-7" fill-opacity="0.900000095" fill="#E7F9FA" x="0" y="101" width="79" height="1"></rect>
                    </g>
                </g>
            </g>
        </g>
    </g>
</svg>