<?xml version="1.0" encoding="UTF-8" standalone="no"?>
<svg width="264px" height="266px" viewBox="0 0 264 266" version="1.1" xmlns="http://www.w3.org/2000/svg" xmlns:xlink="http://www.w3.org/1999/xlink" xmlns:sketch="http://www.bohemiancoding.com/sketch/ns">
    <!-- Generator: Sketch 3.1.1 (8761) - http://www.bohemiancoding.com/sketch -->
    <title>i-principiante1</title>
    <desc>Created with Sketch.</desc>
    <defs>
        <linearGradient x1="50%" y1="40.2848869%" x2="50%" y2="100%" id="linearGradient-1">
            <stop stop-color="#CE7F4B" offset="0%"></stop>
            <stop stop-color="#F3B68A" offset="100%"></stop>
        </linearGradient>
        <linearGradient x1="50%" y1="0%" x2="50%" y2="100%" id="linearGradient-2">
            <stop stop-color="#F3B68A" offset="0%"></stop>
            <stop stop-color="#F3B68A" offset="26.7737564%"></stop>
            <stop stop-color="#CE7F4B" offset="100%"></stop>
        </linearGradient>
    </defs>
    <g id="Page-1" stroke="none" stroke-width="1" fill="none" fill-rule="evenodd" sketch:type="MSPage">
        <g id="Desktop-HD" sketch:type="MSArtboardGroup" transform="translate(-1018.000000, -769.000000)">
            <g id="i-principiante1" sketch:type="MSLayerGroup" transform="translate(1018.000000, 770.000000)">
                <path d="M88.1004217,127.0948 C88.0624665,121.810267 92.3109265,117.494311 97.5909265,117.456311 C102.870083,117.417467 107.179272,121.671778 107.217227,126.956311 L107.764626,227.628444 C107.802581,232.913822 103.554121,237.228933 98.2741214,237.266933 C92.9949649,237.304933 88.6849329,233.050622 88.6469776,227.765244 L88.1004217,127.0948" id="Fill-1" fill="#F3B78A" sketch:type="MSShapeGroup"></path>
                <path d="M177.721252,127.0948 C177.759208,121.810267 173.509904,117.494311 168.230748,117.456311 C162.951591,117.417467 158.642403,121.671778 158.604447,126.956311 L158.056204,227.628444 C158.018249,232.913822 162.266709,237.228933 167.546709,237.266933 C172.825866,237.304933 177.135898,233.050622 177.173853,227.765244 L177.721252,127.0948" id="Fill-2" fill="#F3B78A" sketch:type="MSShapeGroup"></path>
                <path d="M151.682249,107.460622 C146.721073,103.396311 140.368204,100.991333 132.920537,100.991333 L132.900294,100.991333 C125.452626,100.991333 119.100601,103.396311 114.139425,107.460622 C85.5084984,107.460622 87.048639,134.457511 87.048639,134.457511 L87.048639,144.97 L98.4166645,144.97 C98.8991182,147.388489 99.9745176,149.591644 101.486824,151.420711 L98.894901,205.726933 C98.894901,224.080089 113.401406,239.033511 131.559208,239.739467 C131.947195,239.7572 132.337712,239.766489 132.729073,239.769867 L132.900294,239.773244 L132.920537,239.773244 L133.091757,239.769867 C133.483118,239.766489 133.873636,239.7572 134.26078,239.739467 C152.420268,239.033511 166.926773,224.080089 166.926773,205.726933 L164.33485,151.420711 C165.847157,149.591644 166.921712,147.388489 167.404166,144.97 L178.773035,144.97 L178.773035,134.457511 C178.773035,134.457511 180.313176,107.460622 151.682249,107.460622" id="Fill-3" fill="#DF5031" sketch:type="MSShapeGroup"></path>
                <path d="M98.2648435,47.7254667 L166.156703,47.7254667 L166.156703,75.6546222 L98.2648435,75.6546222 L98.2648435,47.7254667 Z" id="Fill-4" fill="#2D241C" sketch:type="MSShapeGroup"></path>
                <path d="M108.816409,78.4294667 C108.816409,84.4478222 103.943796,89.3270222 97.932524,89.3270222 C91.9212524,89.3270222 87.048639,84.4478222 87.048639,78.4294667 C87.048639,72.4119556 91.9212524,67.5327556 97.932524,67.5327556 C103.943796,67.5327556 108.816409,72.4119556 108.816409,78.4294667" id="Fill-5" fill="#2D241C" sketch:type="MSShapeGroup"></path>
                <path d="M177.041431,78.0072444 C177.041431,84.0256 172.168818,88.9048 166.157546,88.9048 C160.146275,88.9048 155.272818,84.0256 155.272818,78.0072444 C155.272818,71.9897333 160.146275,67.1105333 166.157546,67.1105333 C172.168818,67.1105333 177.041431,71.9897333 177.041431,78.0072444" id="Fill-6" fill="#2D241C" sketch:type="MSShapeGroup"></path>
                <path d="M171.336332,55.3702222 C171.336332,60.2916444 167.57876,64.2816444 162.942313,64.2816444 L102.563067,64.2816444 C97.9266198,64.2816444 94.1690479,60.2916444 94.1690479,55.3702222 C94.1690479,50.4488 97.9266198,46.4588 102.563067,46.4588 L162.942313,46.4588 C167.57876,46.4588 171.336332,50.4488 171.336332,55.3702222" id="Fill-7" fill="#F3B78A" sketch:type="MSShapeGroup"></path>
                <path d="M146.978326,106.792667 C146.978326,114.500756 140.737636,120.750489 133.037776,120.750489 C125.337917,120.750489 119.097227,114.500756 119.097227,106.792667 L119.097227,78.0080889 C119.097227,70.3 125.337917,64.0511111 133.037776,64.0511111 C140.737636,64.0511111 146.978326,70.3 146.978326,78.0080889 L146.978326,106.792667" id="Fill-8" fill="#F3B78A" sketch:type="MSShapeGroup"></path>
                <path d="M147.194824,107.171618 C147.194824,114.957265 140.883912,121.269882 133.097412,121.269882 C125.310912,121.269882 119,114.957265 119,107.171618 L119,78.0974118 C119,70.3109118 125.310912,64 133.097412,64 C140.883912,64 147.194824,70.3109118 147.194824,78.0974118 L147.194824,107.171618" id="Imported-Layers" fill="url(#linearGradient-1)" sketch:type="MSShapeGroup"></path>
                <path d="M160.947553,69.3525333 C156.123016,87.3332889 149.668933,97.9175556 132.75269,97.9175556 C115.836447,97.9175556 107.345431,87.3332889 105.401278,69.3525333 L102.123629,33.5962222 C102.123629,16.4219111 115.836447,2.49786667 132.75269,2.49786667 C149.668933,2.49786667 163.382594,16.4219111 163.382594,33.5962222 L160.947553,69.3525333" id="Fill-10" fill="#F3B78A" sketch:type="MSShapeGroup"></path>
                <path d="M141.760741,46.6749778 C142.255003,44.7547111 143.997572,43.3309778 146.071617,43.3326667 C148.103489,43.3309778 149.819911,44.6998222 150.352128,46.5626667 C150.483706,47.0212 150.961099,47.2872 151.419093,47.1554667 C151.877086,47.0245778 152.14193,46.5466222 152.011195,46.0880889 C151.271489,43.4981778 148.892958,41.6074667 146.071617,41.6057778 C143.193764,41.6074667 140.777278,43.5750222 140.089866,46.2434667 C139.971783,46.7053778 140.248435,47.1765778 140.710645,47.2948 C141.172013,47.4138667 141.641815,47.1360444 141.760741,46.6749778" id="Fill-12" fill="#DE9667" sketch:type="MSShapeGroup"></path>
                <path d="M115.142288,46.6749778 C115.63655,44.7547111 117.379962,43.3309778 119.454006,43.3326667 C121.486722,43.3309778 123.201457,44.6998222 123.734518,46.5626667 C123.865252,47.0212 124.343489,47.2872 124.800639,47.1554667 C125.258633,47.0245778 125.524319,46.5466222 125.393585,46.0880889 C124.654722,43.4981778 122.275348,41.6074667 119.454006,41.6057778 C116.57531,41.6074667 114.158824,43.5750222 113.472256,46.2434667 C113.353329,46.7053778 113.629981,47.1765778 114.092192,47.2948 C114.553559,47.4138667 115.024204,47.1360444 115.142288,46.6749778" id="Fill-13" fill="#DE9667" sketch:type="MSShapeGroup"></path>
                <path d="M151.367642,48.6340889 C151.367642,51.5736 148.988268,53.9549333 146.053904,53.9549333 C143.118696,53.9549333 140.739323,51.5736 140.739323,48.6340889 C140.739323,45.6962667 143.118696,43.3140889 146.053904,43.3140889 C148.988268,43.3140889 151.367642,45.6962667 151.367642,48.6340889" id="Fill-14" fill="#FFFFFF" sketch:type="MSShapeGroup"></path>
                <path d="M149.911003,50.0932889 C149.911003,51.7593778 148.561482,53.1104889 146.897355,53.1104889 C145.232383,53.1104889 143.882863,51.7593778 143.882863,50.0932889 C143.882863,48.4263556 145.232383,47.0760889 146.897355,47.0760889 C148.561482,47.0760889 149.911003,48.4263556 149.911003,50.0932889" id="Fill-15" fill="#4B3D33" sketch:type="MSShapeGroup"></path>
                <path d="M148.281457,50.0932889 C148.281457,50.8592 147.661521,51.4790222 146.897355,51.4790222 C146.131502,51.4790222 145.511565,50.8592 145.511565,50.0932889 C145.511565,49.3273778 146.131502,48.7067111 146.897355,48.7067111 C147.661521,48.7067111 148.281457,49.3273778 148.281457,50.0932889" id="Fill-16" fill="#2C2B29" sketch:type="MSShapeGroup"></path>
                <path d="M146.897355,48.7067111 C146.897355,49.248 146.457917,49.6871111 145.917265,49.6871111 C145.37577,49.6871111 144.937176,49.248 144.937176,48.7067111 C144.937176,48.1645778 145.37577,47.7254667 145.917265,47.7254667 C146.457917,47.7254667 146.897355,48.1645778 146.897355,48.7067111" id="Fill-17" fill="#FFFFFF" sketch:type="MSShapeGroup"></path>
                <path d="M124.767744,48.6340889 C124.767744,51.5736 122.388371,53.9549333 119.454006,53.9549333 C116.518799,53.9549333 114.139425,51.5736 114.139425,48.6340889 C114.139425,45.6962667 116.518799,43.3140889 119.454006,43.3140889 C122.388371,43.3140889 124.767744,45.6962667 124.767744,48.6340889" id="Fill-18" fill="#FFFFFF" sketch:type="MSShapeGroup"></path>
                <path d="M123.311105,50.0932889 C123.311105,51.7593778 121.961585,53.1104889 120.297457,53.1104889 C118.632486,53.1104889 117.282965,51.7593778 117.282965,50.0932889 C117.282965,48.4263556 118.632486,47.0760889 120.297457,47.0760889 C121.961585,47.0760889 123.311105,48.4263556 123.311105,50.0932889" id="Fill-19" fill="#4B3D33" sketch:type="MSShapeGroup"></path>
                <path d="M121.681559,50.0932889 C121.681559,50.8592 121.062466,51.4790222 120.297457,51.4790222 C119.532447,51.4790222 118.912511,50.8592 118.912511,50.0932889 C118.912511,49.3273778 119.532447,48.7067111 120.297457,48.7067111 C121.062466,48.7067111 121.681559,49.3273778 121.681559,50.0932889" id="Fill-20" fill="#2C2B29" sketch:type="MSShapeGroup"></path>
                <path d="M120.297457,48.7067111 C120.297457,49.248 119.858863,49.6871111 119.317367,49.6871111 C118.775872,49.6871111 118.337278,49.248 118.337278,48.7067111 C118.337278,48.1645778 118.775872,47.7254667 119.317367,47.7254667 C119.858863,47.7254667 120.297457,48.1645778 120.297457,48.7067111" id="Fill-21" fill="#FFFFFF" sketch:type="MSShapeGroup"></path>
                <path d="M123.694875,79.6378667 C124.738224,81.1477333 126.067502,82.4008889 127.609329,83.2808 C129.148626,84.1607111 130.903847,84.6623111 132.75269,84.6614667 C134.800588,84.6623111 136.730403,84.0467111 138.383565,82.9860889 C140.039259,81.9237778 141.424204,80.4223556 142.441406,78.6338222 C142.786377,78.0258222 142.574671,77.2523111 141.966543,76.9069333 C141.359259,76.5607111 140.586658,76.7735111 140.241687,77.3815111 C139.413419,78.8398667 138.29922,80.0313778 137.019706,80.8521778 C135.736818,81.6729778 134.294518,82.1272889 132.75269,82.1281333 C131.35931,82.1272889 130.049431,81.7557333 128.862696,81.0801778 C127.677649,80.4037778 126.619962,79.4174667 125.775668,78.1964 C125.377559,77.6213333 124.588933,77.4777778 124.015387,77.8755111 C123.440153,78.2732444 123.296767,79.0628 123.694875,79.6378667" id="Fill-22" fill="#E3648D" sketch:type="MSShapeGroup"></path>
                <path d="M122.811783,74.5281333 C124.004422,79.6361778 127.996473,83.3948 132.75269,83.3948 C137.508907,83.3948 141.500958,79.6361778 142.693597,74.5281333 L122.811783,74.5281333" id="Fill-23" fill="#575754" sketch:type="MSShapeGroup"></path>
                <path d="M125.513355,74.5281333 L139.992026,74.5281333 L139.992026,76.7811111 L125.513355,76.7811111 L125.513355,74.5281333 Z" id="Fill-24" fill="#FFFFFF" sketch:type="MSShapeGroup"></path>
                <path d="M114.761891,39.3333778 L114.758518,39.33 L114.761891,39.3333778 L114.758518,39.33 L114.761891,39.3333778 C114.794786,39.3038222 115.347246,38.8208 116.215157,38.3588889 C117.083067,37.8944444 118.257994,37.4595556 119.540882,37.4612444 C120.931732,37.4696889 122.472716,37.9332889 124.119131,39.5487111 C124.458198,39.8831111 125.004754,39.8805778 125.33876,39.5402667 C125.674454,39.2008 125.670236,38.6544444 125.331169,38.3192 C123.416537,36.4158222 121.350083,35.7259111 119.540882,35.7335111 C117.816026,35.7360444 116.346735,36.3195556 115.305073,36.8878667 C114.262569,37.4587111 113.638415,38.0228 113.603834,38.0548889 C113.250428,38.3749333 113.224281,38.9204444 113.543949,39.2742667 C113.86446,39.6272444 114.409329,39.6534222 114.761891,39.3333778" id="Fill-25" fill="#2D241C" sketch:type="MSShapeGroup"></path>
                <path d="M140.244217,39.3333778 L140.238313,39.3266222 L140.244217,39.3333778 L140.238313,39.3266222 L140.244217,39.3333778 C140.277955,39.3038222 140.829572,38.8208 141.697482,38.3588889 C142.565393,37.8944444 143.741163,37.4595556 145.023208,37.4612444 C146.414058,37.4696889 147.955042,37.9332889 149.601457,39.5487111 C149.940524,39.8831111 150.48708,39.8805778 150.821086,39.5402667 C151.15678,39.2008 151.152562,38.6544444 150.813495,38.3192 C148.898863,36.4158222 146.832409,35.7259111 145.023208,35.7335111 C143.298351,35.7360444 141.828217,36.3195556 140.787399,36.8878667 C139.744895,37.4587111 139.121585,38.0228 139.085316,38.0548889 C138.732754,38.3749333 138.706607,38.9204444 139.026275,39.2742667 C139.346786,39.6272444 139.891655,39.6534222 140.245061,39.3333778 L140.244217,39.3333778" id="Fill-26" fill="#2D241C" sketch:type="MSShapeGroup"></path>
                <path d="M117.282965,19.7152444 C117.282965,19.7152444 119.361227,13.8978667 126.005086,16.0089778 C132.648946,18.1200889 142.730709,44.3628889 162.782901,47.0760889 L165.99476,47.0760889 C165.99476,47.0760889 170.182492,-0.0354666667 136.022748,-0.0354666667 C101.863003,-0.0354666667 96.3544281,22.0180444 98.2648435,47.7254667 C98.2648435,47.7254667 100.630722,46.0517778 102.723323,47.0760889 C102.723323,47.0760889 116.256486,42.8437333 117.282965,19.7152444" id="Fill-27" fill="#2D241C" sketch:type="MSShapeGroup"></path>
                <path d="M109.843732,107.696222 L109.809994,107.6996 L109.809994,230.708133 C109.900243,230.791733 109.993866,230.8728 110.084958,230.9564 C110.353176,231.198756 110.621393,231.440267 110.896358,231.675022 C111.012754,231.773822 111.131681,231.867556 111.249764,231.964667 C111.530633,232.197733 111.811502,232.429956 112.100805,232.653733 C112.208767,232.737333 112.320102,232.815867 112.428064,232.898622 C112.733393,233.128311 113.037879,233.358844 113.349955,233.5784 C113.427553,233.633289 113.508524,233.683111 113.586965,233.738 C115.070594,234.765689 116.641099,235.675156 118.283297,236.460489 C118.424997,236.5272 118.563323,236.599822 118.705866,236.664844 C118.983361,236.792356 119.265917,236.910578 119.546786,237.030489 C119.732345,237.109867 119.915374,237.192622 120.101776,237.268622 L145.706403,237.268622 C149.649534,235.659956 153.22239,233.334356 156.265559,230.449733 L156.265559,107.723244 C154.827476,107.558578 153.309265,107.460622 151.682249,107.460622 C150.621188,106.591689 149.491808,105.802978 148.30676,105.0928 L148.251093,105.071689 L148.251093,144.97 L117.82446,144.97 L117.82446,104.908711 L117.820243,104.911244 C117.17416,105.287022 116.544946,105.686444 115.935131,106.108667 L115.908984,106.127244 C115.300856,106.549467 114.710441,106.9928 114.139425,107.460622 C113.356703,107.460622 112.605188,107.489333 111.867169,107.528178 C111.174696,107.569556 110.501623,107.626133 109.843732,107.696222" id="Fill-28" fill="#F3E9DA" sketch:type="MSShapeGroup"></path>
                <path d="M117.82446,144.97 L100.990032,161.824267 L98.894901,205.726933 C98.894901,223.375822 112.308294,237.886756 129.485163,239.601822 C130.676115,239.649956 131.866224,239.705689 133.045367,239.769022 C151.759003,239.691333 166.905687,224.4812 166.905687,205.726933 L164.796217,161.536311 L148.251093,144.97 L117.82446,144.97" id="Fill-29" fill="#F3E9DA" sketch:type="MSShapeGroup"></path>
                <path d="M0.116728435,246.685022 L263.710185,246.685022 L263.710185,264.646356 L0.116728435,264.646356 L0.116728435,246.685022 Z" id="Fill-30" fill="#AD9168" sketch:type="MSShapeGroup"></path>
                <path d="M0.116728435,232.329467 L263.710185,232.329467 L263.710185,248.487911 L0.116728435,248.487911 L0.116728435,232.329467 Z" id="Fill-32" fill="#D4B37E" sketch:type="MSShapeGroup"></path>
                <path d="M0.116728435,248.487911 L263.710185,248.487911 L263.710185,264.487911 L0.116728435,264.487911 L0.116728435,248.487911 Z" id="Fill-33" fill="#AD9168" sketch:type="MSShapeGroup" transform="translate(131.913457, 256.487911) scale(1, -1) translate(-131.913457, -256.487911) "></path>
                <path d="M93.7304537,184.745867 C93.7304537,187.542667 91.4649457,189.812533 88.6697508,189.812533 L73.0659169,189.812533 C70.2715655,189.812533 68.0052141,187.542667 68.0052141,184.745867 C68.0052141,181.946533 70.2715655,179.6792 73.0659169,179.6792 L88.6697508,179.6792 C91.4649457,179.6792 93.7304537,181.946533 93.7304537,184.745867" id="Fill-33" fill="#454543" sketch:type="MSShapeGroup"></path>
                <path d="M81.5004217,173.032578 L81.5004217,223.308267 C81.5004217,230.769778 87.542901,236.819378 94.9956294,236.819378 L131.264843,236.819378 L131.264843,173.032578 L81.5004217,173.032578" id="Fill-34" fill="#DFDEDA" sketch:type="MSShapeGroup"></path>
                <path d="M137.168997,173.032578 L137.168997,236.819378 L173.436524,236.819378 C180.889252,236.819378 186.932575,230.769778 186.932575,223.308267 L186.932575,173.032578 L137.168997,173.032578" id="Fill-35" fill="#DFDEDA" sketch:type="MSShapeGroup"></path>
                <path d="M131.264843,173.032578 L131.264843,236.819378 L167.533214,236.819378 C174.985099,236.819378 181.027578,230.769778 181.027578,223.308267 L181.027578,173.032578 L131.264843,173.032578" id="Fill-36" fill="#B1B1AE" sketch:type="MSShapeGroup"></path>
                <path d="M247.66101,179.6792 L181.027578,179.6792 L181.027578,202.207289 L193.409431,189.812533 L247.66101,189.812533 C250.456204,189.812533 252.721712,187.542667 252.721712,184.745867 C252.721712,181.946533 250.456204,179.6792 247.66101,179.6792" id="Fill-37" fill="#454543" sketch:type="MSShapeGroup"></path>
                <path d="M189.284958,173.032578 C189.284958,174.799156 187.85278,176.232178 186.088281,176.232178 L83.0093546,176.232178 C81.2448562,176.232178 79.8135208,174.799156 79.8135208,173.032578 C79.8135208,171.266 81.2448562,169.832978 83.0093546,169.832978 L186.088281,169.832978 C187.85278,169.832978 189.284958,171.266 189.284958,173.032578" id="Fill-38" fill="#DFDEDA" sketch:type="MSShapeGroup"></path>
                <path d="M181.027578,169.832978 L131.264843,169.832978 L131.264843,176.232178 L181.027578,176.232178 C182.792077,176.232178 184.224256,174.799156 184.224256,173.032578 C184.224256,171.266 182.792077,169.832978 181.027578,169.832978" id="Fill-39" fill="#B1B1AE" sketch:type="MSShapeGroup"></path>
                <path d="M152.662339,245.834667 C152.662339,246.980578 151.734543,247.909467 150.589981,247.909467 L111.902594,247.909467 C110.758032,247.909467 109.830236,246.980578 109.830236,245.834667 C109.830236,244.687911 110.758032,243.758178 111.902594,243.758178 L150.589981,243.758178 C151.734543,243.758178 152.662339,244.687911 152.662339,245.834667" id="Fill-40" fill="#454543" sketch:type="MSShapeGroup"></path>
                <path d="M137.652715,59.5378647 L136.822172,59.5378647 L136.822172,36.1788447 C136.822172,34.1157761 135.148628,32.4414015 133.084729,32.4414015 C131.020829,32.4414015 129.347285,34.1157761 129.347285,36.1788447 L129.347285,59.5378647 L128.516742,59.5378647 C127.369763,59.5378647 126.440385,60.4672422 126.440385,61.614222 C126.440385,62.7612018 127.369763,63.6905793 128.516742,63.6905793 L129.455256,63.6905793 C129.844781,65.3400376 131.316503,66.5717327 133.084729,66.5717327 C134.852954,66.5717327 136.325507,65.3400376 136.714201,63.6905793 L137.652715,63.6905793 C138.799694,63.6905793 139.729072,62.7612018 139.729072,61.614222 C139.729072,60.4672422 138.799694,59.5378647 137.652715,59.5378647" id="Imported-Layers" fill="url(#linearGradient-2)" sketch:type="MSShapeGroup"></path>
            </g>
        </g>
    </g>
</svg>