<?xml version="1.0" encoding="UTF-8" standalone="no"?>
<svg width="133px" height="70px" viewBox="0 0 133 70" version="1.1" xmlns="http://www.w3.org/2000/svg" xmlns:xlink="http://www.w3.org/1999/xlink" xmlns:sketch="http://www.bohemiancoding.com/sketch/ns">
    <!-- Generator: Sketch 3.1.1 (8761) - http://www.bohemiancoding.com/sketch -->
    <title>i-puntual</title>
    <desc>Created with Sketch.</desc>
    <defs></defs>
    <g id="Page-1" stroke="none" stroke-width="1" fill="none" fill-rule="evenodd" sketch:type="MSPage">
        <g id="Desktop-HD" sketch:type="MSArtboardGroup" transform="translate(-641.000000, -1407.000000)">
            <g id="i-puntual" sketch:type="MSLayerGroup" transform="translate(642.000000, 1407.000000)">
                <g id="Imported-Layers" transform="translate(44.000000, 3.000000)" sketch:type="MSShapeGroup">
                    <path d="M1.80125373,46.5093333 L1.80125373,52.7853333 L54.4454179,55.076 L56.6279104,54.4786667 C56.6279104,54.4786667 56.782,47.4573333 61.710209,46.3946667 C66.6384179,45.332 70.5876269,45.0293333 73.6986418,47.88 C76.8109851,50.7293333 76.4310746,52.1906667 76.4310746,52.1906667 L77.8617164,54.3173333 C77.8617164,54.3173333 83.4660597,53.36 84.3507463,52.012 C85.2354328,50.6653333 85.0149254,38.692 84.3507463,33.456 C83.6865672,28.2213333 80.437403,21.76 80.437403,21.76 L73.9669701,10.4973333 L56.6279104,11.7773333 L56.6279104,38.6866667 L55.3473731,41.536 L48.345597,41.0746667 L49.8134328,2.888 L43.6445373,2.888 L1.80125373,46.5093333" id="Fill-1" fill="#EF3F42"></path>
                    <path d="M1.80125373,0.0653333333 L47.4489552,0.0653333333 L47.4489552,50.368 L1.80125373,50.368 L1.80125373,0.0653333333 Z" id="Fill-2" fill="#EF3F42"></path>
                    <path d="M30.0434776,55.92 C30.0434776,61.1186667 25.8458657,65.332 20.6679254,65.332 C15.4886567,65.332 11.2910448,61.1186667 11.2910448,55.92 C11.2910448,50.7226667 15.4886567,46.5093333 20.6679254,46.5093333 C25.8458657,46.5093333 30.0434776,50.7226667 30.0434776,55.92" id="Fill-3" fill="#FFFFFF"></path>
                    <path d="M62.4354925,17.332 L62.4354925,26.2213333 L76.5997761,26.2213333 L70.4468209,17.332 L62.4354925,17.332" id="Fill-4" fill="#C1E0D6"></path>
                    <path d="M20.4221791,66.7253333 C14.0234776,66.7253333 8.81764179,61.4986667 8.81764179,55.076 C8.81764179,48.652 14.0234776,43.4266667 20.4221791,43.4266667 C26.8208806,43.4266667 32.0280448,48.652 32.0280448,55.076 C32.0280448,61.4986667 26.8208806,66.7253333 20.4221791,66.7253333 L20.4221791,66.7253333 Z M20.4221791,46.812 C15.8818507,46.812 12.1890149,50.5186667 12.1890149,55.076 C12.1890149,59.632 15.8818507,63.34 20.4221791,63.34 C24.9625075,63.34 28.6553433,59.632 28.6553433,55.076 C28.6553433,50.5186667 24.9625075,46.812 20.4221791,46.812 L20.4221791,46.812 Z" id="Fill-5" fill="#141F29"></path>
                    <path d="M66.0512836,66.7253333 C59.6525821,66.7253333 54.4454179,61.4986667 54.4454179,55.076 C54.4454179,48.652 59.6525821,43.4266667 66.0512836,43.4266667 C72.4499851,43.4266667 77.6571493,48.652 77.6571493,55.076 C77.6571493,61.4986667 72.4499851,66.7253333 66.0512836,66.7253333 L66.0512836,66.7253333 Z M66.0512836,46.812 C61.5122836,46.812 57.8181194,50.5186667 57.8181194,55.076 C57.8181194,59.632 61.5122836,63.34 66.0512836,63.34 C70.5916119,63.34 74.2844478,59.632 74.2844478,55.076 C74.2844478,50.5186667 70.5916119,46.812 66.0512836,46.812 L66.0512836,46.812 Z" id="Fill-6" fill="#141F29"></path>
                    <path d="M54.9408955,56.1706667 L31.1367164,56.1706667 C30.204209,56.1706667 29.4497015,55.4133333 29.4497015,54.4786667 C29.4497015,53.5426667 30.204209,52.7853333 31.1367164,52.7853333 L54.9408955,52.7853333 C55.8720746,52.7853333 56.6279104,53.5426667 56.6279104,54.4786667 C56.6279104,55.4133333 55.8720746,56.1706667 54.9408955,56.1706667" id="Fill-7" fill="#141F29"></path>
                    <path d="M69.1038507,55.076 C69.1038507,56.7666667 67.7369701,58.1386667 66.0526119,58.1386667 C64.365597,58.1386667 63.0000448,56.7666667 63.0000448,55.076 C63.0000448,53.384 64.365597,52.012 66.0526119,52.012 C67.7369701,52.012 69.1038507,53.384 69.1038507,55.076" id="Fill-8" fill="#141F29"></path>
                    <path d="M23.4747463,55.076 C23.4747463,56.7666667 22.1078657,58.1386667 20.4221791,58.1386667 C18.7364925,58.1386667 17.3709403,56.7666667 17.3709403,55.076 C17.3709403,53.384 18.7364925,52.012 20.4221791,52.012 C22.1078657,52.012 23.4747463,53.384 23.4747463,55.076" id="Fill-9" fill="#141F29"></path>
                    <path d="M4.70504478,55.8266667 C2.01113433,55.8266667 -0.189955224,53.628 -0.203238806,50.9146667 L-0.203238806,4.01466667 C-0.203238806,1.83733333 1.53026866,0.0653333333 3.66361194,0.0653333333 L47.6428955,0.0653333333 C49.7749104,0.0653333333 51.5084179,1.83733333 51.5084179,4.01466667 L51.709,39.34 L54.8837761,39.28 L54.8837761,12.3226667 C54.8837761,10.6386667 56.2506567,9.26933333 57.9297015,9.26933333 L73.8633582,9.26933333 C74.993791,9.26933333 75.3750299,9.26933333 80.704403,18.8746667 C85.3005224,27.1613333 85.6870746,28.4226667 85.7189552,28.8866667 C86.1666119,33.572 86.8626716,40.7453333 86.9556567,41.436 C87.7287612,47.12 88.1830597,52.8226667 84.5964925,54.64 C82.6531045,55.6253333 79.4716866,55.668 76.3274627,55.5746667 C75.3962836,55.5453333 74.6656866,54.764 74.6949104,53.8293333 C74.722806,52.8946667 75.5025522,52.156 76.4310746,52.1906667 C77.8537463,52.2346667 81.6302687,52.352 83.0768507,51.6186667 C84.817,50.736 83.9123881,44.0813333 83.6148358,41.8933333 C83.4859851,40.944 82.540194,31.068 82.3728209,29.3146667 C81.6475373,27.46 74.9658955,15.2653333 73.1287761,12.6533333 L58.2564776,12.6533333 L58.2564776,40.9413333 C58.2564776,41.864 57.5218955,42.616 56.6026716,42.6333333 L50.0644925,42.7573333 C49.606209,42.7773333 49.1771493,42.5933333 48.8530299,42.2773333 C48.5315672,41.96 48.3482537,41.5266667 48.345597,41.0746667 L48.1357164,4.02533333 C48.1357164,3.704 47.915209,3.45066667 47.6428955,3.45066667 L3.66361194,3.45066667 C3.39129851,3.45066667 3.16946269,3.704 3.16946269,4.01466667 L3.16946269,50.9066667 C3.17344776,51.7493333 3.86419403,52.4413333 4.71035821,52.4413333 L4.71832836,52.4413333 L9.73420896,52.432 L9.73686567,52.432 C10.6667164,52.432 11.4225522,53.188 11.4238806,54.12 C11.425209,55.056 10.6720299,55.8146667 9.73952239,55.816 L4.72895522,55.8266667 L4.70504478,55.8266667" id="Fill-10" fill="#141F29"></path>
                    <path d="M76.1760299,28.1906667 L76.1640746,28.1906667 L76.1600896,28.1906667 L61.6969254,28.1506667 C61.2492687,28.1493333 60.820209,27.9693333 60.5053881,27.6506667 C60.1892388,27.332 60.0138955,26.9 60.0165522,26.4506667 L60.0550746,17.7333333 C60.0550746,16.412 61.1297164,15.332 62.4540896,15.332 L70.8214179,15.332 C71.9053582,15.332 72.1683731,15.4826667 75.1120149,20.7893333 C76.7565224,23.7533333 77.4127313,25.06 77.6757463,25.724 C77.7952985,25.956 77.8617164,26.2186667 77.8617164,26.4973333 C77.8617164,27.432 77.107209,28.1906667 76.1760299,28.1906667 L76.1760299,28.1906667 Z M63.3972239,24.7706667 L73.4555522,24.7973333 C72.3649701,22.7493333 70.7682836,19.908 70.005806,18.716 L63.4224627,18.716 L63.3972239,24.7706667 L63.3972239,24.7706667 Z" id="Fill-11" fill="#141F29"></path>
                </g>
                <circle id="Oval-2" fill="#FFFFFF" sketch:type="MSShapeGroup" cx="25" cy="34" r="24"></circle>
                <g id="Imported-Layers" sketch:type="MSShapeGroup">
                    <path d="M25.592,60.184 C11.14,60.184 -0.616,48.428 -0.616,33.98 C-0.616,19.532 11.14,7.776 25.592,7.776 C40.04,7.776 51.796,19.532 51.796,33.98 C51.796,48.428 40.04,60.184 25.592,60.184 L25.592,60.184 Z M25.592,11.176 C13.016,11.176 2.784,21.408 2.784,33.98 C2.784,46.556 13.016,56.784 25.592,56.784 C38.164,56.784 48.392,46.556 48.392,33.98 C48.392,21.408 38.164,11.176 25.592,11.176 L25.592,11.176 Z" id="Fill-1" fill="#131F2A"></path>
                    <path d="M23.888,1.792 L27.292,1.792 L27.292,9.476 L23.888,9.476 L23.888,1.792 Z" id="Fill-2" fill="#131F2A"></path>
                    <path d="M20.188,0.16 L30.992,0.16 L30.992,3.496 L20.188,3.496 L20.188,0.16 Z" id="Fill-3" fill="#131F2A"></path>
                    <path d="M44.12,17.856 L41.716,15.448 L46.156,11.008 L48.564,13.412 L44.12,17.856" id="Fill-4" fill="#131F2A"></path>
                    <path d="M49.276,16.54 L43.028,10.292 L45.436,7.888 L51.684,14.132 L49.276,16.54" id="Fill-5" fill="#131F2A"></path>
                    <path d="M25.592,28.38 C28.684,28.38 31.192,30.884 31.192,33.98 C31.192,37.076 28.684,39.58 25.592,39.58 C22.496,39.58 19.988,37.076 19.988,33.98 C19.988,30.884 22.496,28.38 25.592,28.38" id="Fill-6" fill="#ED9439"></path>
                    <path d="M23.888,38.012 L27.292,38.012 L27.292,44.064 L23.888,44.064 L23.888,38.012 Z M23.888,15.54 L27.292,15.54 L27.292,29.948 L23.888,29.948 L23.888,15.54 Z" id="Fill-7" fill="#ED9439"></path>
                </g>
            </g>
        </g>
    </g>
</svg>