<?xml version="1.0" encoding="UTF-8" standalone="no"?>
<svg width="54px" height="54px" viewBox="0 0 54 54" version="1.1" xmlns="http://www.w3.org/2000/svg" xmlns:xlink="http://www.w3.org/1999/xlink" xmlns:sketch="http://www.bohemiancoding.com/sketch/ns">
    <!-- Generator: Sketch 3.1.1 (8761) - http://www.bohemiancoding.com/sketch -->
    <title>i-saludables</title>
    <desc>Created with Sketch.</desc>
    <defs></defs>
    <g id="Page-1" stroke="none" stroke-width="1" fill="none" fill-rule="evenodd" sketch:type="MSPage">
        <g id="Desktop-HD" sketch:type="MSArtboardGroup" transform="translate(-106.000000, -1975.000000)">
            <g id="i-saludables" sketch:type="MSLayerGroup" transform="translate(106.000000, 1975.000000)">
                <path d="M14.2275625,11.640125 C22.61725,3.2504375 34.1561875,0.2009375 44.127625,2.7231875 C47.6081875,3.6066875 50.14825,6.1431875 51.0281875,9.6273125 C53.554,19.59875 50.5045,31.1376875 42.1148125,39.5238125 C32.257375,49.3848125 18.0536875,51.867875 7.148875,46.6060625 C1.8870625,35.70125 4.370125,21.4975625 14.2275625,11.640125" id="Fill-1" fill="#9BBC41" sketch:type="MSShapeGroup"></path>
                <path d="M19.2079375,50.8169375 C14.6835625,50.8169375 10.405,49.858625 6.4898125,47.9669375 L6.016,47.7389375 L5.7844375,47.2615625 C0.07375,35.4340625 3.03775,20.6853125 13.15525,10.5678125 C21.5164375,2.21375 33.8569375,-1.43425 44.498125,1.259 C48.4988125,2.2671875 51.48775,5.2596875 52.4959375,9.25325 C55.242625,20.0975 51.6765625,32.1066875 43.187125,40.596125 C36.6926875,47.0905625 27.9503125,50.8169375 19.2079375,50.8169375 L19.2079375,50.8169375 Z M8.2853125,45.4660625 C11.6554375,47.0050625 15.328375,47.7888125 19.2079375,47.7888125 C27.155875,47.7888125 35.1145,44.3830625 41.0425,38.4515 C48.7838125,30.7173125 52.0470625,19.8125 49.5604375,9.9978125 C48.815875,7.0551875 46.69975,4.9390625 43.757125,4.1945 C34.117,1.764875 22.9129375,5.0886875 15.299875,12.7124375 C6.2261875,21.7825625 3.443875,34.87475 8.2853125,45.4660625 L8.2853125,45.4660625 Z" id="Fill-2" fill="#141F29" sketch:type="MSShapeGroup"></path>
                <path d="M0.4585,50.6958125 C12.8453125,36.4600625 30.9713125,26.7273125 40.9285,11.12 C35.77,28.3090625 14.5375,39.49175 4.078,53.748875 L0.4585,50.6958125" id="Fill-3" fill="#141F29" sketch:type="MSShapeGroup"></path>
                <path d="M21.4665625,33.64925 C32.90575,35.437625 36.860125,34.67525 41.177875,32.1351875 C34.1276875,39.114125 20.99275,36.6381875 20.957125,36.6310625 L21.4665625,33.64925" id="Fill-4" fill="#141F29" sketch:type="MSShapeGroup"></path>
                <path d="M17.68675,38.4194375 C12.9985,27.8316875 12.7099375,23.8131875 14.045875,18.986 C9.129625,27.5965625 14.92225,39.6449375 14.9365,39.6805625 L17.68675,38.4194375" id="Fill-5" fill="#141F29" sketch:type="MSShapeGroup"></path>
                <path d="M28.0571875,27.7818125 C25.3069375,21.5688125 25.1359375,19.2104375 25.9196875,16.3746875 C23.0340625,21.4334375 26.43625,28.505 26.443375,28.526375 L28.0571875,27.7818125" id="Fill-6" fill="#141F29" sketch:type="MSShapeGroup"></path>
            </g>
        </g>
    </g>
</svg>