<?xml version="1.0" encoding="UTF-8" standalone="no"?>
<svg width="139px" height="51px" viewBox="0 0 139 51" version="1.1" xmlns="http://www.w3.org/2000/svg" xmlns:xlink="http://www.w3.org/1999/xlink" xmlns:sketch="http://www.bohemiancoding.com/sketch/ns">
    <!-- Generator: Sketch 3.1.1 (8761) - http://www.bohemiancoding.com/sketch -->
    <title>i-sarten-hondo</title>
    <desc>Created with Sketch.</desc>
    <defs></defs>
    <g id="Page-1" stroke="none" stroke-width="1" fill="none" fill-rule="evenodd" sketch:type="MSPage">
        <g id="Desktop-HD" sketch:type="MSArtboardGroup" transform="translate(-689.000000, -656.000000)">
            <g id="i-sarten-hondo" sketch:type="MSLayerGroup" transform="translate(689.000000, 657.000000)">
                <path d="M19.2683022,10.8675672 C19.2683022,12.9524776 17.5728077,14.6423284 15.4809341,14.6423284 L3.80340659,14.6423284 C1.7122967,14.6423284 0.0160384615,12.9524776 0.0160384615,10.8675672 C0.0160384615,8.78341791 1.7122967,7.09280597 3.80340659,7.09280597 L15.4809341,7.09280597 C17.5728077,7.09280597 19.2683022,8.78341791 19.2683022,10.8675672" id="Fill-1" fill="#454543" sketch:type="MSShapeGroup"></path>
                <path d="M10.1149231,2.142 L10.1149231,39.5973134 C10.1149231,45.1563134 14.6370055,49.6633433 20.2145714,49.6633433 L47.3569945,49.6633433 L47.3569945,2.142 L10.1149231,2.142" id="Fill-2" fill="#DFDEDA" sketch:type="MSShapeGroup"></path>
                <path d="M51.7752088,2.142 L51.7752088,49.6633433 L78.9176319,49.6633433 C84.4959615,49.6633433 89.0172802,45.1563134 89.0172802,39.5973134 L89.0172802,2.142 L51.7752088,2.142" id="Fill-3" fill="#DFDEDA" sketch:type="MSShapeGroup"></path>
                <path d="M47.3569945,2.142 L47.3569945,49.6633433 L74.4994176,49.6633433 C80.0777473,49.6633433 84.5990659,45.1563134 84.5990659,39.5973134 L84.5990659,2.142 L47.3569945,2.142" id="Fill-4" fill="#B1B1AE" sketch:type="MSShapeGroup"></path>
                <path d="M134.464934,7.09280597 L84.5990659,7.09280597 L84.5990659,23.8771343 L93.8647143,14.6423284 L134.464934,14.6423284 C136.556808,14.6423284 138.252302,12.9524776 138.252302,10.8675672 C138.252302,8.78341791 136.556808,7.09280597 134.464934,7.09280597" id="Fill-5" fill="#454543" sketch:type="MSShapeGroup"></path>
                <path d="M90.7776923,2.142 C90.7776923,3.45810448 89.7069341,4.52529851 88.3864341,4.52529851 L11.244489,4.52529851 C9.92398901,4.52529851 8.85323077,3.45810448 8.85323077,2.142 C8.85323077,0.825134328 9.92398901,-0.242059701 11.244489,-0.242059701 L88.3864341,-0.242059701 C89.7069341,-0.242059701 90.7776923,0.825134328 90.7776923,2.142" id="Fill-6" fill="#DFDEDA" sketch:type="MSShapeGroup"></path>
                <path d="M84.5990659,-0.242059701 L47.3569945,-0.242059701 L47.3569945,4.52529851 L84.5990659,4.52529851 C85.9195659,4.52529851 86.9903242,3.45810448 86.9903242,2.142 C86.9903242,0.825134328 85.9195659,-0.242059701 84.5990659,-0.242059701" id="Fill-7" fill="#B1B1AE" sketch:type="MSShapeGroup"></path>
            </g>
        </g>
    </g>
</svg>