<?xml version="1.0" encoding="UTF-8" standalone="no"?>
<svg width="52px" height="44px" viewBox="0 0 52 44" version="1.1" xmlns="http://www.w3.org/2000/svg" xmlns:xlink="http://www.w3.org/1999/xlink" xmlns:sketch="http://www.bohemiancoding.com/sketch/ns">
    <!-- Generator: Sketch 3.1.1 (8761) - http://www.bohemiancoding.com/sketch -->
    <title>i-sazonador</title>
    <desc>Created with Sketch.</desc>
    <defs></defs>
    <g id="Page-1" stroke="none" stroke-width="1" fill="none" fill-rule="evenodd" sketch:type="MSPage">
        <g id="Desktop-HD" sketch:type="MSArtboardGroup" transform="translate(-1292.000000, -1153.000000)">
            <g id="i-sazonador" sketch:type="MSLayerGroup" transform="translate(1292.500000, 1154.000000)">
                <path d="M5.541,4.344 C3.785,4.344 2.361,5.768 2.361,7.523 L-0.183,39.148 C-0.183,40.904 1.241,42.328 2.997,42.328 L11.159,42.328 L11.159,4.344 L5.541,4.344" id="Fill-1" fill="#BB765E" sketch:type="MSShapeGroup"></path>
                <path d="M21.244,7.523 C21.244,5.768 19.82,4.344 18.064,4.344 L12.446,4.344 L12.446,42.328 L20.607,42.328 C22.364,42.328 23.788,40.904 23.788,39.148 L21.244,7.523" id="Fill-2" fill="#BB765E" sketch:type="MSShapeGroup"></path>
                <path d="M19.972,7.523 C19.972,5.768 18.549,4.344 16.792,4.344 L11.174,4.344 L11.174,42.328 L19.336,42.328 C21.092,42.328 22.516,40.904 22.516,39.148 L19.972,7.523" id="Fill-3" fill="#985B48" sketch:type="MSShapeGroup"></path>
                <path d="M18.772,-0.497 L12.432,-0.497 L12.432,8.766 L18.772,8.766 C21.329,8.766 23.402,6.692 23.402,4.134 C23.402,1.576 21.329,-0.497 18.772,-0.497" id="Fill-4" fill="#DFDEDA" sketch:type="MSShapeGroup"></path>
                <path d="M17.499,-0.497 L11.159,-0.497 L11.159,8.766 L17.499,8.766 C20.057,8.766 22.13,6.692 22.13,4.134 C22.13,1.576 20.057,-0.497 17.499,-0.497" id="Fill-5" fill="#B1B1AE" sketch:type="MSShapeGroup"></path>
                <path d="M4.819,-0.497 C2.262,-0.497 0.189,1.576 0.189,4.134 C0.189,6.692 2.262,8.766 4.819,8.766 L11.159,8.766 L11.159,-0.497 L4.819,-0.497" id="Fill-6" fill="#DFDEDA" sketch:type="MSShapeGroup"></path>
                <path d="M7.135,1.179 C7.135,1.582 6.808,1.908 6.404,1.908 C6.001,1.908 5.674,1.582 5.674,1.179 C5.674,0.775 6.001,0.448 6.404,0.448 C6.808,0.448 7.135,0.775 7.135,1.179" id="Fill-7" fill="#454543" sketch:type="MSShapeGroup"></path>
                <path d="M9.398,3.745 C9.398,4.148 9.072,4.475 8.669,4.475 C8.266,4.475 7.938,4.148 7.938,3.745 C7.938,3.342 8.266,3.015 8.669,3.015 C9.072,3.015 9.398,3.342 9.398,3.745" id="Fill-8" fill="#454543" sketch:type="MSShapeGroup"></path>
                <path d="M10.129,1.179 C10.129,1.582 9.803,1.908 9.399,1.908 C8.996,1.908 8.669,1.582 8.669,1.179 C8.669,0.775 8.996,0.448 9.399,0.448 C9.803,0.448 10.129,0.775 10.129,1.179" id="Fill-9" fill="#454543" sketch:type="MSShapeGroup"></path>
                <path d="M15.385,1.179 C15.385,1.582 15.712,1.908 16.115,1.908 C16.519,1.908 16.846,1.582 16.846,1.179 C16.846,0.775 16.519,0.448 16.115,0.448 C15.712,0.448 15.385,0.775 15.385,1.179" id="Fill-10" fill="#454543" sketch:type="MSShapeGroup"></path>
                <path d="M13.121,3.745 C13.121,4.148 13.447,4.475 13.851,4.475 C14.254,4.475 14.581,4.148 14.581,3.745 C14.581,3.342 14.254,3.015 13.851,3.015 C13.447,3.015 13.121,3.342 13.121,3.745" id="Fill-11" fill="#454543" sketch:type="MSShapeGroup"></path>
                <path d="M12.391,1.179 C12.391,1.582 12.717,1.908 13.12,1.908 C13.523,1.908 13.851,1.582 13.851,1.179 C13.851,0.775 13.523,0.448 13.12,0.448 C12.717,0.448 12.391,0.775 12.391,1.179" id="Fill-12" fill="#454543" sketch:type="MSShapeGroup"></path>
                <path d="M33.047,4.344 C31.291,4.344 29.867,5.768 29.867,7.523 L27.323,39.148 C27.323,40.904 28.747,42.328 30.504,42.328 L38.666,42.328 L38.666,4.344 L33.047,4.344" id="Fill-13" fill="#E8D3C7" sketch:type="MSShapeGroup"></path>
                <path d="M48.75,7.523 C48.75,5.768 47.326,4.344 45.57,4.344 L39.952,4.344 L39.952,42.328 L48.114,42.328 C49.87,42.328 51.294,40.904 51.294,39.148 L48.75,7.523" id="Fill-14" fill="#E8D3C7" sketch:type="MSShapeGroup"></path>
                <path d="M47.478,7.523 C47.478,5.768 46.055,4.344 44.298,4.344 L38.681,4.344 L38.681,42.328 L46.842,42.328 C48.599,42.328 50.021,40.904 50.021,39.148 L47.478,7.523" id="Fill-15" fill="#C5B5AB" sketch:type="MSShapeGroup"></path>
                <path d="M46.277,-0.497 L39.937,-0.497 L39.937,8.766 L46.277,8.766 C48.835,8.766 50.908,6.692 50.908,4.134 C50.908,1.576 48.835,-0.497 46.277,-0.497" id="Fill-16" fill="#DFDEDA" sketch:type="MSShapeGroup"></path>
                <path d="M45.006,-0.497 L38.666,-0.497 L38.666,8.766 L45.006,8.766 C47.563,8.766 49.637,6.692 49.637,4.134 C49.637,1.576 47.563,-0.497 45.006,-0.497" id="Fill-17" fill="#B1B1AE" sketch:type="MSShapeGroup"></path>
                <path d="M32.326,-0.497 C29.768,-0.497 27.695,1.576 27.695,4.134 C27.695,6.692 29.768,8.766 32.326,8.766 L38.666,8.766 L38.666,-0.497 L32.326,-0.497" id="Fill-18" fill="#DFDEDA" sketch:type="MSShapeGroup"></path>
                <path d="M34.641,1.179 C34.641,1.582 34.314,1.908 33.91,1.908 C33.507,1.908 33.181,1.582 33.181,1.179 C33.181,0.775 33.507,0.448 33.91,0.448 C34.314,0.448 34.641,0.775 34.641,1.179" id="Fill-19" fill="#454543" sketch:type="MSShapeGroup"></path>
                <path d="M36.905,3.745 C36.905,4.148 36.578,4.475 36.175,4.475 C35.771,4.475 35.445,4.148 35.445,3.745 C35.445,3.342 35.771,3.015 36.175,3.015 C36.578,3.015 36.905,3.342 36.905,3.745" id="Fill-20" fill="#454543" sketch:type="MSShapeGroup"></path>
                <path d="M37.635,1.179 C37.635,1.582 37.309,1.908 36.905,1.908 C36.502,1.908 36.175,1.582 36.175,1.179 C36.175,0.775 36.502,0.448 36.905,0.448 C37.309,0.448 37.635,0.775 37.635,1.179" id="Fill-21" fill="#454543" sketch:type="MSShapeGroup"></path>
                <path d="M42.892,1.179 C42.892,1.582 43.218,1.908 43.621,1.908 C44.025,1.908 44.352,1.582 44.352,1.179 C44.352,0.775 44.025,0.448 43.621,0.448 C43.218,0.448 42.892,0.775 42.892,1.179" id="Fill-22" fill="#454543" sketch:type="MSShapeGroup"></path>
                <path d="M40.627,3.745 C40.627,4.148 40.953,4.475 41.356,4.475 C41.761,4.475 42.087,4.148 42.087,3.745 C42.087,3.342 41.761,3.015 41.356,3.015 C40.953,3.015 40.627,3.342 40.627,3.745" id="Fill-23" fill="#454543" sketch:type="MSShapeGroup"></path>
                <path d="M39.896,1.179 C39.896,1.582 40.224,1.908 40.626,1.908 C41.03,1.908 41.356,1.582 41.356,1.179 C41.356,0.775 41.03,0.448 40.626,0.448 C40.224,0.448 39.896,0.775 39.896,1.179" id="Fill-24" fill="#454543" sketch:type="MSShapeGroup"></path>
            </g>
        </g>
    </g>
</svg>