<?xml version="1.0" encoding="UTF-8" standalone="no"?>
<svg width="87px" height="61px" viewBox="0 0 87 61" version="1.1" xmlns="http://www.w3.org/2000/svg" xmlns:xlink="http://www.w3.org/1999/xlink" xmlns:sketch="http://www.bohemiancoding.com/sketch/ns">
    <!-- Generator: Sketch 3.1.1 (8761) - http://www.bohemiancoding.com/sketch -->
    <title>i-soporte</title>
    <desc>Created with Sketch.</desc>
    <defs></defs>
    <g id="Page-1" stroke="none" stroke-width="1" fill="none" fill-rule="evenodd" sketch:type="MSPage">
        <g id="Desktop-HD" sketch:type="MSArtboardGroup" transform="translate(-392.000000, -1564.000000)">
            <g id="i-soporte" sketch:type="MSLayerGroup" transform="translate(393.500000, 1564.000000)">
                <path d="M82.3060154,45.2721304 C81.1428923,45.2721304 80.1966,44.3192174 80.1966,43.1493043 C80.1966,22.0868261 63.1807385,4.95191304 42.2659385,4.95191304 C21.3511385,4.95191304 4.33527692,22.0868261 4.33527692,43.1493043 C4.33527692,44.3192174 3.38898462,45.2721304 2.22586154,45.2721304 C1.06273846,45.2721304 0.116446154,44.3192174 0.116446154,43.1493043 C0.116446154,19.7443043 19.0235538,0.703565217 42.2659385,0.703565217 C65.5069846,0.703565217 84.4154308,19.7443043 84.4154308,43.1493043 C84.4154308,44.3192174 83.4691385,45.2721304 82.3060154,45.2721304" id="Fill-1" fill="#494340" sketch:type="MSShapeGroup"></path>
                <path d="M42.2659385,1.37747826 C65.1389077,1.37747826 83.7462,20.1163043 83.7462,43.1493043 C83.7462,43.949913 83.1010615,44.5982174 82.3060154,44.5982174 C81.5109692,44.5982174 80.8658308,43.949913 80.8658308,43.1493043 C80.8658308,21.7161739 63.5488154,4.278 42.2659385,4.278 C20.9817231,4.278 3.66604615,21.7161739 3.66604615,43.1493043 C3.66604615,43.949913 3.02090769,44.5982174 2.22586154,44.5982174 C1.42947692,44.5982174 0.785676923,43.949913 0.785676923,43.1493043 C0.785676923,20.1163043 19.3929692,1.37747826 42.2659385,1.37747826 M42.2659385,0.0296521739 C18.6554769,0.0296521739 -0.552784615,19.3723043 -0.552784615,43.1493043 C-0.552784615,44.6912174 0.693323077,45.9460435 2.22586154,45.9460435 C3.7584,45.9460435 5.00450769,44.6912174 5.00450769,43.1493043 C5.00450769,22.4588261 21.7192154,5.62582609 42.2659385,5.62582609 C62.8113231,5.62582609 79.5273692,22.4588261 79.5273692,43.1493043 C79.5273692,44.6912174 80.7734769,45.9460435 82.3060154,45.9460435 C83.8385538,45.9460435 85.0846615,44.6912174 85.0846615,43.1493043 C85.0846615,19.3723043 65.8764,0.0296521739 42.2659385,0.0296521739" id="Fill-2" fill="#131E28" sketch:type="MSShapeGroup"></path>
                <path d="M2.22586154,46.9703913 C2.22586154,48.1713043 2.89509231,49.8682174 3.92035385,50.4841739 C5.18921538,51.2483913 6.67223077,51.6877826 8.25830769,51.6877826 L8.25830769,34.6108261 C6.67223077,34.6108261 5.18921538,35.0488696 3.92035385,35.813087 C2.89509231,36.4290435 2.22586154,38.1273043 2.22586154,39.3282174 L2.22586154,46.9703913 L2.22586154,46.9703913 Z" id="Fill-3" fill="#494340" sketch:type="MSShapeGroup"></path>
                <path d="M2.22586154,46.9703913 C2.22586154,48.1713043 2.89509231,49.8682174 3.92035385,50.4841739 C5.18921538,51.2483913 6.67223077,51.6877826 8.25830769,51.6877826 L8.25830769,34.6108261 C6.67223077,34.6108261 5.18921538,35.0488696 3.92035385,35.813087 C2.89509231,36.4290435 2.22586154,38.1273043 2.22586154,39.3282174 L2.22586154,46.9703913 L2.22586154,46.9703913 Z" id="Stroke-4" stroke="#131E28" sketch:type="MSShapeGroup"></path>
                <path d="M9.44284615,56.955087 C7.5342,56.955087 5.98292308,55.3929565 5.98292308,53.4723043 L5.98292308,32.8263043 C5.98292308,30.9043043 7.5342,29.3421739 9.44284615,29.3421739 L10.6983231,29.3421739 C12.6042923,29.3421739 14.1569077,30.9043043 14.1569077,32.8263043 L14.1569077,53.4723043 C14.1569077,55.3929565 12.6042923,56.955087 10.6983231,56.955087 L9.44284615,56.955087" id="Fill-5" fill="#494340" sketch:type="MSShapeGroup"></path>
                <path d="M10.6983231,30.016087 C12.2388923,30.016087 13.4876769,31.2736087 13.4876769,32.8263043 L13.4876769,53.4723043 C13.4876769,55.0236522 12.2388923,56.2811739 10.6983231,56.2811739 L9.44284615,56.2811739 C7.90227692,56.2811739 6.65215385,55.0236522 6.65215385,53.4723043 L6.65215385,32.8263043 C6.65215385,31.2736087 7.90227692,30.016087 9.44284615,30.016087 L10.6983231,30.016087 M10.6983231,28.6682609 L9.44284615,28.6682609 C7.16612308,28.6682609 5.31369231,30.5336522 5.31369231,32.8263043 L5.31369231,53.4723043 C5.31369231,55.7649565 7.16612308,57.629 9.44284615,57.629 L10.6983231,57.629 C12.9737077,57.629 14.8261385,55.7649565 14.8261385,53.4723043 L14.8261385,32.8263043 C14.8261385,30.5336522 12.9737077,28.6682609 10.6983231,28.6682609" id="Fill-6" fill="#131E28" sketch:type="MSShapeGroup"></path>
                <path d="M55.2356308,56.3539565 L55.8754154,56.1558261 C64.5125077,53.4803913 73.2151846,46.4353043 73.5819231,46.136087 L74.0985692,45.7142174 L75.8586462,47.8761304 L75.3406615,48.3020435 C74.9605385,48.6133913 65.9580462,55.9617391 56.6918769,58.829913 L56.0520923,59.0280435 L55.2356308,56.3539565" id="Fill-7" fill="#494340" sketch:type="MSShapeGroup"></path>
                <path d="M74.0035385,46.6590435 L74.9163692,47.7804348 C74.5429385,48.0877391 65.6689385,55.3457826 56.4964615,58.1856522 L56.0721692,56.800087 C64.9689231,54.0437826 73.9152,46.7304783 74.0035385,46.6590435 M74.1976154,44.7680435 L73.1629846,45.6104348 L73.1603077,45.6117826 C72.7989231,45.9083043 64.1926154,52.8738696 55.6786615,55.5102174 L54.3990923,55.9078261 L55.6104,59.8704348 L56.8886308,59.4755217 C66.2792769,56.566913 75.3794769,49.1403913 75.7636154,48.825 L76.8009231,47.9704783 L74.1976154,44.7680435" id="Fill-8" fill="#131E28" sketch:type="MSShapeGroup"></path>
                <path d="M54.5021538,60.0483478 C53.5103538,60.0483478 52.6644462,59.3676957 52.4462769,58.3932174 L52.3659692,58.040087 C52.1089846,56.8998261 52.8210462,55.7582174 53.9547231,55.498087 L56.1805846,54.9899565 C56.3331692,54.954913 56.4911077,54.9373913 56.6477077,54.9373913 C57.6381692,54.9373913 58.4840769,55.6166957 58.7035846,56.5911739 L58.7838923,56.9443043 C58.9083692,57.4982609 58.812,58.0670435 58.5108462,58.5482174 C58.2110308,59.0266957 57.7425692,59.3609565 57.1924615,59.4876522 L54.9692769,59.9957826 C54.8153538,60.0308261 54.6574154,60.0483478 54.5021538,60.0483478" id="Fill-9" fill="#494340" sketch:type="MSShapeGroup"></path>
                <path d="M56.6477077,55.6113043 C57.3048923,55.6113043 57.8991692,56.0668696 58.0517538,56.7407826 L58.1307231,57.093913 C58.3074,57.8756522 57.8215385,58.652 57.0452308,58.829913 L54.8220462,59.3380435 C54.7136308,59.3623043 54.6065538,59.3744348 54.5021538,59.3744348 C53.8436308,59.3744348 53.2493538,58.9175217 53.0981077,58.2449565 L53.0191385,57.8918261 C52.8424615,57.110087 53.3269846,56.3337391 54.1032923,56.1558261 L56.3278154,55.6476957 C56.4362308,55.6234348 56.5419692,55.6113043 56.6477077,55.6113043 M56.6477077,54.2634783 L56.6477077,54.2634783 C56.4415846,54.2634783 56.2341231,54.2863913 56.0320154,54.3322174 L53.8074923,54.8403478 C52.3124308,55.1840435 51.3741692,56.6868696 51.7141385,58.1896957 L51.7931077,58.5428261 C52.0808769,59.8259565 53.1944769,60.7222609 54.5021538,60.7222609 C54.7082769,60.7222609 54.9157385,60.698 55.1178462,60.6521739 L57.3410308,60.1440435 C58.0651385,59.9782609 58.6821692,59.5388696 59.0783538,58.9067391 C59.4732,58.2732609 59.6003538,57.5238696 59.4357231,56.7946957 L59.3567538,56.4415652 C59.0663077,55.1584348 57.9527077,54.2634783 56.6477077,54.2634783" id="Fill-10" fill="#131E28" sketch:type="MSShapeGroup"></path>
                <path d="M82.3060154,46.9703913 C82.3060154,48.1713043 81.6354462,49.8682174 80.6115231,50.4841739 C79.3426615,51.2483913 77.8583077,51.6877826 76.2722308,51.6877826 L76.2722308,34.6108261 C77.8583077,34.6108261 79.3426615,35.0488696 80.6115231,35.813087 C81.6354462,36.4290435 82.3060154,38.1273043 82.3060154,39.3282174 L82.3060154,46.9703913 L82.3060154,46.9703913 Z" id="Fill-11" fill="#494340" sketch:type="MSShapeGroup"></path>
                <path d="M82.3060154,46.9703913 C82.3060154,48.1713043 81.6354462,49.8682174 80.6115231,50.4841739 C79.3426615,51.2483913 77.8583077,51.6877826 76.2722308,51.6877826 L76.2722308,34.6108261 C77.8583077,34.6108261 79.3426615,35.0488696 80.6115231,35.813087 C81.6354462,36.4290435 82.3060154,38.1273043 82.3060154,39.3282174 L82.3060154,46.9703913 L82.3060154,46.9703913 Z" id="Stroke-12" stroke="#131E28" sketch:type="MSShapeGroup"></path>
                <path d="M73.8335538,56.955087 C71.9262462,56.955087 70.3749692,55.3929565 70.3749692,53.4723043 L70.3749692,32.8263043 C70.3749692,30.9043043 71.9262462,29.3421739 73.8335538,29.3421739 L75.0876923,29.3421739 C76.995,29.3421739 78.5476154,30.9043043 78.5476154,32.8263043 L78.5476154,53.4723043 C78.5476154,55.3929565 76.995,56.955087 75.0876923,56.955087 L73.8335538,56.955087" id="Fill-13" fill="#494340" sketch:type="MSShapeGroup"></path>
                <path d="M75.0876923,30.016087 C76.6282615,30.016087 77.8783846,31.2736087 77.8783846,32.8263043 L77.8783846,53.4723043 C77.8783846,55.0236522 76.6282615,56.2811739 75.0876923,56.2811739 L73.8335538,56.2811739 C72.2916462,56.2811739 71.0442,55.0236522 71.0442,53.4723043 L71.0442,32.8263043 C71.0442,31.2736087 72.2916462,30.016087 73.8335538,30.016087 L75.0876923,30.016087 M75.0876923,28.6682609 L73.8335538,28.6682609 C71.5568308,28.6682609 69.7057385,30.5336522 69.7057385,32.8263043 L69.7057385,53.4723043 C69.7057385,55.7649565 71.5568308,57.629 73.8335538,57.629 L75.0876923,57.629 C77.3644154,57.629 79.2168462,55.7649565 79.2168462,53.4723043 L79.2168462,32.8263043 C79.2168462,30.5336522 77.3644154,28.6682609 75.0876923,28.6682609" id="Fill-14" fill="#131E28" sketch:type="MSShapeGroup"></path>
            </g>
        </g>
    </g>
</svg>