<?xml version="1.0" encoding="UTF-8" standalone="no"?>
<svg width="55px" height="113px" viewBox="0 0 55 113" version="1.1" xmlns="http://www.w3.org/2000/svg" xmlns:xlink="http://www.w3.org/1999/xlink" xmlns:sketch="http://www.bohemiancoding.com/sketch/ns">
    <!-- Generator: Sketch 3.1.1 (8761) - http://www.bohemiancoding.com/sketch -->
    <title>i-termometro</title>
    <desc>Created with Sketch.</desc>
    <defs></defs>
    <g id="Page-1" stroke="none" stroke-width="1" fill="none" fill-rule="evenodd" sketch:type="MSPage">
        <g id="Desktop-HD" sketch:type="MSArtboardGroup" transform="translate(-1140.000000, -1110.000000)">
            <g id="i-termometro" sketch:type="MSLayerGroup" transform="translate(1140.500000, 1111.000000)">
                <path d="M23.818,109.824 C23.818,110.977 24.754,111.912 25.906,111.912 C27.06,111.912 27.994,110.977 27.994,109.824 L27.994,8.74 C27.994,7.587 27.06,6.652 25.906,6.652 C24.754,6.652 23.818,7.587 23.818,8.74 L23.818,109.824" id="Fill-1" fill="#DFDEDA" sketch:type="MSShapeGroup"></path>
                <path d="M0.411,25.205 C0.411,39.286 11.825,50.701 25.906,50.701 L25.906,-0.291 C11.825,-0.291 0.411,11.124 0.411,25.205" id="Fill-2" fill="#DFDEDA" sketch:type="MSShapeGroup"></path>
                <path d="M28.544,-0.291 L28.544,50.701 C42.625,50.701 54.04,39.286 54.04,25.205 C54.04,11.124 42.625,-0.291 28.544,-0.291" id="Fill-3" fill="#DFDEDA" sketch:type="MSShapeGroup"></path>
                <path d="M25.906,-0.291 L25.906,50.701 C39.988,50.701 51.402,39.286 51.402,25.205 C51.402,11.124 39.988,-0.291 25.906,-0.291" id="Fill-4" fill="#B1B1AE" sketch:type="MSShapeGroup"></path>
                <path d="M46.714,25.205 C46.714,36.697 37.399,46.013 25.906,46.013 C14.415,46.013 5.1,36.697 5.1,25.205 C5.1,13.714 14.415,4.398 25.906,4.398 C37.399,4.398 46.714,13.714 46.714,25.205" id="Fill-5" fill="#FFFFFF" sketch:type="MSShapeGroup"></path>
                <path d="M28.031,25.205 C28.031,26.379 27.08,27.33 25.906,27.33 C24.733,27.33 23.781,26.379 23.781,25.205 C23.781,24.031 24.733,23.08 25.906,23.08 C27.08,23.08 28.031,24.031 28.031,25.205" id="Fill-6" fill="#454543" sketch:type="MSShapeGroup"></path>
                <path d="M7.715,25.205 C7.715,34.354 14.475,41.904 23.27,43.185 L23.27,37.402 C17.644,36.192 13.424,31.193 13.424,25.205 C13.424,18.311 19.013,12.723 25.906,12.723 L25.906,7.014 C15.859,7.014 7.715,15.157 7.715,25.205" id="Fill-7" fill="#58A0CB" sketch:type="MSShapeGroup"></path>
                <path d="M25.906,7.014 L25.906,12.723 C32.801,12.723 38.389,18.311 38.389,25.205 C38.389,31.193 34.17,36.192 28.544,37.402 L28.544,43.185 C37.338,41.904 44.099,34.354 44.099,25.205 C44.099,15.157 35.954,7.014 25.906,7.014" id="Fill-8" fill="#D14F2A" sketch:type="MSShapeGroup"></path>
                <path d="M25.906,14.326 L25.906,9.71 M29.373,14.93 L30.846,10.555 M32.466,16.607 L35.257,12.933 M34.861,19.185 L38.68,16.593 M36.309,22.393 L40.755,21.154 M36.657,25.894 L41.266,26.141 M35.869,29.324 L40.158,31.028 M34.027,32.322 L37.549,35.307 M31.326,34.577 L33.71,38.529 M28.045,35.852 L29.044,40.357 M24.529,36.012 L24.037,40.601 M21.146,35.042 L19.216,39.234 M18.25,33.042 L15.083,36.4 M16.145,30.224 L12.07,32.394 M15.048,26.88 L10.493,27.638 M15.076,23.361 L10.518,22.625 M16.226,20.035 L12.14,17.884 M18.376,17.25 L15.191,13.907 M21.303,15.298 L19.352,11.113" id="Stroke-11" stroke="#FFFFFF" stroke-width="0.879" stroke-linecap="round" stroke-linejoin="round" sketch:type="MSShapeGroup"></path>
            </g>
        </g>
    </g>
</svg>