<?xml version="1.0" encoding="UTF-8" standalone="no"?>
<svg width="83px" height="91px" viewBox="0 0 83 91" version="1.1" xmlns="http://www.w3.org/2000/svg" xmlns:xlink="http://www.w3.org/1999/xlink" xmlns:sketch="http://www.bohemiancoding.com/sketch/ns">
    <!-- Generator: Sketch 3.1.1 (8761) - http://www.bohemiancoding.com/sketch -->
    <title>i-unicos</title>
    <desc>Created with Sketch.</desc>
    <defs></defs>
    <g id="Page-1" stroke="none" stroke-width="1" fill="none" fill-rule="evenodd" sketch:type="MSPage">
        <g id="Desktop-HD" sketch:type="MSArtboardGroup" transform="translate(-384.000000, -1395.000000)">
            <g id="i-unicos" sketch:type="MSLayerGroup" transform="translate(385.000000, 1396.000000)">
                <path d="M61.108,14.333 C61.108,22.039 55.812,28.287 49.278,28.287 C42.745,28.287 37.448,22.039 37.448,14.333 C37.448,6.628 42.745,0.381 49.278,0.381 C55.812,0.381 61.108,6.628 61.108,14.333 L61.108,14.333 Z" id="Fill-1" fill="#FCD68B" sketch:type="MSShapeGroup"></path>
                <path d="M61.108,14.333 C61.108,22.039 55.812,28.287 49.278,28.287 C42.745,28.287 37.448,22.039 37.448,14.333 C37.448,6.628 42.745,0.381 49.278,0.381 C55.812,0.381 61.108,6.628 61.108,14.333 L61.108,14.333 Z" id="Stroke-2" stroke="#131E28" stroke-width="2" sketch:type="MSShapeGroup"></path>
                <path d="M49.085,11.227 C49.085,11.538 48.833,11.79 48.523,11.79 C48.212,11.79 47.96,11.538 47.96,11.227 C47.96,10.917 48.212,10.665 48.523,10.665 C48.833,10.665 49.085,10.917 49.085,11.227" id="Fill-3" fill="#D6AB5D" sketch:type="MSShapeGroup"></path>
                <path d="M46.417,14.624 C46.417,14.785 46.286,14.915 46.125,14.915 C45.965,14.915 45.835,14.785 45.835,14.624 C45.835,14.464 45.965,14.334 46.125,14.334 C46.286,14.334 46.417,14.464 46.417,14.624" id="Fill-4" fill="#D6AB5D" sketch:type="MSShapeGroup"></path>
                <path d="M45.835,19.477 C45.835,19.787 45.583,20.039 45.273,20.039 C44.962,20.039 44.71,19.787 44.71,19.477 C44.71,19.166 44.962,18.914 45.273,18.914 C45.583,18.914 45.835,19.166 45.835,19.477" id="Fill-5" fill="#D6AB5D" sketch:type="MSShapeGroup"></path>
                <path d="M52.085,11.508 C52.085,11.664 51.959,11.79 51.804,11.79 C51.649,11.79 51.523,11.664 51.523,11.508 C51.523,11.353 51.649,11.227 51.804,11.227 C51.959,11.227 52.085,11.353 52.085,11.508" id="Fill-6" fill="#D6AB5D" sketch:type="MSShapeGroup"></path>
                <path d="M50.21,14.13 C50.21,14.388 50.002,14.597 49.745,14.597 C49.487,14.597 49.278,14.388 49.278,14.13 C49.278,13.873 49.487,13.665 49.745,13.665 C50.002,13.665 50.21,13.873 50.21,14.13" id="Fill-7" fill="#D6AB5D" sketch:type="MSShapeGroup"></path>
                <path d="M51.804,23.836 C51.804,24.069 51.616,24.258 51.382,24.258 C51.149,24.258 50.96,24.069 50.96,23.836 C50.96,23.603 51.149,23.414 51.382,23.414 C51.616,23.414 51.804,23.603 51.804,23.836" id="Fill-8" fill="#D6AB5D" sketch:type="MSShapeGroup"></path>
                <path d="M52.273,22.164 C52.273,22.371 52.105,22.539 51.898,22.539 C51.691,22.539 51.523,22.371 51.523,22.164 C51.523,21.957 51.691,21.789 51.898,21.789 C52.105,21.789 52.273,21.957 52.273,22.164" id="Fill-9" fill="#D6AB5D" sketch:type="MSShapeGroup"></path>
                <path d="M54.753,16.289 C54.753,16.566 54.53,16.789 54.253,16.789 C53.977,16.789 53.753,16.566 53.753,16.289 C53.753,16.014 53.977,15.789 54.253,15.789 C54.53,15.789 54.753,16.014 54.753,16.289" id="Fill-10" fill="#D6AB5D" sketch:type="MSShapeGroup"></path>
                <path d="M48.398,19.383 C48.398,19.643 48.188,19.852 47.929,19.852 C47.67,19.852 47.46,19.643 47.46,19.383 C47.46,19.125 47.67,18.914 47.929,18.914 C48.188,18.914 48.398,19.125 48.398,19.383" id="Fill-11" fill="#D6AB5D" sketch:type="MSShapeGroup"></path>
                <path d="M47.46,21.563 C47.46,21.85 47.227,22.084 46.938,22.084 C46.65,22.084 46.417,21.85 46.417,21.563 C46.417,21.273 46.65,21.039 46.938,21.039 C47.227,21.039 47.46,21.273 47.46,21.563" id="Fill-12" fill="#D6AB5D" sketch:type="MSShapeGroup"></path>
                <path d="M10.454,71.965 C10.454,64.259 15.75,58.012 22.284,58.012 C28.817,58.012 34.114,64.259 34.114,71.965 C34.114,79.67 28.817,85.918 22.284,85.918 C15.75,85.918 10.454,79.67 10.454,71.965 L10.454,71.965 Z" id="Fill-13" fill="#FCD68B" sketch:type="MSShapeGroup"></path>
                <path d="M10.454,71.965 C10.454,64.259 15.75,58.012 22.284,58.012 C28.817,58.012 34.114,64.259 34.114,71.965 C34.114,79.67 28.817,85.918 22.284,85.918 C15.75,85.918 10.454,79.67 10.454,71.965 L10.454,71.965 Z" id="Stroke-14" stroke="#131E28" stroke-width="2" sketch:type="MSShapeGroup"></path>
                <path d="M26.852,76.446 C26.852,76.205 27.047,76.009 27.289,76.009 C27.531,76.009 27.727,76.205 27.727,76.446 C27.727,76.687 27.531,76.884 27.289,76.884 C27.047,76.884 26.852,76.687 26.852,76.446" id="Fill-15" fill="#D6AB5D" sketch:type="MSShapeGroup"></path>
                <path d="M22.727,79.946 C22.727,79.705 22.922,79.509 23.164,79.509 C23.406,79.509 23.602,79.705 23.602,79.946 C23.602,80.188 23.406,80.384 23.164,80.384 C22.922,80.384 22.727,80.188 22.727,79.946" id="Fill-16" fill="#D6AB5D" sketch:type="MSShapeGroup"></path>
                <path d="M22.477,75.071 C22.477,74.761 22.728,74.509 23.039,74.509 C23.35,74.509 23.602,74.761 23.602,75.071 C23.602,75.382 23.35,75.634 23.039,75.634 C22.728,75.634 22.477,75.382 22.477,75.071" id="Fill-17" fill="#D6AB5D" sketch:type="MSShapeGroup"></path>
                <path d="M25.146,71.674 C25.146,71.514 25.276,71.384 25.437,71.384 C25.597,71.384 25.727,71.514 25.727,71.674 C25.727,71.834 25.597,71.965 25.437,71.965 C25.276,71.965 25.146,71.834 25.146,71.674" id="Fill-18" fill="#D6AB5D" sketch:type="MSShapeGroup"></path>
                <path d="M25.727,66.821 C25.727,66.511 25.979,66.259 26.289,66.259 C26.6,66.259 26.852,66.511 26.852,66.821 C26.852,67.132 26.6,67.384 26.289,67.384 C25.979,67.384 25.727,67.132 25.727,66.821" id="Fill-19" fill="#D6AB5D" sketch:type="MSShapeGroup"></path>
                <path d="M19.477,77.446 C19.477,77.136 19.729,76.884 20.039,76.884 C20.35,76.884 20.602,77.136 20.602,77.446 C20.602,77.757 20.35,78.009 20.039,78.009 C19.729,78.009 19.477,77.757 19.477,77.446" id="Fill-20" fill="#D6AB5D" sketch:type="MSShapeGroup"></path>
                <path d="M19.477,74.79 C19.477,74.635 19.602,74.509 19.758,74.509 C19.913,74.509 20.039,74.635 20.039,74.79 C20.039,74.945 19.913,75.071 19.758,75.071 C19.602,75.071 19.477,74.945 19.477,74.79" id="Fill-21" fill="#D6AB5D" sketch:type="MSShapeGroup"></path>
                <path d="M21.352,72.168 C21.352,71.91 21.56,71.701 21.817,71.701 C22.075,71.701 22.284,71.91 22.284,72.168 C22.284,72.426 22.075,72.634 21.817,72.634 C21.56,72.634 21.352,72.426 21.352,72.168" id="Fill-22" fill="#D6AB5D" sketch:type="MSShapeGroup"></path>
                <path d="M19.758,62.462 C19.758,62.228 19.947,62.04 20.18,62.04 C20.413,62.04 20.602,62.228 20.602,62.462 C20.602,62.695 20.413,62.884 20.18,62.884 C19.947,62.884 19.758,62.695 19.758,62.462" id="Fill-23" fill="#D6AB5D" sketch:type="MSShapeGroup"></path>
                <path d="M19.289,64.134 C19.289,63.927 19.457,63.759 19.664,63.759 C19.871,63.759 20.039,63.927 20.039,64.134 C20.039,64.341 19.871,64.509 19.664,64.509 C19.457,64.509 19.289,64.341 19.289,64.134" id="Fill-24" fill="#D6AB5D" sketch:type="MSShapeGroup"></path>
                <path d="M16.809,70.009 C16.809,69.732 17.032,69.509 17.309,69.509 C17.584,69.509 17.809,69.732 17.809,70.009 C17.809,70.285 17.584,70.509 17.309,70.509 C17.032,70.509 16.809,70.285 16.809,70.009" id="Fill-25" fill="#D6AB5D" sketch:type="MSShapeGroup"></path>
                <path d="M23.164,66.915 C23.164,66.656 23.374,66.446 23.633,66.446 C23.892,66.446 24.102,66.656 24.102,66.915 C24.102,67.174 23.892,67.384 23.633,67.384 C23.374,67.384 23.164,67.174 23.164,66.915" id="Fill-26" fill="#D6AB5D" sketch:type="MSShapeGroup"></path>
                <path d="M24.102,64.736 C24.102,64.448 24.335,64.215 24.624,64.215 C24.912,64.215 25.146,64.448 25.146,64.736 C25.146,65.025 24.912,65.259 24.624,65.259 C24.335,65.259 24.102,65.025 24.102,64.736" id="Fill-27" fill="#D6AB5D" sketch:type="MSShapeGroup"></path>
                <path d="M70.06,28.287 C70.06,35.992 64.764,42.24 58.23,42.24 C51.696,42.24 46.399,35.992 46.399,28.287 C46.399,20.581 51.696,14.334 58.23,14.334 C64.764,14.334 70.06,20.581 70.06,28.287 L70.06,28.287 Z" id="Fill-28" fill="#D6AB5D" sketch:type="MSShapeGroup"></path>
                <path d="M70.06,28.287 C70.06,35.992 64.764,42.24 58.23,42.24 C51.696,42.24 46.399,35.992 46.399,28.287 C46.399,20.581 51.696,14.334 58.23,14.334 C64.764,14.334 70.06,20.581 70.06,28.287 L70.06,28.287 Z" id="Stroke-29" stroke="#131E28" stroke-width="2" sketch:type="MSShapeGroup"></path>
                <path d="M53.663,23.805 C53.663,24.047 53.466,24.242 53.225,24.242 C52.983,24.242 52.788,24.047 52.788,23.805 C52.788,23.564 52.983,23.367 53.225,23.367 C53.466,23.367 53.663,23.564 53.663,23.805" id="Fill-30" fill="#FCD68B" sketch:type="MSShapeGroup"></path>
                <path d="M57.788,20.305 C57.788,20.547 57.591,20.742 57.35,20.742 C57.108,20.742 56.913,20.547 56.913,20.305 C56.913,20.063 57.108,19.867 57.35,19.867 C57.591,19.867 57.788,20.063 57.788,20.305" id="Fill-31" fill="#FCD68B" sketch:type="MSShapeGroup"></path>
                <path d="M58.038,25.18 C58.038,25.49 57.786,25.742 57.475,25.742 C57.165,25.742 56.913,25.49 56.913,25.18 C56.913,24.869 57.165,24.617 57.475,24.617 C57.786,24.617 58.038,24.869 58.038,25.18" id="Fill-32" fill="#FCD68B" sketch:type="MSShapeGroup"></path>
                <path d="M55.368,28.578 C55.368,28.738 55.238,28.867 55.077,28.867 C54.916,28.867 54.788,28.738 54.788,28.578 C54.788,28.417 54.916,28.287 55.077,28.287 C55.238,28.287 55.368,28.417 55.368,28.578" id="Fill-33" fill="#FCD68B" sketch:type="MSShapeGroup"></path>
                <path d="M54.788,33.43 C54.788,33.74 54.536,33.992 54.225,33.992 C53.915,33.992 53.663,33.74 53.663,33.43 C53.663,33.119 53.915,32.867 54.225,32.867 C54.536,32.867 54.788,33.119 54.788,33.43" id="Fill-34" fill="#FCD68B" sketch:type="MSShapeGroup"></path>
                <path d="M61.038,22.805 C61.038,23.115 60.786,23.367 60.475,23.367 C60.165,23.367 59.913,23.115 59.913,22.805 C59.913,22.494 60.165,22.242 60.475,22.242 C60.786,22.242 61.038,22.494 61.038,22.805" id="Fill-35" fill="#FCD68B" sketch:type="MSShapeGroup"></path>
                <path d="M61.038,25.461 C61.038,25.617 60.911,25.742 60.756,25.742 C60.6,25.742 60.475,25.617 60.475,25.461 C60.475,25.307 60.6,25.18 60.756,25.18 C60.911,25.18 61.038,25.307 61.038,25.461" id="Fill-36" fill="#FCD68B" sketch:type="MSShapeGroup"></path>
                <path d="M59.163,28.084 C59.163,28.342 58.954,28.55 58.696,28.55 C58.438,28.55 58.23,28.342 58.23,28.084 C58.23,27.826 58.438,27.617 58.696,27.617 C58.954,27.617 59.163,27.826 59.163,28.084" id="Fill-37" fill="#FCD68B" sketch:type="MSShapeGroup"></path>
                <path d="M60.756,37.789 C60.756,38.022 60.567,38.211 60.334,38.211 C60.101,38.211 59.913,38.022 59.913,37.789 C59.913,37.557 60.101,37.367 60.334,37.367 C60.567,37.367 60.756,37.557 60.756,37.789" id="Fill-38" fill="#FCD68B" sketch:type="MSShapeGroup"></path>
                <path d="M61.225,36.117 C61.225,36.324 61.057,36.492 60.85,36.492 C60.643,36.492 60.475,36.324 60.475,36.117 C60.475,35.91 60.643,35.742 60.85,35.742 C61.057,35.742 61.225,35.91 61.225,36.117" id="Fill-39" fill="#FCD68B" sketch:type="MSShapeGroup"></path>
                <path d="M63.706,30.242 C63.706,30.519 63.481,30.742 63.206,30.742 C62.929,30.742 62.706,30.519 62.706,30.242 C62.706,29.967 62.929,29.742 63.206,29.742 C63.481,29.742 63.706,29.967 63.706,30.242" id="Fill-40" fill="#FCD68B" sketch:type="MSShapeGroup"></path>
                <path d="M57.35,33.336 C57.35,33.596 57.139,33.805 56.881,33.805 C56.622,33.805 56.413,33.596 56.413,33.336 C56.413,33.078 56.622,32.867 56.881,32.867 C57.139,32.867 57.35,33.078 57.35,33.336" id="Fill-41" fill="#FCD68B" sketch:type="MSShapeGroup"></path>
                <path d="M56.413,35.516 C56.413,35.803 56.178,36.037 55.889,36.037 C55.602,36.037 55.368,35.803 55.368,35.516 C55.368,35.227 55.602,34.992 55.889,34.992 C56.178,34.992 56.413,35.227 56.413,35.516" id="Fill-42" fill="#FCD68B" sketch:type="MSShapeGroup"></path>
                <path d="M80.415,43.822 C80.415,51.527 75.118,57.775 68.585,57.775 C62.05,57.775 56.753,51.527 56.753,43.822 C56.753,36.116 62.05,29.869 68.585,29.869 C75.118,29.869 80.415,36.116 80.415,43.822 L80.415,43.822 Z" id="Fill-43" fill="#FCD68B" sketch:type="MSShapeGroup"></path>
                <path d="M80.415,43.822 C80.415,51.527 75.118,57.775 68.585,57.775 C62.05,57.775 56.753,51.527 56.753,43.822 C56.753,36.116 62.05,29.869 68.585,29.869 C75.118,29.869 80.415,36.116 80.415,43.822 L80.415,43.822 Z" id="Stroke-44" stroke="#131E28" stroke-width="2" sketch:type="MSShapeGroup"></path>
                <path d="M64.016,39.34 C64.016,39.582 63.821,39.777 63.579,39.777 C63.336,39.777 63.141,39.582 63.141,39.34 C63.141,39.099 63.336,38.902 63.579,38.902 C63.821,38.902 64.016,39.099 64.016,39.34" id="Fill-45" fill="#D6AB5D" sketch:type="MSShapeGroup"></path>
                <path d="M68.141,35.84 C68.141,36.082 67.946,36.277 67.704,36.277 C67.461,36.277 67.266,36.082 67.266,35.84 C67.266,35.599 67.461,35.402 67.704,35.402 C67.946,35.402 68.141,35.599 68.141,35.84" id="Fill-46" fill="#D6AB5D" sketch:type="MSShapeGroup"></path>
                <path d="M68.391,40.715 C68.391,41.025 68.139,41.277 67.829,41.277 C67.518,41.277 67.266,41.025 67.266,40.715 C67.266,40.404 67.518,40.152 67.829,40.152 C68.139,40.152 68.391,40.404 68.391,40.715" id="Fill-47" fill="#D6AB5D" sketch:type="MSShapeGroup"></path>
                <path d="M65.721,44.113 C65.721,44.273 65.592,44.402 65.431,44.402 C65.271,44.402 65.141,44.273 65.141,44.113 C65.141,43.952 65.271,43.822 65.431,43.822 C65.592,43.822 65.721,43.952 65.721,44.113" id="Fill-48" fill="#D6AB5D" sketch:type="MSShapeGroup"></path>
                <path d="M65.141,48.965 C65.141,49.275 64.889,49.527 64.579,49.527 C64.268,49.527 64.016,49.275 64.016,48.965 C64.016,48.654 64.268,48.402 64.579,48.402 C64.889,48.402 65.141,48.654 65.141,48.965" id="Fill-49" fill="#D6AB5D" sketch:type="MSShapeGroup"></path>
                <path d="M71.391,38.34 C71.391,38.65 71.139,38.902 70.829,38.902 C70.518,38.902 70.266,38.65 70.266,38.34 C70.266,38.029 70.518,37.777 70.829,37.777 C71.139,37.777 71.391,38.029 71.391,38.34" id="Fill-50" fill="#D6AB5D" sketch:type="MSShapeGroup"></path>
                <path d="M71.391,40.996 C71.391,41.152 71.265,41.277 71.11,41.277 C70.955,41.277 70.829,41.152 70.829,40.996 C70.829,40.842 70.955,40.715 71.11,40.715 C71.265,40.715 71.391,40.842 71.391,40.996" id="Fill-51" fill="#D6AB5D" sketch:type="MSShapeGroup"></path>
                <path d="M69.516,43.619 C69.516,43.877 69.307,44.085 69.05,44.085 C68.792,44.085 68.585,43.877 68.585,43.619 C68.585,43.361 68.792,43.152 69.05,43.152 C69.307,43.152 69.516,43.361 69.516,43.619" id="Fill-52" fill="#D6AB5D" sketch:type="MSShapeGroup"></path>
                <path d="M71.11,53.324 C71.11,53.558 70.92,53.746 70.688,53.746 C70.456,53.746 70.266,53.558 70.266,53.324 C70.266,53.092 70.456,52.902 70.688,52.902 C70.92,52.902 71.11,53.092 71.11,53.324" id="Fill-53" fill="#D6AB5D" sketch:type="MSShapeGroup"></path>
                <path d="M71.579,51.652 C71.579,51.859 71.411,52.027 71.204,52.027 C70.997,52.027 70.829,51.859 70.829,51.652 C70.829,51.445 70.997,51.277 71.204,51.277 C71.411,51.277 71.579,51.445 71.579,51.652" id="Fill-54" fill="#D6AB5D" sketch:type="MSShapeGroup"></path>
                <path d="M74.059,45.777 C74.059,46.055 73.835,46.277 73.559,46.277 C73.284,46.277 73.059,46.055 73.059,45.777 C73.059,45.502 73.284,45.277 73.559,45.277 C73.835,45.277 74.059,45.502 74.059,45.777" id="Fill-55" fill="#D6AB5D" sketch:type="MSShapeGroup"></path>
                <path d="M67.704,48.871 C67.704,49.131 67.494,49.34 67.235,49.34 C66.976,49.34 66.766,49.131 66.766,48.871 C66.766,48.613 66.976,48.402 67.235,48.402 C67.494,48.402 67.704,48.613 67.704,48.871" id="Fill-56" fill="#D6AB5D" sketch:type="MSShapeGroup"></path>
                <path d="M66.766,51.051 C66.766,51.338 66.532,51.572 66.244,51.572 C65.956,51.572 65.721,51.338 65.721,51.051 C65.721,50.762 65.956,50.527 66.244,50.527 C66.532,50.527 66.766,50.762 66.766,51.051" id="Fill-57" fill="#D6AB5D" sketch:type="MSShapeGroup"></path>
                <path d="M0.022,43.932 C0.022,36.227 5.318,29.978 11.852,29.978 C18.386,29.978 23.683,36.227 23.683,43.932 C23.683,51.638 18.386,57.885 11.852,57.885 C5.318,57.885 0.022,51.638 0.022,43.932 L0.022,43.932 Z" id="Fill-58" fill="#FCD68B" sketch:type="MSShapeGroup"></path>
                <path d="M0.022,43.932 C0.022,36.227 5.318,29.978 11.852,29.978 C18.386,29.978 23.683,36.227 23.683,43.932 C23.683,51.638 18.386,57.885 11.852,57.885 C5.318,57.885 0.022,51.638 0.022,43.932 L0.022,43.932 Z" id="Stroke-59" stroke="#131E28" stroke-width="2" sketch:type="MSShapeGroup"></path>
                <path d="M16.42,48.414 C16.42,48.172 16.616,47.977 16.857,47.977 C17.099,47.977 17.295,48.172 17.295,48.414 C17.295,48.655 17.099,48.852 16.857,48.852 C16.616,48.852 16.42,48.655 16.42,48.414" id="Fill-60" fill="#D6AB5D" sketch:type="MSShapeGroup"></path>
                <path d="M12.295,51.914 C12.295,51.672 12.491,51.477 12.732,51.477 C12.974,51.477 13.17,51.672 13.17,51.914 C13.17,52.155 12.974,52.352 12.732,52.352 C12.491,52.352 12.295,52.155 12.295,51.914" id="Fill-61" fill="#D6AB5D" sketch:type="MSShapeGroup"></path>
                <path d="M12.045,47.039 C12.045,46.728 12.297,46.477 12.607,46.477 C12.918,46.477 13.17,46.728 13.17,47.039 C13.17,47.35 12.918,47.602 12.607,47.602 C12.297,47.602 12.045,47.35 12.045,47.039" id="Fill-62" fill="#D6AB5D" sketch:type="MSShapeGroup"></path>
                <path d="M14.714,43.641 C14.714,43.48 14.844,43.352 15.005,43.352 C15.165,43.352 15.295,43.48 15.295,43.641 C15.295,43.802 15.165,43.932 15.005,43.932 C14.844,43.932 14.714,43.802 14.714,43.641" id="Fill-63" fill="#D6AB5D" sketch:type="MSShapeGroup"></path>
                <path d="M15.295,38.789 C15.295,38.478 15.547,38.227 15.857,38.227 C16.168,38.227 16.42,38.478 16.42,38.789 C16.42,39.1 16.168,39.352 15.857,39.352 C15.547,39.352 15.295,39.1 15.295,38.789" id="Fill-64" fill="#D6AB5D" sketch:type="MSShapeGroup"></path>
                <path d="M9.045,49.414 C9.045,49.103 9.297,48.852 9.607,48.852 C9.918,48.852 10.17,49.103 10.17,49.414 C10.17,49.725 9.918,49.977 9.607,49.977 C9.297,49.977 9.045,49.725 9.045,49.414" id="Fill-65" fill="#D6AB5D" sketch:type="MSShapeGroup"></path>
                <path d="M9.045,46.758 C9.045,46.602 9.171,46.477 9.326,46.477 C9.481,46.477 9.607,46.602 9.607,46.758 C9.607,46.912 9.481,47.039 9.326,47.039 C9.171,47.039 9.045,46.912 9.045,46.758" id="Fill-66" fill="#D6AB5D" sketch:type="MSShapeGroup"></path>
                <path d="M10.92,44.135 C10.92,43.877 11.128,43.669 11.386,43.669 C11.644,43.669 11.852,43.877 11.852,44.135 C11.852,44.393 11.644,44.602 11.386,44.602 C11.128,44.602 10.92,44.393 10.92,44.135" id="Fill-67" fill="#D6AB5D" sketch:type="MSShapeGroup"></path>
                <path d="M9.326,34.43 C9.326,34.196 9.515,34.008 9.748,34.008 C9.981,34.008 10.17,34.196 10.17,34.43 C10.17,34.662 9.981,34.852 9.748,34.852 C9.515,34.852 9.326,34.662 9.326,34.43" id="Fill-68" fill="#D6AB5D" sketch:type="MSShapeGroup"></path>
                <path d="M8.857,36.102 C8.857,35.895 9.025,35.727 9.232,35.727 C9.44,35.727 9.607,35.895 9.607,36.102 C9.607,36.309 9.44,36.477 9.232,36.477 C9.025,36.477 8.857,36.309 8.857,36.102" id="Fill-69" fill="#D6AB5D" sketch:type="MSShapeGroup"></path>
                <path d="M6.377,41.977 C6.377,41.699 6.601,41.477 6.877,41.477 C7.153,41.477 7.377,41.699 7.377,41.977 C7.377,42.252 7.153,42.477 6.877,42.477 C6.601,42.477 6.377,42.252 6.377,41.977" id="Fill-70" fill="#D6AB5D" sketch:type="MSShapeGroup"></path>
                <path d="M12.732,38.883 C12.732,38.623 12.942,38.414 13.201,38.414 C13.46,38.414 13.67,38.623 13.67,38.883 C13.67,39.141 13.46,39.352 13.201,39.352 C12.942,39.352 12.732,39.141 12.732,38.883" id="Fill-71" fill="#D6AB5D" sketch:type="MSShapeGroup"></path>
                <path d="M13.67,36.703 C13.67,36.416 13.904,36.182 14.192,36.182 C14.48,36.182 14.714,36.416 14.714,36.703 C14.714,36.992 14.48,37.227 14.192,37.227 C13.904,37.227 13.67,36.992 13.67,36.703" id="Fill-72" fill="#D6AB5D" sketch:type="MSShapeGroup"></path>
                <path d="M72.939,60.508 C72.939,68.215 67.643,74.462 61.109,74.462 C54.575,74.462 49.278,68.215 49.278,60.508 C49.278,52.803 54.575,46.556 61.109,46.556 C67.643,46.556 72.939,52.803 72.939,60.508 L72.939,60.508 Z" id="Fill-73" fill="#D6AB5D" sketch:type="MSShapeGroup"></path>
                <path d="M72.939,60.508 C72.939,68.215 67.643,74.462 61.109,74.462 C54.575,74.462 49.278,68.215 49.278,60.508 C49.278,52.803 54.575,46.556 61.109,46.556 C67.643,46.556 72.939,52.803 72.939,60.508 L72.939,60.508 Z" id="Stroke-74" stroke="#131E28" stroke-width="2" sketch:type="MSShapeGroup"></path>
                <path d="M56.541,56.027 C56.541,56.269 56.345,56.465 56.104,56.465 C55.862,56.465 55.666,56.269 55.666,56.027 C55.666,55.785 55.862,55.59 56.104,55.59 C56.345,55.59 56.541,55.785 56.541,56.027" id="Fill-75" fill="#FCD68B" sketch:type="MSShapeGroup"></path>
                <path d="M60.666,52.527 C60.666,52.769 60.47,52.965 60.229,52.965 C59.987,52.965 59.791,52.769 59.791,52.527 C59.791,52.285 59.987,52.09 60.229,52.09 C60.47,52.09 60.666,52.285 60.666,52.527" id="Fill-76" fill="#FCD68B" sketch:type="MSShapeGroup"></path>
                <path d="M60.916,57.402 C60.916,57.713 60.665,57.965 60.354,57.965 C60.044,57.965 59.791,57.713 59.791,57.402 C59.791,57.092 60.044,56.84 60.354,56.84 C60.665,56.84 60.916,57.092 60.916,57.402" id="Fill-77" fill="#FCD68B" sketch:type="MSShapeGroup"></path>
                <path d="M58.247,60.799 C58.247,60.959 58.117,61.09 57.956,61.09 C57.795,61.09 57.666,60.959 57.666,60.799 C57.666,60.639 57.795,60.509 57.956,60.509 C58.117,60.509 58.247,60.639 58.247,60.799" id="Fill-78" fill="#FCD68B" sketch:type="MSShapeGroup"></path>
                <path d="M57.666,65.652 C57.666,65.963 57.415,66.215 57.104,66.215 C56.794,66.215 56.541,65.963 56.541,65.652 C56.541,65.342 56.794,65.09 57.104,65.09 C57.415,65.09 57.666,65.342 57.666,65.652" id="Fill-79" fill="#FCD68B" sketch:type="MSShapeGroup"></path>
                <path d="M63.916,55.027 C63.916,55.338 63.665,55.59 63.354,55.59 C63.044,55.59 62.791,55.338 62.791,55.027 C62.791,54.717 63.044,54.465 63.354,54.465 C63.665,54.465 63.916,54.717 63.916,55.027" id="Fill-80" fill="#FCD68B" sketch:type="MSShapeGroup"></path>
                <path d="M63.916,57.684 C63.916,57.838 63.79,57.965 63.635,57.965 C63.479,57.965 63.354,57.838 63.354,57.684 C63.354,57.527 63.479,57.402 63.635,57.402 C63.79,57.402 63.916,57.527 63.916,57.684" id="Fill-81" fill="#FCD68B" sketch:type="MSShapeGroup"></path>
                <path d="M62.041,60.305 C62.041,60.563 61.832,60.772 61.575,60.772 C61.317,60.772 61.109,60.563 61.109,60.305 C61.109,60.048 61.317,59.84 61.575,59.84 C61.832,59.84 62.041,60.048 62.041,60.305" id="Fill-82" fill="#FCD68B" sketch:type="MSShapeGroup"></path>
                <path d="M63.635,70.012 C63.635,70.244 63.446,70.434 63.213,70.434 C62.98,70.434 62.791,70.244 62.791,70.012 C62.791,69.778 62.98,69.59 63.213,69.59 C63.446,69.59 63.635,69.778 63.635,70.012" id="Fill-83" fill="#FCD68B" sketch:type="MSShapeGroup"></path>
                <path d="M64.104,68.34 C64.104,68.547 63.936,68.715 63.729,68.715 C63.522,68.715 63.354,68.547 63.354,68.34 C63.354,68.133 63.522,67.965 63.729,67.965 C63.936,67.965 64.104,68.133 64.104,68.34" id="Fill-84" fill="#FCD68B" sketch:type="MSShapeGroup"></path>
                <path d="M66.585,62.465 C66.585,62.74 66.36,62.965 66.085,62.965 C65.808,62.965 65.585,62.74 65.585,62.465 C65.585,62.188 65.808,61.965 66.085,61.965 C66.36,61.965 66.585,62.188 66.585,62.465" id="Fill-85" fill="#FCD68B" sketch:type="MSShapeGroup"></path>
                <path d="M60.229,65.559 C60.229,65.816 60.018,66.027 59.76,66.027 C59.501,66.027 59.291,65.816 59.291,65.559 C59.291,65.299 59.501,65.09 59.76,65.09 C60.018,65.09 60.229,65.299 60.229,65.559" id="Fill-86" fill="#FCD68B" sketch:type="MSShapeGroup"></path>
                <path d="M59.291,67.736 C59.291,68.025 59.057,68.259 58.768,68.259 C58.481,68.259 58.247,68.025 58.247,67.736 C58.247,67.448 58.481,67.215 58.768,67.215 C59.057,67.215 59.291,67.448 59.291,67.736" id="Fill-87" fill="#FCD68B" sketch:type="MSShapeGroup"></path>
                <path d="M5.445,27.246 C5.445,19.539 10.741,13.292 17.275,13.292 C23.809,13.292 29.105,19.539 29.105,27.246 C29.105,34.951 23.809,41.198 17.275,41.198 C10.741,41.198 5.445,34.951 5.445,27.246 L5.445,27.246 Z" id="Fill-88" fill="#D6AB5D" sketch:type="MSShapeGroup"></path>
                <path d="M5.445,27.246 C5.445,19.539 10.741,13.292 17.275,13.292 C23.809,13.292 29.105,19.539 29.105,27.246 C29.105,34.951 23.809,41.198 17.275,41.198 C10.741,41.198 5.445,34.951 5.445,27.246 L5.445,27.246 Z" id="Stroke-89" stroke="#131E28" stroke-width="2" sketch:type="MSShapeGroup"></path>
                <path d="M21.843,31.727 C21.843,31.485 22.039,31.289 22.28,31.289 C22.522,31.289 22.718,31.485 22.718,31.727 C22.718,31.969 22.522,32.164 22.28,32.164 C22.039,32.164 21.843,31.969 21.843,31.727" id="Fill-90" fill="#FCD68B" sketch:type="MSShapeGroup"></path>
                <path d="M17.718,35.227 C17.718,34.985 17.914,34.789 18.155,34.789 C18.397,34.789 18.593,34.985 18.593,35.227 C18.593,35.469 18.397,35.664 18.155,35.664 C17.914,35.664 17.718,35.469 17.718,35.227" id="Fill-91" fill="#FCD68B" sketch:type="MSShapeGroup"></path>
                <path d="M17.468,30.352 C17.468,30.041 17.72,29.789 18.03,29.789 C18.341,29.789 18.593,30.041 18.593,30.352 C18.593,30.662 18.341,30.914 18.03,30.914 C17.72,30.914 17.468,30.662 17.468,30.352" id="Fill-92" fill="#FCD68B" sketch:type="MSShapeGroup"></path>
                <path d="M20.137,26.955 C20.137,26.795 20.267,26.664 20.428,26.664 C20.588,26.664 20.718,26.795 20.718,26.955 C20.718,27.115 20.588,27.245 20.428,27.245 C20.267,27.245 20.137,27.115 20.137,26.955" id="Fill-93" fill="#FCD68B" sketch:type="MSShapeGroup"></path>
                <path d="M20.718,22.102 C20.718,21.791 20.97,21.539 21.28,21.539 C21.591,21.539 21.843,21.791 21.843,22.102 C21.843,22.412 21.591,22.664 21.28,22.664 C20.97,22.664 20.718,22.412 20.718,22.102" id="Fill-94" fill="#FCD68B" sketch:type="MSShapeGroup"></path>
                <path d="M14.468,32.727 C14.468,32.416 14.72,32.164 15.03,32.164 C15.341,32.164 15.593,32.416 15.593,32.727 C15.593,33.037 15.341,33.289 15.03,33.289 C14.72,33.289 14.468,33.037 14.468,32.727" id="Fill-95" fill="#FCD68B" sketch:type="MSShapeGroup"></path>
                <path d="M14.468,30.07 C14.468,29.916 14.594,29.789 14.749,29.789 C14.904,29.789 15.03,29.916 15.03,30.07 C15.03,30.227 14.904,30.352 14.749,30.352 C14.594,30.352 14.468,30.227 14.468,30.07" id="Fill-96" fill="#FCD68B" sketch:type="MSShapeGroup"></path>
                <path d="M16.343,27.449 C16.343,27.191 16.551,26.982 16.809,26.982 C17.066,26.982 17.275,27.191 17.275,27.449 C17.275,27.706 17.066,27.914 16.809,27.914 C16.551,27.914 16.343,27.706 16.343,27.449" id="Fill-97" fill="#FCD68B" sketch:type="MSShapeGroup"></path>
                <path d="M14.749,17.742 C14.749,17.51 14.938,17.32 15.171,17.32 C15.404,17.32 15.593,17.51 15.593,17.742 C15.593,17.976 15.404,18.164 15.171,18.164 C14.938,18.164 14.749,17.976 14.749,17.742" id="Fill-98" fill="#FCD68B" sketch:type="MSShapeGroup"></path>
                <path d="M14.28,19.414 C14.28,19.207 14.448,19.039 14.655,19.039 C14.862,19.039 15.03,19.207 15.03,19.414 C15.03,19.621 14.862,19.789 14.655,19.789 C14.448,19.789 14.28,19.621 14.28,19.414" id="Fill-99" fill="#FCD68B" sketch:type="MSShapeGroup"></path>
                <path d="M11.8,25.289 C11.8,25.014 12.023,24.789 12.3,24.789 C12.576,24.789 12.8,25.014 12.8,25.289 C12.8,25.566 12.576,25.789 12.3,25.789 C12.023,25.789 11.8,25.566 11.8,25.289" id="Fill-100" fill="#FCD68B" sketch:type="MSShapeGroup"></path>
                <path d="M18.155,22.195 C18.155,21.937 18.365,21.727 18.624,21.727 C18.883,21.727 19.093,21.937 19.093,22.195 C19.093,22.455 18.883,22.664 18.624,22.664 C18.365,22.664 18.155,22.455 18.155,22.195" id="Fill-101" fill="#FCD68B" sketch:type="MSShapeGroup"></path>
                <path d="M19.093,20.018 C19.093,19.728 19.327,19.495 19.615,19.495 C19.903,19.495 20.137,19.728 20.137,20.018 C20.137,20.306 19.903,20.539 19.615,20.539 C19.327,20.539 19.093,20.306 19.093,20.018" id="Fill-102" fill="#FCD68B" sketch:type="MSShapeGroup"></path>
                <path d="M10.92,57.342 C10.92,49.637 16.216,43.389 22.75,43.389 C29.284,43.389 34.581,49.637 34.581,57.342 C34.581,65.048 29.284,71.295 22.75,71.295 C16.216,71.295 10.92,65.048 10.92,57.342 L10.92,57.342 Z" id="Fill-103" fill="#D6AB5D" sketch:type="MSShapeGroup"></path>
                <path d="M10.92,57.342 C10.92,49.637 16.216,43.389 22.75,43.389 C29.284,43.389 34.581,49.637 34.581,57.342 C34.581,65.048 29.284,71.295 22.75,71.295 C16.216,71.295 10.92,65.048 10.92,57.342 L10.92,57.342 Z" id="Stroke-104" stroke="#131E28" stroke-width="2" sketch:type="MSShapeGroup"></path>
                <path d="M27.318,61.824 C27.318,61.582 27.514,61.387 27.755,61.387 C27.997,61.387 28.193,61.582 28.193,61.824 C28.193,62.065 27.997,62.262 27.755,62.262 C27.514,62.262 27.318,62.065 27.318,61.824" id="Fill-105" fill="#FCD68B" sketch:type="MSShapeGroup"></path>
                <path d="M23.193,65.324 C23.193,65.082 23.389,64.887 23.63,64.887 C23.872,64.887 24.068,65.082 24.068,65.324 C24.068,65.565 23.872,65.762 23.63,65.762 C23.389,65.762 23.193,65.565 23.193,65.324" id="Fill-106" fill="#FCD68B" sketch:type="MSShapeGroup"></path>
                <path d="M22.943,60.449 C22.943,60.139 23.195,59.887 23.505,59.887 C23.816,59.887 24.068,60.139 24.068,60.449 C24.068,60.76 23.816,61.012 23.505,61.012 C23.195,61.012 22.943,60.76 22.943,60.449" id="Fill-107" fill="#FCD68B" sketch:type="MSShapeGroup"></path>
                <path d="M25.612,57.051 C25.612,56.891 25.742,56.762 25.903,56.762 C26.063,56.762 26.193,56.891 26.193,57.051 C26.193,57.212 26.063,57.342 25.903,57.342 C25.742,57.342 25.612,57.212 25.612,57.051" id="Fill-108" fill="#FCD68B" sketch:type="MSShapeGroup"></path>
                <path d="M26.193,52.199 C26.193,51.889 26.445,51.637 26.755,51.637 C27.066,51.637 27.318,51.889 27.318,52.199 C27.318,52.51 27.066,52.762 26.755,52.762 C26.445,52.762 26.193,52.51 26.193,52.199" id="Fill-109" fill="#FCD68B" sketch:type="MSShapeGroup"></path>
                <path d="M19.943,62.824 C19.943,62.514 20.195,62.262 20.505,62.262 C20.816,62.262 21.068,62.514 21.068,62.824 C21.068,63.135 20.816,63.387 20.505,63.387 C20.195,63.387 19.943,63.135 19.943,62.824" id="Fill-110" fill="#FCD68B" sketch:type="MSShapeGroup"></path>
                <path d="M19.943,60.168 C19.943,60.012 20.069,59.887 20.224,59.887 C20.379,59.887 20.505,60.012 20.505,60.168 C20.505,60.322 20.379,60.449 20.224,60.449 C20.069,60.449 19.943,60.322 19.943,60.168" id="Fill-111" fill="#FCD68B" sketch:type="MSShapeGroup"></path>
                <path d="M21.818,57.545 C21.818,57.287 22.026,57.079 22.284,57.079 C22.542,57.079 22.75,57.287 22.75,57.545 C22.75,57.803 22.542,58.012 22.284,58.012 C22.026,58.012 21.818,57.803 21.818,57.545" id="Fill-112" fill="#FCD68B" sketch:type="MSShapeGroup"></path>
                <path d="M20.224,47.84 C20.224,47.606 20.413,47.418 20.646,47.418 C20.879,47.418 21.068,47.606 21.068,47.84 C21.068,48.072 20.879,48.262 20.646,48.262 C20.413,48.262 20.224,48.072 20.224,47.84" id="Fill-113" fill="#FCD68B" sketch:type="MSShapeGroup"></path>
                <path d="M19.755,49.512 C19.755,49.305 19.923,49.137 20.13,49.137 C20.337,49.137 20.505,49.305 20.505,49.512 C20.505,49.719 20.337,49.887 20.13,49.887 C19.923,49.887 19.755,49.719 19.755,49.512" id="Fill-114" fill="#FCD68B" sketch:type="MSShapeGroup"></path>
                <path d="M17.275,55.387 C17.275,55.109 17.499,54.887 17.775,54.887 C18.051,54.887 18.275,55.109 18.275,55.387 C18.275,55.662 18.051,55.887 17.775,55.887 C17.499,55.887 17.275,55.662 17.275,55.387" id="Fill-115" fill="#FCD68B" sketch:type="MSShapeGroup"></path>
                <path d="M23.63,52.293 C23.63,52.033 23.84,51.824 24.099,51.824 C24.358,51.824 24.568,52.033 24.568,52.293 C24.568,52.551 24.358,52.762 24.099,52.762 C23.84,52.762 23.63,52.551 23.63,52.293" id="Fill-116" fill="#FCD68B" sketch:type="MSShapeGroup"></path>
                <path d="M24.568,50.113 C24.568,49.826 24.802,49.592 25.09,49.592 C25.378,49.592 25.612,49.826 25.612,50.113 C25.612,50.402 25.378,50.637 25.09,50.637 C24.802,50.637 24.568,50.402 24.568,50.113" id="Fill-117" fill="#FCD68B" sketch:type="MSShapeGroup"></path>
                <path d="M65.585,74.461 C65.585,82.168 60.288,88.415 53.754,88.415 C47.22,88.415 41.923,82.168 41.923,74.461 C41.923,66.756 47.22,60.509 53.754,60.509 C60.288,60.509 65.585,66.756 65.585,74.461 L65.585,74.461 Z" id="Fill-118" fill="#FCD68B" sketch:type="MSShapeGroup"></path>
                <path d="M65.585,74.461 C65.585,82.168 60.288,88.415 53.754,88.415 C47.22,88.415 41.923,82.168 41.923,74.461 C41.923,66.756 47.22,60.509 53.754,60.509 C60.288,60.509 65.585,66.756 65.585,74.461 L65.585,74.461 Z" id="Stroke-119" stroke="#131E28" stroke-width="2" sketch:type="MSShapeGroup"></path>
                <path d="M49.186,69.981 C49.186,70.222 48.991,70.418 48.749,70.418 C48.506,70.418 48.311,70.222 48.311,69.981 C48.311,69.738 48.506,69.543 48.749,69.543 C48.991,69.543 49.186,69.738 49.186,69.981" id="Fill-120" fill="#D6AB5D" sketch:type="MSShapeGroup"></path>
                <path d="M53.311,66.48 C53.311,66.722 53.116,66.918 52.873,66.918 C52.631,66.918 52.436,66.722 52.436,66.48 C52.436,66.238 52.631,66.043 52.873,66.043 C53.116,66.043 53.311,66.238 53.311,66.48" id="Fill-121" fill="#D6AB5D" sketch:type="MSShapeGroup"></path>
                <path d="M53.561,71.355 C53.561,71.666 53.309,71.918 52.998,71.918 C52.688,71.918 52.436,71.666 52.436,71.355 C52.436,71.045 52.688,70.793 52.998,70.793 C53.309,70.793 53.561,71.045 53.561,71.355" id="Fill-122" fill="#D6AB5D" sketch:type="MSShapeGroup"></path>
                <path d="M50.891,74.752 C50.891,74.912 50.762,75.043 50.601,75.043 C50.441,75.043 50.311,74.912 50.311,74.752 C50.311,74.592 50.441,74.462 50.601,74.462 C50.762,74.462 50.891,74.592 50.891,74.752" id="Fill-123" fill="#D6AB5D" sketch:type="MSShapeGroup"></path>
                <path d="M50.311,79.605 C50.311,79.916 50.059,80.168 49.748,80.168 C49.438,80.168 49.186,79.916 49.186,79.605 C49.186,79.295 49.438,79.043 49.748,79.043 C50.059,79.043 50.311,79.295 50.311,79.605" id="Fill-124" fill="#D6AB5D" sketch:type="MSShapeGroup"></path>
                <path d="M56.561,68.98 C56.561,69.291 56.309,69.543 55.998,69.543 C55.688,69.543 55.436,69.291 55.436,68.98 C55.436,68.67 55.688,68.418 55.998,68.418 C56.309,68.418 56.561,68.67 56.561,68.98" id="Fill-125" fill="#D6AB5D" sketch:type="MSShapeGroup"></path>
                <path d="M56.561,71.637 C56.561,71.791 56.435,71.918 56.28,71.918 C56.124,71.918 55.998,71.791 55.998,71.637 C55.998,71.481 56.124,71.355 56.28,71.355 C56.435,71.355 56.561,71.481 56.561,71.637" id="Fill-126" fill="#D6AB5D" sketch:type="MSShapeGroup"></path>
                <path d="M54.686,74.258 C54.686,74.516 54.477,74.725 54.22,74.725 C53.962,74.725 53.754,74.516 53.754,74.258 C53.754,74.001 53.962,73.793 54.22,73.793 C54.477,73.793 54.686,74.001 54.686,74.258" id="Fill-127" fill="#D6AB5D" sketch:type="MSShapeGroup"></path>
                <path d="M56.28,83.965 C56.28,84.197 56.09,84.387 55.858,84.387 C55.626,84.387 55.436,84.197 55.436,83.965 C55.436,83.731 55.626,83.543 55.858,83.543 C56.09,83.543 56.28,83.731 56.28,83.965" id="Fill-128" fill="#D6AB5D" sketch:type="MSShapeGroup"></path>
                <path d="M56.748,82.293 C56.748,82.5 56.581,82.668 56.373,82.668 C56.167,82.668 55.998,82.5 55.998,82.293 C55.998,82.086 56.167,81.918 56.373,81.918 C56.581,81.918 56.748,82.086 56.748,82.293" id="Fill-129" fill="#D6AB5D" sketch:type="MSShapeGroup"></path>
                <path d="M59.229,76.418 C59.229,76.693 59.005,76.918 58.729,76.918 C58.454,76.918 58.229,76.693 58.229,76.418 C58.229,76.141 58.454,75.918 58.729,75.918 C59.005,75.918 59.229,76.141 59.229,76.418" id="Fill-130" fill="#D6AB5D" sketch:type="MSShapeGroup"></path>
                <path d="M52.873,79.512 C52.873,79.77 52.664,79.98 52.405,79.98 C52.146,79.98 51.936,79.77 51.936,79.512 C51.936,79.252 52.146,79.043 52.405,79.043 C52.664,79.043 52.873,79.252 52.873,79.512" id="Fill-131" fill="#D6AB5D" sketch:type="MSShapeGroup"></path>
                <path d="M51.936,81.69 C51.936,81.978 51.702,82.212 51.414,82.212 C51.126,82.212 50.891,81.978 50.891,81.69 C50.891,81.401 51.126,81.168 51.414,81.168 C51.702,81.168 51.936,81.401 51.936,81.69" id="Fill-132" fill="#D6AB5D" sketch:type="MSShapeGroup"></path>
                <path d="M25.612,46.388 C25.612,38.682 30.909,32.434 37.442,32.434 C43.976,32.434 49.273,38.682 49.273,46.388 C49.273,54.094 43.976,60.34 37.442,60.34 C30.909,60.34 25.612,54.094 25.612,46.388 L25.612,46.388 Z" id="Fill-133" fill="#FCD68B" sketch:type="MSShapeGroup"></path>
                <path d="M25.612,46.388 C25.612,38.682 30.909,32.434 37.442,32.434 C43.976,32.434 49.273,38.682 49.273,46.388 C49.273,54.094 43.976,60.34 37.442,60.34 C30.909,60.34 25.612,54.094 25.612,46.388 L25.612,46.388 Z" id="Stroke-134" stroke="#131E28" stroke-width="2" sketch:type="MSShapeGroup"></path>
                <path d="M42.01,50.869 C42.01,50.627 42.206,50.432 42.448,50.432 C42.69,50.432 42.885,50.627 42.885,50.869 C42.885,51.111 42.69,51.307 42.448,51.307 C42.206,51.307 42.01,51.111 42.01,50.869" id="Fill-135" fill="#D6AB5D" sketch:type="MSShapeGroup"></path>
                <path d="M37.885,54.369 C37.885,54.127 38.081,53.932 38.323,53.932 C38.565,53.932 38.76,54.127 38.76,54.369 C38.76,54.611 38.565,54.807 38.323,54.807 C38.081,54.807 37.885,54.611 37.885,54.369" id="Fill-136" fill="#D6AB5D" sketch:type="MSShapeGroup"></path>
                <path d="M37.635,49.494 C37.635,49.184 37.887,48.932 38.198,48.932 C38.508,48.932 38.76,49.184 38.76,49.494 C38.76,49.805 38.508,50.057 38.198,50.057 C37.887,50.057 37.635,49.805 37.635,49.494" id="Fill-137" fill="#D6AB5D" sketch:type="MSShapeGroup"></path>
                <path d="M40.305,46.097 C40.305,45.937 40.434,45.807 40.595,45.807 C40.755,45.807 40.885,45.937 40.885,46.097 C40.885,46.258 40.755,46.387 40.595,46.387 C40.434,46.387 40.305,46.258 40.305,46.097" id="Fill-138" fill="#D6AB5D" sketch:type="MSShapeGroup"></path>
                <path d="M40.885,41.244 C40.885,40.934 41.137,40.682 41.448,40.682 C41.758,40.682 42.01,40.934 42.01,41.244 C42.01,41.555 41.758,41.807 41.448,41.807 C41.137,41.807 40.885,41.555 40.885,41.244" id="Fill-139" fill="#D6AB5D" sketch:type="MSShapeGroup"></path>
                <path d="M34.635,51.869 C34.635,51.559 34.887,51.307 35.198,51.307 C35.508,51.307 35.76,51.559 35.76,51.869 C35.76,52.18 35.508,52.432 35.198,52.432 C34.887,52.432 34.635,52.18 34.635,51.869" id="Fill-140" fill="#D6AB5D" sketch:type="MSShapeGroup"></path>
                <path d="M34.635,49.213 C34.635,49.058 34.761,48.932 34.917,48.932 C35.072,48.932 35.198,49.058 35.198,49.213 C35.198,49.368 35.072,49.494 34.917,49.494 C34.761,49.494 34.635,49.368 34.635,49.213" id="Fill-141" fill="#D6AB5D" sketch:type="MSShapeGroup"></path>
                <path d="M36.51,46.591 C36.51,46.333 36.719,46.125 36.976,46.125 C37.234,46.125 37.442,46.333 37.442,46.591 C37.442,46.848 37.234,47.057 36.976,47.057 C36.719,47.057 36.51,46.848 36.51,46.591" id="Fill-142" fill="#D6AB5D" sketch:type="MSShapeGroup"></path>
                <path d="M34.917,36.885 C34.917,36.652 35.105,36.463 35.338,36.463 C35.571,36.463 35.76,36.652 35.76,36.885 C35.76,37.117 35.571,37.307 35.338,37.307 C35.105,37.307 34.917,37.117 34.917,36.885" id="Fill-143" fill="#D6AB5D" sketch:type="MSShapeGroup"></path>
                <path d="M34.448,38.557 C34.448,38.35 34.616,38.182 34.823,38.182 C35.03,38.182 35.198,38.35 35.198,38.557 C35.198,38.764 35.03,38.932 34.823,38.932 C34.616,38.932 34.448,38.764 34.448,38.557" id="Fill-144" fill="#D6AB5D" sketch:type="MSShapeGroup"></path>
                <path d="M31.967,44.432 C31.967,44.155 32.191,43.932 32.467,43.932 C32.743,43.932 32.967,44.155 32.967,44.432 C32.967,44.708 32.743,44.932 32.467,44.932 C32.191,44.932 31.967,44.708 31.967,44.432" id="Fill-145" fill="#D6AB5D" sketch:type="MSShapeGroup"></path>
                <path d="M38.323,41.338 C38.323,41.079 38.533,40.869 38.792,40.869 C39.05,40.869 39.26,41.079 39.26,41.338 C39.26,41.597 39.05,41.807 38.792,41.807 C38.533,41.807 38.323,41.597 38.323,41.338" id="Fill-146" fill="#D6AB5D" sketch:type="MSShapeGroup"></path>
                <path d="M39.26,39.159 C39.26,38.871 39.495,38.637 39.783,38.637 C40.071,38.637 40.305,38.871 40.305,39.159 C40.305,39.447 40.071,39.682 39.783,39.682 C39.495,39.682 39.26,39.447 39.26,39.159" id="Fill-147" fill="#D6AB5D" sketch:type="MSShapeGroup"></path>
            </g>
        </g>
    </g>
</svg>