<?xml version="1.0" encoding="UTF-8" standalone="no"?>
<svg width="107px" height="197px" viewBox="0 0 107 197" version="1.1" xmlns="http://www.w3.org/2000/svg" xmlns:xlink="http://www.w3.org/1999/xlink" xmlns:sketch="http://www.bohemiancoding.com/sketch/ns">
    <!-- Generator: Sketch 3.1.1 (8761) - http://www.bohemiancoding.com/sketch -->
    <title>p-maiz</title>
    <desc>Created with Sketch.</desc>
    <defs></defs>
    <g id="Page-1" stroke="none" stroke-width="1" fill="none" fill-rule="evenodd" sketch:type="MSPage">
        <g id="Desktop-HD" sketch:type="MSArtboardGroup" transform="translate(-882.000000, -244.000000)">
            <g id="p-maiz" sketch:type="MSLayerGroup" transform="translate(882.500000, 244.000000)">
                <path d="M105.559067,61.9696867 C105.399756,57.7902169 102.489356,54.3598072 98.6421111,53.5105542 C98.6706444,48.6726747 98.5042,44.2093253 98.0452889,40.5856867 C97.5530889,36.6853253 94.6664667,33.5650361 90.9048222,32.8684578 C90.3864667,32.7730361 89.8657333,32.7277108 89.3497556,32.7277108 C86.3323556,32.7277108 83.5051778,34.3522651 81.8978,37.036 C81.5173556,34.8174458 80.5995333,32.7849639 79.287,31.0888434 C79.4035111,30.387494 79.4772222,29.6718313 79.4772222,28.9346988 C79.4772222,24.7051325 77.4584889,20.9622169 74.3721333,18.6386988 C74.0368667,13.7888916 71.0598889,9.68098795 66.9082889,7.83696386 C65.1867778,3.30681928 60.9210444,0.0767951807 55.9158222,0.0767951807 L53.9375111,0.0767951807 C48.9655778,0.0767951807 44.7188667,3.25433735 42.9712,7.73677108 C38.4890889,9.60942169 35.31,14.1013976 35.2291556,19.356747 C32.6397556,21.6993494 30.9967111,25.1178313 30.9967111,28.9346988 C30.9967111,29.3378554 31.0157333,29.7338554 31.0537778,30.1226988 C28.8115333,32.539253 27.4229111,35.8050602 27.4229111,39.4024578 C27.4229111,39.8962651 27.4538222,40.3853012 27.5037556,40.8671807 L26.5526444,39.0136145 C25.0213556,36.019759 22.0110889,34.1972048 18.8034667,34.1972048 C18.3279111,34.1972048 17.8476,34.2401446 17.3672889,34.3188675 C13.6460667,34.9510361 10.7356667,37.9639759 10.1412222,41.7999277 C9.54202222,45.6812048 9.21626667,49.9274699 9.08073333,54.3502651 C5.96822222,55.1422651 3.41448889,57.6327711 2.64646667,61.0035422 C-1.67633333,79.8540964 -1.79284444,150.432747 21.828,181.134675 C23.3545333,183.119446 31.0728,191.492699 34.3612667,192.723639 C75.2899556,208.074602 92.9568444,165.84812 93.0567111,165.566627 C107.7062,123.929373 105.6518,64.474506 105.559067,61.9696867" id="Fill-1" fill="#F8DAA3" sketch:type="MSShapeGroup"></path>
                <path d="M42.1746444,104.126988 C42.1746444,108.05359 39.0050667,111.235904 35.0912444,111.235904 L30.5021333,111.235904 C26.5883111,111.235904 23.4163556,108.05359 23.4163556,104.126988 C23.4163556,100.198 26.5883111,97.0156867 30.5021333,97.0156867 L35.0912444,97.0156867 C39.0050667,97.0156867 42.1746444,100.198 42.1746444,104.126988" id="Fill-2" fill="#FBAF42" sketch:type="MSShapeGroup"></path>
                <path d="M51.0152222,155.060699 C51.0152222,158.992072 47.8432667,162.174386 43.9294444,162.174386 L39.3427111,162.174386 C35.4265111,162.174386 32.2545556,158.992072 32.2545556,155.060699 C32.2545556,151.134096 35.4265111,147.954169 39.3427111,147.954169 L43.9294444,147.954169 C47.8432667,147.954169 51.0152222,151.134096 51.0152222,155.060699" id="Fill-3" fill="#FBAF42" sketch:type="MSShapeGroup"></path>
                <path d="M64.0716,104.126988 C64.0716,108.05359 60.8996444,111.235904 56.9858222,111.235904 L52.3990889,111.235904 C48.4852667,111.235904 45.3133111,108.05359 45.3133111,104.126988 C45.3133111,100.198 48.4852667,97.0156867 52.3990889,97.0156867 L56.9858222,97.0156867 C60.8996444,97.0156867 64.0716,100.198 64.0716,104.126988" id="Fill-4" fill="#FBAF42" sketch:type="MSShapeGroup"></path>
                <path d="M87.7637778,120.54906 C87.7637778,124.478048 84.5894444,127.662747 80.6756222,127.662747 L76.0912667,127.662747 C72.1726889,127.662747 69.0031111,124.478048 69.0031111,120.54906 C69.0031111,116.622458 72.1726889,113.440145 76.0912667,113.440145 L80.6756222,113.440145 C84.5894444,113.440145 87.7637778,116.622458 87.7637778,120.54906" id="Fill-5" fill="#FBAF42" sketch:type="MSShapeGroup"></path>
                <path d="M86.1397556,138.61 C86.1397556,142.536602 82.9654222,145.718916 79.0492222,145.718916 L74.4648667,145.718916 C70.5486667,145.718916 67.3767111,142.536602 67.3767111,138.61 C67.3767111,134.681012 70.5486667,131.498699 74.4648667,131.498699 L79.0492222,131.498699 C82.9654222,131.498699 86.1397556,134.681012 86.1397556,138.61" id="Fill-6" fill="#FBAF42" sketch:type="MSShapeGroup"></path>
                <path d="M74.9594444,155.471012 C74.9594444,159.397614 71.7851111,162.584699 67.8712889,162.584699 L63.2869333,162.584699 C59.3707333,162.584699 56.1987778,159.397614 56.1987778,155.471012 C56.1987778,151.542024 59.3707333,148.359711 63.2869333,148.359711 L67.8712889,148.359711 C71.7851111,148.359711 74.9594444,151.542024 74.9594444,155.471012" id="Fill-7" fill="#FBAF42" sketch:type="MSShapeGroup"></path>
                <path d="M63.8671111,138.61 C63.8671111,142.536602 60.6927778,145.718916 56.7789556,145.718916 L52.1946,145.718916 C48.2784,145.718916 45.1064444,142.536602 45.1064444,138.61 C45.1064444,134.681012 48.2784,131.498699 52.1946,131.498699 L56.7789556,131.498699 C60.6927778,131.498699 63.8671111,134.681012 63.8671111,138.61" id="Fill-8" fill="#FBAF42" sketch:type="MSShapeGroup"></path>
                <path d="M42.5503333,138.61 C42.5503333,142.536602 39.376,145.718916 35.4621778,145.718916 L30.8778222,145.718916 C26.9592444,145.718916 23.7872889,142.536602 23.7872889,138.61 C23.7872889,134.681012 26.9592444,131.498699 30.8778222,131.498699 L35.4621778,131.498699 C39.376,131.498699 42.5503333,134.681012 42.5503333,138.61" id="Fill-9" fill="#FBAF42" sketch:type="MSShapeGroup"></path>
                <path d="M65.0774,121.011855 C65.0774,125.191325 61.7009556,128.57641 57.5327111,128.57641 L52.6535111,128.57641 C48.4852667,128.57641 45.1088222,125.191325 45.1088222,121.011855 C45.1088222,116.827614 48.4852667,113.440145 52.6535111,113.440145 L57.5327111,113.440145 C61.7009556,113.440145 65.0774,116.827614 65.0774,121.011855" id="Fill-10" fill="#FBAF42" sketch:type="MSShapeGroup"></path>
                <path d="M40.6172,87.9911807 C40.6172,91.1615663 38.0563333,93.7307952 34.8938889,93.7307952 L31.1893111,93.7307952 C28.0268667,93.7307952 25.4683778,91.1615663 25.4683778,87.9911807 C25.4683778,84.8184096 28.0268667,82.2515663 31.1893111,82.2515663 L34.8938889,82.2515663 C38.0563333,82.2515663 40.6172,84.8184096 40.6172,87.9911807" id="Fill-11" fill="#FBAF42" sketch:type="MSShapeGroup"></path>
                <path d="M42.1484889,73.3320241 C42.1484889,76.5047952 39.5852444,79.0764096 36.4228,79.0764096 L32.7229778,79.0764096 C29.5605333,79.0764096 26.9996667,76.5047952 26.9996667,73.3320241 C26.9996667,70.159253 29.5605333,67.5924096 32.7229778,67.5924096 L36.4228,67.5924096 C39.5852444,67.5924096 42.1484889,70.159253 42.1484889,73.3320241" id="Fill-12" fill="#FBAF42" sketch:type="MSShapeGroup"></path>
                <path d="M44.2314222,59.3217349 C44.2314222,62.4921205 41.6705556,65.0637349 38.5081111,65.0637349 L34.8082889,65.0637349 C31.6458444,65.0637349 29.0826,62.4921205 29.0826,59.3217349 C29.0826,56.1489639 31.6458444,53.5797349 34.8082889,53.5797349 L38.5081111,53.5797349 C41.6705556,53.5797349 44.2314222,56.1489639 44.2314222,59.3217349" id="Fill-13" fill="#FBAF42" sketch:type="MSShapeGroup"></path>
                <path d="M44.8520222,46.1296867 C44.8520222,48.9517831 42.5764889,51.2395181 39.7612,51.2395181 L36.4679778,51.2395181 C33.6503111,51.2395181 31.3724,48.9517831 31.3724,46.1296867 C31.3724,43.3052048 33.6503111,41.0198554 36.4679778,41.0198554 L39.7612,41.0198554 C42.5764889,41.0198554 44.8520222,43.3052048 44.8520222,46.1296867" id="Fill-14" fill="#FBAF42" sketch:type="MSShapeGroup"></path>
                <path d="M46.5331111,34.8484578 C46.5331111,37.4391566 44.4406667,39.5384337 41.8560222,39.5384337 L38.8338667,39.5384337 C36.2444667,39.5384337 34.1544,37.4391566 34.1544,34.8484578 C34.1544,32.2553735 36.2444667,30.1584819 38.8338667,30.1584819 L41.8560222,30.1584819 C44.4406667,30.1584819 46.5331111,32.2553735 46.5331111,34.8484578" id="Fill-15" fill="#FBAF42" sketch:type="MSShapeGroup"></path>
                <path d="M48.4757556,23.7747711 C48.4757556,25.9599277 46.7138222,27.7347711 44.5286444,27.7347711 L41.9772889,27.7347711 C39.7944889,27.7347711 38.0301778,25.9599277 38.0301778,23.7747711 C38.0301778,21.5872289 39.7944889,19.8171566 41.9772889,19.8171566 L44.5286444,19.8171566 C46.7138222,19.8171566 48.4757556,21.5872289 48.4757556,23.7747711" id="Fill-16" fill="#FBAF42" sketch:type="MSShapeGroup"></path>
                <path d="M59.7083778,23.7747711 C59.7083778,25.9599277 57.9464444,27.7347711 55.7612667,27.7347711 L53.2122889,27.7347711 C51.0294889,27.7347711 49.2651778,25.9599277 49.2651778,23.7747711 C49.2651778,21.5896145 51.0294889,19.8171566 53.2122889,19.8171566 L55.7612667,19.8171566 C57.9464444,19.8171566 59.7083778,21.5896145 59.7083778,23.7747711" id="Fill-17" fill="#FBAF42" sketch:type="MSShapeGroup"></path>
                <path d="M53.0624889,13.8509157 C53.0624889,16.0360723 51.2981778,17.8085301 49.113,17.8085301 L46.5640222,17.8085301 C44.3836,17.8085301 42.6169111,16.0360723 42.6169111,13.8509157 C42.6169111,11.660988 44.3836,9.89091566 46.5640222,9.89091566 L49.113,9.89091566 C51.2981778,9.89091566 53.0624889,11.660988 53.0624889,13.8509157" id="Fill-18" fill="#FBAF42" sketch:type="MSShapeGroup"></path>
                <path d="M66.126,13.8509157 C66.126,16.0360723 64.3616889,17.8085301 62.1765111,17.8085301 L59.6299111,17.8085301 C57.4447333,17.8085301 55.6804222,16.0360723 55.6804222,13.8509157 C55.6804222,11.660988 57.4447333,9.89091566 59.6299111,9.89091566 L62.1765111,9.89091566 C64.3616889,9.89091566 66.126,11.660988 66.126,13.8509157" id="Fill-19" fill="#FBAF42" sketch:type="MSShapeGroup"></path>
                <path d="M58.8832889,6.11221687 C58.8832889,7.95146988 57.3995556,9.44243373 55.5591556,9.44243373 L53.4167778,9.44243373 C51.5763778,9.44243373 50.0902667,7.95146988 50.0902667,6.11221687 C50.0902667,4.27057831 51.5763778,2.77961446 53.4167778,2.77961446 L55.5591556,2.77961446 C57.3995556,2.77961446 58.8832889,4.27057831 58.8832889,6.11221687" id="Fill-20" fill="#FBAF42" sketch:type="MSShapeGroup"></path>
                <path d="M60.7189333,34.8484578 C60.7189333,37.458241 58.6146,39.5742169 56.0109333,39.5742169 L52.9626222,39.5742169 C50.3613333,39.5742169 48.257,37.458241 48.257,34.8484578 C48.257,32.2362892 50.3613333,30.1250843 52.9626222,30.1250843 L56.0109333,30.1250843 C58.6146,30.1250843 60.7189333,32.2362892 60.7189333,34.8484578" id="Fill-21" fill="#FBAF42" sketch:type="MSShapeGroup"></path>
                <path d="M61.2277778,46.1296867 C61.2277778,48.9517831 58.9498667,51.2395181 56.1345778,51.2395181 L52.8413556,51.2395181 C50.0236889,51.2395181 47.7457778,48.9517831 47.7457778,46.1296867 C47.7457778,43.3052048 50.0236889,41.0198554 52.8413556,41.0198554 L56.1345778,41.0198554 C58.9498667,41.0198554 61.2277778,43.3052048 61.2277778,46.1296867" id="Fill-22" fill="#FBAF42" sketch:type="MSShapeGroup"></path>
                <path d="M62.0623778,59.3217349 C62.0623778,62.4921205 59.5015111,65.0637349 56.3366889,65.0637349 L52.6368667,65.0637349 C49.4744222,65.0637349 46.9111778,62.4921205 46.9111778,59.3217349 C46.9111778,56.1489639 49.4744222,53.5797349 52.6368667,53.5797349 L56.3366889,53.5797349 C59.5015111,53.5797349 62.0623778,56.1489639 62.0623778,59.3217349" id="Fill-23" fill="#FBAF42" sketch:type="MSShapeGroup"></path>
                <path d="M62.4285556,73.3320241 C62.4285556,76.6598554 59.7440444,79.3531325 56.4294222,79.3531325 L52.5488889,79.3531325 C49.2295111,79.3531325 46.545,76.6598554 46.545,73.3320241 C46.545,70.0065783 49.2295111,67.3133012 52.5488889,67.3133012 L56.4294222,67.3133012 C59.7440444,67.3133012 62.4285556,70.0065783 62.4285556,73.3320241" id="Fill-24" fill="#FBAF42" sketch:type="MSShapeGroup"></path>
                <path d="M62.9802,87.9911807 C62.9802,91.5456386 60.1102222,94.429759 56.5625778,94.429759 L52.4109778,94.429759 C48.8633333,94.429759 45.9933556,91.5456386 45.9933556,87.9911807 C45.9933556,84.4343373 48.8633333,81.5526024 52.4109778,81.5526024 L56.5625778,81.5526024 C60.1102222,81.5526024 62.9802,84.4343373 62.9802,87.9911807" id="Fill-25" fill="#FBAF42" sketch:type="MSShapeGroup"></path>
                <path d="M15.2891111,38.8871807 C10.9235111,66.4378072 20.6747778,114.14388 20.6747778,114.14388 L24.9214889,57.232 L15.2891111,38.8871807" id="Fill-26" fill="#4E8042" sketch:type="MSShapeGroup"></path>
                <path d="M91.8440444,37.3318072 C94.2360889,55.8364578 88.5460667,98.6497831 88.5460667,98.6497831 L82.2092889,55.6766265 L91.8440444,37.3318072" id="Fill-27" fill="#638C3F" sketch:type="MSShapeGroup"></path>
                <path d="M68.2636222,104.126988 C68.2636222,108.05359 71.4355778,111.235904 75.3494,111.235904 L79.9361333,111.235904 C83.8523333,111.235904 87.0242889,108.05359 87.0242889,104.126988 C87.0242889,100.198 83.8523333,97.0156867 79.9361333,97.0156867 L75.3494,97.0156867 C71.4355778,97.0156867 68.2636222,100.198 68.2636222,104.126988" id="Fill-28" fill="#FBAF42" sketch:type="MSShapeGroup"></path>
                <path d="M22.6126667,120.54906 C22.6126667,124.478048 25.7846222,127.660361 29.6984444,127.660361 L34.2875556,127.660361 C38.2013778,127.660361 41.3733333,124.478048 41.3733333,120.54906 C41.3733333,116.622458 38.2013778,113.440145 34.2875556,113.440145 L29.6984444,113.440145 C25.7846222,113.440145 22.6126667,116.622458 22.6126667,120.54906" id="Fill-29" fill="#FBAF42" sketch:type="MSShapeGroup"></path>
                <path d="M68.1994222,87.9911807 C68.1994222,91.2903855 70.8601556,93.9645783 74.151,93.9645783 L78.003,93.9645783 C81.2938444,93.9645783 83.9569556,91.2903855 83.9569556,87.9911807 C83.9569556,84.6919759 81.2938444,82.0177831 78.003,82.0177831 L74.151,82.0177831 C70.8601556,82.0177831 68.1994222,84.6919759 68.1994222,87.9911807" id="Fill-30" fill="#FBAF42" sketch:type="MSShapeGroup"></path>
                <path d="M66.6657556,73.3320241 C66.6657556,76.5047952 69.2266222,79.0764096 72.3866889,79.0764096 L76.0936444,79.0764096 C79.2560889,79.0764096 81.8145778,76.5047952 81.8145778,73.3320241 C81.8145778,70.159253 79.2560889,67.5924096 76.0936444,67.5924096 L72.3866889,67.5924096 C69.2266222,67.5924096 66.6657556,70.159253 66.6657556,73.3320241" id="Fill-31" fill="#FBAF42" sketch:type="MSShapeGroup"></path>
                <path d="M64.5828222,59.3217349 C64.5828222,62.4921205 67.1413111,65.0637349 70.3037556,65.0637349 L74.0083333,65.0637349 C77.1707778,65.0637349 79.7292667,62.4921205 79.7292667,59.3217349 C79.7292667,56.1489639 77.1707778,53.5797349 74.0083333,53.5797349 L70.3037556,53.5797349 C67.1413111,53.5797349 64.5828222,56.1489639 64.5828222,59.3217349" id="Fill-32" fill="#FBAF42" sketch:type="MSShapeGroup"></path>
                <path d="M63.9598444,46.1296867 C63.9598444,48.9517831 66.2377556,51.2395181 69.0554222,51.2395181 L72.3486444,51.2395181 C75.1639333,51.2395181 77.4418444,48.9517831 77.4418444,46.1296867 C77.4418444,43.3052048 75.1639333,41.0198554 72.3486444,41.0198554 L69.0554222,41.0198554 C66.2377556,41.0198554 63.9598444,43.3052048 63.9598444,46.1296867" id="Fill-33" fill="#FBAF42" sketch:type="MSShapeGroup"></path>
                <path d="M62.2906444,34.8484578 C62.2906444,37.400988 64.3474222,39.469253 66.8987778,39.469253 L69.8781333,39.469253 C72.4247333,39.469253 74.4815111,37.400988 74.4815111,34.8484578 C74.4815111,32.2959277 72.4247333,30.2324337 69.8781333,30.2324337 L66.8987778,30.2324337 C64.3474222,30.2324337 62.2906444,32.2959277 62.2906444,34.8484578" id="Fill-34" fill="#FBAF42" sketch:type="MSShapeGroup"></path>
                <path d="M61.1730889,23.7747711 C61.1730889,25.9599277 62.9350222,27.7347711 65.1225778,27.7347711 L67.6715556,27.7347711 C69.8519778,27.7347711 71.6162889,25.9599277 71.6162889,23.7747711 C71.6162889,21.5896145 69.8519778,19.8171566 67.6715556,19.8171566 L65.1225778,19.8171566 C62.9350222,19.8171566 61.1730889,21.5896145 61.1730889,23.7747711" id="Fill-35" fill="#FBAF42" sketch:type="MSShapeGroup"></path>
                <path d="M37.1337556,152.059687 C13.1562444,130.861759 8.18431111,90.1930361 7.01682222,59.8990361 C1.64542222,82.7382169 2.53708889,192.768964 51.6976444,192.213133 C70.2300444,192.003205 77.3681333,176.730964 77.7747333,171.222747 C78.5879333,149.616892 58.8785333,169.798578 37.1337556,152.059687" id="Fill-36" fill="#6A9440" sketch:type="MSShapeGroup"></path>
                <path d="M99.7358889,58.9448193 C99.7358889,58.9448193 75.9034222,177.961904 37.8090444,189.040361 C42.6145333,191.678771 48.9394222,193.508482 56.5483111,192.568578 C66.2068444,191.375807 76.9805556,185.340386 86.7342,164.955928 C102.180244,122.142602 99.7358889,58.9448193 99.7358889,58.9448193" id="Fill-37" fill="#518843" sketch:type="MSShapeGroup"></path>
            </g>
        </g>
    </g>
</svg>