<?xml version="1.0" encoding="UTF-8" standalone="no"?>
<svg width="220px" height="139px" viewBox="0 0 220 139" version="1.1" xmlns="http://www.w3.org/2000/svg" xmlns:xlink="http://www.w3.org/1999/xlink" xmlns:sketch="http://www.bohemiancoding.com/sketch/ns">
    <!-- Generator: Sketch 3.1.1 (8761) - http://www.bohemiancoding.com/sketch -->
    <title>p-papa</title>
    <desc>Created with Sketch.</desc>
    <defs></defs>
    <g id="Page-1" stroke="none" stroke-width="1" fill="none" fill-rule="evenodd" sketch:type="MSPage">
        <g id="Desktop-HD" sketch:type="MSArtboardGroup" transform="translate(-592.000000, -271.000000)">
            <g id="p-papa" sketch:type="MSLayerGroup" transform="translate(593.000000, 272.000000)">
                <path d="M137.59012,114.660667 C115.678253,125.208667 87.4175301,111.701333 74.471988,84.486 C61.5191566,57.2693333 68.7837952,26.6513333 90.695,16.106 C95.7636145,13.6586667 101.18012,12.558 106.652952,12.5653333 C97.1803614,11.6653333 86.9357831,12.1213333 76.2200602,14.0906667 C32.9390361,22.064 -5.87704819,55.2393333 2.89114458,91.4146667 C10.7057831,123.678 54.4513253,140.33 97.733012,132.36 C115.148133,129.155333 130.852952,121.638667 142.780663,111.524 C141.147229,112.682667 139.440241,113.766 137.59012,114.660667" id="Fill-1" fill="#F8DAA3" sketch:type="MSShapeGroup"></path>
                <path d="M75.8622289,12.652 C47.19,17.9286667 22.1789157,31.6586667 8.37656627,53.7806667 C0.581144578,66.2613333 -2.00981928,79.4733333 0.965481928,92.4106667 C8.75096386,126.262667 51.1122289,144.451333 96.58,134.577333 C113.673735,130.865333 131.709096,121.582667 141.52759,111.708667 L141.503072,110.517333 C129.585301,120.629333 113.168133,127.148 96.58,129.902 C52.6681325,137.178 16.1753012,118.688 8.95042169,88.8646667 C6.09240964,77.058 8.47198795,64.7766667 15.8406627,53.3506667 C28.2123494,34.1513333 50.0771687,20.7473333 79.0137952,15.554 C89.359759,13.6946667 93.1726506,12.0853333 100.971386,15.416 L106.400482,14.7 C96.4753012,9.94333333 86.57,10.676 75.8622289,12.652" id="Fill-2" fill="#EFAB2F" sketch:type="MSShapeGroup"></path>
                <path d="M145.631386,51.3106667 C161.843133,76.716 156.296747,104.681333 138.218976,114.543333 C116.863072,126.189333 88.0808434,111.652 75.1684337,84.524 C62.2593373,57.3873333 68.8301807,16.1286667 88.6785542,13.2746667 C108.761506,10.386 126.958554,22.0706667 145.631386,51.3106667" id="Fill-3" fill="#EEC484" sketch:type="MSShapeGroup"></path>
                <path d="M88.5539759,12.7193333 C80.2907229,14.404 76.3923494,17.8586667 72.3945783,27.3853333 C66.0192169,42.554 64.4964458,64.7746667 72.4860241,84.374 C79.1218072,100.666 91.7824096,116.511333 108.098193,118.425333 C119.331446,119.74 129.297048,121.2 138.289217,116.3 C158.126988,105.477333 163.914578,76.4893333 151.766867,48.8673333 C137.75247,20.6373333 103.828735,9.60733333 88.5539759,12.7193333 L88.5539759,12.7193333 Z M111.505542,115.944667 C97.7886747,111.468 83.1818675,98.5733333 76.0868675,83.658 C68.2629518,67.2133333 67.3511446,46.6173333 72.1825301,32.0366667 C76.2306627,19.8273333 82.7312651,14.708 90.5876506,14.046 C102.622711,13.0346667 111.836867,21.36 146.806928,54.402 C150.874277,63.632 154.148434,69.0773333 154.148434,77.756 C154.148434,93.2353333 150.121506,107.812 138.584096,114.106 C130.577289,118.477333 121.206747,119.112667 111.505542,115.944667 L111.505542,115.944667 Z" id="Fill-4" fill="#EFAB2F" sketch:type="MSShapeGroup"></path>
                <path d="M7.41240964,83.77 C7.41240964,83.77 8.18837349,108.873333 49.3661446,118.488667 C71.2243373,123.593333 80.8606024,118.754667 84.658253,114.790667 C89.691747,109.535333 84.5515663,104.049333 84.5515663,104.049333 C84.5515663,104.049333 108.881446,118.970667 120.773373,118.970667 C132.66994,118.970667 141.064398,112.632 141.064398,112.632 C141.064398,112.632 106.77753,136.572 73.891506,133.756 C40.9981928,130.939333 21.4042771,118.267333 11.6043373,107.706667 C1.8176506,97.1466667 7.41240964,83.77 7.41240964,83.77" id="Fill-5" fill="#EFAB2F" sketch:type="MSShapeGroup"></path>
                <path d="M33.4207831,123.164667 C31.9178916,126.939333 56.3107229,134.096 74.5574699,133.705333 C93.1786145,133.306667 115.393313,126.83 112.971325,123.948667 C111.203373,121.844667 105.464819,120.120667 100.16759,120.824667 C92.673012,121.823333 86.9762048,125.900667 69.8977108,127.462667 C49.2853012,129.344667 34.194759,121.214 33.4207831,123.164667" id="Fill-6" fill="#F4D79F" sketch:type="MSShapeGroup"></path>
                <path d="M106.446205,8.684 C95.4925904,16.5673333 92.4172289,34.352 92.4172289,46.8206667 C92.4172289,56.56 93.9916867,65.7553333 95.3295783,71.7826667 L97.6077711,80.6826667 C99.5539759,87.3093333 102.726084,92.614 106.090361,98.24 C110.084157,104.969333 112.867952,115.840667 119.448735,120.45 C122.864699,122.844667 126.191205,122.448667 131.753494,121.649333 C137.470181,120.824667 136.113072,124.042667 142.943012,129.958667 C145.27753,131.984 148.350904,132.138667 151.606506,133.628 C155.971386,135.626667 161.318313,132.817333 165.212048,130.167333 C167.294096,128.746667 168.140964,127.022667 169.651145,125.162 C171.387952,123.028 172.944518,121.768667 175.313494,119.965333 C185.699217,112.049333 195.242048,102.574667 203.356867,92.3233333 C209.569217,84.4826667 214.098434,81.0026667 216.410422,71.5686667 C218.255241,64.006 220.14247,52.7953333 216.410422,47.1606667 C213.242952,42.3813333 204.710663,37.476 199.145723,38.2446667 C196.150542,38.6586667 190.276145,39.778 187.890602,41.3813333 C185.35,43.086 184.450783,28.5593333 179.987831,25.3486667 C177.201386,23.352 173.464699,22.6373333 165.897892,22.9873333 C158.780361,23.316 150.170542,27.8006667 151.018072,29.846 C149.026145,25.0466667 146.997108,20.8 144.783855,17.246 C141.129337,11.3773333 140.076386,9.74333333 134.931566,5.40133333 C129.004819,0.398666667 129.517048,-1.546 122.010542,1.174 C121.163675,1.47333333 108.536205,7.18133333 106.446205,8.684 L106.446205,8.684 Z M119.169759,111.738667 C116.178554,109.484 114.186627,105.402667 112.262289,101.451333 L109.60506,96.3686667 C106.261988,90.7846667 103.217108,85.6893333 101.419337,79.554 L99.1928313,70.9186667 C95.866988,55.8406667 90.7910843,19.658 115.473494,9.35933333 L115.863133,9.2 L116.155361,8.89066667 C119.013373,5.846 121.795181,4.70466667 124.89506,5.28933333 C133.056928,6.846 139.60259,16.456 141.420241,19.3706667 C143.899217,23.3613333 146.195964,28.1 148.429759,33.8726667 L149.575482,36.822 L151.727108,34.5066667 C156.674458,29.1953333 162.784759,27.134 170.942651,28.026 C171.170602,28.0393333 172.014157,28.208 172.014157,28.208 L172.416386,28.292 L172.971024,28.276 L174.201566,28.0226667 C175.64747,28.0393333 177.57247,29.9733333 177.57247,31.6733333 L177.57247,32.058 L177.710964,32.4173333 C180.02759,38.2446667 181.553012,45.116 182.37006,53.428 L182.799458,57.844 L185.795301,54.5926667 C191.181325,48.7426667 196.653494,43.6033333 204.421084,44.906 L204.585422,44.932 L204.74512,44.932 C206.036627,44.932 207.513012,46.0553333 208.108072,47.4873333 L208.363855,48.0886667 L208.909217,48.424 C210.839518,49.606 211.82488,52.7346667 211.82488,57.4613333 C211.82488,59.6666667 211.609518,62.2226667 211.18012,65.09 L211.150301,65.2426667 L210.259699,70.234 C208.985422,76.5253333 205.71988,82.944 200.251024,89.8406667 C190.712169,101.89 177.415422,114.197333 164.687229,122.782 C164.542771,122.892667 160.77494,125.511333 160.77494,125.511333 C159.249518,126.494 157.806265,127.136 156.403434,127.472 C156.21988,127.530667 155.652651,127.728667 155.652651,127.728667 C155.652651,127.728667 154.635482,128.055333 154.204096,128.190667 C153.943012,128.119333 152.604458,127.744 152.604458,127.744 L152.205542,127.608667 C149.513855,127.104667 146.78241,125.440667 144.078133,122.67 C142.844277,121.392667 141.650843,119.305333 140.720482,116.786 L140.103554,115.099333 L138.372711,115.544667 C131.761446,117.249333 124.583614,115.826 119.169759,111.738667 L119.169759,111.738667 Z M151.475301,131.532 C151.38253,131.514667 151.297048,131.446 151.20759,131.429333 C151.183735,131.422667 150.986928,131.372 150.986928,131.372 L151.475301,131.532 L151.475301,131.532 Z" id="Fill-7" fill="#EFAB2F" sketch:type="MSShapeGroup"></path>
                <path d="M97.2605422,71.3506667 C97.9483735,74.464 98.7130723,77.4106667 99.510241,80.1206667 C101.406747,86.5673333 104.525181,91.748 107.901386,97.3966667 C110.890602,102.391333 113.170783,109.708 117.976988,113.340667 C129.17512,121.787333 145.962711,118.970667 151.564096,107.706667 C162.760241,85.1793333 159.961867,57.018 148.76241,34.49 C143.168976,26.04 140.370602,17.592 134.77253,11.9606667 C131.970843,9.144 126.009639,7.61133333 123.205301,4.80333333 C122.010542,4.80333333 119.905964,5.40133333 117.976988,6.33066667 C91.3914458,14.3533333 92.015,47.612 97.2605422,71.3506667" id="Fill-8" fill="#F8DAA3" sketch:type="MSShapeGroup"></path>
                <path d="M107.784759,68.9306667 C109.952289,78.9973333 113.306627,88.8093333 118.051867,97.9053333 C123.705602,108.75 144.993253,127.400667 153.911205,108.608667 C162.014759,91.5386667 161.493253,70.4733333 156.469036,52.59 C153.402289,41.6473333 149.580783,29.3693333 143.709699,19.686 C140.024036,13.614 133.731506,6.298 126.605361,4.87866667 C118.662169,3.302 114.064036,11.918 110.356506,17.9633333 C102.788373,30.2926667 103.877771,44.4193333 105.884277,58.2773333 C106.423012,61.9513333 107.048554,65.4906667 107.784759,68.9306667" id="Fill-9" fill="#EEC484" sketch:type="MSShapeGroup"></path>
                <path d="M132.558614,77.0426667 C132.403554,78.3533333 132.271024,79.6646667 132.157048,80.972 C131.291627,91.124 135.402048,99.4513333 136.218434,108.602 C136.733976,114.309333 139.071807,120.046 141.929819,122.905333 C159.03747,140.072 173.269217,114.346 178.962048,102.908 C181.808795,94.33 184.648916,85.754 184.643614,77.1713333 C187.486386,60.0133333 181.779639,45.7106667 178.920301,31.4073333 C176.068916,28.548 173.214217,25.6886667 170.372108,25.684 C152.625663,23.6933333 144.370361,34.4213333 137.39994,55.2246667 C135.034277,62.2853333 133.434639,69.636 132.558614,77.0426667" id="Fill-10" fill="#EFAB2F" sketch:type="MSShapeGroup"></path>
                <path d="M134.70759,77.8953333 C134.549217,79.2126667 134.406747,80.5333333 134.29012,81.848 C133.384277,92.0773333 137.380723,100.431333 138.136807,109.64 C138.615241,115.383333 140.885482,121.145333 143.67259,124.007333 C160.404518,141.2 174.534217,115.218 180.200542,103.674 C183.041988,95.0213333 185.885422,86.37 185.929819,77.736 C188.812349,60.4453333 182.056627,45.5853333 179.324518,31.202 C176.538072,28.338 174.969578,25.9733333 172.164578,25.9846667 C154.728916,24.084 146.55247,34.9206667 139.585361,55.898 C137.221687,63.0206667 135.612771,70.4326667 134.70759,77.8953333" id="Fill-11" fill="#F8DAA3" sketch:type="MSShapeGroup"></path>
                <path d="M145.029699,77.1466667 C144.867349,94.0033333 144.69506,110.865333 149.88494,127.666 C149.88494,127.666 152.533554,130.451333 155.204699,130.421333 C176.655361,124.578667 182.287229,96.4306667 185.153193,76.728 C185.291687,62.6793333 185.629639,47.4153333 180.850602,32.322 C179.616747,28.4433333 176.479096,26.1946667 173.816566,26.4 C153.576566,27.942 145.229157,57.4793333 145.029699,77.1466667" id="Fill-12" fill="#EEC484" sketch:type="MSShapeGroup"></path>
                <path d="M163.837711,65.8733333 C158.598795,73.6793333 155.004578,80.6693333 151.734398,88.1553333 C148.813434,94.8293333 149.440301,103.872 150.367349,111.412 C151.271867,118.77 158.46759,131.002 167.011145,124.843333 C189.007169,109.961333 208.034518,92.342 215.185181,63.8126667 C214.912169,58.1593333 213.912892,54.1226667 213.641867,48.47 C213.512651,45.648 209.99,43.406 207.917892,42.268 C205.849759,41.1353333 202.562349,39.522 200.53,39.698 C191.273434,40.4913333 186.958253,42.968 178.137048,52.52 C175.18759,55.716 167.987892,59.698 163.837711,65.8733333" id="Fill-13" fill="#EFAB2F" sketch:type="MSShapeGroup"></path>
                <path d="M165.001325,67.2806667 C159.767711,75.0933333 156.182108,82.09 152.895361,89.5706667 C149.968434,96.2386667 150.11488,104.681333 150.381928,111.832667 C150.646325,119.211333 159.245542,132.21 167.716867,126.018667 C189.521386,111.029333 208.409578,93.3473333 215.666928,64.8666667 C215.434337,59.242 214.482771,55.22 214.252831,49.5946667 C214.135542,46.7846667 210.685783,44.5706667 208.639518,43.456 C206.607169,42.3373333 203.382048,40.7573333 201.372229,40.9413333 C192.240241,41.802 187.971446,44.298 179.193313,53.878 C176.25247,57.0786667 169.128976,61.0993333 165.001325,67.2806667" id="Fill-14" fill="#F4D79F" sketch:type="MSShapeGroup"></path>
                <path d="M172.91006,70.178 C169.555723,75.14 162.883494,87.0433333 159.519217,95.77 C156.928253,101.507333 157.101867,109.854667 157.207892,115.421333 C160.07253,123.603333 162.927229,131.780667 170.898916,125.715333 C183.164578,116.372 196.06506,103.044667 205.122169,90.4066667 C209.587771,84.184 213.405301,77.184 214.728614,69.566 C215.735843,63.7793333 218.847651,47.8093333 210.376988,45.252 C204.704699,43.5426667 196.221446,46.926 191.009036,51.0153333 C184.401747,56.2053333 177.584398,63.2606667 172.91006,70.178" id="Fill-15" fill="#EEC484" sketch:type="MSShapeGroup"></path>
                <path d="M176.31012,84.2426667 C163.09753,102.760667 157.861928,121.775333 164.599096,126.708667 C171.342229,131.637333 192.065301,123.126667 205.279217,104.612667 C218.487831,86.0926667 219.191566,64.5826667 212.441807,59.6473333 C205.701988,54.714 189.515422,65.7326667 176.31012,84.2426667" id="Fill-16" fill="#F8DAA3" sketch:type="MSShapeGroup"></path>
                <path d="M175.332711,83.64 C167.883193,94.4853333 158.743253,106.866667 159.659699,121.880667 C159.851867,124.930667 161.378614,127.159333 163.352651,128.606 C171.504578,134.566 196.60512,124.400667 210.762651,102.474667 C221.603614,85.6766667 221.084759,62.134 213.052771,58.314 C204.243494,54.126 186.230663,67.7886667 175.332711,83.64 L175.332711,83.64 Z M215.566205,65.4906667 C217.251988,73.724 216.444217,88.464 207.312892,101.266 C193.995602,119.92 179.431867,124.021333 172.695361,118.293333 C166.467771,113.005333 170.067952,94.3666667 179.392108,81.3066667 C194.148675,61.0006667 212.555783,50.7426667 215.566205,65.4906667 L215.566205,65.4906667 Z" id="Fill-17" fill="#EFAB2F" sketch:type="MSShapeGroup"></path>
                <path d="M149.615241,125.820667 C147.853916,120.398 146.189337,111.862667 145.473675,104.089333 C145.299398,102.136 143.803133,105.248 141.678675,105.328667 C139.345482,105.429333 137.584157,104.320667 136.602771,100.956667 C136.19988,101.764667 136.156807,101.982667 136.533855,104.353333 C136.97253,107.082667 136.436446,109.658 136.669036,111.46 C136.957289,113.672667 136.423193,115.574667 133.240482,113.569333 C129.483916,111.190667 124.521325,107.338 120.773373,101.840667 C118.454096,98.4393333 116.581446,94.9853333 115.175301,91.9966667 C114.405301,93.742 113.254277,95.0086667 111.740783,95.4786667 C107.413012,96.8446667 101.89512,91.484 99.4274096,83.5113333 C99.1298795,82.5593333 98.9025904,81.622 98.7157229,80.694 C98.7614458,81.132 99.0649398,82.3626667 99.6977711,84.9113333 C101.05753,90.4513333 111.139759,107.275333 113.554458,111.172667 C115.979096,115.069333 121.795181,119.456667 128.569458,119.456667 C135.353012,119.456667 138.562229,122.584 142.613675,127.254667 C148.837952,134.416 158.000422,129.727333 158.000422,129.727333 C158.000422,129.727333 151.778133,132.54 149.615241,125.820667" id="Fill-18" fill="#EFAB2F" sketch:type="MSShapeGroup"></path>
                <path d="M162.766867,124.864 C162.085663,124.357333 161.710602,123.442 161.431627,121.787333 C161.309699,121.059333 160.016205,115.507333 160.105,115.302667 C159.507952,116.590667 159.92741,117.958667 158.889036,117.828667 C156.324578,117.503333 157.128373,110.720667 157.229759,109.461333 C157.598193,104.718 157.789036,102.466667 157.883795,101.451333 C156.693012,101.566667 155.563193,101.373333 154.583133,100.818667 C152.061747,99.4006667 151.063133,95.9966667 151.585964,92.016 C151.25994,93.1806667 150.949819,94.5273333 150.686084,96.1033333 C149.982349,100.319333 149.765,107.654 150.228855,111.571333 C150.661566,115.197333 151.798012,118.744 153.255181,122.114 C155.398193,127.076 160.273313,127.310667 157.877169,129.824667 C157.134337,130.574667 155.683133,130.378 155.290181,130.745333 C156.536627,133.219333 162.202289,130.216667 163.794639,129.302667 C164.71241,128.783333 166.467771,128.067333 167.063494,127.339333 C168.01241,126.196 167.312651,125.603333 166.062892,125.554 C164.49506,125.491333 163.469277,125.388667 162.766867,124.864" id="Fill-19" fill="#EFAB2F" sketch:type="MSShapeGroup"></path>
                <path d="M179.825482,124.659333 C182.470783,124.659333 175.550723,127.972 170.243554,127.067333 C166.327289,126.400667 164.49506,123.466667 164.49506,120.797333 C164.49506,118.145333 167.653253,121.425333 171.201084,123.214 C175.037831,125.142667 176.950241,124.659333 179.825482,124.659333" id="Fill-20" fill="#E6C080" sketch:type="MSShapeGroup"></path>
            </g>
        </g>
    </g>
</svg>