<?xml version="1.0" encoding="UTF-8" standalone="no"?>
<svg width="211px" height="69px" viewBox="0 0 211 69" version="1.1" xmlns="http://www.w3.org/2000/svg" xmlns:xlink="http://www.w3.org/1999/xlink" xmlns:sketch="http://www.bohemiancoding.com/sketch/ns">
    <!-- Generator: Sketch 3.1.1 (8761) - http://www.bohemiancoding.com/sketch -->
    <title>palmex-i</title>
    <desc>Created with Sketch.</desc>
    <defs></defs>
    <g id="Page-1" stroke="none" stroke-width="1" fill="none" fill-rule="evenodd" sketch:type="MSPage">
        <g id="Desktop-HD" sketch:type="MSArtboardGroup" transform="translate(-43.000000, -176.000000)" fill="#ED1C23">
            <g id="palmex-i" sketch:type="MSLayerGroup" transform="translate(43.000000, 176.000000)">
                <path d="M40.7189617,6.57659302 C28.3598134,-7.38994186 -0.511851675,5.00351163 0.00706698565,9.40409302 C0.0383636364,10.2488023 2.07971292,10.7040349 2.07971292,10.7040349 C5.48196172,8.38133721 10.5318278,6.90132558 14.4903493,5.90082558 C18.4428134,4.90234884 22.6476699,4.48859302 26.6748421,5.28676744 C32.2355502,6.38640698 37.1370096,10.2538605 36.7685167,16.3590349 C36.6544354,18.2517907 36.1052297,21.3787326 34.9230239,22.9305698 C31.5066411,27.3797093 21.3725837,27.6255349 19.3504163,28.1576512 C20.4417608,26.2992907 21.4432536,13.8178256 21.078799,12.0049884 C20.7143445,10.1972093 10.3400096,11.5062558 10.601488,12.4217791 C10.8387368,13.3211163 11.3616938,14.2730581 11.4828421,16.8041512 C11.6019713,19.3392907 3.82323923,50.911186 2.76117225,55.2652326 C2.04336842,58.9323837 3.36186603,58.6693605 3.36186603,58.6693605 C3.36186603,58.6693605 10.9195024,58.8433605 11.7786459,58.673407 C12.6327416,58.5004186 17.6664545,34.1353605 17.6684737,34.1252442 C17.7371244,33.791407 22.1136077,33.225907 22.569933,33.1399186 C29.736866,31.7883837 38.6776124,28.1738372 42.5341675,21.5780233 C44.6542632,17.9503256 44.7945933,13.7136279 42.9743397,9.9432907 C42.4029234,8.75867442 41.6437273,7.52347674 40.7189617,6.57659302" id="Fill-1" sketch:type="MSShapeGroup"></path>
                <path d="M63.2242823,60.1918605 C60.1955742,54.880814 61.3313397,48.684593 61.3313397,48.684593 C61.3313397,48.684593 62.0572201,45.0447558 66.0005981,31.8662791 C69.9510431,18.6685814 56.9094258,17.2239767 51.0943062,21.2897093 C47.5355742,23.7904535 44.4987895,26.2780465 44.3534115,28.188 C44.237311,29.6326047 46.0878517,29.658907 46.499756,29.3483372 C56.1865742,19.2381279 59.5413732,28.639186 58.8074163,30.8546512 C57.3374833,36.3295814 55.4586746,41.9087093 52.3310287,46.6744884 C51.1740622,48.4367442 48.762201,52.0391512 46.4896603,52.5672209 C44.4836459,53.0335814 43.7587751,49.6952093 43.829445,48.4792326 C43.953622,46.3285116 44.8440622,44.2142093 45.9969904,42.4236279 C47.8778182,39.5030581 50.9206603,36.5056047 54.2078182,35.207686 C54.9215837,35.001314 54.3239187,32.6128605 53.7969234,32.6705233 C52.9367703,32.7170581 49.9393589,33.565814 49.9393589,33.565814 C31.563177,40.7928837 35.6226555,52.4721279 35.6226555,52.4721279 C38.3050813,64.8281512 52.5834211,55.3016512 54.5167464,50.2020349 C51.5233732,59.2358721 57.0406699,63.3531977 57.0406699,63.3531977 C63.0920287,70.3718721 73.0918134,67.8852907 74.708134,66.6946047 C77.9963014,64.2424186 77.4844498,60.6976744 77.4844498,60.6976744 C69.6320191,67.3187791 63.5746029,60.7553372 63.5746029,60.7553372" id="Fill-2" sketch:type="MSShapeGroup"></path>
                <path d="M68.9434928,57.0912209 L74.8101005,55.9531395 L86.4807225,3.55182558 C86.4807225,3.55182558 86.9037321,0.345976744 84.1112632,0.885174419 C81.3319187,1.42437209 78.1436986,2.03944186 78.1436986,2.03944186 C78.1436986,2.03944186 67.3493828,51.3067326 66.7840239,54.114 C66.2368373,56.9182326 68.9434928,57.0912209 68.9434928,57.0912209" id="Fill-3" sketch:type="MSShapeGroup"></path>
                <path d="M129.22488,59.5090116 C124.687876,53.7983721 134.651316,28.1991279 134.651316,28.1991279 C135.095526,25.961407 134.863325,23.3230814 133.266187,21.5537442 C131.744766,19.8653372 129.197622,18.590686 127.003828,19.6468256 C125.47534,20.3822791 124.245684,22.0443837 123.10689,23.2593488 C120.361871,26.1890233 118.044909,29.6781279 115.952072,33.1004651 C115.457383,33.9087558 114.908177,34.6988372 114.459928,35.5334302 C113.935962,36.6361047 112.341852,36.8849651 112.693182,35.7863372 C113.245416,34.0706163 115.432144,22.9386628 115.432144,22.9386628 C115.090909,17.3241279 109.255598,19.373686 106.509569,21.3706395 C103.372837,23.6518605 95.0045167,37.1307907 95.0045167,37.1307907 C94.2776268,38.2769651 94.1080191,37.991686 94.520933,37.1095465 C96.9832727,31.3968837 97.78689,20.9336163 97.78689,20.9336163 C93.4255502,20.1829884 88.9471005,21.671093 88.9975789,22.0808023 C91.2953589,23.9300581 81.860933,54.9829884 81.860933,54.9829884 C80.2617751,60.1615116 88.3918373,58.7917674 89.9778708,55.7659884 C97.5042105,41.0518605 102.092703,32.625 102.092703,32.625 C103.211306,30.7433721 105.861426,26.3073837 106.980029,27.3250814 C108.083488,28.3528953 106.574182,32.9669302 106.130981,34.3953488 C105.508077,36.4418721 103.023526,48.8444302 101.512201,54.8029186 C100.887278,57.9136744 106.703407,58.3375465 109.412081,53.2369186 C113.410986,43.3725349 123.041268,28.9578488 123.041268,28.9578488 C126.574761,24.4055233 128.018445,27.9917442 124.681818,35.9127907 C114.650737,57.7710349 125.979115,65.7831279 130.23445,66.3880814 C134.515024,66.9717907 138.601761,66.8554535 140.708732,64.850407 C142.82277,62.8504186 142.349282,61.3299419 142.349282,61.3299419 C135.88299,65.7497442 131.82755,62.7168837 129.855861,60.4447674" id="Fill-4" sketch:type="MSShapeGroup"></path>
                <path d="M209.136335,4.47544186 C206.940522,3.01161628 203.37977,4.45217442 200.793254,5.91094186 C192.38556,10.4359535 182.51601,26.5967093 182.056656,27.3817326 C180.384809,16.043407 178.587775,17.016593 177.669067,16.8871047 L177.555995,16.8648488 L177.414656,16.8911512 C170.306278,17.8107209 169.121043,19.0054535 168.915091,20.0514767 C168.772742,20.801093 169.213923,21.4475233 169.748995,21.7823721 C179.365144,30.2618372 176.049718,36.8343837 175.912416,37.1044884 C170.517278,49.3259651 158.434751,59.4887791 158.314612,59.5960116 C157.477679,60.3476512 157.247498,61.0274651 157.595799,61.6587209 C157.831029,62.0886628 158.372158,63.0962442 163.957096,61.7143605 L164.143866,61.6607442 L164.293282,61.5484535 C170.655589,56.5955233 178.357593,41.3988488 178.366679,41.7336977 L178.356584,41.8146279 L178.371727,41.8753256 C179.902234,50.3466977 186.029311,60.0795698 186.162574,60.3790116 C187.579,63.5393372 195.788818,60.3557442 198.12799,59.6860465 C197.909923,59.7406744 195.45667,56.471093 195.153799,56.1301744 C189.277096,49.5040116 185.18733,41.7387558 184.7199,32.7261628 C189.258923,24.0706744 198.682244,15.3221163 198.787239,15.2320814 C198.787239,15.2320814 198.858919,15.1794767 198.860938,15.1683488 C204.262134,10.2032791 209.661311,10.6241163 209.720876,10.6311977 L210.60223,10.7020116 C210.608287,10.7070698 210.729435,9.8057093 210.729435,9.8057093 C211.04745,7.18053488 210.520455,5.38388372 209.136335,4.47544186" id="Fill-5" sketch:type="MSShapeGroup"></path>
                <path d="M151.970478,24.0555 C155.631177,19.4445 159.103086,19.5527442 158.69623,25.2431512 C158.445856,28.856686 156.721512,35.4504767 146.704565,37.4909302 C146.704565,37.4909302 148.290598,28.6988721 151.970478,24.0555 M164.093388,43.4706628 C165.141321,41.1267209 164.092378,37.7013488 161.729986,42.6694535 C161.729986,42.6694535 155.287923,56.7361395 148.348144,52.7462791 C145.658651,50.9890814 143.721287,48.024 145.841383,40.7453372 C145.841383,40.7453372 170.25378,38.2536977 166.522411,22.6240465 C166.072144,20.7474767 163.996469,16.5067326 157.156636,17.7611512 C154.802321,18.1769302 150.11489,19.9321047 146.707593,22.8162558 C143.958536,25.2917093 138.711804,30.3012907 137.549789,41.2936395 C137.549789,41.2936395 132.466608,62.0734884 151.248636,58.2363837 C159.357498,56.5904651 163.045455,45.813593 164.093388,43.4706628" id="Fill-6" sketch:type="MSShapeGroup"></path>
                <path d="M203.523129,55.6081744 C203.75533,55.5049884 204.10767,55.3886512 204.432751,55.3228953 C204.948641,55.2065581 205.299971,55.2298256 205.579622,55.3886512 C205.792641,55.5130814 205.961239,55.7467674 206.040995,56.0310349 C206.149019,56.5216744 205.88855,56.925314 205.549335,57.1357326 L205.549335,57.1579884 C205.852206,57.1954186 206.080368,57.4220233 206.266129,57.7892442 C206.49934,58.2798837 206.669957,58.6167558 206.774952,58.7533256 L206.275215,58.8605581 C206.186373,58.7685 206.040995,58.4589419 205.835043,58.0229302 C205.60789,57.5272326 205.359536,57.384593 204.923402,57.4695698 L204.467077,57.566686 L204.827493,59.1883256 L204.347947,59.2894884 L203.523129,55.6081744 L203.523129,55.6081744 Z M204.379244,57.2045233 L204.873933,57.0891977 C205.393861,56.976907 205.650292,56.6258721 205.558421,56.1908721 C205.452416,55.7052907 205.057675,55.584907 204.545823,55.696186 C204.320689,55.7467674 204.159158,55.8074651 204.091517,55.8479302 L204.379244,57.2045233 L204.379244,57.2045233 Z" id="Fill-7" sketch:type="MSShapeGroup"></path>
                <path d="M204.218722,53.2743488 C203.209153,53.5080349 202.334866,54.1180465 201.776574,54.9941163 C201.228378,55.8732209 201.038579,56.9232907 201.274818,57.9349186 C201.737201,60.0471977 203.828019,61.370407 205.929943,60.908093 C206.933455,60.674407 207.805722,60.0684419 208.365024,59.1883256 C208.766833,58.5570698 208.980861,57.8337558 208.980861,57.1043721 C208.980861,56.8160581 208.940478,56.5297674 208.881923,56.2465116 C208.408435,54.1433372 206.317617,52.8120349 204.218722,53.2743488 M201.737201,57.8337558 C201.532258,56.9475698 201.689751,56.0239535 202.179392,55.2561279 C202.680139,54.4640233 203.438325,53.9379767 204.331794,53.7437442 C206.173249,53.3299884 208.016722,54.5075233 208.408435,56.3537442 C208.616407,57.2348721 208.462952,58.1524186 207.973311,58.934407 C207.479632,59.7133605 206.712359,60.2444651 205.824947,60.4397093 C203.981474,60.8514419 202.152134,59.6789651 201.737201,57.8337558" id="Fill-8" sketch:type="MSShapeGroup"></path>
            </g>
        </g>
    </g>
</svg>