<?xml version="1.0" encoding="UTF-8" standalone="no"?>
<svg width="153px" height="87px" viewBox="0 0 153 87" version="1.1" xmlns="http://www.w3.org/2000/svg" xmlns:xlink="http://www.w3.org/1999/xlink" xmlns:sketch="http://www.bohemiancoding.com/sketch/ns">
    <!-- Generator: Sketch 3.1.1 (8761) - http://www.bohemiancoding.com/sketch -->
    <title>palmex</title>
    <desc>Created with Sketch.</desc>
    <defs></defs>
    <g id="Page-1" stroke="none" stroke-width="1" fill="none" fill-rule="evenodd" sketch:type="MSPage">
        <g id="Desktop-HD" sketch:type="MSArtboardGroup" transform="translate(-97.000000, -52.000000)">
            <g id="palmex" sketch:type="MSLayerGroup" transform="translate(97.000000, 53.000000)">
                <path d="M29.5193058,26.7552293 C20.1749256,17.1949659 -0.536132231,30.0899317 -0.0210743802,33.2027122 C0.0273966942,33.8080683 1.50850413,34.0677463 1.50850413,34.0677463 C7.87380992,29.3121561 14.4355289,28.1178049 14.4355289,28.1178049 C27.4767769,25.6749854 26.6472893,35.0376585 24.3151983,38.3891415 C22.0016529,41.6756 15.485876,43.9866927 14.0570331,44.4221463 C14.7739835,43.0658634 15.213595,34.3765073 14.8860992,33.0814732 C14.5649256,31.8057366 7.47297521,34.3656 7.68498347,35.0120683 C7.89404132,35.6535024 8.29782645,36.3087805 8.46304959,38.114361 C8.6324876,39.9161659 4.08379339,62.7107805 3.46631405,65.8499902 C3.0734876,68.4924976 4.00792562,68.2605073 4.00792562,68.2605073 C4.00792562,68.2605073 9.36292562,66.9231024 9.97197521,66.771239 C10.5894545,66.6176976 13.2304959,48.3072488 13.2304959,48.3072488 L18.9509256,45.752 C35.2620744,37.4934829 31.1808099,28.309522 29.5193058,26.7552293" id="Fill-1" fill="#1A1918" sketch:type="MSShapeGroup"></path>
                <path d="M46.0504711,60.6014732 C42.8269339,57.1753171 43.9759091,52.5871122 43.9759091,52.5871122 C43.9759091,52.5875317 44.4273223,50.1694634 46.3851322,40.3939902 C48.3539008,30.6017366 39.6522893,30.5618829 35.6957851,33.8915512 C33.2751818,35.9370927 31.2372893,37.9385854 31.2583636,39.3275902 C31.278595,40.3797268 32.6189256,40.2702341 32.8996364,40.0273366 C39.253562,32.0696098 41.5177934,38.7071317 41.1287603,40.3591707 C38.419438,56.1328293 33.4264959,57.6061561 33.0395702,56.8527122 C30.0807273,51.0894537 36.4789091,44.9469561 38.8931901,43.724078 C39.422157,43.5281659 38.8147934,41.8476 38.4333471,41.9268878 C37.806595,42.0162439 35.6898843,42.8309366 35.6898843,42.8309366 C22.8256612,49.2964585 26.0858678,58.599561 26.0858678,58.599561 C28.8702149,67.3413561 37.9254545,56.9978634 38.9783306,53.1916293 C37.4074463,59.9206049 41.138876,63.4235317 41.138876,63.4235317 C46.020124,68.0637561 52.512719,62.6830927 53.6115372,61.714439 C55.8369917,59.7158829 54.7305868,58.3398829 54.7305868,58.3398829 C49.4662066,63.6567805 46.0504711,60.6014732 46.0504711,60.6014732" id="Fill-2" fill="#1A1918" sketch:type="MSShapeGroup"></path>
                <path d="M49.0215372,56.8397073 L53.3350413,55.7636585 L59.8807438,16.6202341 C59.8807438,16.6202341 60.062405,14.2344683 58.0076529,14.7462732 C55.9588017,15.2618537 53.6216529,15.8437171 53.6216529,15.8437171 C53.6216529,15.8437171 47.6015455,52.6340976 47.3010248,54.7291415 C47.0005041,56.8233463 49.0215372,56.8397073 49.0215372,56.8397073" id="Fill-3" fill="#1A1918" sketch:type="MSShapeGroup"></path>
                <path d="M91.3456364,49.9731317 C87.6664711,46.1580878 93.6035455,27.106361 93.6035455,27.106361 C95.2106777,17.5469366 88.825562,21.1077561 88.825562,21.1077561 C85.5147769,21.9320976 80.2107769,35.6333659 80.2107769,35.6333659 C79.9081488,36.4568683 79.2493636,36.1820878 79.4280744,35.3682341 C79.7134215,34.0908195 80.6723058,27.5040585 80.6723058,27.5040585 C81.4035868,21.8343512 76.773124,23.4268195 74.9114132,25.0478146 C72.7959669,26.9100293 66.7855537,39.1128 66.7855537,39.1128 C66.3476281,39.9858049 66.2013719,39.785278 66.4378264,39.129161 C67.8396942,34.8421659 67.727157,27.2477366 67.727157,27.2477366 C64.5019339,27.0027415 61.3572149,28.3732878 61.4187521,28.6572976 C63.2092314,29.8478732 58.461595,52.853922 58.461595,52.853922 C57.6413802,56.7029463 62.5892231,54.7064878 63.5354628,52.4197268 C68.0129256,41.3064293 70.8179256,34.9927707 70.8179256,34.9927707 C71.4956777,33.5538439 73.0724628,29.9133171 73.9533719,30.5664976 C74.8144711,31.2364585 73.9533719,35.4299024 73.7384132,36.4900098 C73.4113388,37.9977366 72.2960826,45.5191707 71.5947273,49.9081073 C71.3595372,52.1881561 75.6144545,52.2351415 77.229595,48.3823415 C79.4630579,41.0022829 84.8800165,30.2854244 84.8800165,30.2854244 C88.0255785,24.3795317 88.7286198,27.8178537 86.8416198,33.7451415 C81.0322562,50.1841463 89.5416694,53.8716585 92.684281,54.0180683 C95.8243636,54.1602829 98.3313719,52.3031024 99.7264959,50.7110537 C101.126256,49.124878 100.475901,48.3630439 100.475901,48.3630439 C96.085686,51.980078 92.9270579,51.4879902 91.3456364,49.9731317" id="Fill-4" fill="#1A1918" sketch:type="MSShapeGroup"></path>
                <path d="M143.310421,1.1247122 C141.677157,0.300790244 139.334107,1.5891122 137.664595,2.81366829 C132.224033,6.62032195 126.73205,18.5869073 126.479579,19.1649951 C124.401223,11.4837268 123.236231,12.296322 122.585876,12.2828976 L122.501157,12.2828976 L122.410537,12.2984195 C117.578182,13.5330439 116.854066,14.4459024 116.798008,15.1922146 C116.756702,15.705278 117.117074,16.1210146 117.513273,16.3076976 C124.849264,21.3712098 123.094612,26.1846927 123.020851,26.3848 C120.28919,35.2629366 112.782917,43.2668098 112.707893,43.3507122 C112.193678,43.9409659 112.087884,44.4280195 112.370281,44.8357854 C112.575545,45.1181171 113.03581,45.767522 116.782835,44.3533463 L116.91476,44.3030049 L117.002008,44.2115512 C120.986752,40.2702341 125.052843,29.1430927 125.09457,29.3805366 L125.097942,29.4325561 L125.109322,29.4820585 C126.862289,35.2008488 129.628091,39.6745268 129.743157,39.8670829 C129.978347,40.2383512 130.508579,41.1059024 137.470289,38.7788683 L138.644975,38.392078 L137.650686,37.6377951 C130.688554,32.475278 128.973099,23.8928976 128.75519,22.636878 C131.175793,16.2942732 136.973355,9.48181463 137.041636,9.41427317 L137.090107,9.35931707 L137.090107,9.35512195 C140.41438,5.48805854 144.181215,5.332 144.21114,5.32738537 L144.838314,5.31354146 C144.843793,5.31563902 144.843793,4.68595122 144.843793,4.68595122 C144.848008,2.84639024 144.33843,1.64868293 143.310421,1.1247122" id="Fill-5" fill="#1A1918" sketch:type="MSShapeGroup"></path>
                <path d="M106.174835,19.5845073 C108.587008,16.1419902 110.962091,16.1457659 110.797289,20.3006146 C110.687702,22.9473171 109.645785,27.7876488 102.837496,29.4883512 C102.837496,29.4883512 103.756339,23.049678 106.174835,19.5845073 M114.852421,33.4837854 C115.522587,31.752039 114.734826,29.2823707 113.213256,32.9413561 C113.213256,32.9413561 109.081835,43.3536488 104.273504,40.5873854 C102.387347,39.3661854 101.006132,37.236322 102.307264,31.8841854 C102.307264,31.8841854 118.949702,29.5537951 116.097917,18.2252878 C115.759041,16.872361 114.243372,13.8246049 109.592256,14.8754829 C107.98681,15.2345854 104.819752,16.6156195 102.550041,18.7865951 C100.730479,20.6559415 97.2380331,24.407639 96.6530083,32.457239 C96.6530083,32.457239 93.583314,47.7178341 106.356074,44.5261854 C111.876719,43.1497659 114.167083,35.2159512 114.852421,33.4837854" id="Fill-6" fill="#1A1918" sketch:type="MSShapeGroup"></path>
                <path d="M30.6522645,25.8083902 C21.3108347,16.2451902 0.594297521,29.1338634 1.1118843,32.2571317 C1.16204132,32.8587122 2.64399174,33.1154537 2.64399174,33.1154537 C9.01309091,28.3586049 15.5676446,27.1617366 15.5676446,27.1617366 C28.612686,24.718078 27.7848843,34.0803317 25.4477355,37.4372683 C23.1388264,40.7258244 16.6217851,43.0276878 15.1861983,43.4740488 C15.9090496,42.1114732 16.3406529,33.421278 16.0186364,32.1396683 C15.6966198,30.8618341 8.60635537,33.418761 8.82426446,34.0627122 C9.02531405,34.6965951 9.43204959,35.3598439 9.6014876,37.1620683 C9.77092562,38.9684878 5.21970248,61.7601659 4.59927273,64.9018927 C4.20433884,67.543561 5.14299174,67.3128293 5.14299174,67.3128293 C5.14299174,67.3128293 10.4963058,65.9720683 11.1070413,65.8239805 C11.7152479,65.6708585 14.3697769,47.353278 14.3697769,47.353278 L20.0902066,44.7997073 C36.3929256,36.5411902 32.3192479,27.3580683 30.6522645,25.8083902" id="Fill-7" fill="#ED1C23" sketch:type="MSShapeGroup"></path>
                <path d="M47.1872231,59.6491805 C43.961157,56.2280585 45.1101322,51.650761 45.1101322,51.650761 C45.1101322,51.650761 45.5531157,49.2276585 47.5231488,39.4433756 C49.4969752,29.6465073 40.7793471,29.6104293 36.8287438,32.9413561 C34.4119339,34.9873171 32.3740413,36.9892293 32.3976446,38.3803317 C32.4111322,39.4295317 33.7582066,39.3233951 34.0368099,39.0712683 C40.391157,31.1143805 42.6482231,37.7527415 42.2642479,39.4022634 C39.5561901,55.1872488 34.5581901,56.6626732 34.1742149,55.9012585 C31.2174793,50.1417756 37.6232479,43.996761 40.0383719,42.7789171 C40.5437355,42.5813268 39.9456446,40.8982439 39.5671488,40.9750146 C38.9454545,41.0677268 36.8241074,41.882839 36.8241074,41.882839 C23.9577769,48.3496195 27.2171405,57.6443317 27.2171405,57.6443317 C30.0078099,66.3840293 39.0508264,56.0560585 40.1100248,52.2405951 C38.5484132,58.9683122 42.2760496,62.4607512 42.2760496,62.4607512 C47.1518182,67.1173366 53.650314,61.729961 54.7444959,60.7604683 C56.968686,58.7677854 55.8597521,57.3854927 55.8597521,57.3854927 C50.6021157,62.6994537 47.1872231,59.6491805 47.1872231,59.6491805" id="Fill-8" fill="#ED1C23" sketch:type="MSShapeGroup"></path>
                <path d="M50.1591322,55.8899317 L54.4701074,54.8113659 L61.011595,15.6721366 C61.011595,15.6721366 61.1953636,13.2888878 59.141876,13.7994341 C57.0989256,14.3104 54.755876,14.8939415 54.755876,14.8939415 C54.755876,14.8939415 48.7399835,51.686 48.433562,53.7802049 C48.1414711,55.8710537 50.1591322,55.8899317 50.1591322,55.8899317" id="Fill-9" fill="#ED1C23" sketch:type="MSShapeGroup"></path>
                <path d="M92.4832314,49.0296488 C88.8057521,45.2162829 94.7352397,26.1511317 94.7352397,26.1511317 C96.3444793,16.598839 89.9585207,20.1588195 89.9585207,20.1588195 C86.6565868,20.9806439 81.3513223,34.6785561 81.3513223,34.6785561 C81.0457438,35.5075122 80.3819008,35.2297951 80.563562,34.4134244 C80.8480661,33.1389463 81.7959917,26.557639 81.7959917,26.557639 C82.5386529,20.8849951 77.9048182,22.4741073 76.0469008,24.0976195 C73.9238678,25.9527024 67.9273636,38.1584098 67.9273636,38.1584098 C67.4772149,39.0326732 67.3343306,38.8371805 67.574157,38.1743512 C68.9768678,33.8915512 68.8571653,26.2958634 68.8571653,26.2958634 C65.6412149,26.0479317 62.4918595,27.4205756 62.5555041,27.7129756 C64.3472479,28.8913854 59.5899174,51.9066634 59.5899174,51.9066634 C58.7781322,55.7472976 63.7255537,53.7567122 64.6730579,51.4678537 C69.1450413,40.3591707 71.9546777,34.037122 71.9546777,34.037122 C72.639595,32.6057463 74.2075289,28.9606049 75.087595,29.619239 C75.957124,30.2854244 75.087595,34.4813854 74.8612562,35.5423317 C74.5468264,37.0592878 73.4265124,44.5614244 72.7310579,48.9562341 C72.4861736,51.2408976 76.7419339,51.291239 78.3642397,47.4329854 C80.6031818,40.0554439 86.0104463,29.3289366 86.0104463,29.3289366 C89.1534793,23.4268195 89.863686,26.8697561 87.9762645,32.8024976 C82.1664793,49.2310146 90.6864298,52.9193659 93.8151322,53.0695512 C96.9606942,53.2029561 99.4639091,51.3457756 100.857769,49.7591805 C102.257107,48.1767805 101.613496,47.4107512 101.613496,47.4107512 C97.2182231,51.0311415 94.0663388,50.534439 92.4832314,49.0296488" id="Fill-10" fill="#ED1C23" sketch:type="MSShapeGroup"></path>
                <path d="M144.446331,0.182487805 C142.809694,-0.646468293 140.467909,0.638497561 138.800083,1.85718049 C133.360364,5.67096585 127.863744,17.6379707 127.610008,18.2168976 C125.528281,10.5276585 124.36624,11.3465463 123.721364,11.3322829 L123.641281,11.3255707 L123.546025,11.3557756 C118.710298,12.5736195 117.988711,13.4961268 117.932231,14.2344683 C117.894719,14.7630537 118.252983,15.1737561 118.650025,15.360439 C125.986438,20.4273073 124.232628,25.2344976 124.160132,25.4325073 C121.432686,34.3127415 113.915876,42.3195512 113.842116,42.4030341 C113.325372,42.9911902 113.221686,43.4795024 113.513355,43.8872683 C113.710612,44.1628878 114.167083,44.8156488 117.913264,43.4023122 L118.037603,43.3507122 L118.132017,43.2621951 C122.12224,39.320039 126.200975,28.1958341 126.234273,28.4269854 L126.234273,28.484878 L126.249446,28.5243122 C128.00157,34.2493951 130.77243,38.7213951 130.886231,38.9126927 C131.112149,39.285639 131.64238,40.1586439 138.604934,37.8278341 L139.773719,37.4326537 L138.780273,36.6905366 C131.817719,31.5234049 130.102264,22.9401854 129.887306,21.6871024 C132.315496,15.3394634 138.11095,8.52700488 138.17586,8.45652683 L138.22138,8.4141561 L138.22138,8.40618537 C141.546917,4.53576585 145.311645,4.38348293 145.353372,4.38348293 L145.967479,4.36040976 C145.97338,4.36334634 145.983074,3.73114146 145.983074,3.73114146 C145.988132,1.89241951 145.476868,0.695131707 144.446331,0.182487805" id="Fill-11" fill="#ED1C23" sketch:type="MSShapeGroup"></path>
                <path d="M107.309479,18.6322146 C109.721231,15.1922146 112.096736,15.1972488 111.930248,19.3562927 C111.830355,21.9975415 110.781273,26.8403902 103.974669,28.5406732 C103.974669,28.5406732 104.885926,22.0952878 107.309479,18.6322146 M115.978636,32.5344293 C116.649223,30.804361 115.864413,28.3263024 114.347058,31.9999707 C114.347058,31.9999707 110.220273,42.3950634 105.398033,39.6300585 C103.524942,38.4080195 102.142463,36.2840293 103.448653,30.9331512 C103.448653,30.9331512 120.087298,28.6015024 117.22919,17.2809659 C116.884413,15.9217463 115.381388,12.8727317 110.731116,13.931161 C109.130306,14.2848098 105.959876,15.6637463 103.688058,17.8384976 C101.857116,19.7011317 98.3693058,23.4654146 97.7914463,31.5070439 C97.7914463,31.5070439 94.7247025,46.7672195 107.488612,43.5747317 C112.999562,42.2029268 115.307628,34.2661756 115.978636,32.5344293" id="Fill-12" fill="#ED1C23" sketch:type="MSShapeGroup"></path>
                <path d="M142.104967,33.6851512 C142.249116,33.6213854 142.468289,33.5500683 142.66976,33.5093756 C142.990934,33.4372195 143.209264,33.4514829 143.382917,33.5500683 C143.515264,33.6264195 143.619793,33.7707317 143.669107,33.9460878 C143.736967,34.2493951 143.574694,34.4981659 143.36395,34.6273756 L143.36395,34.6412195 C143.552355,34.6647122 143.693975,34.8044098 143.809041,35.0313659 C143.954033,35.3342537 144.060248,35.5423317 144.125157,35.6262341 L143.814942,35.6920976 C143.759727,35.6354634 143.669107,35.4445854 143.541818,35.1760976 C143.400198,34.8698537 143.245934,34.7813366 142.975339,34.8337756 L142.691256,34.8937659 L142.915066,35.8943024 L142.617074,35.9572293 L142.104967,33.6851512 L142.104967,33.6851512 Z M142.636884,34.6701659 L142.944149,34.5992683 C143.26743,34.5300488 143.426331,34.3127415 143.36943,34.0446732 C143.303678,33.7451415 143.058372,33.6713073 142.74057,33.7392683 C142.600636,33.7707317 142.500322,33.8080683 142.458174,33.833239 L142.636884,34.6701659 L142.636884,34.6701659 Z" id="Fill-13" fill="#1A1918" sketch:type="MSShapeGroup"></path>
                <path d="M142.537413,32.2449659 C141.91024,32.3888585 141.366521,32.765161 141.020058,33.3067512 C140.679496,33.8483415 140.561479,34.4960683 140.708157,35.121561 C140.995612,36.4249854 142.294636,37.2409366 143.599983,36.9556683 C144.224207,36.8117756 144.765818,36.4375707 145.113124,35.8943024 C145.362645,35.5049951 145.495835,35.0586341 145.495835,34.6084976 C145.495835,34.4306244 145.470545,34.2535902 145.434298,34.0786537 C145.140521,32.781522 143.841496,31.9596976 142.537413,32.2449659 M140.995612,35.0586341 C140.867901,34.5115902 140.965686,33.9414732 141.270421,33.4678439 C141.581479,32.9791122 142.052281,32.6548293 142.60738,32.5344293 C143.751719,32.2789463 144.896479,33.005961 145.140521,34.1453561 C145.269496,34.6886244 145.17424,35.2553854 144.870347,35.7382439 C144.563083,36.2185854 144.08638,36.5462244 143.535074,36.6666244 C142.389893,36.9212683 141.25314,36.1976098 140.995612,35.0586341" id="Fill-14" fill="#1A1918" sketch:type="MSShapeGroup"></path>
                <path d="M0.627173554,77.3572098 L1.94221488,77.3572098 L1.94221488,82.0893073 L4.37841322,82.0893073 L4.37841322,83.297922 L0.627173554,83.297922 L0.627173554,77.3572098" id="Fill-15" fill="#1A1918" sketch:type="MSShapeGroup"></path>
                <path d="M7.51428099,82.7856976 L7.49742149,82.7856976 C7.35706612,83.0034244 7.16992562,83.160322 6.93684298,83.2555512 C6.70333884,83.3507805 6.45761157,83.3986049 6.19923967,83.3986049 C6.0078843,83.3986049 5.8241157,83.3713366 5.64709091,83.3180585 C5.47006612,83.2652 5.3141157,83.1854927 5.17923967,83.0793561 C5.04436364,82.9732195 4.93730579,82.8419122 4.85890909,82.6850146 C4.78009091,82.5285366 4.74089256,82.3464683 4.74089256,82.1400683 C4.74089256,81.904722 4.78430579,81.7067122 4.87155372,81.5439415 C4.95880165,81.3820098 5.07639669,81.2477659 5.22560331,81.1412098 C5.37438843,81.0350732 5.54424793,80.9528488 5.73560331,80.8936976 C5.92653719,80.8345463 6.12463636,80.7917561 6.32990083,80.7636488 C6.5347438,80.7355415 6.74000826,80.7191805 6.94527273,80.7133073 C7.1501157,80.7078537 7.34020661,80.7049171 7.51428099,80.7049171 C7.51428099,80.4817366 7.43419835,80.3038634 7.27403306,80.1717171 C7.11386777,80.0408293 6.92419835,79.9753854 6.70502479,79.9753854 C6.4972314,79.9753854 6.3071405,80.0185951 6.13601653,80.1050146 C5.96447107,80.1914341 5.81147107,80.3101561 5.67659504,80.4620195 L5.00221488,79.7736 C5.23824793,79.5558732 5.51347934,79.3918439 5.82833058,79.2827707 C6.14318182,79.1736976 6.46899174,79.119161 6.80618182,79.119161 C7.17709091,79.119161 7.48182645,79.1653073 7.72080992,79.2576 C7.95979339,79.3498927 8.15072727,79.4858146 8.29403306,79.6645268 C8.43733884,79.8436585 8.53680992,80.0630634 8.59328926,80.3235805 C8.64934711,80.5832585 8.67758678,80.8840488 8.67758678,81.2251122 L8.67758678,83.297922 L7.51428099,83.297922 L7.51428099,82.7856976 L7.51428099,82.7856976 Z M7.20238017,81.5108 C7.10670248,81.5108 6.98742149,81.5149951 6.8441157,81.5229659 C6.70080992,81.5313561 6.56298347,81.5548488 6.43105785,81.5942829 C6.29871074,81.6337171 6.18659504,81.6920293 6.09386777,81.770478 C6.0011405,81.8493463 5.95477686,81.958 5.95477686,82.0976976 C5.95477686,82.2491415 6.01926446,82.3607317 6.14866116,82.4333073 C6.27805785,82.5063024 6.4125124,82.5423805 6.55328926,82.5423805 C6.67678512,82.5423805 6.79606612,82.5260195 6.91155372,82.4924585 C7.02661983,82.4588976 7.12946281,82.4110732 7.21923967,82.3498244 C7.30901653,82.2877366 7.38066942,82.2097073 7.43419835,82.114478 C7.48772727,82.0196683 7.51428099,81.9076585 7.51428099,81.7784488 L7.51428099,81.5108 L7.20238017,81.5108 L7.20238017,81.5108 Z" id="Fill-16" fill="#1A1918" sketch:type="MSShapeGroup"></path>
                <path d="M11.9651901,79.2198439 L13.1790744,79.2198439 L13.1790744,79.7736 L13.1959339,79.7736 C13.2351322,79.6955707 13.2911901,79.617122 13.3645289,79.5386732 C13.4374463,79.4606439 13.5242727,79.3905854 13.6258512,79.3289171 C13.7270083,79.2672488 13.8420744,79.2173268 13.9714711,79.1778927 C14.1004463,79.1384585 14.2412231,79.119161 14.3929587,79.119161 C14.6795702,79.119161 14.9337273,79.1778927 15.1558512,79.2953561 C15.3775537,79.413239 15.5448843,79.5974049 15.6574215,79.8491122 C15.8032562,79.586078 15.980281,79.3993951 16.1884959,79.2869659 C16.3962893,79.1749561 16.6521322,79.119161 16.9551818,79.119161 C17.2308347,79.119161 17.4626529,79.1653073 17.6506364,79.2576 C17.8390413,79.3498927 17.9882479,79.4757463 18.0974132,79.635161 C18.2074215,79.7945756 18.2858182,79.981678 18.3338678,80.1973073 C18.3814959,80.4129366 18.4055207,80.6432488 18.4055207,80.8895024 L18.4055207,83.297922 L17.1410579,83.297922 L17.1410579,80.9230634 C17.1410579,80.7330244 17.1001736,80.5694146 17.018405,80.4322341 C16.9370579,80.2950537 16.7924876,80.2266732 16.5846942,80.2266732 C16.438438,80.2266732 16.3162066,80.2505854 16.218,80.2979902 C16.1193719,80.3453951 16.0409752,80.4112585 15.9815455,80.495161 C15.9229587,80.5790634 15.8808099,80.6768098 15.8555207,80.7888195 C15.8302314,80.9012488 15.8175868,81.0182927 15.8175868,81.1412098 L15.8175868,83.297922 L14.553124,83.297922 L14.553124,81.1412098 C14.553124,81.0686341 14.5501736,80.9788585 14.5446942,80.872722 C14.5387934,80.7665854 14.519405,80.6659024 14.485686,80.5710927 C14.4519669,80.4758634 14.3971736,80.3948976 14.3213058,80.3277756 C14.245438,80.2602341 14.1341653,80.2266732 13.9883306,80.2266732 C13.8252149,80.2266732 13.6932893,80.2564585 13.5921322,80.3147707 C13.4909752,80.3735024 13.4134215,80.4519512 13.360314,80.5496976 C13.3067851,80.6478634 13.2718017,80.7581951 13.2549421,80.8815317 C13.2380826,81.0044488 13.2296529,81.1328195 13.2296529,81.2674829 L13.2296529,83.297922 L11.9651901,83.297922 L11.9651901,79.2198439" id="Fill-17" fill="#1A1918" sketch:type="MSShapeGroup"></path>
                <path d="M23.1763388,82.592722 C22.9740248,82.8503024 22.7186033,83.0487317 22.4096529,83.1888488 C22.100281,83.3281268 21.7799504,83.3986049 21.4486612,83.3986049 C21.1338099,83.3986049 20.8375041,83.3478439 20.5589008,83.2467415 C20.2811405,83.146478 20.0392066,83.0030049 19.8343636,82.8150634 C19.6290992,82.6275415 19.4672479,82.4026829 19.3496529,82.1400683 C19.2312149,81.8770341 19.1722066,81.5833756 19.1722066,81.2586732 C19.1722066,80.9343902 19.2312149,80.6407317 19.3496529,80.3776976 C19.4672479,80.1150829 19.6290992,79.8898049 19.8343636,79.7022829 C20.0392066,79.514761 20.2811405,79.3708683 20.5589008,79.2701854 C20.8375041,79.169922 21.1338099,79.119161 21.4486612,79.119161 C21.7407521,79.119161 22.0058678,79.169922 22.2448512,79.2701854 C22.4838347,79.3708683 22.6861488,79.514761 22.8522149,79.7022829 C23.0178595,79.8898049 23.1455702,80.1150829 23.2353471,80.3776976 C23.3255455,80.6407317 23.3706446,80.9343902 23.3706446,81.2586732 L23.3706446,81.6534341 L20.4366694,81.6534341 C20.4872479,81.8933951 20.5972562,82.0851122 20.7658512,82.2277463 C20.9344463,82.3703805 21.1422397,82.4416976 21.3896529,82.4416976 C21.5974463,82.4416976 21.7732066,82.3955512 21.9165124,82.302839 C22.0593967,82.2113854 22.1845785,82.0922439 22.2916364,81.9466732 L23.1763388,82.592722 L23.1763388,82.592722 Z M22.1061818,80.7972098 C22.1112397,80.5849366 22.0412727,80.4028683 21.895438,80.2522634 C21.7491818,80.1004 21.5607769,80.0253073 21.3302231,80.0253073 C21.1898678,80.0253073 21.0663719,80.0475415 20.9597355,80.0924293 C20.8526777,80.1373171 20.7612149,80.1947902 20.6857686,80.2644293 C20.6099008,80.3344878 20.5504711,80.4150341 20.5087438,80.5077463 C20.466595,80.600039 20.4425702,80.6961073 20.4366694,80.7972098 L22.1061818,80.7972098 L22.1061818,80.7972098 Z" id="Fill-18" fill="#1A1918" sketch:type="MSShapeGroup"></path>
                <path d="M25.4186529,83.5995512 C25.4186529,83.8621659 25.3933636,84.0991902 25.3427851,84.3089463 C25.2922066,84.5187024 25.2079091,84.6969951 25.0898926,84.8455024 C24.971876,84.9940098 24.8159256,85.1085366 24.6220413,85.1895024 C24.428157,85.2708878 24.1879091,85.3107415 23.9012975,85.3107415 C23.8056198,85.3107415 23.7074132,85.3069659 23.6062562,85.2985756 C23.5050992,85.2906049 23.4068926,85.2721463 23.3112149,85.244039 L23.3786529,84.1281366 C23.4798099,84.178478 23.5893967,84.2040683 23.7074132,84.2040683 C23.8140496,84.2040683 23.8983471,84.1755415 23.9603058,84.1197463 C24.0222645,84.0639512 24.0669421,83.9943122 24.0951818,83.9099902 C24.123,83.8260878 24.1398595,83.7363122 24.1457603,83.6415024 C24.1512397,83.5462732 24.1541901,83.4598537 24.1541901,83.3814049 L24.1541901,79.2198439 L25.4186529,79.2198439 L25.4186529,83.5995512 L25.4186529,83.5995512 Z M24.0530331,77.9361366 C24.0530331,77.7351902 24.124686,77.5631902 24.2679917,77.4205561 C24.4112975,77.2775024 24.5841074,77.2061854 24.7864215,77.2061854 C24.9887355,77.2061854 25.1615455,77.2775024 25.3048512,77.4205561 C25.448157,77.5631902 25.5198099,77.7351902 25.5198099,77.9361366 C25.5198099,78.1375024 25.448157,78.3095024 25.3048512,78.4521366 C25.1615455,78.5947707 24.9887355,78.6660878 24.7864215,78.6660878 C24.5841074,78.6660878 24.4112975,78.5947707 24.2679917,78.4521366 C24.124686,78.3095024 24.0530331,78.1375024 24.0530331,77.9361366 L24.0530331,77.9361366 Z" id="Fill-19" fill="#1A1918" sketch:type="MSShapeGroup"></path>
                <path d="M26.1773306,81.2586732 C26.1773306,80.9343902 26.2363388,80.6407317 26.3543554,80.3776976 C26.4723719,80.1150829 26.6338017,79.8898049 26.8390661,79.7022829 C27.0443306,79.514761 27.285843,79.3708683 27.5640248,79.2701854 C27.8422066,79.169922 28.1385124,79.119161 28.4533636,79.119161 C28.7682149,79.119161 29.0645207,79.169922 29.3427025,79.2701854 C29.6208843,79.3708683 29.8628182,79.514761 30.0676612,79.7022829 C30.2729256,79.8898049 30.4343554,80.1150829 30.5523719,80.3776976 C30.6703884,80.6407317 30.7293967,80.9343902 30.7293967,81.2586732 C30.7293967,81.5833756 30.6703884,81.8770341 30.5523719,82.1400683 C30.4343554,82.4026829 30.2729256,82.6275415 30.0676612,82.8150634 C29.8628182,83.0030049 29.6208843,83.146478 29.3427025,83.2467415 C29.0645207,83.3478439 28.7682149,83.3986049 28.4533636,83.3986049 C28.1385124,83.3986049 27.8422066,83.3478439 27.5640248,83.2467415 C27.285843,83.146478 27.0443306,83.0030049 26.8390661,82.8150634 C26.6338017,82.6275415 26.4723719,82.4026829 26.3543554,82.1400683 C26.2363388,81.8770341 26.1773306,81.5833756 26.1773306,81.2586732 L26.1773306,81.2586732 Z M27.4417934,81.2586732 C27.4417934,81.5665951 27.5303058,81.8153659 27.7073306,82.0054049 C27.8843554,82.1958634 28.1330331,82.2906732 28.4533636,82.2906732 C28.7736942,82.2906732 29.0223719,82.1958634 29.1993967,82.0054049 C29.3764215,81.8153659 29.4649339,81.5665951 29.4649339,81.2586732 C29.4649339,80.9511707 29.3764215,80.7019805 29.1993967,80.5119415 C29.0223719,80.3219024 28.7736942,80.2266732 28.4533636,80.2266732 C28.1330331,80.2266732 27.8843554,80.3219024 27.7073306,80.5119415 C27.5303058,80.7019805 27.4417934,80.9511707 27.4417934,81.2586732 L27.4417934,81.2586732 Z" id="Fill-20" fill="#1A1918" sketch:type="MSShapeGroup"></path>
                <path d="M31.4712149,79.2198439 L32.7356777,79.2198439 L32.7356777,79.8742829 L32.7525372,79.8742829 C32.8874132,79.6229951 33.0475785,79.4337951 33.2330331,79.308361 C33.4184876,79.1820878 33.6515702,79.119161 33.9327025,79.119161 C34.0056198,79.119161 34.0789587,79.1220976 34.151876,79.1275512 C34.2247934,79.1330049 34.2922314,79.1443317 34.3541901,79.1611122 L34.3541901,80.3101561 C34.2639917,80.2824683 34.1759008,80.2619122 34.0886529,80.2476488 C34.001405,80.2338049 33.9103636,80.2266732 33.814686,80.2266732 C33.5727521,80.2266732 33.3818182,80.2602341 33.2414628,80.3277756 C33.1011074,80.3948976 32.9927851,80.4880293 32.9169174,80.6084293 C32.8410496,80.7288293 32.7917355,80.872722 32.7693967,81.0405268 C32.7466364,81.2083317 32.7356777,81.3929171 32.7356777,81.5942829 L32.7356777,83.297922 L31.4712149,83.297922 L31.4712149,79.2198439" id="Fill-21" fill="#1A1918" sketch:type="MSShapeGroup"></path>
                <path d="M37.5149256,79.2198439 L38.6786529,79.2198439 L38.6786529,79.7568195 L38.6955124,79.7568195 C38.7456694,79.6842439 38.811843,79.6099902 38.8931901,79.534478 C38.9749587,79.4589659 39.0702149,79.3905854 39.1802231,79.3289171 C39.2893884,79.2672488 39.4090909,79.2173268 39.5384876,79.1778927 C39.6674628,79.1384585 39.8052893,79.119161 39.9515455,79.119161 C40.254595,79.119161 40.5302479,79.1711805 40.7776612,79.2748 C41.0246529,79.378 41.2366612,79.5235707 41.413686,79.7106732 C41.5907107,79.8981951 41.7272727,80.1201171 41.8229504,80.3776976 C41.9182066,80.6348585 41.9658347,80.9176098 41.9658347,81.2251122 C41.9658347,81.5108 41.9224215,81.7830634 41.8351736,82.043161 C41.7483471,82.302839 41.6244298,82.5339902 41.4642645,82.7357756 C41.3045207,82.936722 41.1089504,83.0978146 40.8783967,83.2177951 C40.6482645,83.3377756 40.3869421,83.3986049 40.0948512,83.3986049 C39.8305785,83.3986049 39.5848512,83.3574927 39.3572479,83.2765268 C39.1292231,83.1951415 38.9425041,83.0567024 38.7962479,82.8612098 L38.7793884,82.8612098 L38.7793884,85.210478 L37.5149256,85.210478 L37.5149256,79.2198439 L37.5149256,79.2198439 Z M38.6786529,81.2586732 C38.6786529,81.5665951 38.7671653,81.8153659 38.9441901,82.0054049 C39.1207934,82.1958634 39.3698926,82.2906732 39.6902231,82.2906732 C40.0101322,82.2906732 40.2592314,82.1958634 40.4362562,82.0054049 C40.6128595,81.8153659 40.7013719,81.5665951 40.7013719,81.2586732 C40.7013719,80.9511707 40.6128595,80.7019805 40.4362562,80.5119415 C40.2592314,80.3219024 40.0101322,80.2266732 39.6902231,80.2266732 C39.3698926,80.2266732 39.1207934,80.3219024 38.9441901,80.5119415 C38.7671653,80.7019805 38.6786529,80.9511707 38.6786529,81.2586732 L38.6786529,81.2586732 Z" id="Fill-22" fill="#1A1918" sketch:type="MSShapeGroup"></path>
                <path d="M45.2791488,82.7856976 L45.2622893,82.7856976 C45.1215124,83.0034244 44.9347934,83.160322 44.7017107,83.2555512 C44.4682066,83.3507805 44.2224793,83.3986049 43.9641074,83.3986049 C43.7727521,83.3986049 43.5889835,83.3713366 43.4119587,83.3180585 C43.2349339,83.2652 43.0789835,83.1854927 42.9441074,83.0793561 C42.8088099,82.9732195 42.7021736,82.8419122 42.6237769,82.6850146 C42.5449587,82.5285366 42.5057603,82.3464683 42.5057603,82.1400683 C42.5057603,81.904722 42.5491736,81.7067122 42.6364215,81.5439415 C42.7232479,81.3820098 42.8412645,81.2477659 42.9904711,81.1412098 C43.1392562,81.0350732 43.3091157,80.9528488 43.5004711,80.8936976 C43.691405,80.8345463 43.8895041,80.7917561 44.0947686,80.7636488 C44.2996116,80.7355415 44.504876,80.7191805 44.7101405,80.7133073 C44.9149835,80.7078537 45.1046529,80.7049171 45.2791488,80.7049171 C45.2791488,80.4817366 45.1990661,80.3038634 45.0384793,80.1717171 C44.8787355,80.0408293 44.6886446,79.9753854 44.4698926,79.9753854 C44.2616777,79.9753854 44.0720083,80.0185951 43.9008843,80.1050146 C43.7293388,80.1914341 43.5763388,80.3101561 43.4410413,80.4620195 L42.7670826,79.7736 C43.0026942,79.5558732 43.2783471,79.3918439 43.5931983,79.2827707 C43.9076281,79.1736976 44.2338595,79.119161 44.5710496,79.119161 C44.9415372,79.119161 45.2466942,79.1653073 45.4856777,79.2576 C45.7242397,79.3498927 45.9151736,79.4858146 46.0584793,79.6645268 C46.2022066,79.8436585 46.3016777,80.0630634 46.358157,80.3235805 C46.4142149,80.5832585 46.4424545,80.8840488 46.4424545,81.2251122 L46.4424545,83.297922 L45.2791488,83.297922 L45.2791488,82.7856976 L45.2791488,82.7856976 Z M44.9668264,81.5108 C44.8715702,81.5108 44.7522893,81.5149951 44.608562,81.5229659 C44.4656777,81.5313561 44.3278512,81.5548488 44.1955041,81.5942829 C44.0635785,81.6337171 43.9510413,81.6920293 43.8587355,81.770478 C43.7655868,81.8493463 43.7196446,81.958 43.7196446,82.0976976 C43.7196446,82.2491415 43.7841322,82.3607317 43.9135289,82.4333073 C44.0425041,82.5063024 44.1773802,82.5423805 44.318157,82.5423805 C44.4416529,82.5423805 44.5609339,82.5260195 44.6764215,82.4924585 C44.7914876,82.4588976 44.8939091,82.4110732 44.9841074,82.3498244 C45.0738843,82.2877366 45.1455372,82.2097073 45.1990661,82.114478 C45.2521736,82.0196683 45.2791488,81.9076585 45.2791488,81.7784488 L45.2791488,81.5108 L44.9668264,81.5108 L44.9668264,81.5108 Z" id="Fill-23" fill="#1A1918" sketch:type="MSShapeGroup"></path>
                <path d="M49.5526116,80.4196488 C49.367157,80.1901756 49.1226942,80.0756488 48.8192231,80.0756488 C48.7121653,80.0756488 48.6084793,80.1004 48.5073223,80.1515805 C48.4061653,80.2015024 48.3555868,80.2883415 48.3555868,80.4112585 C48.3555868,80.5119415 48.4074298,80.5866146 48.5115372,80.6336 C48.6152231,80.6814244 48.7475702,80.7233756 48.9077355,80.7594537 C49.0679008,80.7963707 49.2390248,80.8345463 49.4219504,80.8769171 C49.6044545,80.9192878 49.776,80.9847317 49.9361653,81.0740878 C50.0963306,81.1638634 50.2282562,81.285522 50.3323636,81.4390634 C50.4364711,81.5930244 50.488314,81.7981659 50.488314,82.0557463 C50.488314,82.3187805 50.4305702,82.5356683 50.3155041,82.7059902 C50.200438,82.8767317 50.0524959,83.0134927 49.8729421,83.1171122 C49.6929669,83.2207317 49.4906529,83.2937268 49.266,83.3352585 C49.0413471,83.3772098 48.8192231,83.3986049 48.6000496,83.3986049 C48.313438,83.3986049 48.023876,83.3574927 47.7317851,83.2765268 C47.4392727,83.1951415 47.192281,83.0516683 46.9899669,82.8448488 L47.7570744,81.9970146 C47.8750909,82.1425854 48.0057521,82.2529171 48.1490579,82.3284293 C48.2923636,82.4039415 48.4596942,82.4416976 48.6506281,82.4416976 C48.7968843,82.4416976 48.9288099,82.4211415 49.0468264,82.3787707 C49.164843,82.3368195 49.2238512,82.2600488 49.2238512,82.148039 C49.2238512,82.0414829 49.1720083,81.9621951 49.0679008,81.9089171 C48.9637934,81.855639 48.8318678,81.8115902 48.6717025,81.7746732 C48.5115372,81.7385951 48.3399917,81.699161 48.1574876,81.6572098 C47.974562,81.615678 47.803438,81.5523317 47.6432727,81.4684293 C47.4831074,81.3845268 47.3507603,81.2658049 47.2470744,81.1118439 C47.1429669,80.9578829 47.091124,80.7527415 47.091124,80.495161 C47.091124,80.2547805 47.1400165,80.0475415 47.2386446,79.8742829 C47.3368512,79.7006049 47.4662479,79.5579707 47.6264132,79.4463805 C47.7865785,79.3343707 47.9707686,79.2521463 48.178562,79.1988683 C48.3863554,79.1460098 48.5970992,79.119161 48.8107934,79.119161 C49.0805455,79.119161 49.3528264,79.1581756 49.6284793,79.2366244 C49.9037107,79.3150732 50.1372149,79.4547707 50.3281488,79.6561366 L49.5526116,80.4196488" id="Fill-24" fill="#1A1918" sketch:type="MSShapeGroup"></path>
                <path d="M53.9276529,80.2266732 L52.8149256,80.2266732 L52.8149256,81.5863122 C52.8149256,81.6979024 52.820405,81.7998439 52.8317851,81.8921366 C52.8431653,81.9844293 52.8684545,82.0641366 52.9076529,82.1312585 C52.9468512,82.197961 53.0075455,82.2499805 53.0888926,82.286478 C53.1702397,82.3225561 53.278562,82.3410146 53.413438,82.3410146 C53.480876,82.3410146 53.5693884,82.3343024 53.6789752,82.320039 C53.788562,82.3061951 53.8711736,82.2738927 53.9276529,82.2235512 L53.9276529,83.2723317 C53.7872975,83.3226732 53.6410413,83.3562341 53.4893058,83.3730146 C53.3375702,83.3897951 53.1887851,83.3986049 53.0425289,83.3986049 C52.8288347,83.3986049 52.6324215,83.3755317 52.4524463,83.3314829 C52.2724711,83.2861756 52.1152562,83.2148585 51.9803802,83.1171122 C51.8455041,83.0189463 51.7401322,82.8922537 51.6642645,82.7357756 C51.5883967,82.5792976 51.5504628,82.388839 51.5504628,82.1644 L51.5504628,80.2266732 L50.7412066,80.2266732 L50.7412066,79.2198439 L51.5504628,79.2198439 L51.5504628,78.0116488 L52.8149256,78.0116488 L52.8149256,79.2198439 L53.9276529,79.2198439 L53.9276529,80.2266732" id="Fill-25" fill="#1A1918" sketch:type="MSShapeGroup"></path>
                <path d="M57.1393884,82.7856976 L57.1225289,82.7856976 C56.9821736,83.0034244 56.7954545,83.160322 56.5619504,83.2555512 C56.3288678,83.3507805 56.0831405,83.3986049 55.8243471,83.3986049 C55.6334132,83.3986049 55.4492231,83.3713366 55.2721983,83.3180585 C55.0951736,83.2652 54.9392231,83.1854927 54.8043471,83.0793561 C54.6694711,82.9732195 54.5628347,82.8419122 54.4840165,82.6850146 C54.4056198,82.5285366 54.366,82.3464683 54.366,82.1400683 C54.366,81.904722 54.4094132,81.7067122 54.4966612,81.5439415 C54.5839091,81.3820098 54.7019256,81.2477659 54.8507107,81.1412098 C54.9994959,81.0350732 55.1697769,80.9528488 55.3607107,80.8936976 C55.5516446,80.8345463 55.7501653,80.7917561 55.9550083,80.7636488 C56.1602727,80.7355415 56.3651157,80.7191805 56.5703802,80.7133073 C56.7756446,80.7078537 56.965314,80.7049171 57.1393884,80.7049171 C57.1393884,80.4817366 57.0597273,80.3038634 56.8991405,80.1717171 C56.7389752,80.0408293 56.5493058,79.9753854 56.3305537,79.9753854 C56.1223388,79.9753854 55.9326694,80.0185951 55.761124,80.1050146 C55.5895785,80.1914341 55.4365785,80.3101561 55.3017025,80.4620195 L54.6273223,79.7736 C54.8633554,79.5558732 55.1385868,79.3918439 55.453438,79.2827707 C55.7682893,79.1736976 56.0940992,79.119161 56.4312893,79.119161 C56.8021983,79.119161 57.1069339,79.1653073 57.3459174,79.2576 C57.5849008,79.3498927 57.7758347,79.4858146 57.9191405,79.6645268 C58.0624463,79.8436585 58.1623388,80.0630634 58.2183967,80.3235805 C58.2744545,80.5832585 58.3026942,80.8840488 58.3026942,81.2251122 L58.3026942,83.297922 L57.1393884,83.297922 L57.1393884,82.7856976 L57.1393884,82.7856976 Z M56.8274876,81.5108 C56.7322314,81.5108 56.6125289,81.5149951 56.4692231,81.5229659 C56.3259174,81.5313561 56.1885124,81.5548488 56.0561653,81.5942829 C55.9242397,81.6337171 55.8117025,81.6920293 55.7189752,81.770478 C55.6262479,81.8493463 55.5798843,81.958 55.5798843,82.0976976 C55.5798843,82.2491415 55.6447934,82.3607317 55.7737686,82.4333073 C55.9031653,82.5063024 56.0380413,82.5423805 56.1783967,82.5423805 C56.302314,82.5423805 56.421595,82.5260195 56.5366612,82.4924585 C56.6517273,82.4588976 56.7545702,82.4110732 56.8443471,82.3498244 C56.9345455,82.2877366 57.0061983,82.2097073 57.0597273,82.114478 C57.1128347,82.0196683 57.1393884,81.9076585 57.1393884,81.7784488 L57.1393884,81.5108 L56.8274876,81.5108 L56.8274876,81.5108 Z" id="Fill-26" fill="#1A1918" sketch:type="MSShapeGroup"></path>
                <path d="M61.7078926,79.2198439 L62.8711983,79.2198439 L62.8711983,79.7568195 L62.8884793,79.7568195 C62.9386364,79.6842439 63.0048099,79.6099902 63.086157,79.534478 C63.1679256,79.4589659 63.2631818,79.3905854 63.3727686,79.3289171 C63.4823554,79.2672488 63.6016364,79.2173268 63.7314545,79.1778927 C63.8604298,79.1384585 63.9978347,79.119161 64.1440909,79.119161 C64.447562,79.119161 64.7232149,79.1711805 64.9706281,79.2748 C65.2176198,79.378 65.4296281,79.5235707 65.6066529,79.7106732 C65.7836777,79.8981951 65.9198182,80.1201171 66.0159174,80.3776976 C66.1111736,80.6348585 66.1588017,80.9176098 66.1588017,81.2251122 C66.1588017,81.5108 66.1153884,81.7830634 66.0281405,82.043161 C65.941314,82.302839 65.8173967,82.5339902 65.6572314,82.7357756 C65.4974876,82.936722 65.3019174,83.0978146 65.0713636,83.2177951 C64.8408099,83.3377756 64.5799091,83.3986049 64.2873967,83.3986049 C64.023124,83.3986049 63.7773967,83.3574927 63.5497934,83.2765268 C63.3221901,83.1951415 63.1354711,83.0567024 62.9892149,82.8612098 L62.9723554,82.8612098 L62.9723554,85.210478 L61.7078926,85.210478 L61.7078926,79.2198439 L61.7078926,79.2198439 Z M62.8711983,81.2586732 C62.8711983,81.5665951 62.9597107,81.8153659 63.1367355,82.0054049 C63.3137603,82.1958634 63.5628595,82.2906732 63.8827686,82.2906732 C64.2030992,82.2906732 64.4517769,82.1958634 64.6288017,82.0054049 C64.8058264,81.8153659 64.8943388,81.5665951 64.8943388,81.2586732 C64.8943388,80.9511707 64.8058264,80.7019805 64.6288017,80.5119415 C64.4517769,80.3219024 64.2030992,80.2266732 63.8827686,80.2266732 C63.5628595,80.2266732 63.3137603,80.3219024 63.1367355,80.5119415 C62.9597107,80.7019805 62.8711983,80.9511707 62.8711983,81.2586732 L62.8711983,81.2586732 Z" id="Fill-27" fill="#1A1918" sketch:type="MSShapeGroup"></path>
                <path d="M69.4716942,82.7856976 L69.4552562,82.7856976 C69.3144793,83.0034244 69.1277603,83.160322 68.8946777,83.2555512 C68.6607521,83.3507805 68.4154463,83.3986049 68.1570744,83.3986049 C67.9661405,83.3986049 67.7815289,83.3713366 67.6049256,83.3180585 C67.4279008,83.2652 67.2715289,83.1854927 67.1370744,83.0793561 C67.0017769,82.9732195 66.8951405,82.8419122 66.8163223,82.6850146 C66.7379256,82.5285366 66.6987273,82.3464683 66.6987273,82.1400683 C66.6987273,81.904722 66.7421405,81.7067122 66.8293884,81.5439415 C66.9162149,81.3820098 67.0342314,81.2477659 67.183438,81.1412098 C67.3318017,81.0350732 67.5020826,80.9528488 67.693438,80.8936976 C67.8847934,80.8345463 68.0820496,80.7917561 68.287314,80.7636488 C68.493,80.7355415 68.697843,80.7191805 68.9031074,80.7133073 C69.1079504,80.7078537 69.2971983,80.7049171 69.4716942,80.7049171 C69.4716942,80.4817366 69.3920331,80.3038634 69.2314463,80.1717171 C69.0717025,80.0408293 68.8816116,79.9753854 68.662438,79.9753854 C68.4542231,79.9753854 68.2649752,80.0185951 68.0938512,80.1050146 C67.9223058,80.1914341 67.7693058,80.3101561 67.6344298,80.4620195 L66.9600496,79.7736 C67.1956612,79.5558732 67.471314,79.3918439 67.7857438,79.2827707 C68.1001736,79.1736976 68.426405,79.119161 68.7640165,79.119161 C69.1349256,79.119161 69.4396612,79.1653073 69.6782231,79.2576 C69.9172066,79.3498927 70.1081405,79.4858146 70.2514463,79.6645268 C70.3947521,79.8436585 70.4950661,80.0630634 70.551124,80.3235805 C70.6071818,80.5832585 70.635,80.8840488 70.635,81.2251122 L70.635,83.297922 L69.4716942,83.297922 L69.4716942,82.7856976 L69.4716942,82.7856976 Z M69.1597934,81.5108 C69.0641157,81.5108 68.9448347,81.5149951 68.8015289,81.5229659 C68.6586446,81.5313561 68.5208182,81.5548488 68.3884711,81.5942829 C68.2565455,81.6337171 68.1440083,81.6920293 68.0517025,81.770478 C67.9585537,81.8493463 67.9126116,81.958 67.9126116,82.0976976 C67.9126116,82.2491415 67.9766777,82.3607317 68.1060744,82.4333073 C68.2354711,82.5063024 68.3703471,82.5423805 68.511124,82.5423805 C68.6346198,82.5423805 68.7539008,82.5260195 68.8693884,82.4924585 C68.9844545,82.4588976 69.0864545,82.4110732 69.1770744,82.3498244 C69.2668512,82.2877366 69.3385041,82.2097073 69.3920331,82.114478 C69.445562,82.0196683 69.4716942,81.9076585 69.4716942,81.7784488 L69.4716942,81.5108 L69.1597934,81.5108 L69.1597934,81.5108 Z" id="Fill-28" fill="#1A1918" sketch:type="MSShapeGroup"></path>
                <path d="M71.4273967,79.2198439 L72.6918595,79.2198439 L72.6918595,79.8742829 L72.708719,79.8742829 C72.843595,79.6229951 73.0037603,79.4337951 73.1896364,79.308361 C73.3746694,79.1820878 73.6081736,79.119161 73.8893058,79.119161 C73.9618017,79.119161 74.034719,79.1220976 74.1080579,79.1275512 C74.1809752,79.1330049 74.2484132,79.1443317 74.3107934,79.1611122 L74.3107934,80.3101561 C74.220595,80.2824683 74.1320826,80.2619122 74.0448347,80.2476488 C73.9580083,80.2338049 73.8665455,80.2266732 73.7708678,80.2266732 C73.5293554,80.2266732 73.338,80.2602341 73.1976446,80.3277756 C73.0572893,80.3948976 72.9489669,80.4880293 72.8735207,80.6084293 C72.7972314,80.7288293 72.7483388,80.872722 72.7255785,81.0405268 C72.7032397,81.2083317 72.6918595,81.3929171 72.6918595,81.5942829 L72.6918595,83.297922 L71.4273967,83.297922 L71.4273967,79.2198439" id="Fill-29" fill="#1A1918" sketch:type="MSShapeGroup"></path>
                <path d="M77.4293802,82.7856976 L77.4125207,82.7856976 C77.2717438,83.0034244 77.0850248,83.160322 76.8519421,83.2555512 C76.618438,83.3507805 76.3727107,83.3986049 76.1143388,83.3986049 C75.923405,83.3986049 75.7392149,83.3713366 75.5621901,83.3180585 C75.3851653,83.2652 75.2292149,83.1854927 75.0943388,83.0793561 C74.9594628,82.9732195 74.8528264,82.8419122 74.7740083,82.6850146 C74.6951901,82.5285366 74.6559917,82.3464683 74.6559917,82.1400683 C74.6559917,81.904722 74.699405,81.7067122 74.7866529,81.5439415 C74.8739008,81.3820098 74.9919174,81.2477659 75.1407025,81.1412098 C75.2894876,81.0350732 75.4593471,80.9528488 75.6507025,80.8936976 C75.8420579,80.8345463 76.0397355,80.7917561 76.245,80.7636488 C76.4502645,80.7355415 76.6551074,80.7191805 76.8599504,80.7133073 C77.0656364,80.7078537 77.2548843,80.7049171 77.4293802,80.7049171 C77.4293802,80.4817366 77.3492975,80.3038634 77.1891322,80.1717171 C77.0289669,80.0408293 76.8392975,79.9753854 76.620124,79.9753854 C76.4119091,79.9753854 76.2226612,80.0185951 76.0511157,80.1050146 C75.8795702,80.1914341 75.7265702,80.3101561 75.5916942,80.4620195 L74.917314,79.7736 C75.1533471,79.5558732 75.4285785,79.3918439 75.7434298,79.2827707 C76.0578595,79.1736976 76.3840909,79.119161 76.721281,79.119161 C77.0921901,79.119161 77.3969256,79.1653073 77.6359091,79.2576 C77.8748926,79.3498927 78.0658264,79.4858146 78.2091322,79.6645268 C78.3520165,79.8436585 78.4523306,80.0630634 78.5083884,80.3235805 C78.5644463,80.5832585 78.592686,80.8840488 78.592686,81.2251122 L78.592686,83.297922 L77.4293802,83.297922 L77.4293802,82.7856976 L77.4293802,82.7856976 Z M77.1174793,81.5108 C77.0218017,81.5108 76.9025207,81.5149951 76.7592149,81.5229659 C76.6159091,81.5313561 76.4780826,81.5548488 76.346157,81.5942829 C76.2138099,81.6337171 76.1016942,81.6920293 76.0089669,81.770478 C75.9162397,81.8493463 75.869876,81.958 75.869876,82.0976976 C75.869876,82.2491415 75.9343636,82.3607317 76.0637603,82.4333073 C76.193157,82.5063024 76.3280331,82.5423805 76.4683884,82.5423805 C76.5918843,82.5423805 76.7115868,82.5260195 76.8266529,82.4924585 C76.941719,82.4588976 77.0441405,82.4110732 77.1343388,82.3498244 C77.2241157,82.2877366 77.2957686,82.2097073 77.3492975,82.114478 C77.4028264,82.0196683 77.4293802,81.9076585 77.4293802,81.7784488 L77.4293802,81.5108 L77.1174793,81.5108 L77.1174793,81.5108 Z" id="Fill-30" fill="#1A1918" sketch:type="MSShapeGroup"></path>
                <path d="M85.7575537,82.592722 C85.5552397,82.8503024 85.2993967,83.0487317 84.9908678,83.1888488 C84.6814959,83.3281268 84.3607438,83.3986049 84.0294545,83.3986049 C83.7146033,83.3986049 83.4182975,83.3478439 83.1401157,83.2467415 C82.8619339,83.146478 82.6204215,83.0030049 82.415157,82.8150634 C82.2098926,82.6275415 82.0484628,82.4026829 81.9304463,82.1400683 C81.8128512,81.8770341 81.7534215,81.5833756 81.7534215,81.2586732 C81.7534215,80.9343902 81.8128512,80.6407317 81.9304463,80.3776976 C82.0484628,80.1150829 82.2098926,79.8898049 82.415157,79.7022829 C82.6204215,79.514761 82.8619339,79.3708683 83.1401157,79.2701854 C83.4182975,79.169922 83.7146033,79.119161 84.0294545,79.119161 C84.3219669,79.119161 84.5875041,79.169922 84.8260661,79.2701854 C85.0646281,79.3708683 85.2673636,79.514761 85.4330083,79.7022829 C85.5986529,79.8898049 85.7267851,80.1150829 85.816562,80.3776976 C85.9063388,80.6407317 85.951438,80.9343902 85.951438,81.2586732 L85.951438,81.6534341 L83.0178843,81.6534341 C83.0684628,81.8933951 83.1780496,82.0851122 83.3466446,82.2277463 C83.5156612,82.3703805 83.7234545,82.4416976 83.9704463,82.4416976 C84.1782397,82.4416976 84.354,82.3955512 84.4973058,82.302839 C84.6410331,82.2113854 84.7653719,82.0922439 84.8724298,81.9466732 L85.7575537,82.592722 L85.7575537,82.592722 Z M84.6869752,80.7972098 C84.6924545,80.5849366 84.6224876,80.4028683 84.4762314,80.2522634 C84.3299752,80.1004 84.1419917,80.0253073 83.911438,80.0253073 C83.7710826,80.0253073 83.6471653,80.0475415 83.5405289,80.0924293 C83.4334711,80.1373171 83.3424298,80.1947902 83.266562,80.2644293 C83.1906942,80.3344878 83.131686,80.4150341 83.0895372,80.5077463 C83.0473884,80.600039 83.0237851,80.6961073 83.0178843,80.7972098 L84.6869752,80.7972098 L84.6869752,80.7972098 Z" id="Fill-31" fill="#1A1918" sketch:type="MSShapeGroup"></path>
                <path d="M86.735405,76.9540585 L87.9998678,76.9540585 L87.9998678,83.2975024 L86.735405,83.2975024 L86.735405,76.9540585 Z" id="Fill-32" fill="#1A1918" sketch:type="MSShapeGroup"></path>
                <path d="M91.4813554,82.7856976 L91.4644959,82.7856976 C91.323719,83.0034244 91.137,83.160322 90.9039174,83.2555512 C90.6704132,83.3507805 90.424686,83.3986049 90.166314,83.3986049 C89.9753802,83.3986049 89.7911901,83.3713366 89.6141653,83.3180585 C89.436719,83.2652 89.2811901,83.1854927 89.146314,83.0793561 C89.011438,82.9732195 88.9048017,82.8419122 88.8259835,82.6850146 C88.7471653,82.5285366 88.7079669,82.3464683 88.7079669,82.1400683 C88.7079669,81.904722 88.7513802,81.7067122 88.8382066,81.5439415 C88.9254545,81.3820098 89.0438926,81.2477659 89.1926777,81.1412098 C89.3414628,81.0350732 89.5113223,80.9528488 89.7026777,80.8936976 C89.8936116,80.8345463 90.0917107,80.7917561 90.2965537,80.7636488 C90.5022397,80.7355415 90.7070826,80.7191805 90.9119256,80.7133073 C91.1176116,80.7078537 91.3068595,80.7049171 91.4813554,80.7049171 C91.4813554,80.4817366 91.4012727,80.3038634 91.2411074,80.1717171 C91.0809421,80.0408293 90.8912727,79.9753854 90.6720992,79.9753854 C90.4638843,79.9753854 90.2746364,80.0185951 90.1026694,80.1050146 C89.9315455,80.1914341 89.7785455,80.3101561 89.6436694,80.4620195 L88.9692893,79.7736 C89.2053223,79.5558732 89.4805537,79.3918439 89.795405,79.2827707 C90.1098347,79.1736976 90.4360661,79.119161 90.7732562,79.119161 C91.1441653,79.119161 91.4489008,79.1653073 91.6878843,79.2576 C91.9268678,79.3498927 92.1178017,79.4858146 92.2611074,79.6645268 C92.4039917,79.8436585 92.5043058,80.0630634 92.5599421,80.3235805 C92.6164215,80.5832585 92.6446612,80.8840488 92.6446612,81.2251122 L92.6446612,83.297922 L91.4813554,83.297922 L91.4813554,82.7856976 L91.4813554,82.7856976 Z M91.1694545,81.5108 C91.0737769,81.5108 90.9544959,81.5149951 90.8111901,81.5229659 C90.6678843,81.5313561 90.5300579,81.5548488 90.3981322,81.5942829 C90.2657851,81.6337171 90.1536694,81.6920293 90.0609421,81.770478 C89.9682149,81.8493463 89.9218512,81.958 89.9218512,82.0976976 C89.9218512,82.2491415 89.9863388,82.3607317 90.1157355,82.4333073 C90.2447107,82.5063024 90.3800083,82.5423805 90.5203636,82.5423805 C90.6438595,82.5423805 90.763562,82.5260195 90.8786281,82.4924585 C90.9936942,82.4588976 91.0961157,82.4110732 91.186314,82.3498244 C91.2760909,82.2877366 91.3477438,82.2097073 91.4012727,82.114478 C91.4543802,82.0196683 91.4813554,81.9076585 91.4813554,81.7784488 L91.4813554,81.5108 L91.1694545,81.5108 L91.1694545,81.5108 Z" id="Fill-33" fill="#1A1918" sketch:type="MSShapeGroup"></path>
                <path d="M93.5550744,76.9540585 L94.8195372,76.9540585 L94.8195372,79.6561366 L94.8363967,79.6561366 C94.9826529,79.4606439 95.1693719,79.3222049 95.3969752,79.241239 C95.6245785,79.1598537 95.8703058,79.119161 96.1345785,79.119161 C96.4266694,79.119161 96.6879917,79.1795707 96.9185455,79.2995512 C97.1486777,79.4195317 97.3442479,79.5806244 97.5044132,79.7819902 C97.6645785,79.9833561 97.7880744,80.2140878 97.8753223,80.4741854 C97.9625702,80.7342829 98.0059835,81.0069659 98.0059835,81.2922341 C98.0059835,81.6001561 97.9579339,81.8824878 97.8626777,82.1400683 C97.767,82.3972293 97.6308595,82.6191512 97.4538347,82.8070927 C97.2768099,82.9941951 97.0648017,83.1397659 96.8173884,83.2429659 C96.5699752,83.3465854 96.2947438,83.3986049 95.9912727,83.3986049 C95.845438,83.3986049 95.7071901,83.3788878 95.5782149,83.3394537 C95.4488182,83.3000195 95.3295372,83.2500976 95.2199504,83.1888488 C95.1103636,83.126761 95.014686,83.0583805 94.9333388,82.9832878 C94.8519917,82.9073561 94.7858182,82.8331024 94.7352397,82.7605268 L94.7183802,82.7605268 L94.7183802,83.297922 L93.5550744,83.297922 L93.5550744,76.9540585 L93.5550744,76.9540585 Z M94.7183802,81.2586732 C94.7183802,81.5665951 94.8068926,81.8153659 94.9839174,82.0054049 C95.1609421,82.1958634 95.4096198,82.2906732 95.7299504,82.2906732 C96.050281,82.2906732 96.2989587,82.1958634 96.4759835,82.0054049 C96.6534298,81.8153659 96.7415207,81.5665951 96.7415207,81.2586732 C96.7415207,80.9511707 96.6534298,80.7019805 96.4759835,80.5119415 C96.2989587,80.3219024 96.050281,80.2266732 95.7299504,80.2266732 C95.4096198,80.2266732 95.1609421,80.3219024 94.9839174,80.5119415 C94.8068926,80.7019805 94.7183802,80.9511707 94.7183802,81.2586732 L94.7183802,81.2586732 Z" id="Fill-34" fill="#1A1918" sketch:type="MSShapeGroup"></path>
                <path d="M98.5960661,81.2586732 C98.5960661,80.9343902 98.6550744,80.6407317 98.7730909,80.3776976 C98.8911074,80.1150829 99.0525372,79.8898049 99.2573802,79.7022829 C99.4626446,79.514761 99.7045785,79.3708683 99.9827603,79.2701854 C100.260942,79.169922 100.557248,79.119161 100.871678,79.119161 C101.186529,79.119161 101.482835,79.169922 101.761438,79.2701854 C102.03962,79.3708683 102.281132,79.514761 102.485975,79.7022829 C102.691661,79.8898049 102.852669,80.1150829 102.971107,80.3776976 C103.089124,80.6407317 103.148132,80.9343902 103.148132,81.2586732 C103.148132,81.5833756 103.089124,81.8770341 102.971107,82.1400683 C102.852669,82.4026829 102.691661,82.6275415 102.485975,82.8150634 C102.281132,83.0030049 102.03962,83.146478 101.761438,83.2467415 C101.482835,83.3478439 101.186529,83.3986049 100.871678,83.3986049 C100.557248,83.3986049 100.260942,83.3478439 99.9827603,83.2467415 C99.7045785,83.146478 99.4626446,83.0030049 99.2573802,82.8150634 C99.0525372,82.6275415 98.8911074,82.4026829 98.7730909,82.1400683 C98.6550744,81.8770341 98.5960661,81.5833756 98.5960661,81.2586732 L98.5960661,81.2586732 Z M99.8605289,81.2586732 C99.8605289,81.5665951 99.9490413,81.8153659 100.126066,82.0054049 C100.303091,82.1958634 100.551769,82.2906732 100.871678,82.2906732 C101.19243,82.2906732 101.441107,82.1958634 101.618132,82.0054049 C101.795157,81.8153659 101.883669,81.5665951 101.883669,81.2586732 C101.883669,80.9511707 101.795157,80.7019805 101.618132,80.5119415 C101.441107,80.3219024 101.19243,80.2266732 100.871678,80.2266732 C100.551769,80.2266732 100.303091,80.3219024 100.126066,80.5119415 C99.9490413,80.7019805 99.8605289,80.9511707 99.8605289,81.2586732 L99.8605289,81.2586732 Z" id="Fill-35" fill="#1A1918" sketch:type="MSShapeGroup"></path>
                <path d="M103.889529,79.2198439 L105.153992,79.2198439 L105.153992,79.8742829 L105.170851,79.8742829 C105.306149,79.6229951 105.466314,79.4337951 105.651769,79.308361 C105.836802,79.1820878 106.070306,79.119161 106.351438,79.119161 C106.424355,79.119161 106.497273,79.1220976 106.570612,79.1275512 C106.643529,79.1330049 106.710967,79.1443317 106.772926,79.1611122 L106.772926,80.3101561 C106.682727,80.2824683 106.594215,80.2619122 106.506967,80.2476488 C106.42014,80.2338049 106.329099,80.2266732 106.233421,80.2266732 C105.991909,80.2266732 105.800554,80.2602341 105.660198,80.3277756 C105.519843,80.3948976 105.411521,80.4880293 105.335653,80.6084293 C105.259364,80.7288293 105.210471,80.872722 105.188132,81.0405268 C105.165793,81.2083317 105.153992,81.3929171 105.153992,81.5942829 L105.153992,83.297922 L103.889529,83.297922 L103.889529,79.2198439" id="Fill-36" fill="#1A1918" sketch:type="MSShapeGroup"></path>
                <path d="M109.891934,82.7856976 L109.875074,82.7856976 C109.734298,83.0034244 109.547157,83.160322 109.314074,83.2555512 C109.080992,83.3507805 108.835264,83.3986049 108.576471,83.3986049 C108.385537,83.3986049 108.201769,83.3713366 108.024744,83.3180585 C107.847298,83.2652 107.691769,83.1854927 107.556893,83.0793561 C107.421595,82.9732195 107.314959,82.8419122 107.236562,82.6850146 C107.157322,82.5285366 107.118545,82.3464683 107.118545,82.1400683 C107.118545,81.904722 107.161959,81.7067122 107.248785,81.5439415 C107.336033,81.3820098 107.45405,81.2477659 107.603256,81.1412098 C107.752041,81.0350732 107.921901,80.9528488 108.113256,80.8936976 C108.30419,80.8345463 108.502289,80.7917561 108.707132,80.7636488 C108.912397,80.7355415 109.117661,80.7191805 109.322504,80.7133073 C109.527769,80.7078537 109.717438,80.7049171 109.891934,80.7049171 C109.891934,80.4817366 109.81143,80.3038634 109.651264,80.1717171 C109.491099,80.0408293 109.30143,79.9753854 109.082678,79.9753854 C108.874463,79.9753854 108.684793,80.0185951 108.513248,80.1050146 C108.342124,80.1914341 108.189124,80.3101561 108.053826,80.4620195 L107.379868,79.7736 C107.615479,79.5558732 107.891132,79.3918439 108.205983,79.2827707 C108.520413,79.1736976 108.846223,79.119161 109.183835,79.119161 C109.554744,79.119161 109.859479,79.1653073 110.098463,79.2576 C110.337025,79.3498927 110.527959,79.4858146 110.671264,79.6645268 C110.81457,79.8436585 110.914463,80.0630634 110.970521,80.3235805 C111.027,80.5832585 111.054818,80.8840488 111.054818,81.2251122 L111.054818,83.297922 L109.891934,83.297922 L109.891934,82.7856976 L109.891934,82.7856976 Z M109.579612,81.5108 C109.484355,81.5108 109.365074,81.5149951 109.221769,81.5229659 C109.078463,81.5313561 108.940636,81.5548488 108.808289,81.5942829 C108.676364,81.6337171 108.563826,81.6920293 108.471521,81.770478 C108.378793,81.8493463 108.332008,81.958 108.332008,82.0976976 C108.332008,82.2491415 108.396917,82.3607317 108.525893,82.4333073 C108.655289,82.5063024 108.790165,82.5423805 108.930521,82.5423805 C109.054017,82.5423805 109.17414,82.5260195 109.289207,82.4924585 C109.403851,82.4588976 109.506694,82.4110732 109.596471,82.3498244 C109.686248,82.2877366 109.757901,82.2097073 109.81143,82.114478 C109.864959,82.0196683 109.891934,81.9076585 109.891934,81.7784488 L109.891934,81.5108 L109.579612,81.5108 L109.579612,81.5108 Z" id="Fill-37" fill="#1A1918" sketch:type="MSShapeGroup"></path>
                <path d="M111.847215,79.2198439 L113.111678,79.2198439 L113.111678,79.8742829 L113.128537,79.8742829 C113.263835,79.6229951 113.423579,79.4337951 113.609455,79.308361 C113.794488,79.1820878 114.027992,79.119161 114.309124,79.119161 C114.382041,79.119161 114.454959,79.1220976 114.528298,79.1275512 C114.601215,79.1330049 114.668653,79.1443317 114.730612,79.1611122 L114.730612,80.3101561 C114.640413,80.2824683 114.551901,80.2619122 114.464653,80.2476488 C114.377826,80.2338049 114.286364,80.2266732 114.191107,80.2266732 C113.949595,80.2266732 113.75824,80.2602341 113.617884,80.3277756 C113.477529,80.3948976 113.369207,80.4880293 113.293339,80.6084293 C113.21705,80.7288293 113.168157,80.872722 113.145397,81.0405268 C113.123479,81.2083317 113.111678,81.3929171 113.111678,81.5942829 L113.111678,83.297922 L111.847215,83.297922 L111.847215,79.2198439" id="Fill-38" fill="#1A1918" sketch:type="MSShapeGroup"></path>
                <path d="M117.891347,76.9540585 L119.15581,76.9540585 L119.15581,79.6561366 L119.172669,79.6561366 C119.318926,79.4606439 119.505645,79.3222049 119.733248,79.241239 C119.960851,79.1598537 120.206579,79.119161 120.470851,79.119161 C120.763364,79.119161 121.024686,79.1795707 121.25524,79.2995512 C121.48495,79.4195317 121.680521,79.5806244 121.840686,79.7819902 C122.000851,79.9833561 122.124347,80.2140878 122.211595,80.4741854 C122.298843,80.7342829 122.342678,81.0069659 122.342678,81.2922341 C122.342678,81.6001561 122.294207,81.8824878 122.19895,82.1400683 C122.103273,82.3972293 121.967132,82.6191512 121.790107,82.8070927 C121.613083,82.9941951 121.401074,83.1397659 121.153661,83.2429659 C120.906248,83.3465854 120.631017,83.3986049 120.327545,83.3986049 C120.181711,83.3986049 120.043884,83.3788878 119.914488,83.3394537 C119.785091,83.3000195 119.66581,83.2500976 119.556223,83.1888488 C119.447058,83.126761 119.350959,83.0583805 119.270033,82.9832878 C119.188264,82.9073561 119.122091,82.8331024 119.071512,82.7605268 L119.054653,82.7605268 L119.054653,83.297922 L117.891347,83.297922 L117.891347,76.9540585 L117.891347,76.9540585 Z M119.054653,81.2586732 C119.054653,81.5665951 119.143165,81.8153659 119.320612,82.0054049 C119.497636,82.1958634 119.745893,82.2906732 120.066223,82.2906732 C120.386554,82.2906732 120.635231,82.1958634 120.812256,82.0054049 C120.989702,81.8153659 121.078215,81.5665951 121.078215,81.2586732 C121.078215,80.9511707 120.989702,80.7019805 120.812256,80.5119415 C120.635231,80.3219024 120.386554,80.2266732 120.066223,80.2266732 C119.745893,80.2266732 119.497636,80.3219024 119.320612,80.5119415 C119.143165,80.7019805 119.054653,80.9511707 119.054653,81.2586732 L119.054653,81.2586732 Z" id="Fill-39" fill="#1A1918" sketch:type="MSShapeGroup"></path>
                <path d="M122.932339,81.2586732 C122.932339,80.9343902 122.991347,80.6407317 123.109364,80.3776976 C123.22738,80.1150829 123.38881,79.8898049 123.593653,79.7022829 C123.799339,79.514761 124.040851,79.3708683 124.319033,79.2701854 C124.597215,79.169922 124.893521,79.119161 125.20795,79.119161 C125.523223,79.119161 125.819529,79.169922 126.097711,79.2701854 C126.375893,79.3708683 126.617405,79.514761 126.822669,79.7022829 C127.027934,79.8898049 127.189364,80.1150829 127.30738,80.3776976 C127.425397,80.6407317 127.484405,80.9343902 127.484405,81.2586732 C127.484405,81.5833756 127.425397,81.8770341 127.30738,82.1400683 C127.189364,82.4026829 127.027934,82.6275415 126.822669,82.8150634 C126.617405,83.0030049 126.375893,83.146478 126.097711,83.2467415 C125.819529,83.3478439 125.523223,83.3986049 125.20795,83.3986049 C124.893521,83.3986049 124.597215,83.3478439 124.319033,83.2467415 C124.040851,83.146478 123.799339,83.0030049 123.593653,82.8150634 C123.38881,82.6275415 123.22738,82.4026829 123.109364,82.1400683 C122.991347,81.8770341 122.932339,81.5833756 122.932339,81.2586732 L122.932339,81.2586732 Z M124.196802,81.2586732 C124.196802,81.5665951 124.285314,81.8153659 124.462339,82.0054049 C124.639364,82.1958634 124.888041,82.2906732 125.20795,82.2906732 C125.528702,82.2906732 125.77738,82.1958634 125.954405,82.0054049 C126.13143,81.8153659 126.219942,81.5665951 126.219942,81.2586732 C126.219942,80.9511707 126.13143,80.7019805 125.954405,80.5119415 C125.77738,80.3219024 125.528702,80.2266732 125.20795,80.2266732 C124.888041,80.2266732 124.639364,80.3219024 124.462339,80.5119415 C124.285314,80.7019805 124.196802,80.9511707 124.196802,81.2586732 L124.196802,81.2586732 Z" id="Fill-40" fill="#1A1918" sketch:type="MSShapeGroup"></path>
                <path d="M131.01605,80.2266732 L129.903322,80.2266732 L129.903322,81.5863122 C129.903322,81.6979024 129.908802,81.7998439 129.920182,81.8921366 C129.931562,81.9844293 129.956851,82.0641366 129.99605,82.1312585 C130.035669,82.197961 130.095521,82.2499805 130.177289,82.286478 C130.258636,82.3225561 130.366959,82.3410146 130.501835,82.3410146 C130.569273,82.3410146 130.657785,82.3343024 130.767372,82.320039 C130.876959,82.3061951 130.959992,82.2738927 131.01605,82.2235512 L131.01605,83.2723317 C130.875694,83.3226732 130.729438,83.3562341 130.577702,83.3730146 C130.425967,83.3897951 130.277182,83.3986049 130.130926,83.3986049 C129.917231,83.3986049 129.720818,83.3755317 129.540843,83.3314829 C129.360868,83.2861756 129.203653,83.2148585 129.068777,83.1171122 C128.933901,83.0189463 128.828529,82.8922537 128.752661,82.7357756 C128.676793,82.5792976 128.63886,82.388839 128.63886,82.1644 L128.63886,80.2266732 L127.829603,80.2266732 L127.829603,79.2198439 L128.63886,79.2198439 L128.63886,78.0116488 L129.903322,78.0116488 L129.903322,79.2198439 L131.01605,79.2198439 L131.01605,80.2266732" id="Fill-41" fill="#1A1918" sketch:type="MSShapeGroup"></path>
                <path d="M134.228207,82.7856976 L134.211347,82.7856976 C134.07057,83.0034244 133.883851,83.160322 133.650769,83.2555512 C133.417264,83.3507805 133.171537,83.3986049 132.913165,83.3986049 C132.722231,83.3986049 132.538041,83.3713366 132.361017,83.3180585 C132.18357,83.2652 132.028041,83.1854927 131.893165,83.0793561 C131.757868,82.9732195 131.651653,82.8419122 131.572835,82.6850146 C131.494017,82.5285366 131.454818,82.3464683 131.454818,82.1400683 C131.454818,81.904722 131.498231,81.7067122 131.585058,81.5439415 C131.672306,81.3820098 131.790744,81.2477659 131.939529,81.1412098 C132.088314,81.0350732 132.258174,80.9528488 132.449529,80.8936976 C132.640463,80.8345463 132.838562,80.7917561 133.043405,80.7636488 C133.249091,80.7355415 133.453934,80.7191805 133.658777,80.7133073 C133.864463,80.7078537 134.053711,80.7049171 134.228207,80.7049171 C134.228207,80.4817366 134.148124,80.3038634 133.987959,80.1717171 C133.827793,80.0408293 133.638124,79.9753854 133.41895,79.9753854 C133.210736,79.9753854 133.021488,80.0185951 132.849521,80.1050146 C132.678397,80.1914341 132.525397,80.3101561 132.390099,80.4620195 L131.71614,79.7736 C131.951752,79.5558732 132.227405,79.3918439 132.542256,79.2827707 C132.856686,79.1736976 133.182496,79.119161 133.520107,79.119161 C133.891017,79.119161 134.195752,79.1653073 134.434736,79.2576 C134.673298,79.3498927 134.864653,79.4858146 135.007537,79.6645268 C135.150843,79.8436585 135.251157,80.0630634 135.307215,80.3235805 C135.363273,80.5832585 135.391512,80.8840488 135.391512,81.2251122 L135.391512,83.297922 L134.228207,83.297922 L134.228207,82.7856976 L134.228207,82.7856976 Z M133.916306,81.5108 C133.820628,81.5108 133.701347,81.5149951 133.558041,81.5229659 C133.414736,81.5313561 133.276909,81.5548488 133.144983,81.5942829 C133.012636,81.6337171 132.900099,81.6920293 132.807793,81.770478 C132.715066,81.8493463 132.668702,81.958 132.668702,82.0976976 C132.668702,82.2491415 132.73319,82.3607317 132.862587,82.4333073 C132.991562,82.5063024 133.12686,82.5423805 133.267215,82.5423805 C133.390711,82.5423805 133.510413,82.5260195 133.625479,82.4924585 C133.740545,82.4588976 133.842967,82.4110732 133.933165,82.3498244 C134.022942,82.2877366 134.094595,82.2097073 134.148124,82.114478 C134.201231,82.0196683 134.228207,81.9076585 134.228207,81.7784488 L134.228207,81.5108 L133.916306,81.5108 L133.916306,81.5108 Z" id="Fill-42" fill="#1A1918" sketch:type="MSShapeGroup"></path>
                <path d="M136.183488,79.2198439 L137.397372,79.2198439 L137.397372,79.7736 L137.414653,79.7736 C137.45343,79.6955707 137.509909,79.617122 137.582826,79.5386732 C137.655744,79.4606439 137.742992,79.3905854 137.844149,79.3289171 C137.945306,79.2672488 138.060372,79.2173268 138.189769,79.1778927 C138.319165,79.1384585 138.459521,79.119161 138.611256,79.119161 C138.931587,79.119161 139.189959,79.1682439 139.386793,79.2659902 C139.583628,79.3641561 139.736628,79.4996585 139.846215,79.6729171 C139.955802,79.8465951 140.030405,80.050478 140.069603,80.2854049 C140.108802,80.5199122 140.128612,80.7749756 140.128612,81.0489171 L140.128612,83.297922 L138.864149,83.297922 L138.864149,81.3010439 C138.864149,81.183161 138.859934,81.0615024 138.851504,80.9356488 C138.843074,80.8097951 138.817785,80.6940098 138.775636,80.5874537 C138.733488,80.4817366 138.669,80.3948976 138.581752,80.3277756 C138.494504,80.2602341 138.369322,80.2266732 138.206628,80.2266732 C138.043512,80.2266732 137.911587,80.2564585 137.81043,80.3147707 C137.709273,80.3735024 137.631719,80.4519512 137.578612,80.5496976 C137.525083,80.6478634 137.490099,80.7581951 137.47324,80.8815317 C137.45638,81.0044488 137.44795,81.1328195 137.44795,81.2674829 L137.44795,83.297922 L136.183488,83.297922 L136.183488,79.2198439" id="Fill-43" fill="#1A1918" sketch:type="MSShapeGroup"></path>
                <path d="M143.593661,82.7856976 L143.576802,82.7856976 C143.436025,83.0034244 143.248884,83.160322 143.015802,83.2555512 C142.782719,83.3507805 142.536992,83.3986049 142.278198,83.3986049 C142.087264,83.3986049 141.903496,83.3713366 141.726471,83.3180585 C141.549025,83.2652 141.393496,83.1854927 141.25862,83.0793561 C141.123322,82.9732195 141.016686,82.8419122 140.938289,82.6850146 C140.85905,82.5285366 140.819851,82.3464683 140.819851,82.1400683 C140.819851,81.904722 140.863686,81.7067122 140.950512,81.5439415 C141.03776,81.3820098 141.155777,81.2477659 141.304983,81.1412098 C141.453769,81.0350732 141.623628,80.9528488 141.814983,80.8936976 C142.005917,80.8345463 142.204017,80.7917561 142.40886,80.7636488 C142.614124,80.7355415 142.819388,80.7191805 143.024231,80.7133073 C143.229496,80.7078537 143.419165,80.7049171 143.593661,80.7049171 C143.593661,80.4817366 143.513157,80.3038634 143.352992,80.1717171 C143.192826,80.0408293 143.003157,79.9753854 142.784405,79.9753854 C142.57619,79.9753854 142.386521,80.0185951 142.214975,80.1050146 C142.043851,80.1914341 141.890851,80.3101561 141.755554,80.4620195 L141.081595,79.7736 C141.317207,79.5558732 141.59286,79.3918439 141.907711,79.2827707 C142.22214,79.1736976 142.54795,79.119161 142.885562,79.119161 C143.256471,79.119161 143.561207,79.1653073 143.80019,79.2576 C144.038752,79.3498927 144.229686,79.4858146 144.372992,79.6645268 C144.516298,79.8436585 144.61619,80.0630634 144.672248,80.3235805 C144.728727,80.5832585 144.756545,80.8840488 144.756545,81.2251122 L144.756545,83.297922 L143.593661,83.297922 L143.593661,82.7856976 L143.593661,82.7856976 Z M143.281339,81.5108 C143.186083,81.5108 143.066802,81.5149951 142.923496,81.5229659 C142.78019,81.5313561 142.642364,81.5548488 142.510017,81.5942829 C142.378091,81.6337171 142.265554,81.6920293 142.173248,81.770478 C142.080521,81.8493463 142.033736,81.958 142.033736,82.0976976 C142.033736,82.2491415 142.098645,82.3607317 142.22762,82.4333073 C142.357017,82.5063024 142.491893,82.5423805 142.632248,82.5423805 C142.755744,82.5423805 142.875868,82.5260195 142.990934,82.4924585 C143.105579,82.4588976 143.208421,82.4110732 143.298198,82.3498244 C143.387975,82.2877366 143.459628,82.2097073 143.513157,82.114478 C143.566686,82.0196683 143.593661,81.9076585 143.593661,81.7784488 L143.593661,81.5108 L143.281339,81.5108 L143.281339,81.5108 Z" id="Fill-44" fill="#1A1918" sketch:type="MSShapeGroup"></path>
                <path d="M147.866702,80.4196488 C147.681669,80.1901756 147.437207,80.0756488 147.133736,80.0756488 C147.026678,80.0756488 146.922992,80.1004 146.821835,80.1515805 C146.720678,80.2015024 146.669678,80.2883415 146.669678,80.4112585 C146.669678,80.5119415 146.721521,80.5866146 146.82605,80.6336 C146.930157,80.6814244 147.062083,80.7233756 147.222248,80.7594537 C147.382413,80.7963707 147.553537,80.8345463 147.736463,80.8769171 C147.918967,80.9192878 148.090512,80.9847317 148.250256,81.0740878 C148.410421,81.1638634 148.542769,81.285522 148.646876,81.4390634 C148.750562,81.5930244 148.802826,81.7981659 148.802826,82.0557463 C148.802826,82.3187805 148.745083,82.5356683 148.630017,82.7059902 C148.514529,82.8767317 148.367008,83.0134927 148.187455,83.1171122 C148.007479,83.2207317 147.805165,83.2937268 147.580512,83.3352585 C147.355438,83.3772098 147.133736,83.3986049 146.914562,83.3986049 C146.62795,83.3986049 146.338388,83.3574927 146.046298,83.2765268 C145.754207,83.1951415 145.506793,83.0516683 145.304479,82.8448488 L146.071587,81.9970146 C146.189603,82.1425854 146.319843,82.2529171 146.46357,82.3284293 C146.606876,82.4039415 146.774207,82.4416976 146.96514,82.4416976 C147.110975,82.4416976 147.243322,82.4211415 147.361339,82.3787707 C147.478934,82.3368195 147.538364,82.2600488 147.538364,82.148039 C147.538364,82.0414829 147.486099,81.9621951 147.382413,81.9089171 C147.278306,81.855639 147.145959,81.8115902 146.985793,81.7746732 C146.82605,81.7385951 146.654504,81.699161 146.472,81.6572098 C146.289074,81.615678 146.11795,81.5523317 145.957785,81.4684293 C145.79762,81.3845268 145.665694,81.2658049 145.561587,81.1118439 C145.457058,80.9578829 145.405215,80.7527415 145.405215,80.495161 C145.405215,80.2547805 145.45495,80.0475415 145.553157,79.8742829 C145.651364,79.7006049 145.78076,79.5579707 145.940926,79.4463805 C146.101091,79.3343707 146.28486,79.2521463 146.493074,79.1988683 C146.700868,79.1460098 146.911612,79.119161 147.125306,79.119161 C147.395058,79.119161 147.66776,79.1581756 147.942992,79.2366244 C148.218223,79.3150732 148.451306,79.4547707 148.642661,79.6561366 L147.866702,80.4196488" id="Fill-45" fill="#1A1918" sketch:type="MSShapeGroup"></path>
                <path d="M152.192008,78.9253463 C152.192008,79.705639 151.576636,80.3185463 150.77581,80.3185463 C149.982992,80.3185463 149.35076,79.705639 149.35076,78.9253463 C149.35076,78.1614146 149.982992,77.5489268 150.77581,77.5489268 C151.576636,77.5489268 152.192008,78.1614146 152.192008,78.9253463 L152.192008,78.9253463 Z M149.70481,78.9253463 C149.70481,79.5378341 150.160017,80.0244683 150.783818,80.0244683 C151.391182,80.0244683 151.837959,79.5378341 151.837959,78.9337366 C151.837959,78.3208293 151.391182,77.8262244 150.77581,77.8262244 C150.160017,77.8262244 149.70481,78.3208293 149.70481,78.9253463 L149.70481,78.9253463 Z M150.556215,79.6469073 L150.235884,79.6469073 L150.235884,78.2709073 C150.362331,78.2457366 150.539355,78.2289561 150.766959,78.2289561 C151.028281,78.2289561 151.146719,78.2709073 151.247876,78.3292195 C151.323744,78.3883707 151.382752,78.4970244 151.382752,78.6312683 C151.382752,78.7827122 151.264736,78.9001756 151.095719,78.9500976 L151.095719,78.9672976 C151.231017,79.017639 151.306463,79.118322 151.349033,79.3029073 C151.391182,79.5126634 151.416471,79.5965659 151.449769,79.6469073 L151.10457,79.6469073 C151.062,79.5965659 151.037132,79.4702927 150.994562,79.3117171 C150.969694,79.1598537 150.884975,79.0931512 150.708372,79.0931512 L150.556215,79.0931512 L150.556215,79.6469073 L150.556215,79.6469073 Z M150.565066,78.8666146 L150.71638,78.8666146 C150.893826,78.8666146 151.037132,78.8074634 151.037132,78.6652488 C151.037132,78.5393951 150.943983,78.4554927 150.742091,78.4554927 C150.657372,78.4554927 150.598785,78.4634634 150.565066,78.4722732 L150.565066,78.8666146 L150.565066,78.8666146 Z" id="Fill-46" fill="#1A1918" sketch:type="MSShapeGroup"></path>
            </g>
        </g>
    </g>
</svg>