<?xml version="1.0" encoding="UTF-8" standalone="no"?>
<svg width="104px" height="104px" viewBox="0 0 104 104" version="1.1" xmlns="http://www.w3.org/2000/svg" xmlns:xlink="http://www.w3.org/1999/xlink" xmlns:sketch="http://www.bohemiancoding.com/sketch/ns">
    <!-- Generator: Sketch 3.1.1 (8761) - http://www.bohemiancoding.com/sketch -->
    <title>plus-hover</title>
    <desc>Created with Sketch.</desc>
    <defs></defs>
    <g id="Page-1" stroke="none" stroke-width="1" fill="none" fill-rule="evenodd" sketch:type="MSPage">
        <g id="Desktop-HD" sketch:type="MSArtboardGroup" transform="translate(-472.000000, -441.000000)">
            <g id="plus-hover" sketch:type="MSLayerGroup" transform="translate(472.000000, 441.000000)">
                <g id="Line" transform="translate(50.000000, 32.000000)" stroke-width="5" stroke="#FFFFFF" sketch:type="MSShapeGroup">
                    <path d="M2.5,0.5 L2.5,35.727829"></path>
                </g>
                <g id="Line-2" transform="translate(52.500000, 50.000000) rotate(-90.000000) translate(-52.500000, -50.000000) translate(50.000000, 32.000000)" stroke="#FFFFFF" stroke-width="5" sketch:type="MSShapeGroup">
                    <path d="M2.5,0.5 L2.5,35.727829" id="Line"></path>
                </g>
                <path d="M104,52 C104,23.281193 80.718807,0 52,0 C23.281193,0 0,23.281193 0,52 C0,80.718807 23.281193,104 52,104 C80.718807,104 104,80.718807 104,52 Z M4,52 C4,25.490332 25.490332,4 52,4 C78.509668,4 100,25.490332 100,52 C100,78.509668 78.509668,100 52,100 C25.490332,100 4,78.509668 4,52 Z" id="Oval-1" fill="#FFFFFF" sketch:type="MSShapeGroup"></path>
            </g>
        </g>
    </g>
</svg>